G04 #@! TF.GenerationSoftware,KiCad,Pcbnew,(5.1.12)-1*
G04 #@! TF.CreationDate,2024-10-20T15:32:40+08:00*
G04 #@! TF.ProjectId,Kicad_LFOV_RigidFlex_Assembly_Screwhole2,4b696361-645f-44c4-964f-565f52696769,rev?*
G04 #@! TF.SameCoordinates,Original*
G04 #@! TF.FileFunction,Copper,L2,Inr*
G04 #@! TF.FilePolarity,Positive*
%FSLAX46Y46*%
G04 Gerber Fmt 4.6, Leading zero omitted, Abs format (unit mm)*
G04 Created by KiCad (PCBNEW (5.1.12)-1) date 2024-10-20 15:32:40*
%MOMM*%
%LPD*%
G01*
G04 APERTURE LIST*
G04 #@! TA.AperFunction,ViaPad*
%ADD10C,0.350000*%
G04 #@! TD*
G04 #@! TA.AperFunction,Conductor*
%ADD11C,0.381000*%
G04 #@! TD*
G04 #@! TA.AperFunction,Conductor*
%ADD12C,0.304800*%
G04 #@! TD*
G04 #@! TA.AperFunction,Conductor*
%ADD13C,0.254000*%
G04 #@! TD*
G04 #@! TA.AperFunction,Conductor*
%ADD14C,0.203200*%
G04 #@! TD*
G04 #@! TA.AperFunction,Conductor*
%ADD15C,0.152400*%
G04 #@! TD*
G04 #@! TA.AperFunction,Conductor*
%ADD16C,0.100000*%
G04 #@! TD*
G04 APERTURE END LIST*
D10*
X112138200Y-109604600D03*
X94408200Y-110163400D03*
X93316000Y-111662000D03*
X91868200Y-111611200D03*
X93036600Y-110366600D03*
X116856200Y-115675200D03*
X115941800Y-114735400D03*
X113960600Y-115421200D03*
X119675600Y-108207600D03*
X119650200Y-114100400D03*
X111014200Y-111763600D03*
X109617200Y-111281000D03*
X107940800Y-111027000D03*
X108729000Y-108207600D03*
X107864600Y-114379800D03*
X107864600Y-113389200D03*
X97471400Y-116319600D03*
X92543800Y-107150200D03*
X96049000Y-107150200D03*
X95363200Y-107150200D03*
X90410200Y-113271600D03*
X89597400Y-116497400D03*
X93229600Y-116133800D03*
X94800000Y-113805000D03*
X98142000Y-112294200D03*
X96401810Y-112001600D03*
X97700000Y-108344000D03*
X99099400Y-116522800D03*
X98167388Y-114062788D03*
X98004800Y-110731600D03*
X104511800Y-113313000D03*
X119650200Y-115192600D03*
X96060000Y-116319000D03*
X98243600Y-107318600D03*
X94459000Y-109020400D03*
X119650200Y-112144600D03*
X119701800Y-109680800D03*
X117390400Y-108741000D03*
X106107300Y-108721100D03*
X120793200Y-111225800D03*
X116806200Y-107750400D03*
X107178799Y-112551000D03*
X89278200Y-106734400D03*
X93747800Y-114278200D03*
X104638800Y-115675200D03*
X106984600Y-113422600D03*
X106984600Y-113922600D03*
X106990800Y-107848200D03*
X98117400Y-115599000D03*
X89725000Y-115584000D03*
X113986000Y-114913200D03*
X110176000Y-115700600D03*
X110252200Y-115167200D03*
X105672600Y-112572700D03*
X104486400Y-113897200D03*
X105735400Y-115014800D03*
X120678980Y-113681220D03*
X120687200Y-107805600D03*
X118253200Y-113186000D03*
X115941800Y-115637600D03*
X113808200Y-107877400D03*
X110074400Y-111662000D03*
X120768600Y-111763600D03*
X113478000Y-115413200D03*
X112258800Y-113375200D03*
X118821691Y-114677141D03*
X118227800Y-111509600D03*
X117521000Y-115700600D03*
X105750600Y-114414600D03*
X112131800Y-115776800D03*
X112978000Y-115413200D03*
X93255000Y-107226400D03*
X90892800Y-113195400D03*
X98822000Y-111392000D03*
X97522200Y-114465400D03*
X99235000Y-106988404D03*
X104440040Y-111523400D03*
X109872000Y-109528400D03*
X99955520Y-109751900D03*
X104349720Y-109378520D03*
X92377994Y-112685594D03*
X92035800Y-113398604D03*
X91680200Y-113728798D03*
X93378000Y-112685586D03*
X109668000Y-112500200D03*
X117389600Y-111331800D03*
X115154400Y-114100400D03*
X114570200Y-108715600D03*
X93418400Y-115065600D03*
X104466560Y-112779580D03*
X99807320Y-114803080D03*
X114494000Y-114913200D03*
X92878000Y-112685618D03*
X117999200Y-111941400D03*
X115611600Y-108258400D03*
X110277600Y-112144604D03*
X92885000Y-114430600D03*
X104403060Y-112085416D03*
X99945360Y-112093780D03*
X93878000Y-108015602D03*
X93378000Y-108015606D03*
X92878000Y-108015602D03*
X92378000Y-108015602D03*
X91878000Y-108015586D03*
X90870200Y-108013800D03*
X89725000Y-107884000D03*
X90638800Y-109106000D03*
X90460000Y-107149000D03*
X90793002Y-109600600D03*
X91160000Y-107149000D03*
X91019800Y-110604600D03*
X91860000Y-107149000D03*
X90765800Y-111112600D03*
X95373400Y-116259400D03*
X91172200Y-114846400D03*
X94652000Y-107226400D03*
X93966200Y-107226400D03*
X89800600Y-109969600D03*
X96836400Y-113982800D03*
X93951000Y-116259400D03*
X94662200Y-116259400D03*
X98827800Y-110696800D03*
X98770398Y-107297171D03*
X97431600Y-115599000D03*
X104438680Y-110996500D03*
X120488400Y-114176600D03*
X117873000Y-114328996D03*
X120539200Y-108309200D03*
X117521000Y-107826600D03*
X118835630Y-108817200D03*
X107051800Y-115014800D03*
X105110100Y-114385200D03*
X121250400Y-115675200D03*
X118071000Y-115700600D03*
X121250400Y-109807800D03*
X117905700Y-109284540D03*
X118050800Y-115141800D03*
X117902925Y-108694725D03*
X96263200Y-108334600D03*
X111147600Y-108842600D03*
D11*
X104207480Y-115431340D02*
X99808200Y-115431340D01*
X104339560Y-108586040D02*
X99940280Y-108586040D01*
D12*
X100179020Y-109528400D02*
X99955520Y-109751900D01*
X100328900Y-109378520D02*
X100179020Y-109528400D01*
X104349720Y-109378520D02*
X100328900Y-109378520D01*
D13*
X100148560Y-112779580D02*
X100146020Y-112782120D01*
X104466560Y-112779580D02*
X100148560Y-112779580D01*
D14*
X99807320Y-113120820D02*
X100148560Y-112779580D01*
X99807320Y-114803080D02*
X99807320Y-113120820D01*
D13*
X104394696Y-112093780D02*
X104403060Y-112085416D01*
X99945360Y-112093780D02*
X104394696Y-112093780D01*
D15*
X90638800Y-108797800D02*
X89725000Y-107884000D01*
X90638800Y-109106000D02*
X90638800Y-108797800D01*
X91016999Y-108798399D02*
X91016999Y-109376603D01*
X91016999Y-109376603D02*
X90793002Y-109600600D01*
X90460000Y-108241400D02*
X91016999Y-108798399D01*
X90460000Y-107149000D02*
X90460000Y-108241400D01*
X91223000Y-108471000D02*
X91223000Y-107212000D01*
X91321803Y-108569803D02*
X91223000Y-108471000D01*
X91321803Y-110302597D02*
X91321803Y-108569803D01*
X91019800Y-110604600D02*
X91321803Y-110302597D01*
X91525199Y-107483801D02*
X91860000Y-107149000D01*
X91705600Y-108471000D02*
X91525199Y-108290599D01*
X91525199Y-108290599D02*
X91525199Y-107483801D01*
X91705600Y-110440946D02*
X91705600Y-108471000D01*
X91033946Y-111112600D02*
X91705600Y-110440946D01*
X90765800Y-111112600D02*
X91033946Y-111112600D01*
D12*
X99157721Y-111026721D02*
X98827800Y-110696800D01*
X104393159Y-111026721D02*
X99157721Y-111026721D01*
X104438680Y-110981200D02*
X104393159Y-111026721D01*
D14*
X121403600Y-114633800D02*
X121403600Y-110520738D01*
X118457200Y-109249000D02*
X117902925Y-108694725D01*
X121403600Y-110520738D02*
X120131862Y-109249000D01*
X120131862Y-109249000D02*
X118457200Y-109249000D01*
X120466599Y-115570801D02*
X121403600Y-114633800D01*
X118050800Y-115141800D02*
X118479801Y-115570801D01*
X118479801Y-115570801D02*
X120466599Y-115570801D01*
D13*
X111147600Y-108842600D02*
X107166600Y-108842600D01*
X107166600Y-108842600D02*
X106221700Y-107897700D01*
X96700100Y-107897700D02*
X96263200Y-108334600D01*
X106221700Y-107897700D02*
X96700100Y-107897700D01*
D15*
X100229840Y-106584534D02*
X100229840Y-107542100D01*
X99092148Y-107542100D01*
X99128064Y-107488347D01*
X99158488Y-107414897D01*
X99164267Y-107385841D01*
X99195249Y-107392004D01*
X99274751Y-107392004D01*
X99352726Y-107376494D01*
X99426176Y-107346070D01*
X99492280Y-107301901D01*
X99548497Y-107245684D01*
X99592666Y-107179580D01*
X99623090Y-107106130D01*
X99638600Y-107028155D01*
X99638600Y-106948653D01*
X99623090Y-106870678D01*
X99592666Y-106797228D01*
X99548497Y-106731124D01*
X99492280Y-106674907D01*
X99426176Y-106630738D01*
X99352726Y-106600314D01*
X99274751Y-106584804D01*
X99195249Y-106584804D01*
X99117274Y-106600314D01*
X99043824Y-106630738D01*
X98977720Y-106674907D01*
X98921503Y-106731124D01*
X98877334Y-106797228D01*
X98846910Y-106870678D01*
X98841131Y-106899734D01*
X98810149Y-106893571D01*
X98730647Y-106893571D01*
X98652672Y-106909081D01*
X98579222Y-106939505D01*
X98513118Y-106983674D01*
X98456901Y-107039891D01*
X98412732Y-107105995D01*
X98382308Y-107179445D01*
X98366798Y-107257420D01*
X98366798Y-107336922D01*
X98382308Y-107414897D01*
X98412732Y-107488347D01*
X98448648Y-107542100D01*
X96717555Y-107542100D01*
X96700100Y-107540381D01*
X96682644Y-107542100D01*
X96682637Y-107542100D01*
X96636666Y-107546628D01*
X96630389Y-107547246D01*
X96612740Y-107552600D01*
X96563360Y-107567579D01*
X96501584Y-107600599D01*
X96447437Y-107645037D01*
X96436306Y-107658601D01*
X96149122Y-107945784D01*
X96145474Y-107946510D01*
X96072024Y-107976934D01*
X96005920Y-108021103D01*
X95949703Y-108077320D01*
X95905534Y-108143424D01*
X95875110Y-108216874D01*
X95859600Y-108294849D01*
X95859600Y-108374351D01*
X95875110Y-108452326D01*
X95905534Y-108525776D01*
X95949703Y-108591880D01*
X96005920Y-108648097D01*
X96072024Y-108692266D01*
X96145474Y-108722690D01*
X96223449Y-108738200D01*
X96302951Y-108738200D01*
X96380926Y-108722690D01*
X96454376Y-108692266D01*
X96520480Y-108648097D01*
X96576697Y-108591880D01*
X96620866Y-108525776D01*
X96651290Y-108452326D01*
X96652016Y-108448678D01*
X96847394Y-108253300D01*
X100229840Y-108253300D01*
X100229840Y-109010426D01*
X100182392Y-109024819D01*
X100116204Y-109060198D01*
X100058189Y-109107809D01*
X100046254Y-109122352D01*
X99781463Y-109387143D01*
X99764344Y-109394234D01*
X99698240Y-109438403D01*
X99642023Y-109494620D01*
X99597854Y-109560724D01*
X99567430Y-109634174D01*
X99551920Y-109712149D01*
X99551920Y-109791651D01*
X99567430Y-109869626D01*
X99597854Y-109943076D01*
X99642023Y-110009180D01*
X99698240Y-110065397D01*
X99764344Y-110109566D01*
X99837794Y-110139990D01*
X99915769Y-110155500D01*
X99995271Y-110155500D01*
X100073246Y-110139990D01*
X100146696Y-110109566D01*
X100212800Y-110065397D01*
X100229840Y-110048357D01*
X100229840Y-110645721D01*
X99315536Y-110645721D01*
X99192557Y-110522742D01*
X99185466Y-110505624D01*
X99141297Y-110439520D01*
X99085080Y-110383303D01*
X99018976Y-110339134D01*
X98945526Y-110308710D01*
X98867551Y-110293200D01*
X98788049Y-110293200D01*
X98710074Y-110308710D01*
X98636624Y-110339134D01*
X98570520Y-110383303D01*
X98514303Y-110439520D01*
X98470134Y-110505624D01*
X98439710Y-110579074D01*
X98424200Y-110657049D01*
X98424200Y-110736551D01*
X98439710Y-110814526D01*
X98470134Y-110887976D01*
X98514303Y-110954080D01*
X98570520Y-111010297D01*
X98618659Y-111042462D01*
X98564720Y-111078503D01*
X98508503Y-111134720D01*
X98464334Y-111200824D01*
X98433910Y-111274274D01*
X98418400Y-111352249D01*
X98418400Y-111431751D01*
X98433910Y-111509726D01*
X98464334Y-111583176D01*
X98508503Y-111649280D01*
X98564720Y-111705497D01*
X98630824Y-111749666D01*
X98704274Y-111780090D01*
X98782249Y-111795600D01*
X98861751Y-111795600D01*
X98939726Y-111780090D01*
X99013176Y-111749666D01*
X99079280Y-111705497D01*
X99135497Y-111649280D01*
X99179666Y-111583176D01*
X99210090Y-111509726D01*
X99225600Y-111431751D01*
X99225600Y-111407721D01*
X100229840Y-111407721D01*
X100229840Y-111738180D01*
X100139628Y-111738180D01*
X100136536Y-111736114D01*
X100063086Y-111705690D01*
X99985111Y-111690180D01*
X99905609Y-111690180D01*
X99827634Y-111705690D01*
X99754184Y-111736114D01*
X99688080Y-111780283D01*
X99631863Y-111836500D01*
X99587694Y-111902604D01*
X99557270Y-111976054D01*
X99541760Y-112054029D01*
X99541760Y-112133531D01*
X99557270Y-112211506D01*
X99587694Y-112284956D01*
X99631863Y-112351060D01*
X99688080Y-112407277D01*
X99754184Y-112451446D01*
X99827634Y-112481870D01*
X99905609Y-112497380D01*
X99931887Y-112497380D01*
X99895897Y-112526917D01*
X99884762Y-112540485D01*
X99882225Y-112543022D01*
X99848920Y-112583605D01*
X99816029Y-112645138D01*
X99585302Y-112875866D01*
X99572705Y-112886204D01*
X99562368Y-112898800D01*
X99531441Y-112936483D01*
X99500781Y-112993847D01*
X99481899Y-113056091D01*
X99475523Y-113120820D01*
X99477121Y-113137043D01*
X99477120Y-114570798D01*
X99449654Y-114611904D01*
X99419230Y-114685354D01*
X99403720Y-114763329D01*
X99403720Y-114842831D01*
X99419230Y-114920806D01*
X99449654Y-114994256D01*
X99493823Y-115060360D01*
X99550040Y-115116577D01*
X99616144Y-115160746D01*
X99689594Y-115191170D01*
X99767569Y-115206680D01*
X99847071Y-115206680D01*
X99925046Y-115191170D01*
X99998496Y-115160746D01*
X100064600Y-115116577D01*
X100120817Y-115060360D01*
X100164986Y-114994256D01*
X100195410Y-114920806D01*
X100210920Y-114842831D01*
X100210920Y-114763329D01*
X100195410Y-114685354D01*
X100164986Y-114611904D01*
X100137520Y-114570798D01*
X100137520Y-113257593D01*
X100229840Y-113165273D01*
X100229840Y-116932134D01*
X89136200Y-116907966D01*
X89136200Y-116219649D01*
X93547400Y-116219649D01*
X93547400Y-116299151D01*
X93562910Y-116377126D01*
X93593334Y-116450576D01*
X93637503Y-116516680D01*
X93693720Y-116572897D01*
X93759824Y-116617066D01*
X93833274Y-116647490D01*
X93911249Y-116663000D01*
X93990751Y-116663000D01*
X94068726Y-116647490D01*
X94142176Y-116617066D01*
X94208280Y-116572897D01*
X94264497Y-116516680D01*
X94306600Y-116453668D01*
X94348703Y-116516680D01*
X94404920Y-116572897D01*
X94471024Y-116617066D01*
X94544474Y-116647490D01*
X94622449Y-116663000D01*
X94701951Y-116663000D01*
X94779926Y-116647490D01*
X94853376Y-116617066D01*
X94919480Y-116572897D01*
X94975697Y-116516680D01*
X95017800Y-116453668D01*
X95059903Y-116516680D01*
X95116120Y-116572897D01*
X95182224Y-116617066D01*
X95255674Y-116647490D01*
X95333649Y-116663000D01*
X95413151Y-116663000D01*
X95491126Y-116647490D01*
X95564576Y-116617066D01*
X95630680Y-116572897D01*
X95686897Y-116516680D01*
X95731066Y-116450576D01*
X95761490Y-116377126D01*
X95777000Y-116299151D01*
X95777000Y-116219649D01*
X95761490Y-116141674D01*
X95731066Y-116068224D01*
X95686897Y-116002120D01*
X95630680Y-115945903D01*
X95564576Y-115901734D01*
X95491126Y-115871310D01*
X95413151Y-115855800D01*
X95333649Y-115855800D01*
X95255674Y-115871310D01*
X95182224Y-115901734D01*
X95116120Y-115945903D01*
X95059903Y-116002120D01*
X95017800Y-116065132D01*
X94975697Y-116002120D01*
X94919480Y-115945903D01*
X94853376Y-115901734D01*
X94779926Y-115871310D01*
X94701951Y-115855800D01*
X94622449Y-115855800D01*
X94544474Y-115871310D01*
X94471024Y-115901734D01*
X94404920Y-115945903D01*
X94348703Y-116002120D01*
X94306600Y-116065132D01*
X94264497Y-116002120D01*
X94208280Y-115945903D01*
X94142176Y-115901734D01*
X94068726Y-115871310D01*
X93990751Y-115855800D01*
X93911249Y-115855800D01*
X93833274Y-115871310D01*
X93759824Y-115901734D01*
X93693720Y-115945903D01*
X93637503Y-116002120D01*
X93593334Y-116068224D01*
X93562910Y-116141674D01*
X93547400Y-116219649D01*
X89136200Y-116219649D01*
X89136200Y-115544249D01*
X89321400Y-115544249D01*
X89321400Y-115623751D01*
X89336910Y-115701726D01*
X89367334Y-115775176D01*
X89411503Y-115841280D01*
X89467720Y-115897497D01*
X89533824Y-115941666D01*
X89607274Y-115972090D01*
X89685249Y-115987600D01*
X89764751Y-115987600D01*
X89842726Y-115972090D01*
X89916176Y-115941666D01*
X89982280Y-115897497D01*
X90038497Y-115841280D01*
X90082666Y-115775176D01*
X90113090Y-115701726D01*
X90128600Y-115623751D01*
X90128600Y-115559249D01*
X97028000Y-115559249D01*
X97028000Y-115638751D01*
X97043510Y-115716726D01*
X97073934Y-115790176D01*
X97118103Y-115856280D01*
X97174320Y-115912497D01*
X97240424Y-115956666D01*
X97313874Y-115987090D01*
X97391849Y-116002600D01*
X97471351Y-116002600D01*
X97549326Y-115987090D01*
X97622776Y-115956666D01*
X97688880Y-115912497D01*
X97745097Y-115856280D01*
X97774500Y-115812275D01*
X97803903Y-115856280D01*
X97860120Y-115912497D01*
X97926224Y-115956666D01*
X97999674Y-115987090D01*
X98077649Y-116002600D01*
X98157151Y-116002600D01*
X98235126Y-115987090D01*
X98308576Y-115956666D01*
X98374680Y-115912497D01*
X98430897Y-115856280D01*
X98475066Y-115790176D01*
X98505490Y-115716726D01*
X98521000Y-115638751D01*
X98521000Y-115559249D01*
X98505490Y-115481274D01*
X98475066Y-115407824D01*
X98430897Y-115341720D01*
X98374680Y-115285503D01*
X98308576Y-115241334D01*
X98235126Y-115210910D01*
X98157151Y-115195400D01*
X98077649Y-115195400D01*
X97999674Y-115210910D01*
X97926224Y-115241334D01*
X97860120Y-115285503D01*
X97803903Y-115341720D01*
X97774500Y-115385725D01*
X97745097Y-115341720D01*
X97688880Y-115285503D01*
X97622776Y-115241334D01*
X97549326Y-115210910D01*
X97471351Y-115195400D01*
X97391849Y-115195400D01*
X97313874Y-115210910D01*
X97240424Y-115241334D01*
X97174320Y-115285503D01*
X97118103Y-115341720D01*
X97073934Y-115407824D01*
X97043510Y-115481274D01*
X97028000Y-115559249D01*
X90128600Y-115559249D01*
X90128600Y-115544249D01*
X90113090Y-115466274D01*
X90082666Y-115392824D01*
X90038497Y-115326720D01*
X89982280Y-115270503D01*
X89916176Y-115226334D01*
X89842726Y-115195910D01*
X89764751Y-115180400D01*
X89685249Y-115180400D01*
X89607274Y-115195910D01*
X89533824Y-115226334D01*
X89467720Y-115270503D01*
X89411503Y-115326720D01*
X89367334Y-115392824D01*
X89336910Y-115466274D01*
X89321400Y-115544249D01*
X89136200Y-115544249D01*
X89136200Y-114806649D01*
X90768600Y-114806649D01*
X90768600Y-114886151D01*
X90784110Y-114964126D01*
X90814534Y-115037576D01*
X90858703Y-115103680D01*
X90914920Y-115159897D01*
X90981024Y-115204066D01*
X91054474Y-115234490D01*
X91132449Y-115250000D01*
X91211951Y-115250000D01*
X91289926Y-115234490D01*
X91363376Y-115204066D01*
X91429480Y-115159897D01*
X91485697Y-115103680D01*
X91529866Y-115037576D01*
X91534723Y-115025849D01*
X93014800Y-115025849D01*
X93014800Y-115105351D01*
X93030310Y-115183326D01*
X93060734Y-115256776D01*
X93104903Y-115322880D01*
X93161120Y-115379097D01*
X93227224Y-115423266D01*
X93300674Y-115453690D01*
X93378649Y-115469200D01*
X93458151Y-115469200D01*
X93536126Y-115453690D01*
X93609576Y-115423266D01*
X93675680Y-115379097D01*
X93731897Y-115322880D01*
X93776066Y-115256776D01*
X93806490Y-115183326D01*
X93822000Y-115105351D01*
X93822000Y-115025849D01*
X93806490Y-114947874D01*
X93776066Y-114874424D01*
X93731897Y-114808320D01*
X93675680Y-114752103D01*
X93609576Y-114707934D01*
X93536126Y-114677510D01*
X93458151Y-114662000D01*
X93378649Y-114662000D01*
X93300674Y-114677510D01*
X93227224Y-114707934D01*
X93161120Y-114752103D01*
X93104903Y-114808320D01*
X93060734Y-114874424D01*
X93030310Y-114947874D01*
X93014800Y-115025849D01*
X91534723Y-115025849D01*
X91560290Y-114964126D01*
X91575800Y-114886151D01*
X91575800Y-114806649D01*
X91560290Y-114728674D01*
X91529866Y-114655224D01*
X91485697Y-114589120D01*
X91429480Y-114532903D01*
X91363376Y-114488734D01*
X91289926Y-114458310D01*
X91211951Y-114442800D01*
X91132449Y-114442800D01*
X91054474Y-114458310D01*
X90981024Y-114488734D01*
X90914920Y-114532903D01*
X90858703Y-114589120D01*
X90814534Y-114655224D01*
X90784110Y-114728674D01*
X90768600Y-114806649D01*
X89136200Y-114806649D01*
X89136200Y-114390849D01*
X92481400Y-114390849D01*
X92481400Y-114470351D01*
X92496910Y-114548326D01*
X92527334Y-114621776D01*
X92571503Y-114687880D01*
X92627720Y-114744097D01*
X92693824Y-114788266D01*
X92767274Y-114818690D01*
X92845249Y-114834200D01*
X92924751Y-114834200D01*
X93002726Y-114818690D01*
X93076176Y-114788266D01*
X93142280Y-114744097D01*
X93198497Y-114687880D01*
X93242666Y-114621776D01*
X93273090Y-114548326D01*
X93288600Y-114470351D01*
X93288600Y-114425649D01*
X97118600Y-114425649D01*
X97118600Y-114505151D01*
X97134110Y-114583126D01*
X97164534Y-114656576D01*
X97208703Y-114722680D01*
X97264920Y-114778897D01*
X97331024Y-114823066D01*
X97404474Y-114853490D01*
X97482449Y-114869000D01*
X97561951Y-114869000D01*
X97639926Y-114853490D01*
X97713376Y-114823066D01*
X97779480Y-114778897D01*
X97835697Y-114722680D01*
X97879866Y-114656576D01*
X97910290Y-114583126D01*
X97925800Y-114505151D01*
X97925800Y-114425649D01*
X97910290Y-114347674D01*
X97879866Y-114274224D01*
X97835697Y-114208120D01*
X97779480Y-114151903D01*
X97713376Y-114107734D01*
X97639926Y-114077310D01*
X97561951Y-114061800D01*
X97482449Y-114061800D01*
X97404474Y-114077310D01*
X97331024Y-114107734D01*
X97264920Y-114151903D01*
X97208703Y-114208120D01*
X97164534Y-114274224D01*
X97134110Y-114347674D01*
X97118600Y-114425649D01*
X93288600Y-114425649D01*
X93288600Y-114390849D01*
X93273090Y-114312874D01*
X93242666Y-114239424D01*
X93198497Y-114173320D01*
X93142280Y-114117103D01*
X93076176Y-114072934D01*
X93002726Y-114042510D01*
X92924751Y-114027000D01*
X92845249Y-114027000D01*
X92767274Y-114042510D01*
X92693824Y-114072934D01*
X92627720Y-114117103D01*
X92571503Y-114173320D01*
X92527334Y-114239424D01*
X92496910Y-114312874D01*
X92481400Y-114390849D01*
X89136200Y-114390849D01*
X89136200Y-113689047D01*
X91276600Y-113689047D01*
X91276600Y-113768549D01*
X91292110Y-113846524D01*
X91322534Y-113919974D01*
X91366703Y-113986078D01*
X91422920Y-114042295D01*
X91489024Y-114086464D01*
X91562474Y-114116888D01*
X91640449Y-114132398D01*
X91719951Y-114132398D01*
X91797926Y-114116888D01*
X91871376Y-114086464D01*
X91937480Y-114042295D01*
X91993697Y-113986078D01*
X92022447Y-113943049D01*
X96432800Y-113943049D01*
X96432800Y-114022551D01*
X96448310Y-114100526D01*
X96478734Y-114173976D01*
X96522903Y-114240080D01*
X96579120Y-114296297D01*
X96645224Y-114340466D01*
X96718674Y-114370890D01*
X96796649Y-114386400D01*
X96876151Y-114386400D01*
X96954126Y-114370890D01*
X97027576Y-114340466D01*
X97093680Y-114296297D01*
X97149897Y-114240080D01*
X97194066Y-114173976D01*
X97224490Y-114100526D01*
X97240000Y-114022551D01*
X97240000Y-113943049D01*
X97224490Y-113865074D01*
X97194066Y-113791624D01*
X97149897Y-113725520D01*
X97093680Y-113669303D01*
X97027576Y-113625134D01*
X96954126Y-113594710D01*
X96876151Y-113579200D01*
X96796649Y-113579200D01*
X96718674Y-113594710D01*
X96645224Y-113625134D01*
X96579120Y-113669303D01*
X96522903Y-113725520D01*
X96478734Y-113791624D01*
X96448310Y-113865074D01*
X96432800Y-113943049D01*
X92022447Y-113943049D01*
X92037866Y-113919974D01*
X92068290Y-113846524D01*
X92077170Y-113801882D01*
X92153526Y-113786694D01*
X92226976Y-113756270D01*
X92293080Y-113712101D01*
X92349297Y-113655884D01*
X92393466Y-113589780D01*
X92423890Y-113516330D01*
X92439400Y-113438355D01*
X92439400Y-113358853D01*
X92423890Y-113280878D01*
X92393466Y-113207428D01*
X92349297Y-113141324D01*
X92293080Y-113085107D01*
X92282646Y-113078135D01*
X92338243Y-113089194D01*
X92417745Y-113089194D01*
X92495720Y-113073684D01*
X92569170Y-113043260D01*
X92627979Y-113003965D01*
X92686824Y-113043284D01*
X92760274Y-113073708D01*
X92838249Y-113089218D01*
X92917751Y-113089218D01*
X92995726Y-113073708D01*
X93069176Y-113043284D01*
X93128024Y-113003963D01*
X93186824Y-113043252D01*
X93260274Y-113073676D01*
X93338249Y-113089186D01*
X93417751Y-113089186D01*
X93495726Y-113073676D01*
X93569176Y-113043252D01*
X93635280Y-112999083D01*
X93691497Y-112942866D01*
X93735666Y-112876762D01*
X93766090Y-112803312D01*
X93781600Y-112725337D01*
X93781600Y-112645835D01*
X93766090Y-112567860D01*
X93735666Y-112494410D01*
X93691497Y-112428306D01*
X93635280Y-112372089D01*
X93569176Y-112327920D01*
X93495726Y-112297496D01*
X93417751Y-112281986D01*
X93338249Y-112281986D01*
X93260274Y-112297496D01*
X93186824Y-112327920D01*
X93127976Y-112367241D01*
X93069176Y-112327952D01*
X92995726Y-112297528D01*
X92917751Y-112282018D01*
X92838249Y-112282018D01*
X92760274Y-112297528D01*
X92686824Y-112327952D01*
X92628015Y-112367247D01*
X92569170Y-112327928D01*
X92495720Y-112297504D01*
X92417745Y-112281994D01*
X92338243Y-112281994D01*
X92260268Y-112297504D01*
X92186818Y-112327928D01*
X92120714Y-112372097D01*
X92064497Y-112428314D01*
X92020328Y-112494418D01*
X91989904Y-112567868D01*
X91974394Y-112645843D01*
X91974394Y-112725345D01*
X91989904Y-112803320D01*
X92020328Y-112876770D01*
X92064497Y-112942874D01*
X92120714Y-112999091D01*
X92131148Y-113006063D01*
X92075551Y-112995004D01*
X91996049Y-112995004D01*
X91918074Y-113010514D01*
X91844624Y-113040938D01*
X91778520Y-113085107D01*
X91722303Y-113141324D01*
X91678134Y-113207428D01*
X91647710Y-113280878D01*
X91638830Y-113325520D01*
X91562474Y-113340708D01*
X91489024Y-113371132D01*
X91422920Y-113415301D01*
X91366703Y-113471518D01*
X91322534Y-113537622D01*
X91292110Y-113611072D01*
X91276600Y-113689047D01*
X89136200Y-113689047D01*
X89136200Y-113155649D01*
X90489200Y-113155649D01*
X90489200Y-113235151D01*
X90504710Y-113313126D01*
X90535134Y-113386576D01*
X90579303Y-113452680D01*
X90635520Y-113508897D01*
X90701624Y-113553066D01*
X90775074Y-113583490D01*
X90853049Y-113599000D01*
X90932551Y-113599000D01*
X91010526Y-113583490D01*
X91083976Y-113553066D01*
X91150080Y-113508897D01*
X91206297Y-113452680D01*
X91250466Y-113386576D01*
X91280890Y-113313126D01*
X91296400Y-113235151D01*
X91296400Y-113155649D01*
X91280890Y-113077674D01*
X91250466Y-113004224D01*
X91206297Y-112938120D01*
X91150080Y-112881903D01*
X91083976Y-112837734D01*
X91010526Y-112807310D01*
X90932551Y-112791800D01*
X90853049Y-112791800D01*
X90775074Y-112807310D01*
X90701624Y-112837734D01*
X90635520Y-112881903D01*
X90579303Y-112938120D01*
X90535134Y-113004224D01*
X90504710Y-113077674D01*
X90489200Y-113155649D01*
X89136200Y-113155649D01*
X89136200Y-109929849D01*
X89397000Y-109929849D01*
X89397000Y-110009351D01*
X89412510Y-110087326D01*
X89442934Y-110160776D01*
X89487103Y-110226880D01*
X89543320Y-110283097D01*
X89609424Y-110327266D01*
X89682874Y-110357690D01*
X89760849Y-110373200D01*
X89840351Y-110373200D01*
X89918326Y-110357690D01*
X89991776Y-110327266D01*
X90057880Y-110283097D01*
X90114097Y-110226880D01*
X90158266Y-110160776D01*
X90188690Y-110087326D01*
X90204200Y-110009351D01*
X90204200Y-109929849D01*
X90188690Y-109851874D01*
X90158266Y-109778424D01*
X90114097Y-109712320D01*
X90057880Y-109656103D01*
X89991776Y-109611934D01*
X89918326Y-109581510D01*
X89840351Y-109566000D01*
X89760849Y-109566000D01*
X89682874Y-109581510D01*
X89609424Y-109611934D01*
X89543320Y-109656103D01*
X89487103Y-109712320D01*
X89442934Y-109778424D01*
X89412510Y-109851874D01*
X89397000Y-109929849D01*
X89136200Y-109929849D01*
X89136200Y-107844249D01*
X89321400Y-107844249D01*
X89321400Y-107923751D01*
X89336910Y-108001726D01*
X89367334Y-108075176D01*
X89411503Y-108141280D01*
X89467720Y-108197497D01*
X89533824Y-108241666D01*
X89607274Y-108272090D01*
X89685249Y-108287600D01*
X89697549Y-108287600D01*
X90298613Y-108888665D01*
X90281134Y-108914824D01*
X90250710Y-108988274D01*
X90235200Y-109066249D01*
X90235200Y-109145751D01*
X90250710Y-109223726D01*
X90281134Y-109297176D01*
X90325303Y-109363280D01*
X90381520Y-109419497D01*
X90420402Y-109445477D01*
X90404912Y-109482874D01*
X90389402Y-109560849D01*
X90389402Y-109640351D01*
X90404912Y-109718326D01*
X90435336Y-109791776D01*
X90479505Y-109857880D01*
X90535722Y-109914097D01*
X90601826Y-109958266D01*
X90675276Y-109988690D01*
X90753251Y-110004200D01*
X90832753Y-110004200D01*
X90910728Y-109988690D01*
X90984178Y-109958266D01*
X91017003Y-109936333D01*
X91017003Y-110176345D01*
X90992348Y-110201000D01*
X90980049Y-110201000D01*
X90902074Y-110216510D01*
X90828624Y-110246934D01*
X90762520Y-110291103D01*
X90706303Y-110347320D01*
X90662134Y-110413424D01*
X90631710Y-110486874D01*
X90616200Y-110564849D01*
X90616200Y-110644351D01*
X90631710Y-110722326D01*
X90634879Y-110729976D01*
X90574624Y-110754934D01*
X90508520Y-110799103D01*
X90452303Y-110855320D01*
X90408134Y-110921424D01*
X90377710Y-110994874D01*
X90362200Y-111072849D01*
X90362200Y-111152351D01*
X90377710Y-111230326D01*
X90408134Y-111303776D01*
X90452303Y-111369880D01*
X90508520Y-111426097D01*
X90574624Y-111470266D01*
X90648074Y-111500690D01*
X90726049Y-111516200D01*
X90805551Y-111516200D01*
X90883526Y-111500690D01*
X90956976Y-111470266D01*
X91023080Y-111426097D01*
X91030630Y-111418547D01*
X91033946Y-111418873D01*
X91048904Y-111417400D01*
X91048912Y-111417400D01*
X91093697Y-111412989D01*
X91151152Y-111395560D01*
X91204103Y-111367258D01*
X91250514Y-111329168D01*
X91260058Y-111317539D01*
X91910545Y-110667053D01*
X91922168Y-110657514D01*
X91960258Y-110611103D01*
X91988560Y-110558152D01*
X92003913Y-110507541D01*
X92005989Y-110500698D01*
X92008741Y-110472753D01*
X92010400Y-110455912D01*
X92010400Y-110455905D01*
X92011873Y-110440947D01*
X92010400Y-110425989D01*
X92010400Y-108485958D01*
X92011873Y-108471000D01*
X92010400Y-108456042D01*
X92010400Y-108456034D01*
X92005989Y-108411249D01*
X92002803Y-108400745D01*
X92069176Y-108373252D01*
X92127988Y-108333955D01*
X92186824Y-108373268D01*
X92260274Y-108403692D01*
X92338249Y-108419202D01*
X92417751Y-108419202D01*
X92495726Y-108403692D01*
X92569176Y-108373268D01*
X92628000Y-108333963D01*
X92686824Y-108373268D01*
X92760274Y-108403692D01*
X92838249Y-108419202D01*
X92917751Y-108419202D01*
X92995726Y-108403692D01*
X93069176Y-108373268D01*
X93127997Y-108333965D01*
X93186824Y-108373272D01*
X93260274Y-108403696D01*
X93338249Y-108419206D01*
X93417751Y-108419206D01*
X93495726Y-108403696D01*
X93569176Y-108373272D01*
X93628003Y-108333965D01*
X93686824Y-108373268D01*
X93760274Y-108403692D01*
X93838249Y-108419202D01*
X93917751Y-108419202D01*
X93995726Y-108403692D01*
X94069176Y-108373268D01*
X94135280Y-108329099D01*
X94191497Y-108272882D01*
X94235666Y-108206778D01*
X94266090Y-108133328D01*
X94281600Y-108055353D01*
X94281600Y-107975851D01*
X94266090Y-107897876D01*
X94235666Y-107824426D01*
X94191497Y-107758322D01*
X94135280Y-107702105D01*
X94069176Y-107657936D01*
X94001733Y-107630000D01*
X94005951Y-107630000D01*
X94083926Y-107614490D01*
X94157376Y-107584066D01*
X94223480Y-107539897D01*
X94279697Y-107483680D01*
X94309100Y-107439675D01*
X94338503Y-107483680D01*
X94394720Y-107539897D01*
X94460824Y-107584066D01*
X94534274Y-107614490D01*
X94612249Y-107630000D01*
X94691751Y-107630000D01*
X94769726Y-107614490D01*
X94843176Y-107584066D01*
X94909280Y-107539897D01*
X94965497Y-107483680D01*
X95009666Y-107417576D01*
X95040090Y-107344126D01*
X95055600Y-107266151D01*
X95055600Y-107186649D01*
X95040090Y-107108674D01*
X95009666Y-107035224D01*
X94965497Y-106969120D01*
X94909280Y-106912903D01*
X94843176Y-106868734D01*
X94769726Y-106838310D01*
X94691751Y-106822800D01*
X94612249Y-106822800D01*
X94534274Y-106838310D01*
X94460824Y-106868734D01*
X94394720Y-106912903D01*
X94338503Y-106969120D01*
X94309100Y-107013125D01*
X94279697Y-106969120D01*
X94223480Y-106912903D01*
X94157376Y-106868734D01*
X94083926Y-106838310D01*
X94005951Y-106822800D01*
X93926449Y-106822800D01*
X93848474Y-106838310D01*
X93775024Y-106868734D01*
X93708920Y-106912903D01*
X93652703Y-106969120D01*
X93610600Y-107032132D01*
X93568497Y-106969120D01*
X93512280Y-106912903D01*
X93446176Y-106868734D01*
X93372726Y-106838310D01*
X93294751Y-106822800D01*
X93215249Y-106822800D01*
X93137274Y-106838310D01*
X93063824Y-106868734D01*
X92997720Y-106912903D01*
X92941503Y-106969120D01*
X92897334Y-107035224D01*
X92866910Y-107108674D01*
X92851400Y-107186649D01*
X92851400Y-107266151D01*
X92866910Y-107344126D01*
X92897334Y-107417576D01*
X92941503Y-107483680D01*
X92997720Y-107539897D01*
X93063824Y-107584066D01*
X93137274Y-107614490D01*
X93215249Y-107630000D01*
X93254277Y-107630000D01*
X93186824Y-107657940D01*
X93128003Y-107697243D01*
X93069176Y-107657936D01*
X92995726Y-107627512D01*
X92917751Y-107612002D01*
X92838249Y-107612002D01*
X92760274Y-107627512D01*
X92686824Y-107657936D01*
X92628000Y-107697241D01*
X92569176Y-107657936D01*
X92495726Y-107627512D01*
X92417751Y-107612002D01*
X92338249Y-107612002D01*
X92260274Y-107627512D01*
X92186824Y-107657936D01*
X92128012Y-107697233D01*
X92069176Y-107657920D01*
X91995726Y-107627496D01*
X91917751Y-107611986D01*
X91838249Y-107611986D01*
X91829999Y-107613627D01*
X91829999Y-107610052D01*
X91887451Y-107552600D01*
X91899751Y-107552600D01*
X91977726Y-107537090D01*
X92051176Y-107506666D01*
X92117280Y-107462497D01*
X92173497Y-107406280D01*
X92217666Y-107340176D01*
X92248090Y-107266726D01*
X92263600Y-107188751D01*
X92263600Y-107109249D01*
X92248090Y-107031274D01*
X92217666Y-106957824D01*
X92173497Y-106891720D01*
X92117280Y-106835503D01*
X92051176Y-106791334D01*
X91977726Y-106760910D01*
X91899751Y-106745400D01*
X91820249Y-106745400D01*
X91742274Y-106760910D01*
X91668824Y-106791334D01*
X91602720Y-106835503D01*
X91546503Y-106891720D01*
X91510000Y-106946351D01*
X91473497Y-106891720D01*
X91417280Y-106835503D01*
X91351176Y-106791334D01*
X91277726Y-106760910D01*
X91199751Y-106745400D01*
X91120249Y-106745400D01*
X91042274Y-106760910D01*
X90968824Y-106791334D01*
X90902720Y-106835503D01*
X90846503Y-106891720D01*
X90810000Y-106946351D01*
X90773497Y-106891720D01*
X90717280Y-106835503D01*
X90651176Y-106791334D01*
X90577726Y-106760910D01*
X90499751Y-106745400D01*
X90420249Y-106745400D01*
X90342274Y-106760910D01*
X90268824Y-106791334D01*
X90202720Y-106835503D01*
X90146503Y-106891720D01*
X90102334Y-106957824D01*
X90071910Y-107031274D01*
X90056400Y-107109249D01*
X90056400Y-107188751D01*
X90071910Y-107266726D01*
X90102334Y-107340176D01*
X90146503Y-107406280D01*
X90155200Y-107414977D01*
X90155201Y-107883149D01*
X90128600Y-107856549D01*
X90128600Y-107844249D01*
X90113090Y-107766274D01*
X90082666Y-107692824D01*
X90038497Y-107626720D01*
X89982280Y-107570503D01*
X89916176Y-107526334D01*
X89842726Y-107495910D01*
X89764751Y-107480400D01*
X89685249Y-107480400D01*
X89607274Y-107495910D01*
X89533824Y-107526334D01*
X89467720Y-107570503D01*
X89411503Y-107626720D01*
X89367334Y-107692824D01*
X89336910Y-107766274D01*
X89321400Y-107844249D01*
X89136200Y-107844249D01*
X89136200Y-106560366D01*
X100229840Y-106584534D01*
G04 #@! TA.AperFunction,Conductor*
D16*
G36*
X100229840Y-106584534D02*
G01*
X100229840Y-107542100D01*
X99092148Y-107542100D01*
X99128064Y-107488347D01*
X99158488Y-107414897D01*
X99164267Y-107385841D01*
X99195249Y-107392004D01*
X99274751Y-107392004D01*
X99352726Y-107376494D01*
X99426176Y-107346070D01*
X99492280Y-107301901D01*
X99548497Y-107245684D01*
X99592666Y-107179580D01*
X99623090Y-107106130D01*
X99638600Y-107028155D01*
X99638600Y-106948653D01*
X99623090Y-106870678D01*
X99592666Y-106797228D01*
X99548497Y-106731124D01*
X99492280Y-106674907D01*
X99426176Y-106630738D01*
X99352726Y-106600314D01*
X99274751Y-106584804D01*
X99195249Y-106584804D01*
X99117274Y-106600314D01*
X99043824Y-106630738D01*
X98977720Y-106674907D01*
X98921503Y-106731124D01*
X98877334Y-106797228D01*
X98846910Y-106870678D01*
X98841131Y-106899734D01*
X98810149Y-106893571D01*
X98730647Y-106893571D01*
X98652672Y-106909081D01*
X98579222Y-106939505D01*
X98513118Y-106983674D01*
X98456901Y-107039891D01*
X98412732Y-107105995D01*
X98382308Y-107179445D01*
X98366798Y-107257420D01*
X98366798Y-107336922D01*
X98382308Y-107414897D01*
X98412732Y-107488347D01*
X98448648Y-107542100D01*
X96717555Y-107542100D01*
X96700100Y-107540381D01*
X96682644Y-107542100D01*
X96682637Y-107542100D01*
X96636666Y-107546628D01*
X96630389Y-107547246D01*
X96612740Y-107552600D01*
X96563360Y-107567579D01*
X96501584Y-107600599D01*
X96447437Y-107645037D01*
X96436306Y-107658601D01*
X96149122Y-107945784D01*
X96145474Y-107946510D01*
X96072024Y-107976934D01*
X96005920Y-108021103D01*
X95949703Y-108077320D01*
X95905534Y-108143424D01*
X95875110Y-108216874D01*
X95859600Y-108294849D01*
X95859600Y-108374351D01*
X95875110Y-108452326D01*
X95905534Y-108525776D01*
X95949703Y-108591880D01*
X96005920Y-108648097D01*
X96072024Y-108692266D01*
X96145474Y-108722690D01*
X96223449Y-108738200D01*
X96302951Y-108738200D01*
X96380926Y-108722690D01*
X96454376Y-108692266D01*
X96520480Y-108648097D01*
X96576697Y-108591880D01*
X96620866Y-108525776D01*
X96651290Y-108452326D01*
X96652016Y-108448678D01*
X96847394Y-108253300D01*
X100229840Y-108253300D01*
X100229840Y-109010426D01*
X100182392Y-109024819D01*
X100116204Y-109060198D01*
X100058189Y-109107809D01*
X100046254Y-109122352D01*
X99781463Y-109387143D01*
X99764344Y-109394234D01*
X99698240Y-109438403D01*
X99642023Y-109494620D01*
X99597854Y-109560724D01*
X99567430Y-109634174D01*
X99551920Y-109712149D01*
X99551920Y-109791651D01*
X99567430Y-109869626D01*
X99597854Y-109943076D01*
X99642023Y-110009180D01*
X99698240Y-110065397D01*
X99764344Y-110109566D01*
X99837794Y-110139990D01*
X99915769Y-110155500D01*
X99995271Y-110155500D01*
X100073246Y-110139990D01*
X100146696Y-110109566D01*
X100212800Y-110065397D01*
X100229840Y-110048357D01*
X100229840Y-110645721D01*
X99315536Y-110645721D01*
X99192557Y-110522742D01*
X99185466Y-110505624D01*
X99141297Y-110439520D01*
X99085080Y-110383303D01*
X99018976Y-110339134D01*
X98945526Y-110308710D01*
X98867551Y-110293200D01*
X98788049Y-110293200D01*
X98710074Y-110308710D01*
X98636624Y-110339134D01*
X98570520Y-110383303D01*
X98514303Y-110439520D01*
X98470134Y-110505624D01*
X98439710Y-110579074D01*
X98424200Y-110657049D01*
X98424200Y-110736551D01*
X98439710Y-110814526D01*
X98470134Y-110887976D01*
X98514303Y-110954080D01*
X98570520Y-111010297D01*
X98618659Y-111042462D01*
X98564720Y-111078503D01*
X98508503Y-111134720D01*
X98464334Y-111200824D01*
X98433910Y-111274274D01*
X98418400Y-111352249D01*
X98418400Y-111431751D01*
X98433910Y-111509726D01*
X98464334Y-111583176D01*
X98508503Y-111649280D01*
X98564720Y-111705497D01*
X98630824Y-111749666D01*
X98704274Y-111780090D01*
X98782249Y-111795600D01*
X98861751Y-111795600D01*
X98939726Y-111780090D01*
X99013176Y-111749666D01*
X99079280Y-111705497D01*
X99135497Y-111649280D01*
X99179666Y-111583176D01*
X99210090Y-111509726D01*
X99225600Y-111431751D01*
X99225600Y-111407721D01*
X100229840Y-111407721D01*
X100229840Y-111738180D01*
X100139628Y-111738180D01*
X100136536Y-111736114D01*
X100063086Y-111705690D01*
X99985111Y-111690180D01*
X99905609Y-111690180D01*
X99827634Y-111705690D01*
X99754184Y-111736114D01*
X99688080Y-111780283D01*
X99631863Y-111836500D01*
X99587694Y-111902604D01*
X99557270Y-111976054D01*
X99541760Y-112054029D01*
X99541760Y-112133531D01*
X99557270Y-112211506D01*
X99587694Y-112284956D01*
X99631863Y-112351060D01*
X99688080Y-112407277D01*
X99754184Y-112451446D01*
X99827634Y-112481870D01*
X99905609Y-112497380D01*
X99931887Y-112497380D01*
X99895897Y-112526917D01*
X99884762Y-112540485D01*
X99882225Y-112543022D01*
X99848920Y-112583605D01*
X99816029Y-112645138D01*
X99585302Y-112875866D01*
X99572705Y-112886204D01*
X99562368Y-112898800D01*
X99531441Y-112936483D01*
X99500781Y-112993847D01*
X99481899Y-113056091D01*
X99475523Y-113120820D01*
X99477121Y-113137043D01*
X99477120Y-114570798D01*
X99449654Y-114611904D01*
X99419230Y-114685354D01*
X99403720Y-114763329D01*
X99403720Y-114842831D01*
X99419230Y-114920806D01*
X99449654Y-114994256D01*
X99493823Y-115060360D01*
X99550040Y-115116577D01*
X99616144Y-115160746D01*
X99689594Y-115191170D01*
X99767569Y-115206680D01*
X99847071Y-115206680D01*
X99925046Y-115191170D01*
X99998496Y-115160746D01*
X100064600Y-115116577D01*
X100120817Y-115060360D01*
X100164986Y-114994256D01*
X100195410Y-114920806D01*
X100210920Y-114842831D01*
X100210920Y-114763329D01*
X100195410Y-114685354D01*
X100164986Y-114611904D01*
X100137520Y-114570798D01*
X100137520Y-113257593D01*
X100229840Y-113165273D01*
X100229840Y-116932134D01*
X89136200Y-116907966D01*
X89136200Y-116219649D01*
X93547400Y-116219649D01*
X93547400Y-116299151D01*
X93562910Y-116377126D01*
X93593334Y-116450576D01*
X93637503Y-116516680D01*
X93693720Y-116572897D01*
X93759824Y-116617066D01*
X93833274Y-116647490D01*
X93911249Y-116663000D01*
X93990751Y-116663000D01*
X94068726Y-116647490D01*
X94142176Y-116617066D01*
X94208280Y-116572897D01*
X94264497Y-116516680D01*
X94306600Y-116453668D01*
X94348703Y-116516680D01*
X94404920Y-116572897D01*
X94471024Y-116617066D01*
X94544474Y-116647490D01*
X94622449Y-116663000D01*
X94701951Y-116663000D01*
X94779926Y-116647490D01*
X94853376Y-116617066D01*
X94919480Y-116572897D01*
X94975697Y-116516680D01*
X95017800Y-116453668D01*
X95059903Y-116516680D01*
X95116120Y-116572897D01*
X95182224Y-116617066D01*
X95255674Y-116647490D01*
X95333649Y-116663000D01*
X95413151Y-116663000D01*
X95491126Y-116647490D01*
X95564576Y-116617066D01*
X95630680Y-116572897D01*
X95686897Y-116516680D01*
X95731066Y-116450576D01*
X95761490Y-116377126D01*
X95777000Y-116299151D01*
X95777000Y-116219649D01*
X95761490Y-116141674D01*
X95731066Y-116068224D01*
X95686897Y-116002120D01*
X95630680Y-115945903D01*
X95564576Y-115901734D01*
X95491126Y-115871310D01*
X95413151Y-115855800D01*
X95333649Y-115855800D01*
X95255674Y-115871310D01*
X95182224Y-115901734D01*
X95116120Y-115945903D01*
X95059903Y-116002120D01*
X95017800Y-116065132D01*
X94975697Y-116002120D01*
X94919480Y-115945903D01*
X94853376Y-115901734D01*
X94779926Y-115871310D01*
X94701951Y-115855800D01*
X94622449Y-115855800D01*
X94544474Y-115871310D01*
X94471024Y-115901734D01*
X94404920Y-115945903D01*
X94348703Y-116002120D01*
X94306600Y-116065132D01*
X94264497Y-116002120D01*
X94208280Y-115945903D01*
X94142176Y-115901734D01*
X94068726Y-115871310D01*
X93990751Y-115855800D01*
X93911249Y-115855800D01*
X93833274Y-115871310D01*
X93759824Y-115901734D01*
X93693720Y-115945903D01*
X93637503Y-116002120D01*
X93593334Y-116068224D01*
X93562910Y-116141674D01*
X93547400Y-116219649D01*
X89136200Y-116219649D01*
X89136200Y-115544249D01*
X89321400Y-115544249D01*
X89321400Y-115623751D01*
X89336910Y-115701726D01*
X89367334Y-115775176D01*
X89411503Y-115841280D01*
X89467720Y-115897497D01*
X89533824Y-115941666D01*
X89607274Y-115972090D01*
X89685249Y-115987600D01*
X89764751Y-115987600D01*
X89842726Y-115972090D01*
X89916176Y-115941666D01*
X89982280Y-115897497D01*
X90038497Y-115841280D01*
X90082666Y-115775176D01*
X90113090Y-115701726D01*
X90128600Y-115623751D01*
X90128600Y-115559249D01*
X97028000Y-115559249D01*
X97028000Y-115638751D01*
X97043510Y-115716726D01*
X97073934Y-115790176D01*
X97118103Y-115856280D01*
X97174320Y-115912497D01*
X97240424Y-115956666D01*
X97313874Y-115987090D01*
X97391849Y-116002600D01*
X97471351Y-116002600D01*
X97549326Y-115987090D01*
X97622776Y-115956666D01*
X97688880Y-115912497D01*
X97745097Y-115856280D01*
X97774500Y-115812275D01*
X97803903Y-115856280D01*
X97860120Y-115912497D01*
X97926224Y-115956666D01*
X97999674Y-115987090D01*
X98077649Y-116002600D01*
X98157151Y-116002600D01*
X98235126Y-115987090D01*
X98308576Y-115956666D01*
X98374680Y-115912497D01*
X98430897Y-115856280D01*
X98475066Y-115790176D01*
X98505490Y-115716726D01*
X98521000Y-115638751D01*
X98521000Y-115559249D01*
X98505490Y-115481274D01*
X98475066Y-115407824D01*
X98430897Y-115341720D01*
X98374680Y-115285503D01*
X98308576Y-115241334D01*
X98235126Y-115210910D01*
X98157151Y-115195400D01*
X98077649Y-115195400D01*
X97999674Y-115210910D01*
X97926224Y-115241334D01*
X97860120Y-115285503D01*
X97803903Y-115341720D01*
X97774500Y-115385725D01*
X97745097Y-115341720D01*
X97688880Y-115285503D01*
X97622776Y-115241334D01*
X97549326Y-115210910D01*
X97471351Y-115195400D01*
X97391849Y-115195400D01*
X97313874Y-115210910D01*
X97240424Y-115241334D01*
X97174320Y-115285503D01*
X97118103Y-115341720D01*
X97073934Y-115407824D01*
X97043510Y-115481274D01*
X97028000Y-115559249D01*
X90128600Y-115559249D01*
X90128600Y-115544249D01*
X90113090Y-115466274D01*
X90082666Y-115392824D01*
X90038497Y-115326720D01*
X89982280Y-115270503D01*
X89916176Y-115226334D01*
X89842726Y-115195910D01*
X89764751Y-115180400D01*
X89685249Y-115180400D01*
X89607274Y-115195910D01*
X89533824Y-115226334D01*
X89467720Y-115270503D01*
X89411503Y-115326720D01*
X89367334Y-115392824D01*
X89336910Y-115466274D01*
X89321400Y-115544249D01*
X89136200Y-115544249D01*
X89136200Y-114806649D01*
X90768600Y-114806649D01*
X90768600Y-114886151D01*
X90784110Y-114964126D01*
X90814534Y-115037576D01*
X90858703Y-115103680D01*
X90914920Y-115159897D01*
X90981024Y-115204066D01*
X91054474Y-115234490D01*
X91132449Y-115250000D01*
X91211951Y-115250000D01*
X91289926Y-115234490D01*
X91363376Y-115204066D01*
X91429480Y-115159897D01*
X91485697Y-115103680D01*
X91529866Y-115037576D01*
X91534723Y-115025849D01*
X93014800Y-115025849D01*
X93014800Y-115105351D01*
X93030310Y-115183326D01*
X93060734Y-115256776D01*
X93104903Y-115322880D01*
X93161120Y-115379097D01*
X93227224Y-115423266D01*
X93300674Y-115453690D01*
X93378649Y-115469200D01*
X93458151Y-115469200D01*
X93536126Y-115453690D01*
X93609576Y-115423266D01*
X93675680Y-115379097D01*
X93731897Y-115322880D01*
X93776066Y-115256776D01*
X93806490Y-115183326D01*
X93822000Y-115105351D01*
X93822000Y-115025849D01*
X93806490Y-114947874D01*
X93776066Y-114874424D01*
X93731897Y-114808320D01*
X93675680Y-114752103D01*
X93609576Y-114707934D01*
X93536126Y-114677510D01*
X93458151Y-114662000D01*
X93378649Y-114662000D01*
X93300674Y-114677510D01*
X93227224Y-114707934D01*
X93161120Y-114752103D01*
X93104903Y-114808320D01*
X93060734Y-114874424D01*
X93030310Y-114947874D01*
X93014800Y-115025849D01*
X91534723Y-115025849D01*
X91560290Y-114964126D01*
X91575800Y-114886151D01*
X91575800Y-114806649D01*
X91560290Y-114728674D01*
X91529866Y-114655224D01*
X91485697Y-114589120D01*
X91429480Y-114532903D01*
X91363376Y-114488734D01*
X91289926Y-114458310D01*
X91211951Y-114442800D01*
X91132449Y-114442800D01*
X91054474Y-114458310D01*
X90981024Y-114488734D01*
X90914920Y-114532903D01*
X90858703Y-114589120D01*
X90814534Y-114655224D01*
X90784110Y-114728674D01*
X90768600Y-114806649D01*
X89136200Y-114806649D01*
X89136200Y-114390849D01*
X92481400Y-114390849D01*
X92481400Y-114470351D01*
X92496910Y-114548326D01*
X92527334Y-114621776D01*
X92571503Y-114687880D01*
X92627720Y-114744097D01*
X92693824Y-114788266D01*
X92767274Y-114818690D01*
X92845249Y-114834200D01*
X92924751Y-114834200D01*
X93002726Y-114818690D01*
X93076176Y-114788266D01*
X93142280Y-114744097D01*
X93198497Y-114687880D01*
X93242666Y-114621776D01*
X93273090Y-114548326D01*
X93288600Y-114470351D01*
X93288600Y-114425649D01*
X97118600Y-114425649D01*
X97118600Y-114505151D01*
X97134110Y-114583126D01*
X97164534Y-114656576D01*
X97208703Y-114722680D01*
X97264920Y-114778897D01*
X97331024Y-114823066D01*
X97404474Y-114853490D01*
X97482449Y-114869000D01*
X97561951Y-114869000D01*
X97639926Y-114853490D01*
X97713376Y-114823066D01*
X97779480Y-114778897D01*
X97835697Y-114722680D01*
X97879866Y-114656576D01*
X97910290Y-114583126D01*
X97925800Y-114505151D01*
X97925800Y-114425649D01*
X97910290Y-114347674D01*
X97879866Y-114274224D01*
X97835697Y-114208120D01*
X97779480Y-114151903D01*
X97713376Y-114107734D01*
X97639926Y-114077310D01*
X97561951Y-114061800D01*
X97482449Y-114061800D01*
X97404474Y-114077310D01*
X97331024Y-114107734D01*
X97264920Y-114151903D01*
X97208703Y-114208120D01*
X97164534Y-114274224D01*
X97134110Y-114347674D01*
X97118600Y-114425649D01*
X93288600Y-114425649D01*
X93288600Y-114390849D01*
X93273090Y-114312874D01*
X93242666Y-114239424D01*
X93198497Y-114173320D01*
X93142280Y-114117103D01*
X93076176Y-114072934D01*
X93002726Y-114042510D01*
X92924751Y-114027000D01*
X92845249Y-114027000D01*
X92767274Y-114042510D01*
X92693824Y-114072934D01*
X92627720Y-114117103D01*
X92571503Y-114173320D01*
X92527334Y-114239424D01*
X92496910Y-114312874D01*
X92481400Y-114390849D01*
X89136200Y-114390849D01*
X89136200Y-113689047D01*
X91276600Y-113689047D01*
X91276600Y-113768549D01*
X91292110Y-113846524D01*
X91322534Y-113919974D01*
X91366703Y-113986078D01*
X91422920Y-114042295D01*
X91489024Y-114086464D01*
X91562474Y-114116888D01*
X91640449Y-114132398D01*
X91719951Y-114132398D01*
X91797926Y-114116888D01*
X91871376Y-114086464D01*
X91937480Y-114042295D01*
X91993697Y-113986078D01*
X92022447Y-113943049D01*
X96432800Y-113943049D01*
X96432800Y-114022551D01*
X96448310Y-114100526D01*
X96478734Y-114173976D01*
X96522903Y-114240080D01*
X96579120Y-114296297D01*
X96645224Y-114340466D01*
X96718674Y-114370890D01*
X96796649Y-114386400D01*
X96876151Y-114386400D01*
X96954126Y-114370890D01*
X97027576Y-114340466D01*
X97093680Y-114296297D01*
X97149897Y-114240080D01*
X97194066Y-114173976D01*
X97224490Y-114100526D01*
X97240000Y-114022551D01*
X97240000Y-113943049D01*
X97224490Y-113865074D01*
X97194066Y-113791624D01*
X97149897Y-113725520D01*
X97093680Y-113669303D01*
X97027576Y-113625134D01*
X96954126Y-113594710D01*
X96876151Y-113579200D01*
X96796649Y-113579200D01*
X96718674Y-113594710D01*
X96645224Y-113625134D01*
X96579120Y-113669303D01*
X96522903Y-113725520D01*
X96478734Y-113791624D01*
X96448310Y-113865074D01*
X96432800Y-113943049D01*
X92022447Y-113943049D01*
X92037866Y-113919974D01*
X92068290Y-113846524D01*
X92077170Y-113801882D01*
X92153526Y-113786694D01*
X92226976Y-113756270D01*
X92293080Y-113712101D01*
X92349297Y-113655884D01*
X92393466Y-113589780D01*
X92423890Y-113516330D01*
X92439400Y-113438355D01*
X92439400Y-113358853D01*
X92423890Y-113280878D01*
X92393466Y-113207428D01*
X92349297Y-113141324D01*
X92293080Y-113085107D01*
X92282646Y-113078135D01*
X92338243Y-113089194D01*
X92417745Y-113089194D01*
X92495720Y-113073684D01*
X92569170Y-113043260D01*
X92627979Y-113003965D01*
X92686824Y-113043284D01*
X92760274Y-113073708D01*
X92838249Y-113089218D01*
X92917751Y-113089218D01*
X92995726Y-113073708D01*
X93069176Y-113043284D01*
X93128024Y-113003963D01*
X93186824Y-113043252D01*
X93260274Y-113073676D01*
X93338249Y-113089186D01*
X93417751Y-113089186D01*
X93495726Y-113073676D01*
X93569176Y-113043252D01*
X93635280Y-112999083D01*
X93691497Y-112942866D01*
X93735666Y-112876762D01*
X93766090Y-112803312D01*
X93781600Y-112725337D01*
X93781600Y-112645835D01*
X93766090Y-112567860D01*
X93735666Y-112494410D01*
X93691497Y-112428306D01*
X93635280Y-112372089D01*
X93569176Y-112327920D01*
X93495726Y-112297496D01*
X93417751Y-112281986D01*
X93338249Y-112281986D01*
X93260274Y-112297496D01*
X93186824Y-112327920D01*
X93127976Y-112367241D01*
X93069176Y-112327952D01*
X92995726Y-112297528D01*
X92917751Y-112282018D01*
X92838249Y-112282018D01*
X92760274Y-112297528D01*
X92686824Y-112327952D01*
X92628015Y-112367247D01*
X92569170Y-112327928D01*
X92495720Y-112297504D01*
X92417745Y-112281994D01*
X92338243Y-112281994D01*
X92260268Y-112297504D01*
X92186818Y-112327928D01*
X92120714Y-112372097D01*
X92064497Y-112428314D01*
X92020328Y-112494418D01*
X91989904Y-112567868D01*
X91974394Y-112645843D01*
X91974394Y-112725345D01*
X91989904Y-112803320D01*
X92020328Y-112876770D01*
X92064497Y-112942874D01*
X92120714Y-112999091D01*
X92131148Y-113006063D01*
X92075551Y-112995004D01*
X91996049Y-112995004D01*
X91918074Y-113010514D01*
X91844624Y-113040938D01*
X91778520Y-113085107D01*
X91722303Y-113141324D01*
X91678134Y-113207428D01*
X91647710Y-113280878D01*
X91638830Y-113325520D01*
X91562474Y-113340708D01*
X91489024Y-113371132D01*
X91422920Y-113415301D01*
X91366703Y-113471518D01*
X91322534Y-113537622D01*
X91292110Y-113611072D01*
X91276600Y-113689047D01*
X89136200Y-113689047D01*
X89136200Y-113155649D01*
X90489200Y-113155649D01*
X90489200Y-113235151D01*
X90504710Y-113313126D01*
X90535134Y-113386576D01*
X90579303Y-113452680D01*
X90635520Y-113508897D01*
X90701624Y-113553066D01*
X90775074Y-113583490D01*
X90853049Y-113599000D01*
X90932551Y-113599000D01*
X91010526Y-113583490D01*
X91083976Y-113553066D01*
X91150080Y-113508897D01*
X91206297Y-113452680D01*
X91250466Y-113386576D01*
X91280890Y-113313126D01*
X91296400Y-113235151D01*
X91296400Y-113155649D01*
X91280890Y-113077674D01*
X91250466Y-113004224D01*
X91206297Y-112938120D01*
X91150080Y-112881903D01*
X91083976Y-112837734D01*
X91010526Y-112807310D01*
X90932551Y-112791800D01*
X90853049Y-112791800D01*
X90775074Y-112807310D01*
X90701624Y-112837734D01*
X90635520Y-112881903D01*
X90579303Y-112938120D01*
X90535134Y-113004224D01*
X90504710Y-113077674D01*
X90489200Y-113155649D01*
X89136200Y-113155649D01*
X89136200Y-109929849D01*
X89397000Y-109929849D01*
X89397000Y-110009351D01*
X89412510Y-110087326D01*
X89442934Y-110160776D01*
X89487103Y-110226880D01*
X89543320Y-110283097D01*
X89609424Y-110327266D01*
X89682874Y-110357690D01*
X89760849Y-110373200D01*
X89840351Y-110373200D01*
X89918326Y-110357690D01*
X89991776Y-110327266D01*
X90057880Y-110283097D01*
X90114097Y-110226880D01*
X90158266Y-110160776D01*
X90188690Y-110087326D01*
X90204200Y-110009351D01*
X90204200Y-109929849D01*
X90188690Y-109851874D01*
X90158266Y-109778424D01*
X90114097Y-109712320D01*
X90057880Y-109656103D01*
X89991776Y-109611934D01*
X89918326Y-109581510D01*
X89840351Y-109566000D01*
X89760849Y-109566000D01*
X89682874Y-109581510D01*
X89609424Y-109611934D01*
X89543320Y-109656103D01*
X89487103Y-109712320D01*
X89442934Y-109778424D01*
X89412510Y-109851874D01*
X89397000Y-109929849D01*
X89136200Y-109929849D01*
X89136200Y-107844249D01*
X89321400Y-107844249D01*
X89321400Y-107923751D01*
X89336910Y-108001726D01*
X89367334Y-108075176D01*
X89411503Y-108141280D01*
X89467720Y-108197497D01*
X89533824Y-108241666D01*
X89607274Y-108272090D01*
X89685249Y-108287600D01*
X89697549Y-108287600D01*
X90298613Y-108888665D01*
X90281134Y-108914824D01*
X90250710Y-108988274D01*
X90235200Y-109066249D01*
X90235200Y-109145751D01*
X90250710Y-109223726D01*
X90281134Y-109297176D01*
X90325303Y-109363280D01*
X90381520Y-109419497D01*
X90420402Y-109445477D01*
X90404912Y-109482874D01*
X90389402Y-109560849D01*
X90389402Y-109640351D01*
X90404912Y-109718326D01*
X90435336Y-109791776D01*
X90479505Y-109857880D01*
X90535722Y-109914097D01*
X90601826Y-109958266D01*
X90675276Y-109988690D01*
X90753251Y-110004200D01*
X90832753Y-110004200D01*
X90910728Y-109988690D01*
X90984178Y-109958266D01*
X91017003Y-109936333D01*
X91017003Y-110176345D01*
X90992348Y-110201000D01*
X90980049Y-110201000D01*
X90902074Y-110216510D01*
X90828624Y-110246934D01*
X90762520Y-110291103D01*
X90706303Y-110347320D01*
X90662134Y-110413424D01*
X90631710Y-110486874D01*
X90616200Y-110564849D01*
X90616200Y-110644351D01*
X90631710Y-110722326D01*
X90634879Y-110729976D01*
X90574624Y-110754934D01*
X90508520Y-110799103D01*
X90452303Y-110855320D01*
X90408134Y-110921424D01*
X90377710Y-110994874D01*
X90362200Y-111072849D01*
X90362200Y-111152351D01*
X90377710Y-111230326D01*
X90408134Y-111303776D01*
X90452303Y-111369880D01*
X90508520Y-111426097D01*
X90574624Y-111470266D01*
X90648074Y-111500690D01*
X90726049Y-111516200D01*
X90805551Y-111516200D01*
X90883526Y-111500690D01*
X90956976Y-111470266D01*
X91023080Y-111426097D01*
X91030630Y-111418547D01*
X91033946Y-111418873D01*
X91048904Y-111417400D01*
X91048912Y-111417400D01*
X91093697Y-111412989D01*
X91151152Y-111395560D01*
X91204103Y-111367258D01*
X91250514Y-111329168D01*
X91260058Y-111317539D01*
X91910545Y-110667053D01*
X91922168Y-110657514D01*
X91960258Y-110611103D01*
X91988560Y-110558152D01*
X92003913Y-110507541D01*
X92005989Y-110500698D01*
X92008741Y-110472753D01*
X92010400Y-110455912D01*
X92010400Y-110455905D01*
X92011873Y-110440947D01*
X92010400Y-110425989D01*
X92010400Y-108485958D01*
X92011873Y-108471000D01*
X92010400Y-108456042D01*
X92010400Y-108456034D01*
X92005989Y-108411249D01*
X92002803Y-108400745D01*
X92069176Y-108373252D01*
X92127988Y-108333955D01*
X92186824Y-108373268D01*
X92260274Y-108403692D01*
X92338249Y-108419202D01*
X92417751Y-108419202D01*
X92495726Y-108403692D01*
X92569176Y-108373268D01*
X92628000Y-108333963D01*
X92686824Y-108373268D01*
X92760274Y-108403692D01*
X92838249Y-108419202D01*
X92917751Y-108419202D01*
X92995726Y-108403692D01*
X93069176Y-108373268D01*
X93127997Y-108333965D01*
X93186824Y-108373272D01*
X93260274Y-108403696D01*
X93338249Y-108419206D01*
X93417751Y-108419206D01*
X93495726Y-108403696D01*
X93569176Y-108373272D01*
X93628003Y-108333965D01*
X93686824Y-108373268D01*
X93760274Y-108403692D01*
X93838249Y-108419202D01*
X93917751Y-108419202D01*
X93995726Y-108403692D01*
X94069176Y-108373268D01*
X94135280Y-108329099D01*
X94191497Y-108272882D01*
X94235666Y-108206778D01*
X94266090Y-108133328D01*
X94281600Y-108055353D01*
X94281600Y-107975851D01*
X94266090Y-107897876D01*
X94235666Y-107824426D01*
X94191497Y-107758322D01*
X94135280Y-107702105D01*
X94069176Y-107657936D01*
X94001733Y-107630000D01*
X94005951Y-107630000D01*
X94083926Y-107614490D01*
X94157376Y-107584066D01*
X94223480Y-107539897D01*
X94279697Y-107483680D01*
X94309100Y-107439675D01*
X94338503Y-107483680D01*
X94394720Y-107539897D01*
X94460824Y-107584066D01*
X94534274Y-107614490D01*
X94612249Y-107630000D01*
X94691751Y-107630000D01*
X94769726Y-107614490D01*
X94843176Y-107584066D01*
X94909280Y-107539897D01*
X94965497Y-107483680D01*
X95009666Y-107417576D01*
X95040090Y-107344126D01*
X95055600Y-107266151D01*
X95055600Y-107186649D01*
X95040090Y-107108674D01*
X95009666Y-107035224D01*
X94965497Y-106969120D01*
X94909280Y-106912903D01*
X94843176Y-106868734D01*
X94769726Y-106838310D01*
X94691751Y-106822800D01*
X94612249Y-106822800D01*
X94534274Y-106838310D01*
X94460824Y-106868734D01*
X94394720Y-106912903D01*
X94338503Y-106969120D01*
X94309100Y-107013125D01*
X94279697Y-106969120D01*
X94223480Y-106912903D01*
X94157376Y-106868734D01*
X94083926Y-106838310D01*
X94005951Y-106822800D01*
X93926449Y-106822800D01*
X93848474Y-106838310D01*
X93775024Y-106868734D01*
X93708920Y-106912903D01*
X93652703Y-106969120D01*
X93610600Y-107032132D01*
X93568497Y-106969120D01*
X93512280Y-106912903D01*
X93446176Y-106868734D01*
X93372726Y-106838310D01*
X93294751Y-106822800D01*
X93215249Y-106822800D01*
X93137274Y-106838310D01*
X93063824Y-106868734D01*
X92997720Y-106912903D01*
X92941503Y-106969120D01*
X92897334Y-107035224D01*
X92866910Y-107108674D01*
X92851400Y-107186649D01*
X92851400Y-107266151D01*
X92866910Y-107344126D01*
X92897334Y-107417576D01*
X92941503Y-107483680D01*
X92997720Y-107539897D01*
X93063824Y-107584066D01*
X93137274Y-107614490D01*
X93215249Y-107630000D01*
X93254277Y-107630000D01*
X93186824Y-107657940D01*
X93128003Y-107697243D01*
X93069176Y-107657936D01*
X92995726Y-107627512D01*
X92917751Y-107612002D01*
X92838249Y-107612002D01*
X92760274Y-107627512D01*
X92686824Y-107657936D01*
X92628000Y-107697241D01*
X92569176Y-107657936D01*
X92495726Y-107627512D01*
X92417751Y-107612002D01*
X92338249Y-107612002D01*
X92260274Y-107627512D01*
X92186824Y-107657936D01*
X92128012Y-107697233D01*
X92069176Y-107657920D01*
X91995726Y-107627496D01*
X91917751Y-107611986D01*
X91838249Y-107611986D01*
X91829999Y-107613627D01*
X91829999Y-107610052D01*
X91887451Y-107552600D01*
X91899751Y-107552600D01*
X91977726Y-107537090D01*
X92051176Y-107506666D01*
X92117280Y-107462497D01*
X92173497Y-107406280D01*
X92217666Y-107340176D01*
X92248090Y-107266726D01*
X92263600Y-107188751D01*
X92263600Y-107109249D01*
X92248090Y-107031274D01*
X92217666Y-106957824D01*
X92173497Y-106891720D01*
X92117280Y-106835503D01*
X92051176Y-106791334D01*
X91977726Y-106760910D01*
X91899751Y-106745400D01*
X91820249Y-106745400D01*
X91742274Y-106760910D01*
X91668824Y-106791334D01*
X91602720Y-106835503D01*
X91546503Y-106891720D01*
X91510000Y-106946351D01*
X91473497Y-106891720D01*
X91417280Y-106835503D01*
X91351176Y-106791334D01*
X91277726Y-106760910D01*
X91199751Y-106745400D01*
X91120249Y-106745400D01*
X91042274Y-106760910D01*
X90968824Y-106791334D01*
X90902720Y-106835503D01*
X90846503Y-106891720D01*
X90810000Y-106946351D01*
X90773497Y-106891720D01*
X90717280Y-106835503D01*
X90651176Y-106791334D01*
X90577726Y-106760910D01*
X90499751Y-106745400D01*
X90420249Y-106745400D01*
X90342274Y-106760910D01*
X90268824Y-106791334D01*
X90202720Y-106835503D01*
X90146503Y-106891720D01*
X90102334Y-106957824D01*
X90071910Y-107031274D01*
X90056400Y-107109249D01*
X90056400Y-107188751D01*
X90071910Y-107266726D01*
X90102334Y-107340176D01*
X90146503Y-107406280D01*
X90155200Y-107414977D01*
X90155201Y-107883149D01*
X90128600Y-107856549D01*
X90128600Y-107844249D01*
X90113090Y-107766274D01*
X90082666Y-107692824D01*
X90038497Y-107626720D01*
X89982280Y-107570503D01*
X89916176Y-107526334D01*
X89842726Y-107495910D01*
X89764751Y-107480400D01*
X89685249Y-107480400D01*
X89607274Y-107495910D01*
X89533824Y-107526334D01*
X89467720Y-107570503D01*
X89411503Y-107626720D01*
X89367334Y-107692824D01*
X89336910Y-107766274D01*
X89321400Y-107844249D01*
X89136200Y-107844249D01*
X89136200Y-106560366D01*
X100229840Y-106584534D01*
G37*
G04 #@! TD.AperFunction*
D15*
X121483800Y-109478347D02*
X121441576Y-109450134D01*
X121368126Y-109419710D01*
X121290151Y-109404200D01*
X121210649Y-109404200D01*
X121132674Y-109419710D01*
X121059224Y-109450134D01*
X120993120Y-109494303D01*
X120936903Y-109550520D01*
X120922264Y-109572429D01*
X120376821Y-109026987D01*
X120366478Y-109014384D01*
X120316199Y-108973121D01*
X120258835Y-108942460D01*
X120196592Y-108923578D01*
X120148077Y-108918800D01*
X120148075Y-108918800D01*
X120131862Y-108917203D01*
X120115649Y-108918800D01*
X119226928Y-108918800D01*
X119239230Y-108856951D01*
X119239230Y-108777449D01*
X119223720Y-108699474D01*
X119193296Y-108626024D01*
X119149127Y-108559920D01*
X119092910Y-108503703D01*
X119026806Y-108459534D01*
X118953356Y-108429110D01*
X118875381Y-108413600D01*
X118795879Y-108413600D01*
X118717904Y-108429110D01*
X118644454Y-108459534D01*
X118578350Y-108503703D01*
X118522133Y-108559920D01*
X118477964Y-108626024D01*
X118447540Y-108699474D01*
X118435446Y-108760273D01*
X118300660Y-108625487D01*
X118291015Y-108576999D01*
X118260591Y-108503549D01*
X118216422Y-108437445D01*
X118160205Y-108381228D01*
X118094101Y-108337059D01*
X118020651Y-108306635D01*
X117942676Y-108291125D01*
X117863174Y-108291125D01*
X117785199Y-108306635D01*
X117711749Y-108337059D01*
X117645645Y-108381228D01*
X117589428Y-108437445D01*
X117545259Y-108503549D01*
X117514835Y-108576999D01*
X117499325Y-108654974D01*
X117499325Y-108734476D01*
X117514835Y-108812451D01*
X117545259Y-108885901D01*
X117589428Y-108952005D01*
X117628443Y-108991020D01*
X117592203Y-109027260D01*
X117548034Y-109093364D01*
X117517610Y-109166814D01*
X117502100Y-109244789D01*
X117502100Y-109324291D01*
X117517610Y-109402266D01*
X117548034Y-109475716D01*
X117592203Y-109541820D01*
X117648420Y-109598037D01*
X117714524Y-109642206D01*
X117787974Y-109672630D01*
X117865949Y-109688140D01*
X117945451Y-109688140D01*
X118023426Y-109672630D01*
X118096876Y-109642206D01*
X118162980Y-109598037D01*
X118219197Y-109541820D01*
X118245514Y-109502434D01*
X118272863Y-109524879D01*
X118330227Y-109555540D01*
X118392470Y-109574422D01*
X118440985Y-109579200D01*
X118440994Y-109579200D01*
X118457199Y-109580796D01*
X118473404Y-109579200D01*
X119995090Y-109579200D01*
X121073401Y-110657513D01*
X121073401Y-111497624D01*
X121025880Y-111450103D01*
X120959776Y-111405934D01*
X120886326Y-111375510D01*
X120808351Y-111360000D01*
X120728849Y-111360000D01*
X120650874Y-111375510D01*
X120577424Y-111405934D01*
X120511320Y-111450103D01*
X120455103Y-111506320D01*
X120410934Y-111572424D01*
X120380510Y-111645874D01*
X120365000Y-111723849D01*
X120365000Y-111803351D01*
X120380510Y-111881326D01*
X120410934Y-111954776D01*
X120455103Y-112020880D01*
X120511320Y-112077097D01*
X120577424Y-112121266D01*
X120650874Y-112151690D01*
X120728849Y-112167200D01*
X120808351Y-112167200D01*
X120886326Y-112151690D01*
X120959776Y-112121266D01*
X121025880Y-112077097D01*
X121073401Y-112029576D01*
X121073400Y-113595319D01*
X121067070Y-113563494D01*
X121036646Y-113490044D01*
X120992477Y-113423940D01*
X120936260Y-113367723D01*
X120870156Y-113323554D01*
X120796706Y-113293130D01*
X120718731Y-113277620D01*
X120639229Y-113277620D01*
X120561254Y-113293130D01*
X120487804Y-113323554D01*
X120421700Y-113367723D01*
X120365483Y-113423940D01*
X120321314Y-113490044D01*
X120290890Y-113563494D01*
X120275380Y-113641469D01*
X120275380Y-113720971D01*
X120290890Y-113798946D01*
X120298884Y-113818246D01*
X120297224Y-113818934D01*
X120231120Y-113863103D01*
X120174903Y-113919320D01*
X120130734Y-113985424D01*
X120100310Y-114058874D01*
X120084800Y-114136849D01*
X120084800Y-114216351D01*
X120100310Y-114294326D01*
X120130734Y-114367776D01*
X120174903Y-114433880D01*
X120231120Y-114490097D01*
X120297224Y-114534266D01*
X120370674Y-114564690D01*
X120448649Y-114580200D01*
X120528151Y-114580200D01*
X120606126Y-114564690D01*
X120679576Y-114534266D01*
X120745680Y-114490097D01*
X120801897Y-114433880D01*
X120846066Y-114367776D01*
X120876490Y-114294326D01*
X120892000Y-114216351D01*
X120892000Y-114136849D01*
X120876490Y-114058874D01*
X120868496Y-114039574D01*
X120870156Y-114038886D01*
X120936260Y-113994717D01*
X120992477Y-113938500D01*
X121036646Y-113872396D01*
X121067070Y-113798946D01*
X121073400Y-113767121D01*
X121073400Y-114497027D01*
X120329827Y-115240601D01*
X118616574Y-115240601D01*
X118448535Y-115072562D01*
X118438890Y-115024074D01*
X118408466Y-114950624D01*
X118364297Y-114884520D01*
X118308080Y-114828303D01*
X118241976Y-114784134D01*
X118168526Y-114753710D01*
X118090551Y-114738200D01*
X118011049Y-114738200D01*
X117933074Y-114753710D01*
X117859624Y-114784134D01*
X117793520Y-114828303D01*
X117737303Y-114884520D01*
X117693134Y-114950624D01*
X117662710Y-115024074D01*
X117647200Y-115102049D01*
X117647200Y-115181551D01*
X117662710Y-115259526D01*
X117693134Y-115332976D01*
X117695047Y-115335839D01*
X117638726Y-115312510D01*
X117560751Y-115297000D01*
X117481249Y-115297000D01*
X117403274Y-115312510D01*
X117329824Y-115342934D01*
X117263720Y-115387103D01*
X117207503Y-115443320D01*
X117163334Y-115509424D01*
X117132910Y-115582874D01*
X117117400Y-115660849D01*
X117117400Y-115740351D01*
X117132910Y-115818326D01*
X117163334Y-115891776D01*
X117174314Y-115908209D01*
X116241881Y-115908296D01*
X116255297Y-115894880D01*
X116299466Y-115828776D01*
X116329890Y-115755326D01*
X116345400Y-115677351D01*
X116345400Y-115597849D01*
X116329890Y-115519874D01*
X116299466Y-115446424D01*
X116255297Y-115380320D01*
X116199080Y-115324103D01*
X116132976Y-115279934D01*
X116059526Y-115249510D01*
X115981551Y-115234000D01*
X115902049Y-115234000D01*
X115824074Y-115249510D01*
X115750624Y-115279934D01*
X115684520Y-115324103D01*
X115628303Y-115380320D01*
X115584134Y-115446424D01*
X115553710Y-115519874D01*
X115538200Y-115597849D01*
X115538200Y-115677351D01*
X115553710Y-115755326D01*
X115584134Y-115828776D01*
X115628303Y-115894880D01*
X115641775Y-115908352D01*
X112514042Y-115908644D01*
X112519890Y-115894526D01*
X112535400Y-115816551D01*
X112535400Y-115737049D01*
X112519890Y-115659074D01*
X112489466Y-115585624D01*
X112445297Y-115519520D01*
X112389080Y-115463303D01*
X112322976Y-115419134D01*
X112249526Y-115388710D01*
X112172803Y-115373449D01*
X112574400Y-115373449D01*
X112574400Y-115452951D01*
X112589910Y-115530926D01*
X112620334Y-115604376D01*
X112664503Y-115670480D01*
X112720720Y-115726697D01*
X112786824Y-115770866D01*
X112860274Y-115801290D01*
X112938249Y-115816800D01*
X113017751Y-115816800D01*
X113095726Y-115801290D01*
X113169176Y-115770866D01*
X113228000Y-115731561D01*
X113286824Y-115770866D01*
X113360274Y-115801290D01*
X113438249Y-115816800D01*
X113517751Y-115816800D01*
X113595726Y-115801290D01*
X113669176Y-115770866D01*
X113735280Y-115726697D01*
X113791497Y-115670480D01*
X113835666Y-115604376D01*
X113866090Y-115530926D01*
X113881600Y-115452951D01*
X113881600Y-115373449D01*
X113867155Y-115300826D01*
X113868274Y-115301290D01*
X113946249Y-115316800D01*
X114025751Y-115316800D01*
X114103726Y-115301290D01*
X114177176Y-115270866D01*
X114240000Y-115228889D01*
X114302824Y-115270866D01*
X114376274Y-115301290D01*
X114454249Y-115316800D01*
X114533751Y-115316800D01*
X114611726Y-115301290D01*
X114685176Y-115270866D01*
X114751280Y-115226697D01*
X114807497Y-115170480D01*
X114851666Y-115104376D01*
X114882090Y-115030926D01*
X114897600Y-114952951D01*
X114897600Y-114873449D01*
X114882090Y-114795474D01*
X114851666Y-114722024D01*
X114807497Y-114655920D01*
X114751280Y-114599703D01*
X114685176Y-114555534D01*
X114611726Y-114525110D01*
X114533751Y-114509600D01*
X114454249Y-114509600D01*
X114376274Y-114525110D01*
X114302824Y-114555534D01*
X114240000Y-114597511D01*
X114177176Y-114555534D01*
X114103726Y-114525110D01*
X114025751Y-114509600D01*
X113946249Y-114509600D01*
X113868274Y-114525110D01*
X113794824Y-114555534D01*
X113728720Y-114599703D01*
X113672503Y-114655920D01*
X113628334Y-114722024D01*
X113597910Y-114795474D01*
X113582400Y-114873449D01*
X113582400Y-114952951D01*
X113596845Y-115025574D01*
X113595726Y-115025110D01*
X113517751Y-115009600D01*
X113438249Y-115009600D01*
X113360274Y-115025110D01*
X113286824Y-115055534D01*
X113228000Y-115094839D01*
X113169176Y-115055534D01*
X113095726Y-115025110D01*
X113017751Y-115009600D01*
X112938249Y-115009600D01*
X112860274Y-115025110D01*
X112786824Y-115055534D01*
X112720720Y-115099703D01*
X112664503Y-115155920D01*
X112620334Y-115222024D01*
X112589910Y-115295474D01*
X112574400Y-115373449D01*
X112172803Y-115373449D01*
X112171551Y-115373200D01*
X112092049Y-115373200D01*
X112014074Y-115388710D01*
X111940624Y-115419134D01*
X111874520Y-115463303D01*
X111818303Y-115519520D01*
X111774134Y-115585624D01*
X111743710Y-115659074D01*
X111728200Y-115737049D01*
X111728200Y-115816551D01*
X111743710Y-115894526D01*
X111749588Y-115908716D01*
X110522271Y-115908830D01*
X110533666Y-115891776D01*
X110564090Y-115818326D01*
X110579600Y-115740351D01*
X110579600Y-115660849D01*
X110564090Y-115582874D01*
X110533666Y-115509424D01*
X110512472Y-115477705D01*
X110565697Y-115424480D01*
X110609866Y-115358376D01*
X110640290Y-115284926D01*
X110655800Y-115206951D01*
X110655800Y-115127449D01*
X110640290Y-115049474D01*
X110609866Y-114976024D01*
X110565697Y-114909920D01*
X110509480Y-114853703D01*
X110443376Y-114809534D01*
X110369926Y-114779110D01*
X110291951Y-114763600D01*
X110212449Y-114763600D01*
X110134474Y-114779110D01*
X110061024Y-114809534D01*
X109994920Y-114853703D01*
X109938703Y-114909920D01*
X109894534Y-114976024D01*
X109864110Y-115049474D01*
X109848600Y-115127449D01*
X109848600Y-115206951D01*
X109864110Y-115284926D01*
X109894534Y-115358376D01*
X109915728Y-115390095D01*
X109862503Y-115443320D01*
X109818334Y-115509424D01*
X109787910Y-115582874D01*
X109772400Y-115660849D01*
X109772400Y-115740351D01*
X109787910Y-115818326D01*
X109818334Y-115891776D01*
X109829772Y-115908895D01*
X104065240Y-115909433D01*
X104065240Y-113857449D01*
X104082800Y-113857449D01*
X104082800Y-113936951D01*
X104098310Y-114014926D01*
X104128734Y-114088376D01*
X104172903Y-114154480D01*
X104229120Y-114210697D01*
X104295224Y-114254866D01*
X104368674Y-114285290D01*
X104446649Y-114300800D01*
X104526151Y-114300800D01*
X104604126Y-114285290D01*
X104677576Y-114254866D01*
X104743680Y-114210697D01*
X104746834Y-114207543D01*
X104722010Y-114267474D01*
X104706500Y-114345449D01*
X104706500Y-114424951D01*
X104722010Y-114502926D01*
X104752434Y-114576376D01*
X104796603Y-114642480D01*
X104852820Y-114698697D01*
X104918924Y-114742866D01*
X104992374Y-114773290D01*
X105070349Y-114788800D01*
X105149851Y-114788800D01*
X105227826Y-114773290D01*
X105301276Y-114742866D01*
X105367380Y-114698697D01*
X105419917Y-114646160D01*
X105437103Y-114671880D01*
X105472323Y-114707100D01*
X105421903Y-114757520D01*
X105377734Y-114823624D01*
X105347310Y-114897074D01*
X105331800Y-114975049D01*
X105331800Y-115054551D01*
X105347310Y-115132526D01*
X105377734Y-115205976D01*
X105421903Y-115272080D01*
X105478120Y-115328297D01*
X105544224Y-115372466D01*
X105617674Y-115402890D01*
X105695649Y-115418400D01*
X105775151Y-115418400D01*
X105853126Y-115402890D01*
X105926576Y-115372466D01*
X105992680Y-115328297D01*
X106048897Y-115272080D01*
X106093066Y-115205976D01*
X106123490Y-115132526D01*
X106139000Y-115054551D01*
X106139000Y-114975049D01*
X106648200Y-114975049D01*
X106648200Y-115054551D01*
X106663710Y-115132526D01*
X106694134Y-115205976D01*
X106738303Y-115272080D01*
X106794520Y-115328297D01*
X106860624Y-115372466D01*
X106934074Y-115402890D01*
X107012049Y-115418400D01*
X107091551Y-115418400D01*
X107169526Y-115402890D01*
X107242976Y-115372466D01*
X107309080Y-115328297D01*
X107365297Y-115272080D01*
X107409466Y-115205976D01*
X107439890Y-115132526D01*
X107455400Y-115054551D01*
X107455400Y-114975049D01*
X107439890Y-114897074D01*
X107409466Y-114823624D01*
X107365297Y-114757520D01*
X107309080Y-114701303D01*
X107242976Y-114657134D01*
X107169526Y-114626710D01*
X107091551Y-114611200D01*
X107012049Y-114611200D01*
X106934074Y-114626710D01*
X106860624Y-114657134D01*
X106794520Y-114701303D01*
X106738303Y-114757520D01*
X106694134Y-114823624D01*
X106663710Y-114897074D01*
X106648200Y-114975049D01*
X106139000Y-114975049D01*
X106123490Y-114897074D01*
X106093066Y-114823624D01*
X106048897Y-114757520D01*
X106013677Y-114722300D01*
X106064097Y-114671880D01*
X106108266Y-114605776D01*
X106138690Y-114532326D01*
X106154200Y-114454351D01*
X106154200Y-114374849D01*
X106138690Y-114296874D01*
X106108266Y-114223424D01*
X106064097Y-114157320D01*
X106007880Y-114101103D01*
X105941776Y-114056934D01*
X105868326Y-114026510D01*
X105790351Y-114011000D01*
X105710849Y-114011000D01*
X105632874Y-114026510D01*
X105559424Y-114056934D01*
X105493320Y-114101103D01*
X105440783Y-114153640D01*
X105423597Y-114127920D01*
X105367380Y-114071703D01*
X105301276Y-114027534D01*
X105227826Y-113997110D01*
X105149851Y-113981600D01*
X105070349Y-113981600D01*
X104992374Y-113997110D01*
X104918924Y-114027534D01*
X104852820Y-114071703D01*
X104849666Y-114074857D01*
X104874490Y-114014926D01*
X104890000Y-113936951D01*
X104890000Y-113857449D01*
X104874490Y-113779474D01*
X104844066Y-113706024D01*
X104799897Y-113639920D01*
X104743680Y-113583703D01*
X104677576Y-113539534D01*
X104604126Y-113509110D01*
X104526151Y-113493600D01*
X104446649Y-113493600D01*
X104368674Y-113509110D01*
X104295224Y-113539534D01*
X104229120Y-113583703D01*
X104172903Y-113639920D01*
X104128734Y-113706024D01*
X104098310Y-113779474D01*
X104082800Y-113857449D01*
X104065240Y-113857449D01*
X104065240Y-113382849D01*
X106581000Y-113382849D01*
X106581000Y-113462351D01*
X106596510Y-113540326D01*
X106626934Y-113613776D01*
X106666239Y-113672600D01*
X106626934Y-113731424D01*
X106596510Y-113804874D01*
X106581000Y-113882849D01*
X106581000Y-113962351D01*
X106596510Y-114040326D01*
X106626934Y-114113776D01*
X106671103Y-114179880D01*
X106727320Y-114236097D01*
X106793424Y-114280266D01*
X106866874Y-114310690D01*
X106944849Y-114326200D01*
X107024351Y-114326200D01*
X107102326Y-114310690D01*
X107175776Y-114280266D01*
X107241880Y-114236097D01*
X107298097Y-114179880D01*
X107342266Y-114113776D01*
X107364271Y-114060649D01*
X114750800Y-114060649D01*
X114750800Y-114140151D01*
X114766310Y-114218126D01*
X114796734Y-114291576D01*
X114840903Y-114357680D01*
X114897120Y-114413897D01*
X114963224Y-114458066D01*
X115036674Y-114488490D01*
X115114649Y-114504000D01*
X115194151Y-114504000D01*
X115272126Y-114488490D01*
X115345576Y-114458066D01*
X115411680Y-114413897D01*
X115467897Y-114357680D01*
X115512066Y-114291576D01*
X115513031Y-114289245D01*
X117469400Y-114289245D01*
X117469400Y-114368747D01*
X117484910Y-114446722D01*
X117515334Y-114520172D01*
X117559503Y-114586276D01*
X117615720Y-114642493D01*
X117681824Y-114686662D01*
X117755274Y-114717086D01*
X117833249Y-114732596D01*
X117912751Y-114732596D01*
X117990726Y-114717086D01*
X118064176Y-114686662D01*
X118130280Y-114642493D01*
X118135383Y-114637390D01*
X118418091Y-114637390D01*
X118418091Y-114716892D01*
X118433601Y-114794867D01*
X118464025Y-114868317D01*
X118508194Y-114934421D01*
X118564411Y-114990638D01*
X118630515Y-115034807D01*
X118703965Y-115065231D01*
X118781940Y-115080741D01*
X118861442Y-115080741D01*
X118939417Y-115065231D01*
X119012867Y-115034807D01*
X119078971Y-114990638D01*
X119135188Y-114934421D01*
X119179357Y-114868317D01*
X119209781Y-114794867D01*
X119225291Y-114716892D01*
X119225291Y-114637390D01*
X119209781Y-114559415D01*
X119179357Y-114485965D01*
X119135188Y-114419861D01*
X119078971Y-114363644D01*
X119012867Y-114319475D01*
X118939417Y-114289051D01*
X118861442Y-114273541D01*
X118781940Y-114273541D01*
X118703965Y-114289051D01*
X118630515Y-114319475D01*
X118564411Y-114363644D01*
X118508194Y-114419861D01*
X118464025Y-114485965D01*
X118433601Y-114559415D01*
X118418091Y-114637390D01*
X118135383Y-114637390D01*
X118186497Y-114586276D01*
X118230666Y-114520172D01*
X118261090Y-114446722D01*
X118276600Y-114368747D01*
X118276600Y-114289245D01*
X118261090Y-114211270D01*
X118230666Y-114137820D01*
X118186497Y-114071716D01*
X118130280Y-114015499D01*
X118064176Y-113971330D01*
X117990726Y-113940906D01*
X117912751Y-113925396D01*
X117833249Y-113925396D01*
X117755274Y-113940906D01*
X117681824Y-113971330D01*
X117615720Y-114015499D01*
X117559503Y-114071716D01*
X117515334Y-114137820D01*
X117484910Y-114211270D01*
X117469400Y-114289245D01*
X115513031Y-114289245D01*
X115542490Y-114218126D01*
X115558000Y-114140151D01*
X115558000Y-114060649D01*
X115542490Y-113982674D01*
X115512066Y-113909224D01*
X115467897Y-113843120D01*
X115411680Y-113786903D01*
X115345576Y-113742734D01*
X115272126Y-113712310D01*
X115194151Y-113696800D01*
X115114649Y-113696800D01*
X115036674Y-113712310D01*
X114963224Y-113742734D01*
X114897120Y-113786903D01*
X114840903Y-113843120D01*
X114796734Y-113909224D01*
X114766310Y-113982674D01*
X114750800Y-114060649D01*
X107364271Y-114060649D01*
X107372690Y-114040326D01*
X107388200Y-113962351D01*
X107388200Y-113882849D01*
X107372690Y-113804874D01*
X107342266Y-113731424D01*
X107302961Y-113672600D01*
X107342266Y-113613776D01*
X107372690Y-113540326D01*
X107388200Y-113462351D01*
X107388200Y-113382849D01*
X107378772Y-113335449D01*
X111855200Y-113335449D01*
X111855200Y-113414951D01*
X111870710Y-113492926D01*
X111901134Y-113566376D01*
X111945303Y-113632480D01*
X112001520Y-113688697D01*
X112067624Y-113732866D01*
X112141074Y-113763290D01*
X112219049Y-113778800D01*
X112298551Y-113778800D01*
X112376526Y-113763290D01*
X112449976Y-113732866D01*
X112516080Y-113688697D01*
X112572297Y-113632480D01*
X112616466Y-113566376D01*
X112646890Y-113492926D01*
X112662400Y-113414951D01*
X112662400Y-113335449D01*
X112646890Y-113257474D01*
X112616466Y-113184024D01*
X112572297Y-113117920D01*
X112516080Y-113061703D01*
X112449976Y-113017534D01*
X112376526Y-112987110D01*
X112298551Y-112971600D01*
X112219049Y-112971600D01*
X112141074Y-112987110D01*
X112067624Y-113017534D01*
X112001520Y-113061703D01*
X111945303Y-113117920D01*
X111901134Y-113184024D01*
X111870710Y-113257474D01*
X111855200Y-113335449D01*
X107378772Y-113335449D01*
X107372690Y-113304874D01*
X107342266Y-113231424D01*
X107298097Y-113165320D01*
X107241880Y-113109103D01*
X107175776Y-113064934D01*
X107102326Y-113034510D01*
X107024351Y-113019000D01*
X106944849Y-113019000D01*
X106866874Y-113034510D01*
X106793424Y-113064934D01*
X106727320Y-113109103D01*
X106671103Y-113165320D01*
X106626934Y-113231424D01*
X106596510Y-113304874D01*
X106581000Y-113382849D01*
X104065240Y-113382849D01*
X104065240Y-113135180D01*
X104272292Y-113135180D01*
X104275384Y-113137246D01*
X104348834Y-113167670D01*
X104426809Y-113183180D01*
X104506311Y-113183180D01*
X104584286Y-113167670D01*
X104657736Y-113137246D01*
X104723840Y-113093077D01*
X104780057Y-113036860D01*
X104824226Y-112970756D01*
X104854650Y-112897306D01*
X104870160Y-112819331D01*
X104870160Y-112739829D01*
X104854650Y-112661854D01*
X104824226Y-112588404D01*
X104787173Y-112532949D01*
X105269000Y-112532949D01*
X105269000Y-112612451D01*
X105284510Y-112690426D01*
X105314934Y-112763876D01*
X105359103Y-112829980D01*
X105415320Y-112886197D01*
X105481424Y-112930366D01*
X105554874Y-112960790D01*
X105632849Y-112976300D01*
X105712351Y-112976300D01*
X105790326Y-112960790D01*
X105863776Y-112930366D01*
X105929880Y-112886197D01*
X105986097Y-112829980D01*
X106030266Y-112763876D01*
X106060690Y-112690426D01*
X106076200Y-112612451D01*
X106076200Y-112532949D01*
X106061780Y-112460449D01*
X109264400Y-112460449D01*
X109264400Y-112539951D01*
X109279910Y-112617926D01*
X109310334Y-112691376D01*
X109354503Y-112757480D01*
X109410720Y-112813697D01*
X109476824Y-112857866D01*
X109550274Y-112888290D01*
X109628249Y-112903800D01*
X109707751Y-112903800D01*
X109785726Y-112888290D01*
X109859176Y-112857866D01*
X109925280Y-112813697D01*
X109981497Y-112757480D01*
X110025666Y-112691376D01*
X110056090Y-112617926D01*
X110071600Y-112539951D01*
X110071600Y-112492365D01*
X110086424Y-112502270D01*
X110159874Y-112532694D01*
X110237849Y-112548204D01*
X110317351Y-112548204D01*
X110395326Y-112532694D01*
X110468776Y-112502270D01*
X110534880Y-112458101D01*
X110591097Y-112401884D01*
X110635266Y-112335780D01*
X110665690Y-112262330D01*
X110681200Y-112184355D01*
X110681200Y-112104853D01*
X110665690Y-112026878D01*
X110635266Y-111953428D01*
X110591097Y-111887324D01*
X110534880Y-111831107D01*
X110468776Y-111786938D01*
X110460861Y-111783659D01*
X110462490Y-111779726D01*
X110478000Y-111701751D01*
X110478000Y-111622249D01*
X110462490Y-111544274D01*
X110432066Y-111470824D01*
X110387897Y-111404720D01*
X110331680Y-111348503D01*
X110265576Y-111304334D01*
X110192126Y-111273910D01*
X110114151Y-111258400D01*
X110034649Y-111258400D01*
X109956674Y-111273910D01*
X109883224Y-111304334D01*
X109817120Y-111348503D01*
X109760903Y-111404720D01*
X109716734Y-111470824D01*
X109686310Y-111544274D01*
X109670800Y-111622249D01*
X109670800Y-111701751D01*
X109686310Y-111779726D01*
X109716734Y-111853176D01*
X109760903Y-111919280D01*
X109817120Y-111975497D01*
X109883224Y-112019666D01*
X109891139Y-112022945D01*
X109889510Y-112026878D01*
X109874000Y-112104853D01*
X109874000Y-112152439D01*
X109859176Y-112142534D01*
X109785726Y-112112110D01*
X109707751Y-112096600D01*
X109628249Y-112096600D01*
X109550274Y-112112110D01*
X109476824Y-112142534D01*
X109410720Y-112186703D01*
X109354503Y-112242920D01*
X109310334Y-112309024D01*
X109279910Y-112382474D01*
X109264400Y-112460449D01*
X106061780Y-112460449D01*
X106060690Y-112454974D01*
X106030266Y-112381524D01*
X105986097Y-112315420D01*
X105929880Y-112259203D01*
X105863776Y-112215034D01*
X105790326Y-112184610D01*
X105712351Y-112169100D01*
X105632849Y-112169100D01*
X105554874Y-112184610D01*
X105481424Y-112215034D01*
X105415320Y-112259203D01*
X105359103Y-112315420D01*
X105314934Y-112381524D01*
X105284510Y-112454974D01*
X105269000Y-112532949D01*
X104787173Y-112532949D01*
X104780057Y-112522300D01*
X104723840Y-112466083D01*
X104657736Y-112421914D01*
X104638093Y-112413778D01*
X104660340Y-112398913D01*
X104716557Y-112342696D01*
X104760726Y-112276592D01*
X104791150Y-112203142D01*
X104806660Y-112125167D01*
X104806660Y-112045665D01*
X104791150Y-111967690D01*
X104760726Y-111894240D01*
X104716557Y-111828136D01*
X104711319Y-111822898D01*
X104753537Y-111780680D01*
X104797706Y-111714576D01*
X104828130Y-111641126D01*
X104843640Y-111563151D01*
X104843640Y-111483649D01*
X104828130Y-111405674D01*
X104797706Y-111332224D01*
X104753537Y-111266120D01*
X104746687Y-111259270D01*
X104752177Y-111253780D01*
X104796346Y-111187676D01*
X104826770Y-111114226D01*
X104842280Y-111036251D01*
X104842280Y-110956749D01*
X104826770Y-110878774D01*
X104796346Y-110805324D01*
X104752177Y-110739220D01*
X104695960Y-110683003D01*
X104629856Y-110638834D01*
X104556406Y-110608410D01*
X104478431Y-110592900D01*
X104398929Y-110592900D01*
X104320954Y-110608410D01*
X104247504Y-110638834D01*
X104237197Y-110645721D01*
X104065240Y-110645721D01*
X104065240Y-110221542D01*
X115556400Y-110221542D01*
X115556401Y-113246459D01*
X115557659Y-113259234D01*
X115557659Y-113265727D01*
X115558029Y-113269248D01*
X115568906Y-113366223D01*
X115573691Y-113388733D01*
X115578150Y-113411254D01*
X115579197Y-113414637D01*
X115608703Y-113507652D01*
X115617756Y-113528775D01*
X115626516Y-113550028D01*
X115628200Y-113553143D01*
X115675211Y-113638656D01*
X115688217Y-113657650D01*
X115700918Y-113676767D01*
X115703175Y-113679496D01*
X115765900Y-113754248D01*
X115782335Y-113770343D01*
X115798517Y-113786638D01*
X115801261Y-113788876D01*
X115877311Y-113850022D01*
X115896560Y-113862618D01*
X115915600Y-113875461D01*
X115918726Y-113877123D01*
X116005206Y-113922334D01*
X116026537Y-113930952D01*
X116047704Y-113939850D01*
X116051094Y-113940874D01*
X116144706Y-113968426D01*
X116167278Y-113972732D01*
X116189801Y-113977355D01*
X116193321Y-113977700D01*
X116193325Y-113977700D01*
X116290508Y-113986544D01*
X116313525Y-113986384D01*
X116336475Y-113986544D01*
X116339999Y-113986199D01*
X116340003Y-113986199D01*
X116437047Y-113975999D01*
X116459571Y-113971375D01*
X116482140Y-113967070D01*
X116485530Y-113966047D01*
X116578749Y-113937191D01*
X116599985Y-113928264D01*
X116621251Y-113919672D01*
X116624372Y-113918013D01*
X116624376Y-113918011D01*
X116624379Y-113918009D01*
X116710215Y-113871597D01*
X116729238Y-113858766D01*
X116748503Y-113846159D01*
X116751247Y-113843921D01*
X116826436Y-113781719D01*
X116842653Y-113765388D01*
X116859052Y-113749329D01*
X116861310Y-113746601D01*
X116922986Y-113670980D01*
X116935704Y-113651837D01*
X116948693Y-113632868D01*
X116950377Y-113629753D01*
X116996189Y-113543592D01*
X117004951Y-113522332D01*
X117014001Y-113501217D01*
X117015049Y-113497835D01*
X117043254Y-113404417D01*
X117047723Y-113381845D01*
X117052497Y-113359385D01*
X117052868Y-113355863D01*
X117062390Y-113258746D01*
X117062390Y-113258745D01*
X117063600Y-113246459D01*
X117063600Y-113146249D01*
X117849600Y-113146249D01*
X117849600Y-113225751D01*
X117865110Y-113303726D01*
X117895534Y-113377176D01*
X117939703Y-113443280D01*
X117995920Y-113499497D01*
X118062024Y-113543666D01*
X118135474Y-113574090D01*
X118213449Y-113589600D01*
X118292951Y-113589600D01*
X118370926Y-113574090D01*
X118444376Y-113543666D01*
X118510480Y-113499497D01*
X118566697Y-113443280D01*
X118610866Y-113377176D01*
X118641290Y-113303726D01*
X118656800Y-113225751D01*
X118656800Y-113146249D01*
X118641290Y-113068274D01*
X118610866Y-112994824D01*
X118566697Y-112928720D01*
X118510480Y-112872503D01*
X118444376Y-112828334D01*
X118370926Y-112797910D01*
X118292951Y-112782400D01*
X118213449Y-112782400D01*
X118135474Y-112797910D01*
X118062024Y-112828334D01*
X117995920Y-112872503D01*
X117939703Y-112928720D01*
X117895534Y-112994824D01*
X117865110Y-113068274D01*
X117849600Y-113146249D01*
X117063600Y-113146249D01*
X117063600Y-111901649D01*
X117595600Y-111901649D01*
X117595600Y-111981151D01*
X117611110Y-112059126D01*
X117641534Y-112132576D01*
X117685703Y-112198680D01*
X117741920Y-112254897D01*
X117808024Y-112299066D01*
X117881474Y-112329490D01*
X117959449Y-112345000D01*
X118038951Y-112345000D01*
X118116926Y-112329490D01*
X118190376Y-112299066D01*
X118256480Y-112254897D01*
X118312697Y-112198680D01*
X118356866Y-112132576D01*
X118387290Y-112059126D01*
X118402800Y-111981151D01*
X118402800Y-111901649D01*
X118397713Y-111876074D01*
X118418976Y-111867266D01*
X118485080Y-111823097D01*
X118541297Y-111766880D01*
X118585466Y-111700776D01*
X118615890Y-111627326D01*
X118631400Y-111549351D01*
X118631400Y-111469849D01*
X118615890Y-111391874D01*
X118585466Y-111318424D01*
X118541297Y-111252320D01*
X118485080Y-111196103D01*
X118418976Y-111151934D01*
X118345526Y-111121510D01*
X118267551Y-111106000D01*
X118188049Y-111106000D01*
X118110074Y-111121510D01*
X118036624Y-111151934D01*
X117970520Y-111196103D01*
X117914303Y-111252320D01*
X117870134Y-111318424D01*
X117839710Y-111391874D01*
X117824200Y-111469849D01*
X117824200Y-111549351D01*
X117829287Y-111574926D01*
X117808024Y-111583734D01*
X117741920Y-111627903D01*
X117685703Y-111684120D01*
X117641534Y-111750224D01*
X117611110Y-111823674D01*
X117595600Y-111901649D01*
X117063600Y-111901649D01*
X117063600Y-111570368D01*
X117076103Y-111589080D01*
X117132320Y-111645297D01*
X117198424Y-111689466D01*
X117271874Y-111719890D01*
X117349849Y-111735400D01*
X117429351Y-111735400D01*
X117507326Y-111719890D01*
X117580776Y-111689466D01*
X117646880Y-111645297D01*
X117703097Y-111589080D01*
X117747266Y-111522976D01*
X117777690Y-111449526D01*
X117793200Y-111371551D01*
X117793200Y-111292049D01*
X117777690Y-111214074D01*
X117747266Y-111140624D01*
X117703097Y-111074520D01*
X117646880Y-111018303D01*
X117580776Y-110974134D01*
X117507326Y-110943710D01*
X117429351Y-110928200D01*
X117349849Y-110928200D01*
X117271874Y-110943710D01*
X117198424Y-110974134D01*
X117132320Y-111018303D01*
X117076103Y-111074520D01*
X117063600Y-111093232D01*
X117063600Y-110221541D01*
X117062341Y-110208756D01*
X117062341Y-110202273D01*
X117061971Y-110198752D01*
X117051094Y-110101777D01*
X117046309Y-110079267D01*
X117041850Y-110056746D01*
X117040803Y-110053363D01*
X117011297Y-109960348D01*
X117002240Y-109939218D01*
X116993483Y-109917971D01*
X116991799Y-109914856D01*
X116944789Y-109829344D01*
X116931772Y-109810334D01*
X116919082Y-109791233D01*
X116916825Y-109788504D01*
X116854100Y-109713752D01*
X116837681Y-109697674D01*
X116821483Y-109681362D01*
X116818739Y-109679124D01*
X116742689Y-109617978D01*
X116723440Y-109605382D01*
X116704400Y-109592539D01*
X116701274Y-109590877D01*
X116614795Y-109545667D01*
X116593469Y-109537051D01*
X116572295Y-109528150D01*
X116568906Y-109527126D01*
X116475294Y-109499574D01*
X116452691Y-109495262D01*
X116430199Y-109490646D01*
X116426677Y-109490300D01*
X116426675Y-109490300D01*
X116329493Y-109481456D01*
X116306509Y-109481617D01*
X116283526Y-109481456D01*
X116280001Y-109481801D01*
X116182953Y-109492001D01*
X116160442Y-109496622D01*
X116137860Y-109500930D01*
X116134470Y-109501953D01*
X116041251Y-109530809D01*
X116020027Y-109539731D01*
X115998749Y-109548328D01*
X115995622Y-109549990D01*
X115909785Y-109596403D01*
X115890738Y-109609250D01*
X115871497Y-109621841D01*
X115868753Y-109624079D01*
X115793564Y-109686281D01*
X115777347Y-109702612D01*
X115760948Y-109718671D01*
X115758690Y-109721399D01*
X115697014Y-109797020D01*
X115684284Y-109816181D01*
X115671307Y-109835133D01*
X115669623Y-109838247D01*
X115623811Y-109924408D01*
X115615050Y-109945664D01*
X115605998Y-109966783D01*
X115604951Y-109970165D01*
X115576746Y-110063583D01*
X115572277Y-110086155D01*
X115567503Y-110108615D01*
X115567132Y-110112137D01*
X115557610Y-110209254D01*
X115556400Y-110221542D01*
X104065240Y-110221542D01*
X104065240Y-109759520D01*
X104214877Y-109759520D01*
X104231994Y-109766610D01*
X104309969Y-109782120D01*
X104389471Y-109782120D01*
X104467446Y-109766610D01*
X104540896Y-109736186D01*
X104607000Y-109692017D01*
X104663217Y-109635800D01*
X104707386Y-109569696D01*
X104737810Y-109496246D01*
X104753320Y-109418271D01*
X104753320Y-109338769D01*
X104737810Y-109260794D01*
X104707386Y-109187344D01*
X104663217Y-109121240D01*
X104607000Y-109065023D01*
X104540896Y-109020854D01*
X104467446Y-108990430D01*
X104389471Y-108974920D01*
X104309969Y-108974920D01*
X104231994Y-108990430D01*
X104214877Y-108997520D01*
X104065240Y-108997520D01*
X104065240Y-108253300D01*
X106074407Y-108253300D01*
X106902810Y-109081705D01*
X106913937Y-109095263D01*
X106927495Y-109106390D01*
X106927500Y-109106395D01*
X106949927Y-109124800D01*
X106968084Y-109139701D01*
X107029860Y-109172721D01*
X107096890Y-109193054D01*
X107149137Y-109198200D01*
X107149146Y-109198200D01*
X107166599Y-109199919D01*
X107184052Y-109198200D01*
X109639718Y-109198200D01*
X109614720Y-109214903D01*
X109558503Y-109271120D01*
X109514334Y-109337224D01*
X109483910Y-109410674D01*
X109468400Y-109488649D01*
X109468400Y-109568151D01*
X109483910Y-109646126D01*
X109514334Y-109719576D01*
X109558503Y-109785680D01*
X109614720Y-109841897D01*
X109680824Y-109886066D01*
X109754274Y-109916490D01*
X109832249Y-109932000D01*
X109911751Y-109932000D01*
X109989726Y-109916490D01*
X110063176Y-109886066D01*
X110129280Y-109841897D01*
X110185497Y-109785680D01*
X110229666Y-109719576D01*
X110260090Y-109646126D01*
X110275600Y-109568151D01*
X110275600Y-109488649D01*
X110260090Y-109410674D01*
X110229666Y-109337224D01*
X110185497Y-109271120D01*
X110129280Y-109214903D01*
X110104282Y-109198200D01*
X110953332Y-109198200D01*
X110956424Y-109200266D01*
X111029874Y-109230690D01*
X111107849Y-109246200D01*
X111187351Y-109246200D01*
X111265326Y-109230690D01*
X111338776Y-109200266D01*
X111404880Y-109156097D01*
X111461097Y-109099880D01*
X111505266Y-109033776D01*
X111535690Y-108960326D01*
X111551200Y-108882351D01*
X111551200Y-108802849D01*
X111535690Y-108724874D01*
X111515384Y-108675849D01*
X114166600Y-108675849D01*
X114166600Y-108755351D01*
X114182110Y-108833326D01*
X114212534Y-108906776D01*
X114256703Y-108972880D01*
X114312920Y-109029097D01*
X114379024Y-109073266D01*
X114452474Y-109103690D01*
X114530449Y-109119200D01*
X114609951Y-109119200D01*
X114687926Y-109103690D01*
X114761376Y-109073266D01*
X114827480Y-109029097D01*
X114883697Y-108972880D01*
X114927866Y-108906776D01*
X114958290Y-108833326D01*
X114973800Y-108755351D01*
X114973800Y-108675849D01*
X114958290Y-108597874D01*
X114927866Y-108524424D01*
X114883697Y-108458320D01*
X114827480Y-108402103D01*
X114761376Y-108357934D01*
X114687926Y-108327510D01*
X114609951Y-108312000D01*
X114530449Y-108312000D01*
X114452474Y-108327510D01*
X114379024Y-108357934D01*
X114312920Y-108402103D01*
X114256703Y-108458320D01*
X114212534Y-108524424D01*
X114182110Y-108597874D01*
X114166600Y-108675849D01*
X111515384Y-108675849D01*
X111505266Y-108651424D01*
X111461097Y-108585320D01*
X111404880Y-108529103D01*
X111338776Y-108484934D01*
X111265326Y-108454510D01*
X111187351Y-108439000D01*
X111107849Y-108439000D01*
X111029874Y-108454510D01*
X110956424Y-108484934D01*
X110953332Y-108487000D01*
X107313895Y-108487000D01*
X107070707Y-108243813D01*
X107108526Y-108236290D01*
X107181976Y-108205866D01*
X107248080Y-108161697D01*
X107304297Y-108105480D01*
X107348466Y-108039376D01*
X107378890Y-107965926D01*
X107394400Y-107887951D01*
X107394400Y-107808449D01*
X107378890Y-107730474D01*
X107348466Y-107657024D01*
X107304297Y-107590920D01*
X107274910Y-107561533D01*
X113555344Y-107560947D01*
X113550920Y-107563903D01*
X113494703Y-107620120D01*
X113450534Y-107686224D01*
X113420110Y-107759674D01*
X113404600Y-107837649D01*
X113404600Y-107917151D01*
X113420110Y-107995126D01*
X113450534Y-108068576D01*
X113494703Y-108134680D01*
X113550920Y-108190897D01*
X113617024Y-108235066D01*
X113690474Y-108265490D01*
X113768449Y-108281000D01*
X113847951Y-108281000D01*
X113925926Y-108265490D01*
X113999376Y-108235066D01*
X114023945Y-108218649D01*
X115208000Y-108218649D01*
X115208000Y-108298151D01*
X115223510Y-108376126D01*
X115253934Y-108449576D01*
X115298103Y-108515680D01*
X115354320Y-108571897D01*
X115420424Y-108616066D01*
X115493874Y-108646490D01*
X115571849Y-108662000D01*
X115651351Y-108662000D01*
X115729326Y-108646490D01*
X115802776Y-108616066D01*
X115868880Y-108571897D01*
X115925097Y-108515680D01*
X115969266Y-108449576D01*
X115999690Y-108376126D01*
X116015200Y-108298151D01*
X116015200Y-108218649D01*
X115999690Y-108140674D01*
X115969266Y-108067224D01*
X115925097Y-108001120D01*
X115868880Y-107944903D01*
X115802776Y-107900734D01*
X115729326Y-107870310D01*
X115651351Y-107854800D01*
X115571849Y-107854800D01*
X115493874Y-107870310D01*
X115420424Y-107900734D01*
X115354320Y-107944903D01*
X115298103Y-108001120D01*
X115253934Y-108067224D01*
X115223510Y-108140674D01*
X115208000Y-108218649D01*
X114023945Y-108218649D01*
X114065480Y-108190897D01*
X114121697Y-108134680D01*
X114165866Y-108068576D01*
X114196290Y-107995126D01*
X114211800Y-107917151D01*
X114211800Y-107837649D01*
X114196290Y-107759674D01*
X114165866Y-107686224D01*
X114121697Y-107620120D01*
X114065480Y-107563903D01*
X114060986Y-107560900D01*
X117216218Y-107560605D01*
X117207503Y-107569320D01*
X117163334Y-107635424D01*
X117132910Y-107708874D01*
X117117400Y-107786849D01*
X117117400Y-107866351D01*
X117132910Y-107944326D01*
X117163334Y-108017776D01*
X117207503Y-108083880D01*
X117263720Y-108140097D01*
X117329824Y-108184266D01*
X117403274Y-108214690D01*
X117481249Y-108230200D01*
X117560751Y-108230200D01*
X117638726Y-108214690D01*
X117712176Y-108184266D01*
X117778280Y-108140097D01*
X117834497Y-108083880D01*
X117878666Y-108017776D01*
X117909090Y-107944326D01*
X117924600Y-107866351D01*
X117924600Y-107786849D01*
X117909090Y-107708874D01*
X117878666Y-107635424D01*
X117834497Y-107569320D01*
X117825725Y-107560548D01*
X120365691Y-107560311D01*
X120329534Y-107614424D01*
X120299110Y-107687874D01*
X120283600Y-107765849D01*
X120283600Y-107845351D01*
X120299110Y-107923326D01*
X120318865Y-107971018D01*
X120281920Y-107995703D01*
X120225703Y-108051920D01*
X120181534Y-108118024D01*
X120151110Y-108191474D01*
X120135600Y-108269449D01*
X120135600Y-108348951D01*
X120151110Y-108426926D01*
X120181534Y-108500376D01*
X120225703Y-108566480D01*
X120281920Y-108622697D01*
X120348024Y-108666866D01*
X120421474Y-108697290D01*
X120499449Y-108712800D01*
X120578951Y-108712800D01*
X120656926Y-108697290D01*
X120730376Y-108666866D01*
X120796480Y-108622697D01*
X120852697Y-108566480D01*
X120896866Y-108500376D01*
X120927290Y-108426926D01*
X120942800Y-108348951D01*
X120942800Y-108269449D01*
X120927290Y-108191474D01*
X120907535Y-108143782D01*
X120944480Y-108119097D01*
X121000697Y-108062880D01*
X121044866Y-107996776D01*
X121075290Y-107923326D01*
X121090800Y-107845351D01*
X121090800Y-107765849D01*
X121075290Y-107687874D01*
X121044866Y-107614424D01*
X121008669Y-107560251D01*
X121483800Y-107560207D01*
X121483800Y-109478347D01*
G04 #@! TA.AperFunction,Conductor*
D16*
G36*
X121483800Y-109478347D02*
G01*
X121441576Y-109450134D01*
X121368126Y-109419710D01*
X121290151Y-109404200D01*
X121210649Y-109404200D01*
X121132674Y-109419710D01*
X121059224Y-109450134D01*
X120993120Y-109494303D01*
X120936903Y-109550520D01*
X120922264Y-109572429D01*
X120376821Y-109026987D01*
X120366478Y-109014384D01*
X120316199Y-108973121D01*
X120258835Y-108942460D01*
X120196592Y-108923578D01*
X120148077Y-108918800D01*
X120148075Y-108918800D01*
X120131862Y-108917203D01*
X120115649Y-108918800D01*
X119226928Y-108918800D01*
X119239230Y-108856951D01*
X119239230Y-108777449D01*
X119223720Y-108699474D01*
X119193296Y-108626024D01*
X119149127Y-108559920D01*
X119092910Y-108503703D01*
X119026806Y-108459534D01*
X118953356Y-108429110D01*
X118875381Y-108413600D01*
X118795879Y-108413600D01*
X118717904Y-108429110D01*
X118644454Y-108459534D01*
X118578350Y-108503703D01*
X118522133Y-108559920D01*
X118477964Y-108626024D01*
X118447540Y-108699474D01*
X118435446Y-108760273D01*
X118300660Y-108625487D01*
X118291015Y-108576999D01*
X118260591Y-108503549D01*
X118216422Y-108437445D01*
X118160205Y-108381228D01*
X118094101Y-108337059D01*
X118020651Y-108306635D01*
X117942676Y-108291125D01*
X117863174Y-108291125D01*
X117785199Y-108306635D01*
X117711749Y-108337059D01*
X117645645Y-108381228D01*
X117589428Y-108437445D01*
X117545259Y-108503549D01*
X117514835Y-108576999D01*
X117499325Y-108654974D01*
X117499325Y-108734476D01*
X117514835Y-108812451D01*
X117545259Y-108885901D01*
X117589428Y-108952005D01*
X117628443Y-108991020D01*
X117592203Y-109027260D01*
X117548034Y-109093364D01*
X117517610Y-109166814D01*
X117502100Y-109244789D01*
X117502100Y-109324291D01*
X117517610Y-109402266D01*
X117548034Y-109475716D01*
X117592203Y-109541820D01*
X117648420Y-109598037D01*
X117714524Y-109642206D01*
X117787974Y-109672630D01*
X117865949Y-109688140D01*
X117945451Y-109688140D01*
X118023426Y-109672630D01*
X118096876Y-109642206D01*
X118162980Y-109598037D01*
X118219197Y-109541820D01*
X118245514Y-109502434D01*
X118272863Y-109524879D01*
X118330227Y-109555540D01*
X118392470Y-109574422D01*
X118440985Y-109579200D01*
X118440994Y-109579200D01*
X118457199Y-109580796D01*
X118473404Y-109579200D01*
X119995090Y-109579200D01*
X121073401Y-110657513D01*
X121073401Y-111497624D01*
X121025880Y-111450103D01*
X120959776Y-111405934D01*
X120886326Y-111375510D01*
X120808351Y-111360000D01*
X120728849Y-111360000D01*
X120650874Y-111375510D01*
X120577424Y-111405934D01*
X120511320Y-111450103D01*
X120455103Y-111506320D01*
X120410934Y-111572424D01*
X120380510Y-111645874D01*
X120365000Y-111723849D01*
X120365000Y-111803351D01*
X120380510Y-111881326D01*
X120410934Y-111954776D01*
X120455103Y-112020880D01*
X120511320Y-112077097D01*
X120577424Y-112121266D01*
X120650874Y-112151690D01*
X120728849Y-112167200D01*
X120808351Y-112167200D01*
X120886326Y-112151690D01*
X120959776Y-112121266D01*
X121025880Y-112077097D01*
X121073401Y-112029576D01*
X121073400Y-113595319D01*
X121067070Y-113563494D01*
X121036646Y-113490044D01*
X120992477Y-113423940D01*
X120936260Y-113367723D01*
X120870156Y-113323554D01*
X120796706Y-113293130D01*
X120718731Y-113277620D01*
X120639229Y-113277620D01*
X120561254Y-113293130D01*
X120487804Y-113323554D01*
X120421700Y-113367723D01*
X120365483Y-113423940D01*
X120321314Y-113490044D01*
X120290890Y-113563494D01*
X120275380Y-113641469D01*
X120275380Y-113720971D01*
X120290890Y-113798946D01*
X120298884Y-113818246D01*
X120297224Y-113818934D01*
X120231120Y-113863103D01*
X120174903Y-113919320D01*
X120130734Y-113985424D01*
X120100310Y-114058874D01*
X120084800Y-114136849D01*
X120084800Y-114216351D01*
X120100310Y-114294326D01*
X120130734Y-114367776D01*
X120174903Y-114433880D01*
X120231120Y-114490097D01*
X120297224Y-114534266D01*
X120370674Y-114564690D01*
X120448649Y-114580200D01*
X120528151Y-114580200D01*
X120606126Y-114564690D01*
X120679576Y-114534266D01*
X120745680Y-114490097D01*
X120801897Y-114433880D01*
X120846066Y-114367776D01*
X120876490Y-114294326D01*
X120892000Y-114216351D01*
X120892000Y-114136849D01*
X120876490Y-114058874D01*
X120868496Y-114039574D01*
X120870156Y-114038886D01*
X120936260Y-113994717D01*
X120992477Y-113938500D01*
X121036646Y-113872396D01*
X121067070Y-113798946D01*
X121073400Y-113767121D01*
X121073400Y-114497027D01*
X120329827Y-115240601D01*
X118616574Y-115240601D01*
X118448535Y-115072562D01*
X118438890Y-115024074D01*
X118408466Y-114950624D01*
X118364297Y-114884520D01*
X118308080Y-114828303D01*
X118241976Y-114784134D01*
X118168526Y-114753710D01*
X118090551Y-114738200D01*
X118011049Y-114738200D01*
X117933074Y-114753710D01*
X117859624Y-114784134D01*
X117793520Y-114828303D01*
X117737303Y-114884520D01*
X117693134Y-114950624D01*
X117662710Y-115024074D01*
X117647200Y-115102049D01*
X117647200Y-115181551D01*
X117662710Y-115259526D01*
X117693134Y-115332976D01*
X117695047Y-115335839D01*
X117638726Y-115312510D01*
X117560751Y-115297000D01*
X117481249Y-115297000D01*
X117403274Y-115312510D01*
X117329824Y-115342934D01*
X117263720Y-115387103D01*
X117207503Y-115443320D01*
X117163334Y-115509424D01*
X117132910Y-115582874D01*
X117117400Y-115660849D01*
X117117400Y-115740351D01*
X117132910Y-115818326D01*
X117163334Y-115891776D01*
X117174314Y-115908209D01*
X116241881Y-115908296D01*
X116255297Y-115894880D01*
X116299466Y-115828776D01*
X116329890Y-115755326D01*
X116345400Y-115677351D01*
X116345400Y-115597849D01*
X116329890Y-115519874D01*
X116299466Y-115446424D01*
X116255297Y-115380320D01*
X116199080Y-115324103D01*
X116132976Y-115279934D01*
X116059526Y-115249510D01*
X115981551Y-115234000D01*
X115902049Y-115234000D01*
X115824074Y-115249510D01*
X115750624Y-115279934D01*
X115684520Y-115324103D01*
X115628303Y-115380320D01*
X115584134Y-115446424D01*
X115553710Y-115519874D01*
X115538200Y-115597849D01*
X115538200Y-115677351D01*
X115553710Y-115755326D01*
X115584134Y-115828776D01*
X115628303Y-115894880D01*
X115641775Y-115908352D01*
X112514042Y-115908644D01*
X112519890Y-115894526D01*
X112535400Y-115816551D01*
X112535400Y-115737049D01*
X112519890Y-115659074D01*
X112489466Y-115585624D01*
X112445297Y-115519520D01*
X112389080Y-115463303D01*
X112322976Y-115419134D01*
X112249526Y-115388710D01*
X112172803Y-115373449D01*
X112574400Y-115373449D01*
X112574400Y-115452951D01*
X112589910Y-115530926D01*
X112620334Y-115604376D01*
X112664503Y-115670480D01*
X112720720Y-115726697D01*
X112786824Y-115770866D01*
X112860274Y-115801290D01*
X112938249Y-115816800D01*
X113017751Y-115816800D01*
X113095726Y-115801290D01*
X113169176Y-115770866D01*
X113228000Y-115731561D01*
X113286824Y-115770866D01*
X113360274Y-115801290D01*
X113438249Y-115816800D01*
X113517751Y-115816800D01*
X113595726Y-115801290D01*
X113669176Y-115770866D01*
X113735280Y-115726697D01*
X113791497Y-115670480D01*
X113835666Y-115604376D01*
X113866090Y-115530926D01*
X113881600Y-115452951D01*
X113881600Y-115373449D01*
X113867155Y-115300826D01*
X113868274Y-115301290D01*
X113946249Y-115316800D01*
X114025751Y-115316800D01*
X114103726Y-115301290D01*
X114177176Y-115270866D01*
X114240000Y-115228889D01*
X114302824Y-115270866D01*
X114376274Y-115301290D01*
X114454249Y-115316800D01*
X114533751Y-115316800D01*
X114611726Y-115301290D01*
X114685176Y-115270866D01*
X114751280Y-115226697D01*
X114807497Y-115170480D01*
X114851666Y-115104376D01*
X114882090Y-115030926D01*
X114897600Y-114952951D01*
X114897600Y-114873449D01*
X114882090Y-114795474D01*
X114851666Y-114722024D01*
X114807497Y-114655920D01*
X114751280Y-114599703D01*
X114685176Y-114555534D01*
X114611726Y-114525110D01*
X114533751Y-114509600D01*
X114454249Y-114509600D01*
X114376274Y-114525110D01*
X114302824Y-114555534D01*
X114240000Y-114597511D01*
X114177176Y-114555534D01*
X114103726Y-114525110D01*
X114025751Y-114509600D01*
X113946249Y-114509600D01*
X113868274Y-114525110D01*
X113794824Y-114555534D01*
X113728720Y-114599703D01*
X113672503Y-114655920D01*
X113628334Y-114722024D01*
X113597910Y-114795474D01*
X113582400Y-114873449D01*
X113582400Y-114952951D01*
X113596845Y-115025574D01*
X113595726Y-115025110D01*
X113517751Y-115009600D01*
X113438249Y-115009600D01*
X113360274Y-115025110D01*
X113286824Y-115055534D01*
X113228000Y-115094839D01*
X113169176Y-115055534D01*
X113095726Y-115025110D01*
X113017751Y-115009600D01*
X112938249Y-115009600D01*
X112860274Y-115025110D01*
X112786824Y-115055534D01*
X112720720Y-115099703D01*
X112664503Y-115155920D01*
X112620334Y-115222024D01*
X112589910Y-115295474D01*
X112574400Y-115373449D01*
X112172803Y-115373449D01*
X112171551Y-115373200D01*
X112092049Y-115373200D01*
X112014074Y-115388710D01*
X111940624Y-115419134D01*
X111874520Y-115463303D01*
X111818303Y-115519520D01*
X111774134Y-115585624D01*
X111743710Y-115659074D01*
X111728200Y-115737049D01*
X111728200Y-115816551D01*
X111743710Y-115894526D01*
X111749588Y-115908716D01*
X110522271Y-115908830D01*
X110533666Y-115891776D01*
X110564090Y-115818326D01*
X110579600Y-115740351D01*
X110579600Y-115660849D01*
X110564090Y-115582874D01*
X110533666Y-115509424D01*
X110512472Y-115477705D01*
X110565697Y-115424480D01*
X110609866Y-115358376D01*
X110640290Y-115284926D01*
X110655800Y-115206951D01*
X110655800Y-115127449D01*
X110640290Y-115049474D01*
X110609866Y-114976024D01*
X110565697Y-114909920D01*
X110509480Y-114853703D01*
X110443376Y-114809534D01*
X110369926Y-114779110D01*
X110291951Y-114763600D01*
X110212449Y-114763600D01*
X110134474Y-114779110D01*
X110061024Y-114809534D01*
X109994920Y-114853703D01*
X109938703Y-114909920D01*
X109894534Y-114976024D01*
X109864110Y-115049474D01*
X109848600Y-115127449D01*
X109848600Y-115206951D01*
X109864110Y-115284926D01*
X109894534Y-115358376D01*
X109915728Y-115390095D01*
X109862503Y-115443320D01*
X109818334Y-115509424D01*
X109787910Y-115582874D01*
X109772400Y-115660849D01*
X109772400Y-115740351D01*
X109787910Y-115818326D01*
X109818334Y-115891776D01*
X109829772Y-115908895D01*
X104065240Y-115909433D01*
X104065240Y-113857449D01*
X104082800Y-113857449D01*
X104082800Y-113936951D01*
X104098310Y-114014926D01*
X104128734Y-114088376D01*
X104172903Y-114154480D01*
X104229120Y-114210697D01*
X104295224Y-114254866D01*
X104368674Y-114285290D01*
X104446649Y-114300800D01*
X104526151Y-114300800D01*
X104604126Y-114285290D01*
X104677576Y-114254866D01*
X104743680Y-114210697D01*
X104746834Y-114207543D01*
X104722010Y-114267474D01*
X104706500Y-114345449D01*
X104706500Y-114424951D01*
X104722010Y-114502926D01*
X104752434Y-114576376D01*
X104796603Y-114642480D01*
X104852820Y-114698697D01*
X104918924Y-114742866D01*
X104992374Y-114773290D01*
X105070349Y-114788800D01*
X105149851Y-114788800D01*
X105227826Y-114773290D01*
X105301276Y-114742866D01*
X105367380Y-114698697D01*
X105419917Y-114646160D01*
X105437103Y-114671880D01*
X105472323Y-114707100D01*
X105421903Y-114757520D01*
X105377734Y-114823624D01*
X105347310Y-114897074D01*
X105331800Y-114975049D01*
X105331800Y-115054551D01*
X105347310Y-115132526D01*
X105377734Y-115205976D01*
X105421903Y-115272080D01*
X105478120Y-115328297D01*
X105544224Y-115372466D01*
X105617674Y-115402890D01*
X105695649Y-115418400D01*
X105775151Y-115418400D01*
X105853126Y-115402890D01*
X105926576Y-115372466D01*
X105992680Y-115328297D01*
X106048897Y-115272080D01*
X106093066Y-115205976D01*
X106123490Y-115132526D01*
X106139000Y-115054551D01*
X106139000Y-114975049D01*
X106648200Y-114975049D01*
X106648200Y-115054551D01*
X106663710Y-115132526D01*
X106694134Y-115205976D01*
X106738303Y-115272080D01*
X106794520Y-115328297D01*
X106860624Y-115372466D01*
X106934074Y-115402890D01*
X107012049Y-115418400D01*
X107091551Y-115418400D01*
X107169526Y-115402890D01*
X107242976Y-115372466D01*
X107309080Y-115328297D01*
X107365297Y-115272080D01*
X107409466Y-115205976D01*
X107439890Y-115132526D01*
X107455400Y-115054551D01*
X107455400Y-114975049D01*
X107439890Y-114897074D01*
X107409466Y-114823624D01*
X107365297Y-114757520D01*
X107309080Y-114701303D01*
X107242976Y-114657134D01*
X107169526Y-114626710D01*
X107091551Y-114611200D01*
X107012049Y-114611200D01*
X106934074Y-114626710D01*
X106860624Y-114657134D01*
X106794520Y-114701303D01*
X106738303Y-114757520D01*
X106694134Y-114823624D01*
X106663710Y-114897074D01*
X106648200Y-114975049D01*
X106139000Y-114975049D01*
X106123490Y-114897074D01*
X106093066Y-114823624D01*
X106048897Y-114757520D01*
X106013677Y-114722300D01*
X106064097Y-114671880D01*
X106108266Y-114605776D01*
X106138690Y-114532326D01*
X106154200Y-114454351D01*
X106154200Y-114374849D01*
X106138690Y-114296874D01*
X106108266Y-114223424D01*
X106064097Y-114157320D01*
X106007880Y-114101103D01*
X105941776Y-114056934D01*
X105868326Y-114026510D01*
X105790351Y-114011000D01*
X105710849Y-114011000D01*
X105632874Y-114026510D01*
X105559424Y-114056934D01*
X105493320Y-114101103D01*
X105440783Y-114153640D01*
X105423597Y-114127920D01*
X105367380Y-114071703D01*
X105301276Y-114027534D01*
X105227826Y-113997110D01*
X105149851Y-113981600D01*
X105070349Y-113981600D01*
X104992374Y-113997110D01*
X104918924Y-114027534D01*
X104852820Y-114071703D01*
X104849666Y-114074857D01*
X104874490Y-114014926D01*
X104890000Y-113936951D01*
X104890000Y-113857449D01*
X104874490Y-113779474D01*
X104844066Y-113706024D01*
X104799897Y-113639920D01*
X104743680Y-113583703D01*
X104677576Y-113539534D01*
X104604126Y-113509110D01*
X104526151Y-113493600D01*
X104446649Y-113493600D01*
X104368674Y-113509110D01*
X104295224Y-113539534D01*
X104229120Y-113583703D01*
X104172903Y-113639920D01*
X104128734Y-113706024D01*
X104098310Y-113779474D01*
X104082800Y-113857449D01*
X104065240Y-113857449D01*
X104065240Y-113382849D01*
X106581000Y-113382849D01*
X106581000Y-113462351D01*
X106596510Y-113540326D01*
X106626934Y-113613776D01*
X106666239Y-113672600D01*
X106626934Y-113731424D01*
X106596510Y-113804874D01*
X106581000Y-113882849D01*
X106581000Y-113962351D01*
X106596510Y-114040326D01*
X106626934Y-114113776D01*
X106671103Y-114179880D01*
X106727320Y-114236097D01*
X106793424Y-114280266D01*
X106866874Y-114310690D01*
X106944849Y-114326200D01*
X107024351Y-114326200D01*
X107102326Y-114310690D01*
X107175776Y-114280266D01*
X107241880Y-114236097D01*
X107298097Y-114179880D01*
X107342266Y-114113776D01*
X107364271Y-114060649D01*
X114750800Y-114060649D01*
X114750800Y-114140151D01*
X114766310Y-114218126D01*
X114796734Y-114291576D01*
X114840903Y-114357680D01*
X114897120Y-114413897D01*
X114963224Y-114458066D01*
X115036674Y-114488490D01*
X115114649Y-114504000D01*
X115194151Y-114504000D01*
X115272126Y-114488490D01*
X115345576Y-114458066D01*
X115411680Y-114413897D01*
X115467897Y-114357680D01*
X115512066Y-114291576D01*
X115513031Y-114289245D01*
X117469400Y-114289245D01*
X117469400Y-114368747D01*
X117484910Y-114446722D01*
X117515334Y-114520172D01*
X117559503Y-114586276D01*
X117615720Y-114642493D01*
X117681824Y-114686662D01*
X117755274Y-114717086D01*
X117833249Y-114732596D01*
X117912751Y-114732596D01*
X117990726Y-114717086D01*
X118064176Y-114686662D01*
X118130280Y-114642493D01*
X118135383Y-114637390D01*
X118418091Y-114637390D01*
X118418091Y-114716892D01*
X118433601Y-114794867D01*
X118464025Y-114868317D01*
X118508194Y-114934421D01*
X118564411Y-114990638D01*
X118630515Y-115034807D01*
X118703965Y-115065231D01*
X118781940Y-115080741D01*
X118861442Y-115080741D01*
X118939417Y-115065231D01*
X119012867Y-115034807D01*
X119078971Y-114990638D01*
X119135188Y-114934421D01*
X119179357Y-114868317D01*
X119209781Y-114794867D01*
X119225291Y-114716892D01*
X119225291Y-114637390D01*
X119209781Y-114559415D01*
X119179357Y-114485965D01*
X119135188Y-114419861D01*
X119078971Y-114363644D01*
X119012867Y-114319475D01*
X118939417Y-114289051D01*
X118861442Y-114273541D01*
X118781940Y-114273541D01*
X118703965Y-114289051D01*
X118630515Y-114319475D01*
X118564411Y-114363644D01*
X118508194Y-114419861D01*
X118464025Y-114485965D01*
X118433601Y-114559415D01*
X118418091Y-114637390D01*
X118135383Y-114637390D01*
X118186497Y-114586276D01*
X118230666Y-114520172D01*
X118261090Y-114446722D01*
X118276600Y-114368747D01*
X118276600Y-114289245D01*
X118261090Y-114211270D01*
X118230666Y-114137820D01*
X118186497Y-114071716D01*
X118130280Y-114015499D01*
X118064176Y-113971330D01*
X117990726Y-113940906D01*
X117912751Y-113925396D01*
X117833249Y-113925396D01*
X117755274Y-113940906D01*
X117681824Y-113971330D01*
X117615720Y-114015499D01*
X117559503Y-114071716D01*
X117515334Y-114137820D01*
X117484910Y-114211270D01*
X117469400Y-114289245D01*
X115513031Y-114289245D01*
X115542490Y-114218126D01*
X115558000Y-114140151D01*
X115558000Y-114060649D01*
X115542490Y-113982674D01*
X115512066Y-113909224D01*
X115467897Y-113843120D01*
X115411680Y-113786903D01*
X115345576Y-113742734D01*
X115272126Y-113712310D01*
X115194151Y-113696800D01*
X115114649Y-113696800D01*
X115036674Y-113712310D01*
X114963224Y-113742734D01*
X114897120Y-113786903D01*
X114840903Y-113843120D01*
X114796734Y-113909224D01*
X114766310Y-113982674D01*
X114750800Y-114060649D01*
X107364271Y-114060649D01*
X107372690Y-114040326D01*
X107388200Y-113962351D01*
X107388200Y-113882849D01*
X107372690Y-113804874D01*
X107342266Y-113731424D01*
X107302961Y-113672600D01*
X107342266Y-113613776D01*
X107372690Y-113540326D01*
X107388200Y-113462351D01*
X107388200Y-113382849D01*
X107378772Y-113335449D01*
X111855200Y-113335449D01*
X111855200Y-113414951D01*
X111870710Y-113492926D01*
X111901134Y-113566376D01*
X111945303Y-113632480D01*
X112001520Y-113688697D01*
X112067624Y-113732866D01*
X112141074Y-113763290D01*
X112219049Y-113778800D01*
X112298551Y-113778800D01*
X112376526Y-113763290D01*
X112449976Y-113732866D01*
X112516080Y-113688697D01*
X112572297Y-113632480D01*
X112616466Y-113566376D01*
X112646890Y-113492926D01*
X112662400Y-113414951D01*
X112662400Y-113335449D01*
X112646890Y-113257474D01*
X112616466Y-113184024D01*
X112572297Y-113117920D01*
X112516080Y-113061703D01*
X112449976Y-113017534D01*
X112376526Y-112987110D01*
X112298551Y-112971600D01*
X112219049Y-112971600D01*
X112141074Y-112987110D01*
X112067624Y-113017534D01*
X112001520Y-113061703D01*
X111945303Y-113117920D01*
X111901134Y-113184024D01*
X111870710Y-113257474D01*
X111855200Y-113335449D01*
X107378772Y-113335449D01*
X107372690Y-113304874D01*
X107342266Y-113231424D01*
X107298097Y-113165320D01*
X107241880Y-113109103D01*
X107175776Y-113064934D01*
X107102326Y-113034510D01*
X107024351Y-113019000D01*
X106944849Y-113019000D01*
X106866874Y-113034510D01*
X106793424Y-113064934D01*
X106727320Y-113109103D01*
X106671103Y-113165320D01*
X106626934Y-113231424D01*
X106596510Y-113304874D01*
X106581000Y-113382849D01*
X104065240Y-113382849D01*
X104065240Y-113135180D01*
X104272292Y-113135180D01*
X104275384Y-113137246D01*
X104348834Y-113167670D01*
X104426809Y-113183180D01*
X104506311Y-113183180D01*
X104584286Y-113167670D01*
X104657736Y-113137246D01*
X104723840Y-113093077D01*
X104780057Y-113036860D01*
X104824226Y-112970756D01*
X104854650Y-112897306D01*
X104870160Y-112819331D01*
X104870160Y-112739829D01*
X104854650Y-112661854D01*
X104824226Y-112588404D01*
X104787173Y-112532949D01*
X105269000Y-112532949D01*
X105269000Y-112612451D01*
X105284510Y-112690426D01*
X105314934Y-112763876D01*
X105359103Y-112829980D01*
X105415320Y-112886197D01*
X105481424Y-112930366D01*
X105554874Y-112960790D01*
X105632849Y-112976300D01*
X105712351Y-112976300D01*
X105790326Y-112960790D01*
X105863776Y-112930366D01*
X105929880Y-112886197D01*
X105986097Y-112829980D01*
X106030266Y-112763876D01*
X106060690Y-112690426D01*
X106076200Y-112612451D01*
X106076200Y-112532949D01*
X106061780Y-112460449D01*
X109264400Y-112460449D01*
X109264400Y-112539951D01*
X109279910Y-112617926D01*
X109310334Y-112691376D01*
X109354503Y-112757480D01*
X109410720Y-112813697D01*
X109476824Y-112857866D01*
X109550274Y-112888290D01*
X109628249Y-112903800D01*
X109707751Y-112903800D01*
X109785726Y-112888290D01*
X109859176Y-112857866D01*
X109925280Y-112813697D01*
X109981497Y-112757480D01*
X110025666Y-112691376D01*
X110056090Y-112617926D01*
X110071600Y-112539951D01*
X110071600Y-112492365D01*
X110086424Y-112502270D01*
X110159874Y-112532694D01*
X110237849Y-112548204D01*
X110317351Y-112548204D01*
X110395326Y-112532694D01*
X110468776Y-112502270D01*
X110534880Y-112458101D01*
X110591097Y-112401884D01*
X110635266Y-112335780D01*
X110665690Y-112262330D01*
X110681200Y-112184355D01*
X110681200Y-112104853D01*
X110665690Y-112026878D01*
X110635266Y-111953428D01*
X110591097Y-111887324D01*
X110534880Y-111831107D01*
X110468776Y-111786938D01*
X110460861Y-111783659D01*
X110462490Y-111779726D01*
X110478000Y-111701751D01*
X110478000Y-111622249D01*
X110462490Y-111544274D01*
X110432066Y-111470824D01*
X110387897Y-111404720D01*
X110331680Y-111348503D01*
X110265576Y-111304334D01*
X110192126Y-111273910D01*
X110114151Y-111258400D01*
X110034649Y-111258400D01*
X109956674Y-111273910D01*
X109883224Y-111304334D01*
X109817120Y-111348503D01*
X109760903Y-111404720D01*
X109716734Y-111470824D01*
X109686310Y-111544274D01*
X109670800Y-111622249D01*
X109670800Y-111701751D01*
X109686310Y-111779726D01*
X109716734Y-111853176D01*
X109760903Y-111919280D01*
X109817120Y-111975497D01*
X109883224Y-112019666D01*
X109891139Y-112022945D01*
X109889510Y-112026878D01*
X109874000Y-112104853D01*
X109874000Y-112152439D01*
X109859176Y-112142534D01*
X109785726Y-112112110D01*
X109707751Y-112096600D01*
X109628249Y-112096600D01*
X109550274Y-112112110D01*
X109476824Y-112142534D01*
X109410720Y-112186703D01*
X109354503Y-112242920D01*
X109310334Y-112309024D01*
X109279910Y-112382474D01*
X109264400Y-112460449D01*
X106061780Y-112460449D01*
X106060690Y-112454974D01*
X106030266Y-112381524D01*
X105986097Y-112315420D01*
X105929880Y-112259203D01*
X105863776Y-112215034D01*
X105790326Y-112184610D01*
X105712351Y-112169100D01*
X105632849Y-112169100D01*
X105554874Y-112184610D01*
X105481424Y-112215034D01*
X105415320Y-112259203D01*
X105359103Y-112315420D01*
X105314934Y-112381524D01*
X105284510Y-112454974D01*
X105269000Y-112532949D01*
X104787173Y-112532949D01*
X104780057Y-112522300D01*
X104723840Y-112466083D01*
X104657736Y-112421914D01*
X104638093Y-112413778D01*
X104660340Y-112398913D01*
X104716557Y-112342696D01*
X104760726Y-112276592D01*
X104791150Y-112203142D01*
X104806660Y-112125167D01*
X104806660Y-112045665D01*
X104791150Y-111967690D01*
X104760726Y-111894240D01*
X104716557Y-111828136D01*
X104711319Y-111822898D01*
X104753537Y-111780680D01*
X104797706Y-111714576D01*
X104828130Y-111641126D01*
X104843640Y-111563151D01*
X104843640Y-111483649D01*
X104828130Y-111405674D01*
X104797706Y-111332224D01*
X104753537Y-111266120D01*
X104746687Y-111259270D01*
X104752177Y-111253780D01*
X104796346Y-111187676D01*
X104826770Y-111114226D01*
X104842280Y-111036251D01*
X104842280Y-110956749D01*
X104826770Y-110878774D01*
X104796346Y-110805324D01*
X104752177Y-110739220D01*
X104695960Y-110683003D01*
X104629856Y-110638834D01*
X104556406Y-110608410D01*
X104478431Y-110592900D01*
X104398929Y-110592900D01*
X104320954Y-110608410D01*
X104247504Y-110638834D01*
X104237197Y-110645721D01*
X104065240Y-110645721D01*
X104065240Y-110221542D01*
X115556400Y-110221542D01*
X115556401Y-113246459D01*
X115557659Y-113259234D01*
X115557659Y-113265727D01*
X115558029Y-113269248D01*
X115568906Y-113366223D01*
X115573691Y-113388733D01*
X115578150Y-113411254D01*
X115579197Y-113414637D01*
X115608703Y-113507652D01*
X115617756Y-113528775D01*
X115626516Y-113550028D01*
X115628200Y-113553143D01*
X115675211Y-113638656D01*
X115688217Y-113657650D01*
X115700918Y-113676767D01*
X115703175Y-113679496D01*
X115765900Y-113754248D01*
X115782335Y-113770343D01*
X115798517Y-113786638D01*
X115801261Y-113788876D01*
X115877311Y-113850022D01*
X115896560Y-113862618D01*
X115915600Y-113875461D01*
X115918726Y-113877123D01*
X116005206Y-113922334D01*
X116026537Y-113930952D01*
X116047704Y-113939850D01*
X116051094Y-113940874D01*
X116144706Y-113968426D01*
X116167278Y-113972732D01*
X116189801Y-113977355D01*
X116193321Y-113977700D01*
X116193325Y-113977700D01*
X116290508Y-113986544D01*
X116313525Y-113986384D01*
X116336475Y-113986544D01*
X116339999Y-113986199D01*
X116340003Y-113986199D01*
X116437047Y-113975999D01*
X116459571Y-113971375D01*
X116482140Y-113967070D01*
X116485530Y-113966047D01*
X116578749Y-113937191D01*
X116599985Y-113928264D01*
X116621251Y-113919672D01*
X116624372Y-113918013D01*
X116624376Y-113918011D01*
X116624379Y-113918009D01*
X116710215Y-113871597D01*
X116729238Y-113858766D01*
X116748503Y-113846159D01*
X116751247Y-113843921D01*
X116826436Y-113781719D01*
X116842653Y-113765388D01*
X116859052Y-113749329D01*
X116861310Y-113746601D01*
X116922986Y-113670980D01*
X116935704Y-113651837D01*
X116948693Y-113632868D01*
X116950377Y-113629753D01*
X116996189Y-113543592D01*
X117004951Y-113522332D01*
X117014001Y-113501217D01*
X117015049Y-113497835D01*
X117043254Y-113404417D01*
X117047723Y-113381845D01*
X117052497Y-113359385D01*
X117052868Y-113355863D01*
X117062390Y-113258746D01*
X117062390Y-113258745D01*
X117063600Y-113246459D01*
X117063600Y-113146249D01*
X117849600Y-113146249D01*
X117849600Y-113225751D01*
X117865110Y-113303726D01*
X117895534Y-113377176D01*
X117939703Y-113443280D01*
X117995920Y-113499497D01*
X118062024Y-113543666D01*
X118135474Y-113574090D01*
X118213449Y-113589600D01*
X118292951Y-113589600D01*
X118370926Y-113574090D01*
X118444376Y-113543666D01*
X118510480Y-113499497D01*
X118566697Y-113443280D01*
X118610866Y-113377176D01*
X118641290Y-113303726D01*
X118656800Y-113225751D01*
X118656800Y-113146249D01*
X118641290Y-113068274D01*
X118610866Y-112994824D01*
X118566697Y-112928720D01*
X118510480Y-112872503D01*
X118444376Y-112828334D01*
X118370926Y-112797910D01*
X118292951Y-112782400D01*
X118213449Y-112782400D01*
X118135474Y-112797910D01*
X118062024Y-112828334D01*
X117995920Y-112872503D01*
X117939703Y-112928720D01*
X117895534Y-112994824D01*
X117865110Y-113068274D01*
X117849600Y-113146249D01*
X117063600Y-113146249D01*
X117063600Y-111901649D01*
X117595600Y-111901649D01*
X117595600Y-111981151D01*
X117611110Y-112059126D01*
X117641534Y-112132576D01*
X117685703Y-112198680D01*
X117741920Y-112254897D01*
X117808024Y-112299066D01*
X117881474Y-112329490D01*
X117959449Y-112345000D01*
X118038951Y-112345000D01*
X118116926Y-112329490D01*
X118190376Y-112299066D01*
X118256480Y-112254897D01*
X118312697Y-112198680D01*
X118356866Y-112132576D01*
X118387290Y-112059126D01*
X118402800Y-111981151D01*
X118402800Y-111901649D01*
X118397713Y-111876074D01*
X118418976Y-111867266D01*
X118485080Y-111823097D01*
X118541297Y-111766880D01*
X118585466Y-111700776D01*
X118615890Y-111627326D01*
X118631400Y-111549351D01*
X118631400Y-111469849D01*
X118615890Y-111391874D01*
X118585466Y-111318424D01*
X118541297Y-111252320D01*
X118485080Y-111196103D01*
X118418976Y-111151934D01*
X118345526Y-111121510D01*
X118267551Y-111106000D01*
X118188049Y-111106000D01*
X118110074Y-111121510D01*
X118036624Y-111151934D01*
X117970520Y-111196103D01*
X117914303Y-111252320D01*
X117870134Y-111318424D01*
X117839710Y-111391874D01*
X117824200Y-111469849D01*
X117824200Y-111549351D01*
X117829287Y-111574926D01*
X117808024Y-111583734D01*
X117741920Y-111627903D01*
X117685703Y-111684120D01*
X117641534Y-111750224D01*
X117611110Y-111823674D01*
X117595600Y-111901649D01*
X117063600Y-111901649D01*
X117063600Y-111570368D01*
X117076103Y-111589080D01*
X117132320Y-111645297D01*
X117198424Y-111689466D01*
X117271874Y-111719890D01*
X117349849Y-111735400D01*
X117429351Y-111735400D01*
X117507326Y-111719890D01*
X117580776Y-111689466D01*
X117646880Y-111645297D01*
X117703097Y-111589080D01*
X117747266Y-111522976D01*
X117777690Y-111449526D01*
X117793200Y-111371551D01*
X117793200Y-111292049D01*
X117777690Y-111214074D01*
X117747266Y-111140624D01*
X117703097Y-111074520D01*
X117646880Y-111018303D01*
X117580776Y-110974134D01*
X117507326Y-110943710D01*
X117429351Y-110928200D01*
X117349849Y-110928200D01*
X117271874Y-110943710D01*
X117198424Y-110974134D01*
X117132320Y-111018303D01*
X117076103Y-111074520D01*
X117063600Y-111093232D01*
X117063600Y-110221541D01*
X117062341Y-110208756D01*
X117062341Y-110202273D01*
X117061971Y-110198752D01*
X117051094Y-110101777D01*
X117046309Y-110079267D01*
X117041850Y-110056746D01*
X117040803Y-110053363D01*
X117011297Y-109960348D01*
X117002240Y-109939218D01*
X116993483Y-109917971D01*
X116991799Y-109914856D01*
X116944789Y-109829344D01*
X116931772Y-109810334D01*
X116919082Y-109791233D01*
X116916825Y-109788504D01*
X116854100Y-109713752D01*
X116837681Y-109697674D01*
X116821483Y-109681362D01*
X116818739Y-109679124D01*
X116742689Y-109617978D01*
X116723440Y-109605382D01*
X116704400Y-109592539D01*
X116701274Y-109590877D01*
X116614795Y-109545667D01*
X116593469Y-109537051D01*
X116572295Y-109528150D01*
X116568906Y-109527126D01*
X116475294Y-109499574D01*
X116452691Y-109495262D01*
X116430199Y-109490646D01*
X116426677Y-109490300D01*
X116426675Y-109490300D01*
X116329493Y-109481456D01*
X116306509Y-109481617D01*
X116283526Y-109481456D01*
X116280001Y-109481801D01*
X116182953Y-109492001D01*
X116160442Y-109496622D01*
X116137860Y-109500930D01*
X116134470Y-109501953D01*
X116041251Y-109530809D01*
X116020027Y-109539731D01*
X115998749Y-109548328D01*
X115995622Y-109549990D01*
X115909785Y-109596403D01*
X115890738Y-109609250D01*
X115871497Y-109621841D01*
X115868753Y-109624079D01*
X115793564Y-109686281D01*
X115777347Y-109702612D01*
X115760948Y-109718671D01*
X115758690Y-109721399D01*
X115697014Y-109797020D01*
X115684284Y-109816181D01*
X115671307Y-109835133D01*
X115669623Y-109838247D01*
X115623811Y-109924408D01*
X115615050Y-109945664D01*
X115605998Y-109966783D01*
X115604951Y-109970165D01*
X115576746Y-110063583D01*
X115572277Y-110086155D01*
X115567503Y-110108615D01*
X115567132Y-110112137D01*
X115557610Y-110209254D01*
X115556400Y-110221542D01*
X104065240Y-110221542D01*
X104065240Y-109759520D01*
X104214877Y-109759520D01*
X104231994Y-109766610D01*
X104309969Y-109782120D01*
X104389471Y-109782120D01*
X104467446Y-109766610D01*
X104540896Y-109736186D01*
X104607000Y-109692017D01*
X104663217Y-109635800D01*
X104707386Y-109569696D01*
X104737810Y-109496246D01*
X104753320Y-109418271D01*
X104753320Y-109338769D01*
X104737810Y-109260794D01*
X104707386Y-109187344D01*
X104663217Y-109121240D01*
X104607000Y-109065023D01*
X104540896Y-109020854D01*
X104467446Y-108990430D01*
X104389471Y-108974920D01*
X104309969Y-108974920D01*
X104231994Y-108990430D01*
X104214877Y-108997520D01*
X104065240Y-108997520D01*
X104065240Y-108253300D01*
X106074407Y-108253300D01*
X106902810Y-109081705D01*
X106913937Y-109095263D01*
X106927495Y-109106390D01*
X106927500Y-109106395D01*
X106949927Y-109124800D01*
X106968084Y-109139701D01*
X107029860Y-109172721D01*
X107096890Y-109193054D01*
X107149137Y-109198200D01*
X107149146Y-109198200D01*
X107166599Y-109199919D01*
X107184052Y-109198200D01*
X109639718Y-109198200D01*
X109614720Y-109214903D01*
X109558503Y-109271120D01*
X109514334Y-109337224D01*
X109483910Y-109410674D01*
X109468400Y-109488649D01*
X109468400Y-109568151D01*
X109483910Y-109646126D01*
X109514334Y-109719576D01*
X109558503Y-109785680D01*
X109614720Y-109841897D01*
X109680824Y-109886066D01*
X109754274Y-109916490D01*
X109832249Y-109932000D01*
X109911751Y-109932000D01*
X109989726Y-109916490D01*
X110063176Y-109886066D01*
X110129280Y-109841897D01*
X110185497Y-109785680D01*
X110229666Y-109719576D01*
X110260090Y-109646126D01*
X110275600Y-109568151D01*
X110275600Y-109488649D01*
X110260090Y-109410674D01*
X110229666Y-109337224D01*
X110185497Y-109271120D01*
X110129280Y-109214903D01*
X110104282Y-109198200D01*
X110953332Y-109198200D01*
X110956424Y-109200266D01*
X111029874Y-109230690D01*
X111107849Y-109246200D01*
X111187351Y-109246200D01*
X111265326Y-109230690D01*
X111338776Y-109200266D01*
X111404880Y-109156097D01*
X111461097Y-109099880D01*
X111505266Y-109033776D01*
X111535690Y-108960326D01*
X111551200Y-108882351D01*
X111551200Y-108802849D01*
X111535690Y-108724874D01*
X111515384Y-108675849D01*
X114166600Y-108675849D01*
X114166600Y-108755351D01*
X114182110Y-108833326D01*
X114212534Y-108906776D01*
X114256703Y-108972880D01*
X114312920Y-109029097D01*
X114379024Y-109073266D01*
X114452474Y-109103690D01*
X114530449Y-109119200D01*
X114609951Y-109119200D01*
X114687926Y-109103690D01*
X114761376Y-109073266D01*
X114827480Y-109029097D01*
X114883697Y-108972880D01*
X114927866Y-108906776D01*
X114958290Y-108833326D01*
X114973800Y-108755351D01*
X114973800Y-108675849D01*
X114958290Y-108597874D01*
X114927866Y-108524424D01*
X114883697Y-108458320D01*
X114827480Y-108402103D01*
X114761376Y-108357934D01*
X114687926Y-108327510D01*
X114609951Y-108312000D01*
X114530449Y-108312000D01*
X114452474Y-108327510D01*
X114379024Y-108357934D01*
X114312920Y-108402103D01*
X114256703Y-108458320D01*
X114212534Y-108524424D01*
X114182110Y-108597874D01*
X114166600Y-108675849D01*
X111515384Y-108675849D01*
X111505266Y-108651424D01*
X111461097Y-108585320D01*
X111404880Y-108529103D01*
X111338776Y-108484934D01*
X111265326Y-108454510D01*
X111187351Y-108439000D01*
X111107849Y-108439000D01*
X111029874Y-108454510D01*
X110956424Y-108484934D01*
X110953332Y-108487000D01*
X107313895Y-108487000D01*
X107070707Y-108243813D01*
X107108526Y-108236290D01*
X107181976Y-108205866D01*
X107248080Y-108161697D01*
X107304297Y-108105480D01*
X107348466Y-108039376D01*
X107378890Y-107965926D01*
X107394400Y-107887951D01*
X107394400Y-107808449D01*
X107378890Y-107730474D01*
X107348466Y-107657024D01*
X107304297Y-107590920D01*
X107274910Y-107561533D01*
X113555344Y-107560947D01*
X113550920Y-107563903D01*
X113494703Y-107620120D01*
X113450534Y-107686224D01*
X113420110Y-107759674D01*
X113404600Y-107837649D01*
X113404600Y-107917151D01*
X113420110Y-107995126D01*
X113450534Y-108068576D01*
X113494703Y-108134680D01*
X113550920Y-108190897D01*
X113617024Y-108235066D01*
X113690474Y-108265490D01*
X113768449Y-108281000D01*
X113847951Y-108281000D01*
X113925926Y-108265490D01*
X113999376Y-108235066D01*
X114023945Y-108218649D01*
X115208000Y-108218649D01*
X115208000Y-108298151D01*
X115223510Y-108376126D01*
X115253934Y-108449576D01*
X115298103Y-108515680D01*
X115354320Y-108571897D01*
X115420424Y-108616066D01*
X115493874Y-108646490D01*
X115571849Y-108662000D01*
X115651351Y-108662000D01*
X115729326Y-108646490D01*
X115802776Y-108616066D01*
X115868880Y-108571897D01*
X115925097Y-108515680D01*
X115969266Y-108449576D01*
X115999690Y-108376126D01*
X116015200Y-108298151D01*
X116015200Y-108218649D01*
X115999690Y-108140674D01*
X115969266Y-108067224D01*
X115925097Y-108001120D01*
X115868880Y-107944903D01*
X115802776Y-107900734D01*
X115729326Y-107870310D01*
X115651351Y-107854800D01*
X115571849Y-107854800D01*
X115493874Y-107870310D01*
X115420424Y-107900734D01*
X115354320Y-107944903D01*
X115298103Y-108001120D01*
X115253934Y-108067224D01*
X115223510Y-108140674D01*
X115208000Y-108218649D01*
X114023945Y-108218649D01*
X114065480Y-108190897D01*
X114121697Y-108134680D01*
X114165866Y-108068576D01*
X114196290Y-107995126D01*
X114211800Y-107917151D01*
X114211800Y-107837649D01*
X114196290Y-107759674D01*
X114165866Y-107686224D01*
X114121697Y-107620120D01*
X114065480Y-107563903D01*
X114060986Y-107560900D01*
X117216218Y-107560605D01*
X117207503Y-107569320D01*
X117163334Y-107635424D01*
X117132910Y-107708874D01*
X117117400Y-107786849D01*
X117117400Y-107866351D01*
X117132910Y-107944326D01*
X117163334Y-108017776D01*
X117207503Y-108083880D01*
X117263720Y-108140097D01*
X117329824Y-108184266D01*
X117403274Y-108214690D01*
X117481249Y-108230200D01*
X117560751Y-108230200D01*
X117638726Y-108214690D01*
X117712176Y-108184266D01*
X117778280Y-108140097D01*
X117834497Y-108083880D01*
X117878666Y-108017776D01*
X117909090Y-107944326D01*
X117924600Y-107866351D01*
X117924600Y-107786849D01*
X117909090Y-107708874D01*
X117878666Y-107635424D01*
X117834497Y-107569320D01*
X117825725Y-107560548D01*
X120365691Y-107560311D01*
X120329534Y-107614424D01*
X120299110Y-107687874D01*
X120283600Y-107765849D01*
X120283600Y-107845351D01*
X120299110Y-107923326D01*
X120318865Y-107971018D01*
X120281920Y-107995703D01*
X120225703Y-108051920D01*
X120181534Y-108118024D01*
X120151110Y-108191474D01*
X120135600Y-108269449D01*
X120135600Y-108348951D01*
X120151110Y-108426926D01*
X120181534Y-108500376D01*
X120225703Y-108566480D01*
X120281920Y-108622697D01*
X120348024Y-108666866D01*
X120421474Y-108697290D01*
X120499449Y-108712800D01*
X120578951Y-108712800D01*
X120656926Y-108697290D01*
X120730376Y-108666866D01*
X120796480Y-108622697D01*
X120852697Y-108566480D01*
X120896866Y-108500376D01*
X120927290Y-108426926D01*
X120942800Y-108348951D01*
X120942800Y-108269449D01*
X120927290Y-108191474D01*
X120907535Y-108143782D01*
X120944480Y-108119097D01*
X121000697Y-108062880D01*
X121044866Y-107996776D01*
X121075290Y-107923326D01*
X121090800Y-107845351D01*
X121090800Y-107765849D01*
X121075290Y-107687874D01*
X121044866Y-107614424D01*
X121008669Y-107560251D01*
X121483800Y-107560207D01*
X121483800Y-109478347D01*
G37*
G04 #@! TD.AperFunction*
M02*
