M48
; DRILL file {KiCad (5.1.12)-1} date 10/20/24 15:33:13
; FORMAT={-:-/ absolute / metric / decimal}
; #@! TF.CreationDate,2024-10-20T15:33:13+08:00
; #@! TF.GenerationSoftware,Kicad,Pcbnew,(5.1.12)-1
; #@! TF.FileFunction,Plated,1,4,PTH
FMAT,2
METRIC
T1C0.150
%
G90
G05
T1
X89.278Y-106.734
X89.597Y-116.497
X89.725Y-107.884
X89.725Y-115.584
X89.801Y-109.97
X90.41Y-113.272
X90.46Y-107.149
X90.639Y-109.106
X90.766Y-111.113
X90.793Y-109.601
X90.87Y-108.014
X90.893Y-113.195
X91.02Y-110.605
X91.16Y-107.149
X91.172Y-114.846
X91.68Y-113.729
X91.86Y-107.149
X91.868Y-111.611
X91.878Y-108.016
X92.036Y-113.399
X92.378Y-112.686
X92.378Y-108.016
X92.544Y-107.15
X92.878Y-108.016
X92.878Y-112.686
X92.885Y-114.431
X93.037Y-110.367
X93.23Y-116.134
X93.255Y-107.226
X93.316Y-111.662
X93.378Y-108.016
X93.378Y-112.686
X93.418Y-115.066
X93.748Y-114.278
X93.878Y-108.016
X93.951Y-116.259
X93.966Y-107.226
X94.408Y-110.163
X94.459Y-109.02
X94.652Y-107.226
X94.662Y-116.259
X94.8Y-113.805
X95.363Y-107.15
X95.373Y-116.259
X96.049Y-107.15
X96.06Y-116.319
X96.263Y-108.335
X96.402Y-112.002
X96.836Y-113.983
X97.432Y-115.599
X97.471Y-116.32
X97.522Y-114.465
X97.7Y-108.344
X98.005Y-110.732
X98.117Y-115.599
X98.142Y-112.294
X98.167Y-114.063
X98.244Y-107.319
X98.77Y-107.297
X98.822Y-111.392
X98.828Y-110.697
X99.099Y-116.523
X99.235Y-106.988
X99.807Y-114.803
X99.945Y-112.094
X99.956Y-109.752
X104.35Y-109.379
X104.403Y-112.085
X104.439Y-110.996
X104.44Y-111.523
X104.467Y-112.78
X104.486Y-113.897
X104.512Y-113.313
X104.639Y-115.675
X105.11Y-114.385
X105.673Y-112.573
X105.735Y-115.015
X105.751Y-114.415
X106.107Y-108.721
X106.985Y-113.423
X106.985Y-113.923
X106.991Y-107.848
X107.052Y-115.015
X107.179Y-112.551
X107.865Y-113.389
X107.865Y-114.38
X107.941Y-111.027
X108.729Y-108.208
X109.617Y-111.281
X109.668Y-112.5
X109.872Y-109.528
X110.074Y-111.662
X110.176Y-115.701
X110.252Y-115.167
X110.278Y-112.145
X111.014Y-111.764
X111.148Y-108.843
X112.132Y-115.777
X112.138Y-109.605
X112.259Y-113.375
X112.978Y-115.413
X113.478Y-115.413
X113.808Y-107.877
X113.961Y-115.421
X113.986Y-114.913
X114.494Y-114.913
X114.57Y-108.716
X115.154Y-114.1
X115.612Y-108.258
X115.942Y-114.735
X115.942Y-115.638
X116.806Y-107.75
X116.856Y-115.675
X117.39Y-111.332
X117.39Y-108.741
X117.521Y-107.827
X117.521Y-115.701
X117.873Y-114.329
X117.903Y-108.695
X117.906Y-109.285
X117.999Y-111.941
X118.051Y-115.142
X118.071Y-115.701
X118.228Y-111.51
X118.253Y-113.186
X118.822Y-114.677
X118.836Y-108.817
X119.65Y-112.145
X119.65Y-114.1
X119.65Y-115.193
X119.676Y-108.208
X119.702Y-109.681
X120.488Y-114.177
X120.539Y-108.309
X120.679Y-113.681
X120.687Y-107.806
X120.769Y-111.764
X120.793Y-111.226
X121.25Y-109.808
X121.25Y-115.675
T0
M30
