G04 #@! TF.GenerationSoftware,KiCad,Pcbnew,(5.1.12)-1*
G04 #@! TF.CreationDate,2024-10-20T15:32:40+08:00*
G04 #@! TF.ProjectId,Kicad_LFOV_RigidFlex_Assembly_Screwhole2,4b696361-645f-44c4-964f-565f52696769,rev?*
G04 #@! TF.SameCoordinates,Original*
G04 #@! TF.FileFunction,Soldermask,Top*
G04 #@! TF.FilePolarity,Negative*
%FSLAX46Y46*%
G04 Gerber Fmt 4.6, Leading zero omitted, Abs format (unit mm)*
G04 Created by KiCad (PCBNEW (5.1.12)-1) date 2024-10-20 15:32:40*
%MOMM*%
%LPD*%
G01*
G04 APERTURE LIST*
%ADD10C,0.050000*%
%ADD11C,1.050800*%
%ADD12C,0.400800*%
G04 APERTURE END LIST*
D10*
X112999200Y-110417600D02*
X112999200Y-108537600D01*
X110299200Y-110417600D02*
X110299200Y-108537600D01*
X119574780Y-112484900D02*
G75*
G03*
X119574780Y-112484900I-20000J0D01*
G01*
X119124780Y-111007660D02*
G75*
G03*
X119124780Y-111007660I-20000J0D01*
G01*
X112999200Y-110417600D02*
X112999200Y-108537600D01*
X110299200Y-110417600D02*
X110299200Y-108537600D01*
X119574780Y-112484900D02*
G75*
G03*
X119574780Y-112484900I-20000J0D01*
G01*
X119124780Y-111007660D02*
G75*
G03*
X119124780Y-111007660I-20000J0D01*
G01*
D11*
X118105260Y-117235780D03*
X118107800Y-106227880D03*
G36*
G01*
X111596400Y-109146800D02*
X112476800Y-109146800D01*
G75*
G02*
X112722000Y-109392000I0J-245200D01*
G01*
X112722000Y-109882400D01*
G75*
G02*
X112476800Y-110127600I-245200J0D01*
G01*
X111596400Y-110127600D01*
G75*
G02*
X111351200Y-109882400I0J245200D01*
G01*
X111351200Y-109392000D01*
G75*
G02*
X111596400Y-109146800I245200J0D01*
G01*
G37*
G36*
G01*
X111596400Y-107506800D02*
X112476800Y-107506800D01*
G75*
G02*
X112722000Y-107752000I0J-245200D01*
G01*
X112722000Y-108242400D01*
G75*
G02*
X112476800Y-108487600I-245200J0D01*
G01*
X111596400Y-108487600D01*
G75*
G02*
X111351200Y-108242400I0J245200D01*
G01*
X111351200Y-107752000D01*
G75*
G02*
X111596400Y-107506800I245200J0D01*
G01*
G37*
G36*
G01*
X115311200Y-110213600D02*
X114511200Y-110213600D01*
G75*
G02*
X114485800Y-110188200I0J25400D01*
G01*
X114485800Y-109788200D01*
G75*
G02*
X114511200Y-109762800I25400J0D01*
G01*
X115311200Y-109762800D01*
G75*
G02*
X115336600Y-109788200I0J-25400D01*
G01*
X115336600Y-110188200D01*
G75*
G02*
X115311200Y-110213600I-25400J0D01*
G01*
G37*
G36*
G01*
X115311200Y-113713600D02*
X114511200Y-113713600D01*
G75*
G02*
X114485800Y-113688200I0J25400D01*
G01*
X114485800Y-113288200D01*
G75*
G02*
X114511200Y-113262800I25400J0D01*
G01*
X115311200Y-113262800D01*
G75*
G02*
X115336600Y-113288200I0J-25400D01*
G01*
X115336600Y-113688200D01*
G75*
G02*
X115311200Y-113713600I-25400J0D01*
G01*
G37*
G36*
G01*
X112811200Y-111163600D02*
X112011200Y-111163600D01*
G75*
G02*
X111985800Y-111138200I0J25400D01*
G01*
X111985800Y-110838200D01*
G75*
G02*
X112011200Y-110812800I25400J0D01*
G01*
X112811200Y-110812800D01*
G75*
G02*
X112836600Y-110838200I0J-25400D01*
G01*
X112836600Y-111138200D01*
G75*
G02*
X112811200Y-111163600I-25400J0D01*
G01*
G37*
G36*
G01*
X112811200Y-111663600D02*
X112011200Y-111663600D01*
G75*
G02*
X111985800Y-111638200I0J25400D01*
G01*
X111985800Y-111338200D01*
G75*
G02*
X112011200Y-111312800I25400J0D01*
G01*
X112811200Y-111312800D01*
G75*
G02*
X112836600Y-111338200I0J-25400D01*
G01*
X112836600Y-111638200D01*
G75*
G02*
X112811200Y-111663600I-25400J0D01*
G01*
G37*
G36*
G01*
X112811200Y-112163600D02*
X112011200Y-112163600D01*
G75*
G02*
X111985800Y-112138200I0J25400D01*
G01*
X111985800Y-111838200D01*
G75*
G02*
X112011200Y-111812800I25400J0D01*
G01*
X112811200Y-111812800D01*
G75*
G02*
X112836600Y-111838200I0J-25400D01*
G01*
X112836600Y-112138200D01*
G75*
G02*
X112811200Y-112163600I-25400J0D01*
G01*
G37*
G36*
G01*
X112811200Y-112663600D02*
X112011200Y-112663600D01*
G75*
G02*
X111985800Y-112638200I0J25400D01*
G01*
X111985800Y-112338200D01*
G75*
G02*
X112011200Y-112312800I25400J0D01*
G01*
X112811200Y-112312800D01*
G75*
G02*
X112836600Y-112338200I0J-25400D01*
G01*
X112836600Y-112638200D01*
G75*
G02*
X112811200Y-112663600I-25400J0D01*
G01*
G37*
G36*
G01*
X117921200Y-113838600D02*
X117921200Y-113498600D01*
G75*
G02*
X117946600Y-113473200I25400J0D01*
G01*
X118256600Y-113473200D01*
G75*
G02*
X118282000Y-113498600I0J-25400D01*
G01*
X118282000Y-113838600D01*
G75*
G02*
X118256600Y-113864000I-25400J0D01*
G01*
X117946600Y-113864000D01*
G75*
G02*
X117921200Y-113838600I0J25400D01*
G01*
G37*
G36*
G01*
X117371200Y-113838600D02*
X117371200Y-113498600D01*
G75*
G02*
X117396600Y-113473200I25400J0D01*
G01*
X117706600Y-113473200D01*
G75*
G02*
X117732000Y-113498600I0J-25400D01*
G01*
X117732000Y-113838600D01*
G75*
G02*
X117706600Y-113864000I-25400J0D01*
G01*
X117396600Y-113864000D01*
G75*
G02*
X117371200Y-113838600I0J25400D01*
G01*
G37*
G36*
G01*
X91686800Y-114728400D02*
X91897200Y-114728400D01*
G75*
G02*
X91987400Y-114818600I0J-90200D01*
G01*
X91987400Y-114999000D01*
G75*
G02*
X91897200Y-115089200I-90200J0D01*
G01*
X91686800Y-115089200D01*
G75*
G02*
X91596600Y-114999000I0J90200D01*
G01*
X91596600Y-114818600D01*
G75*
G02*
X91686800Y-114728400I90200J0D01*
G01*
G37*
G36*
G01*
X91686800Y-114178400D02*
X91897200Y-114178400D01*
G75*
G02*
X91987400Y-114268600I0J-90200D01*
G01*
X91987400Y-114449000D01*
G75*
G02*
X91897200Y-114539200I-90200J0D01*
G01*
X91686800Y-114539200D01*
G75*
G02*
X91596600Y-114449000I0J90200D01*
G01*
X91596600Y-114268600D01*
G75*
G02*
X91686800Y-114178400I90200J0D01*
G01*
G37*
G36*
G01*
X93075200Y-113381800D02*
X93075200Y-113752200D01*
G75*
G02*
X92915000Y-113912400I-160200J0D01*
G01*
X92594600Y-113912400D01*
G75*
G02*
X92434400Y-113752200I0J160200D01*
G01*
X92434400Y-113381800D01*
G75*
G02*
X92594600Y-113221600I160200J0D01*
G01*
X92915000Y-113221600D01*
G75*
G02*
X93075200Y-113381800I0J-160200D01*
G01*
G37*
G36*
G01*
X94045200Y-113381800D02*
X94045200Y-113752200D01*
G75*
G02*
X93885000Y-113912400I-160200J0D01*
G01*
X93564600Y-113912400D01*
G75*
G02*
X93404400Y-113752200I0J160200D01*
G01*
X93404400Y-113381800D01*
G75*
G02*
X93564600Y-113221600I160200J0D01*
G01*
X93885000Y-113221600D01*
G75*
G02*
X94045200Y-113381800I0J-160200D01*
G01*
G37*
G36*
G01*
X98643400Y-116154200D02*
X98433000Y-116154200D01*
G75*
G02*
X98342800Y-116064000I0J90200D01*
G01*
X98342800Y-115883600D01*
G75*
G02*
X98433000Y-115793400I90200J0D01*
G01*
X98643400Y-115793400D01*
G75*
G02*
X98733600Y-115883600I0J-90200D01*
G01*
X98733600Y-116064000D01*
G75*
G02*
X98643400Y-116154200I-90200J0D01*
G01*
G37*
G36*
G01*
X98643400Y-116704200D02*
X98433000Y-116704200D01*
G75*
G02*
X98342800Y-116614000I0J90200D01*
G01*
X98342800Y-116433600D01*
G75*
G02*
X98433000Y-116343400I90200J0D01*
G01*
X98643400Y-116343400D01*
G75*
G02*
X98733600Y-116433600I0J-90200D01*
G01*
X98733600Y-116614000D01*
G75*
G02*
X98643400Y-116704200I-90200J0D01*
G01*
G37*
G36*
G01*
X98996980Y-116343400D02*
X99207380Y-116343400D01*
G75*
G02*
X99297580Y-116433600I0J-90200D01*
G01*
X99297580Y-116614000D01*
G75*
G02*
X99207380Y-116704200I-90200J0D01*
G01*
X98996980Y-116704200D01*
G75*
G02*
X98906780Y-116614000I0J90200D01*
G01*
X98906780Y-116433600D01*
G75*
G02*
X98996980Y-116343400I90200J0D01*
G01*
G37*
G36*
G01*
X98996980Y-115793400D02*
X99207380Y-115793400D01*
G75*
G02*
X99297580Y-115883600I0J-90200D01*
G01*
X99297580Y-116064000D01*
G75*
G02*
X99207380Y-116154200I-90200J0D01*
G01*
X98996980Y-116154200D01*
G75*
G02*
X98906780Y-116064000I0J90200D01*
G01*
X98906780Y-115883600D01*
G75*
G02*
X98996980Y-115793400I90200J0D01*
G01*
G37*
G36*
G01*
X89426600Y-111540800D02*
X89426600Y-111751200D01*
G75*
G02*
X89336400Y-111841400I-90200J0D01*
G01*
X89156000Y-111841400D01*
G75*
G02*
X89065800Y-111751200I0J90200D01*
G01*
X89065800Y-111540800D01*
G75*
G02*
X89156000Y-111450600I90200J0D01*
G01*
X89336400Y-111450600D01*
G75*
G02*
X89426600Y-111540800I0J-90200D01*
G01*
G37*
G36*
G01*
X89976600Y-111540800D02*
X89976600Y-111751200D01*
G75*
G02*
X89886400Y-111841400I-90200J0D01*
G01*
X89706000Y-111841400D01*
G75*
G02*
X89615800Y-111751200I0J90200D01*
G01*
X89615800Y-111540800D01*
G75*
G02*
X89706000Y-111450600I90200J0D01*
G01*
X89886400Y-111450600D01*
G75*
G02*
X89976600Y-111540800I0J-90200D01*
G01*
G37*
G36*
G01*
X91508001Y-113051000D02*
X91247999Y-113051000D01*
G75*
G02*
X91222600Y-113025601I0J25399D01*
G01*
X91222600Y-112345599D01*
G75*
G02*
X91247999Y-112320200I25399J0D01*
G01*
X91508001Y-112320200D01*
G75*
G02*
X91533400Y-112345599I0J-25399D01*
G01*
X91533400Y-113025601D01*
G75*
G02*
X91508001Y-113051000I-25399J0D01*
G01*
G37*
G36*
G01*
X92008001Y-113051000D02*
X91747999Y-113051000D01*
G75*
G02*
X91722600Y-113025601I0J25399D01*
G01*
X91722600Y-112345599D01*
G75*
G02*
X91747999Y-112320200I25399J0D01*
G01*
X92008001Y-112320200D01*
G75*
G02*
X92033400Y-112345599I0J-25399D01*
G01*
X92033400Y-113025601D01*
G75*
G02*
X92008001Y-113051000I-25399J0D01*
G01*
G37*
G36*
G01*
X92508001Y-113051000D02*
X92247999Y-113051000D01*
G75*
G02*
X92222600Y-113025601I0J25399D01*
G01*
X92222600Y-112345599D01*
G75*
G02*
X92247999Y-112320200I25399J0D01*
G01*
X92508001Y-112320200D01*
G75*
G02*
X92533400Y-112345599I0J-25399D01*
G01*
X92533400Y-113025601D01*
G75*
G02*
X92508001Y-113051000I-25399J0D01*
G01*
G37*
G36*
G01*
X93008001Y-113051000D02*
X92747999Y-113051000D01*
G75*
G02*
X92722600Y-113025601I0J25399D01*
G01*
X92722600Y-112345599D01*
G75*
G02*
X92747999Y-112320200I25399J0D01*
G01*
X93008001Y-112320200D01*
G75*
G02*
X93033400Y-112345599I0J-25399D01*
G01*
X93033400Y-113025601D01*
G75*
G02*
X93008001Y-113051000I-25399J0D01*
G01*
G37*
G36*
G01*
X93508001Y-113051000D02*
X93247999Y-113051000D01*
G75*
G02*
X93222600Y-113025601I0J25399D01*
G01*
X93222600Y-112345599D01*
G75*
G02*
X93247999Y-112320200I25399J0D01*
G01*
X93508001Y-112320200D01*
G75*
G02*
X93533400Y-112345599I0J-25399D01*
G01*
X93533400Y-113025601D01*
G75*
G02*
X93508001Y-113051000I-25399J0D01*
G01*
G37*
G36*
G01*
X94008001Y-113051000D02*
X93747999Y-113051000D01*
G75*
G02*
X93722600Y-113025601I0J25399D01*
G01*
X93722600Y-112345599D01*
G75*
G02*
X93747999Y-112320200I25399J0D01*
G01*
X94008001Y-112320200D01*
G75*
G02*
X94033400Y-112345599I0J-25399D01*
G01*
X94033400Y-113025601D01*
G75*
G02*
X94008001Y-113051000I-25399J0D01*
G01*
G37*
G36*
G01*
X94508001Y-113051000D02*
X94247999Y-113051000D01*
G75*
G02*
X94222600Y-113025601I0J25399D01*
G01*
X94222600Y-112345599D01*
G75*
G02*
X94247999Y-112320200I25399J0D01*
G01*
X94508001Y-112320200D01*
G75*
G02*
X94533400Y-112345599I0J-25399D01*
G01*
X94533400Y-113025601D01*
G75*
G02*
X94508001Y-113051000I-25399J0D01*
G01*
G37*
G36*
G01*
X95008001Y-113051000D02*
X94747999Y-113051000D01*
G75*
G02*
X94722600Y-113025601I0J25399D01*
G01*
X94722600Y-112345599D01*
G75*
G02*
X94747999Y-112320200I25399J0D01*
G01*
X95008001Y-112320200D01*
G75*
G02*
X95033400Y-112345599I0J-25399D01*
G01*
X95033400Y-113025601D01*
G75*
G02*
X95008001Y-113051000I-25399J0D01*
G01*
G37*
G36*
G01*
X95097600Y-112230601D02*
X95097600Y-111970599D01*
G75*
G02*
X95122999Y-111945200I25399J0D01*
G01*
X95803001Y-111945200D01*
G75*
G02*
X95828400Y-111970599I0J-25399D01*
G01*
X95828400Y-112230601D01*
G75*
G02*
X95803001Y-112256000I-25399J0D01*
G01*
X95122999Y-112256000D01*
G75*
G02*
X95097600Y-112230601I0J25399D01*
G01*
G37*
G36*
G01*
X95097600Y-111730601D02*
X95097600Y-111470599D01*
G75*
G02*
X95122999Y-111445200I25399J0D01*
G01*
X95803001Y-111445200D01*
G75*
G02*
X95828400Y-111470599I0J-25399D01*
G01*
X95828400Y-111730601D01*
G75*
G02*
X95803001Y-111756000I-25399J0D01*
G01*
X95122999Y-111756000D01*
G75*
G02*
X95097600Y-111730601I0J25399D01*
G01*
G37*
G36*
G01*
X95097600Y-111230601D02*
X95097600Y-110970599D01*
G75*
G02*
X95122999Y-110945200I25399J0D01*
G01*
X95803001Y-110945200D01*
G75*
G02*
X95828400Y-110970599I0J-25399D01*
G01*
X95828400Y-111230601D01*
G75*
G02*
X95803001Y-111256000I-25399J0D01*
G01*
X95122999Y-111256000D01*
G75*
G02*
X95097600Y-111230601I0J25399D01*
G01*
G37*
G36*
G01*
X95097600Y-110730601D02*
X95097600Y-110470599D01*
G75*
G02*
X95122999Y-110445200I25399J0D01*
G01*
X95803001Y-110445200D01*
G75*
G02*
X95828400Y-110470599I0J-25399D01*
G01*
X95828400Y-110730601D01*
G75*
G02*
X95803001Y-110756000I-25399J0D01*
G01*
X95122999Y-110756000D01*
G75*
G02*
X95097600Y-110730601I0J25399D01*
G01*
G37*
G36*
G01*
X95097600Y-110230601D02*
X95097600Y-109970599D01*
G75*
G02*
X95122999Y-109945200I25399J0D01*
G01*
X95803001Y-109945200D01*
G75*
G02*
X95828400Y-109970599I0J-25399D01*
G01*
X95828400Y-110230601D01*
G75*
G02*
X95803001Y-110256000I-25399J0D01*
G01*
X95122999Y-110256000D01*
G75*
G02*
X95097600Y-110230601I0J25399D01*
G01*
G37*
G36*
G01*
X95097600Y-109730601D02*
X95097600Y-109470599D01*
G75*
G02*
X95122999Y-109445200I25399J0D01*
G01*
X95803001Y-109445200D01*
G75*
G02*
X95828400Y-109470599I0J-25399D01*
G01*
X95828400Y-109730601D01*
G75*
G02*
X95803001Y-109756000I-25399J0D01*
G01*
X95122999Y-109756000D01*
G75*
G02*
X95097600Y-109730601I0J25399D01*
G01*
G37*
G36*
G01*
X95097600Y-109230601D02*
X95097600Y-108970599D01*
G75*
G02*
X95122999Y-108945200I25399J0D01*
G01*
X95803001Y-108945200D01*
G75*
G02*
X95828400Y-108970599I0J-25399D01*
G01*
X95828400Y-109230601D01*
G75*
G02*
X95803001Y-109256000I-25399J0D01*
G01*
X95122999Y-109256000D01*
G75*
G02*
X95097600Y-109230601I0J25399D01*
G01*
G37*
G36*
G01*
X95097600Y-108730601D02*
X95097600Y-108470599D01*
G75*
G02*
X95122999Y-108445200I25399J0D01*
G01*
X95803001Y-108445200D01*
G75*
G02*
X95828400Y-108470599I0J-25399D01*
G01*
X95828400Y-108730601D01*
G75*
G02*
X95803001Y-108756000I-25399J0D01*
G01*
X95122999Y-108756000D01*
G75*
G02*
X95097600Y-108730601I0J25399D01*
G01*
G37*
G36*
G01*
X95008001Y-108381000D02*
X94747999Y-108381000D01*
G75*
G02*
X94722600Y-108355601I0J25399D01*
G01*
X94722600Y-107675599D01*
G75*
G02*
X94747999Y-107650200I25399J0D01*
G01*
X95008001Y-107650200D01*
G75*
G02*
X95033400Y-107675599I0J-25399D01*
G01*
X95033400Y-108355601D01*
G75*
G02*
X95008001Y-108381000I-25399J0D01*
G01*
G37*
G36*
G01*
X94508001Y-108381000D02*
X94247999Y-108381000D01*
G75*
G02*
X94222600Y-108355601I0J25399D01*
G01*
X94222600Y-107675599D01*
G75*
G02*
X94247999Y-107650200I25399J0D01*
G01*
X94508001Y-107650200D01*
G75*
G02*
X94533400Y-107675599I0J-25399D01*
G01*
X94533400Y-108355601D01*
G75*
G02*
X94508001Y-108381000I-25399J0D01*
G01*
G37*
G36*
G01*
X94008001Y-108381000D02*
X93747999Y-108381000D01*
G75*
G02*
X93722600Y-108355601I0J25399D01*
G01*
X93722600Y-107675599D01*
G75*
G02*
X93747999Y-107650200I25399J0D01*
G01*
X94008001Y-107650200D01*
G75*
G02*
X94033400Y-107675599I0J-25399D01*
G01*
X94033400Y-108355601D01*
G75*
G02*
X94008001Y-108381000I-25399J0D01*
G01*
G37*
G36*
G01*
X93508001Y-108381000D02*
X93247999Y-108381000D01*
G75*
G02*
X93222600Y-108355601I0J25399D01*
G01*
X93222600Y-107675599D01*
G75*
G02*
X93247999Y-107650200I25399J0D01*
G01*
X93508001Y-107650200D01*
G75*
G02*
X93533400Y-107675599I0J-25399D01*
G01*
X93533400Y-108355601D01*
G75*
G02*
X93508001Y-108381000I-25399J0D01*
G01*
G37*
G36*
G01*
X93008001Y-108381000D02*
X92747999Y-108381000D01*
G75*
G02*
X92722600Y-108355601I0J25399D01*
G01*
X92722600Y-107675599D01*
G75*
G02*
X92747999Y-107650200I25399J0D01*
G01*
X93008001Y-107650200D01*
G75*
G02*
X93033400Y-107675599I0J-25399D01*
G01*
X93033400Y-108355601D01*
G75*
G02*
X93008001Y-108381000I-25399J0D01*
G01*
G37*
G36*
G01*
X92508001Y-108381000D02*
X92247999Y-108381000D01*
G75*
G02*
X92222600Y-108355601I0J25399D01*
G01*
X92222600Y-107675599D01*
G75*
G02*
X92247999Y-107650200I25399J0D01*
G01*
X92508001Y-107650200D01*
G75*
G02*
X92533400Y-107675599I0J-25399D01*
G01*
X92533400Y-108355601D01*
G75*
G02*
X92508001Y-108381000I-25399J0D01*
G01*
G37*
G36*
G01*
X92008001Y-108381000D02*
X91747999Y-108381000D01*
G75*
G02*
X91722600Y-108355601I0J25399D01*
G01*
X91722600Y-107675599D01*
G75*
G02*
X91747999Y-107650200I25399J0D01*
G01*
X92008001Y-107650200D01*
G75*
G02*
X92033400Y-107675599I0J-25399D01*
G01*
X92033400Y-108355601D01*
G75*
G02*
X92008001Y-108381000I-25399J0D01*
G01*
G37*
G36*
G01*
X91508001Y-108381000D02*
X91247999Y-108381000D01*
G75*
G02*
X91222600Y-108355601I0J25399D01*
G01*
X91222600Y-107675599D01*
G75*
G02*
X91247999Y-107650200I25399J0D01*
G01*
X91508001Y-107650200D01*
G75*
G02*
X91533400Y-107675599I0J-25399D01*
G01*
X91533400Y-108355601D01*
G75*
G02*
X91508001Y-108381000I-25399J0D01*
G01*
G37*
G36*
G01*
X90427600Y-108730601D02*
X90427600Y-108470599D01*
G75*
G02*
X90452999Y-108445200I25399J0D01*
G01*
X91133001Y-108445200D01*
G75*
G02*
X91158400Y-108470599I0J-25399D01*
G01*
X91158400Y-108730601D01*
G75*
G02*
X91133001Y-108756000I-25399J0D01*
G01*
X90452999Y-108756000D01*
G75*
G02*
X90427600Y-108730601I0J25399D01*
G01*
G37*
G36*
G01*
X90427600Y-109230601D02*
X90427600Y-108970599D01*
G75*
G02*
X90452999Y-108945200I25399J0D01*
G01*
X91133001Y-108945200D01*
G75*
G02*
X91158400Y-108970599I0J-25399D01*
G01*
X91158400Y-109230601D01*
G75*
G02*
X91133001Y-109256000I-25399J0D01*
G01*
X90452999Y-109256000D01*
G75*
G02*
X90427600Y-109230601I0J25399D01*
G01*
G37*
G36*
G01*
X90427600Y-109730601D02*
X90427600Y-109470599D01*
G75*
G02*
X90452999Y-109445200I25399J0D01*
G01*
X91133001Y-109445200D01*
G75*
G02*
X91158400Y-109470599I0J-25399D01*
G01*
X91158400Y-109730601D01*
G75*
G02*
X91133001Y-109756000I-25399J0D01*
G01*
X90452999Y-109756000D01*
G75*
G02*
X90427600Y-109730601I0J25399D01*
G01*
G37*
G36*
G01*
X90427600Y-110230601D02*
X90427600Y-109970599D01*
G75*
G02*
X90452999Y-109945200I25399J0D01*
G01*
X91133001Y-109945200D01*
G75*
G02*
X91158400Y-109970599I0J-25399D01*
G01*
X91158400Y-110230601D01*
G75*
G02*
X91133001Y-110256000I-25399J0D01*
G01*
X90452999Y-110256000D01*
G75*
G02*
X90427600Y-110230601I0J25399D01*
G01*
G37*
G36*
G01*
X90427600Y-110730601D02*
X90427600Y-110470599D01*
G75*
G02*
X90452999Y-110445200I25399J0D01*
G01*
X91133001Y-110445200D01*
G75*
G02*
X91158400Y-110470599I0J-25399D01*
G01*
X91158400Y-110730601D01*
G75*
G02*
X91133001Y-110756000I-25399J0D01*
G01*
X90452999Y-110756000D01*
G75*
G02*
X90427600Y-110730601I0J25399D01*
G01*
G37*
G36*
G01*
X90427600Y-111230601D02*
X90427600Y-110970599D01*
G75*
G02*
X90452999Y-110945200I25399J0D01*
G01*
X91133001Y-110945200D01*
G75*
G02*
X91158400Y-110970599I0J-25399D01*
G01*
X91158400Y-111230601D01*
G75*
G02*
X91133001Y-111256000I-25399J0D01*
G01*
X90452999Y-111256000D01*
G75*
G02*
X90427600Y-111230601I0J25399D01*
G01*
G37*
G36*
G01*
X90427600Y-111730601D02*
X90427600Y-111470599D01*
G75*
G02*
X90452999Y-111445200I25399J0D01*
G01*
X91133001Y-111445200D01*
G75*
G02*
X91158400Y-111470599I0J-25399D01*
G01*
X91158400Y-111730601D01*
G75*
G02*
X91133001Y-111756000I-25399J0D01*
G01*
X90452999Y-111756000D01*
G75*
G02*
X90427600Y-111730601I0J25399D01*
G01*
G37*
G36*
G01*
X90427600Y-112230601D02*
X90427600Y-111970599D01*
G75*
G02*
X90452999Y-111945200I25399J0D01*
G01*
X91133001Y-111945200D01*
G75*
G02*
X91158400Y-111970599I0J-25399D01*
G01*
X91158400Y-112230601D01*
G75*
G02*
X91133001Y-112256000I-25399J0D01*
G01*
X90452999Y-112256000D01*
G75*
G02*
X90427600Y-112230601I0J25399D01*
G01*
G37*
G36*
G01*
X91552600Y-111900600D02*
X91552600Y-108800600D01*
G75*
G02*
X91578000Y-108775200I25400J0D01*
G01*
X94678000Y-108775200D01*
G75*
G02*
X94703400Y-108800600I0J-25400D01*
G01*
X94703400Y-111900600D01*
G75*
G02*
X94678000Y-111926000I-25400J0D01*
G01*
X91578000Y-111926000D01*
G75*
G02*
X91552600Y-111900600I0J25400D01*
G01*
G37*
G36*
G01*
X90849000Y-113649000D02*
X90849000Y-113859400D01*
G75*
G02*
X90758800Y-113949600I-90200J0D01*
G01*
X90578400Y-113949600D01*
G75*
G02*
X90488200Y-113859400I0J90200D01*
G01*
X90488200Y-113649000D01*
G75*
G02*
X90578400Y-113558800I90200J0D01*
G01*
X90758800Y-113558800D01*
G75*
G02*
X90849000Y-113649000I0J-90200D01*
G01*
G37*
G36*
G01*
X91399000Y-113649000D02*
X91399000Y-113859400D01*
G75*
G02*
X91308800Y-113949600I-90200J0D01*
G01*
X91128400Y-113949600D01*
G75*
G02*
X91038200Y-113859400I0J90200D01*
G01*
X91038200Y-113649000D01*
G75*
G02*
X91128400Y-113558800I90200J0D01*
G01*
X91308800Y-113558800D01*
G75*
G02*
X91399000Y-113649000I0J-90200D01*
G01*
G37*
G36*
G01*
X91676600Y-116033200D02*
X91887000Y-116033200D01*
G75*
G02*
X91977200Y-116123400I0J-90200D01*
G01*
X91977200Y-116303800D01*
G75*
G02*
X91887000Y-116394000I-90200J0D01*
G01*
X91676600Y-116394000D01*
G75*
G02*
X91586400Y-116303800I0J90200D01*
G01*
X91586400Y-116123400D01*
G75*
G02*
X91676600Y-116033200I90200J0D01*
G01*
G37*
G36*
G01*
X91676600Y-115483200D02*
X91887000Y-115483200D01*
G75*
G02*
X91977200Y-115573400I0J-90200D01*
G01*
X91977200Y-115753800D01*
G75*
G02*
X91887000Y-115844000I-90200J0D01*
G01*
X91676600Y-115844000D01*
G75*
G02*
X91586400Y-115753800I0J90200D01*
G01*
X91586400Y-115573400D01*
G75*
G02*
X91676600Y-115483200I90200J0D01*
G01*
G37*
G36*
G01*
X94557000Y-116633400D02*
X94767400Y-116633400D01*
G75*
G02*
X94857600Y-116723600I0J-90200D01*
G01*
X94857600Y-116904000D01*
G75*
G02*
X94767400Y-116994200I-90200J0D01*
G01*
X94557000Y-116994200D01*
G75*
G02*
X94466800Y-116904000I0J90200D01*
G01*
X94466800Y-116723600D01*
G75*
G02*
X94557000Y-116633400I90200J0D01*
G01*
G37*
G36*
G01*
X94557000Y-116083400D02*
X94767400Y-116083400D01*
G75*
G02*
X94857600Y-116173600I0J-90200D01*
G01*
X94857600Y-116354000D01*
G75*
G02*
X94767400Y-116444200I-90200J0D01*
G01*
X94557000Y-116444200D01*
G75*
G02*
X94466800Y-116354000I0J90200D01*
G01*
X94466800Y-116173600D01*
G75*
G02*
X94557000Y-116083400I90200J0D01*
G01*
G37*
G36*
G01*
X95268200Y-116633400D02*
X95478600Y-116633400D01*
G75*
G02*
X95568800Y-116723600I0J-90200D01*
G01*
X95568800Y-116904000D01*
G75*
G02*
X95478600Y-116994200I-90200J0D01*
G01*
X95268200Y-116994200D01*
G75*
G02*
X95178000Y-116904000I0J90200D01*
G01*
X95178000Y-116723600D01*
G75*
G02*
X95268200Y-116633400I90200J0D01*
G01*
G37*
G36*
G01*
X95268200Y-116083400D02*
X95478600Y-116083400D01*
G75*
G02*
X95568800Y-116173600I0J-90200D01*
G01*
X95568800Y-116354000D01*
G75*
G02*
X95478600Y-116444200I-90200J0D01*
G01*
X95268200Y-116444200D01*
G75*
G02*
X95178000Y-116354000I0J90200D01*
G01*
X95178000Y-116173600D01*
G75*
G02*
X95268200Y-116083400I90200J0D01*
G01*
G37*
G36*
G01*
X94757200Y-106852400D02*
X94546800Y-106852400D01*
G75*
G02*
X94456600Y-106762200I0J90200D01*
G01*
X94456600Y-106581800D01*
G75*
G02*
X94546800Y-106491600I90200J0D01*
G01*
X94757200Y-106491600D01*
G75*
G02*
X94847400Y-106581800I0J-90200D01*
G01*
X94847400Y-106762200D01*
G75*
G02*
X94757200Y-106852400I-90200J0D01*
G01*
G37*
G36*
G01*
X94757200Y-107402400D02*
X94546800Y-107402400D01*
G75*
G02*
X94456600Y-107312200I0J90200D01*
G01*
X94456600Y-107131800D01*
G75*
G02*
X94546800Y-107041600I90200J0D01*
G01*
X94757200Y-107041600D01*
G75*
G02*
X94847400Y-107131800I0J-90200D01*
G01*
X94847400Y-107312200D01*
G75*
G02*
X94757200Y-107402400I-90200J0D01*
G01*
G37*
G36*
G01*
X96858200Y-107041600D02*
X97068600Y-107041600D01*
G75*
G02*
X97158800Y-107131800I0J-90200D01*
G01*
X97158800Y-107312200D01*
G75*
G02*
X97068600Y-107402400I-90200J0D01*
G01*
X96858200Y-107402400D01*
G75*
G02*
X96768000Y-107312200I0J90200D01*
G01*
X96768000Y-107131800D01*
G75*
G02*
X96858200Y-107041600I90200J0D01*
G01*
G37*
G36*
G01*
X96858200Y-106491600D02*
X97068600Y-106491600D01*
G75*
G02*
X97158800Y-106581800I0J-90200D01*
G01*
X97158800Y-106762200D01*
G75*
G02*
X97068600Y-106852400I-90200J0D01*
G01*
X96858200Y-106852400D01*
G75*
G02*
X96768000Y-106762200I0J90200D01*
G01*
X96768000Y-106581800D01*
G75*
G02*
X96858200Y-106491600I90200J0D01*
G01*
G37*
G36*
G01*
X89426600Y-109864400D02*
X89426600Y-110074800D01*
G75*
G02*
X89336400Y-110165000I-90200J0D01*
G01*
X89156000Y-110165000D01*
G75*
G02*
X89065800Y-110074800I0J90200D01*
G01*
X89065800Y-109864400D01*
G75*
G02*
X89156000Y-109774200I90200J0D01*
G01*
X89336400Y-109774200D01*
G75*
G02*
X89426600Y-109864400I0J-90200D01*
G01*
G37*
G36*
G01*
X89976600Y-109864400D02*
X89976600Y-110074800D01*
G75*
G02*
X89886400Y-110165000I-90200J0D01*
G01*
X89706000Y-110165000D01*
G75*
G02*
X89615800Y-110074800I0J90200D01*
G01*
X89615800Y-109864400D01*
G75*
G02*
X89706000Y-109774200I90200J0D01*
G01*
X89886400Y-109774200D01*
G75*
G02*
X89976600Y-109864400I0J-90200D01*
G01*
G37*
G36*
G01*
X93845800Y-116633400D02*
X94056200Y-116633400D01*
G75*
G02*
X94146400Y-116723600I0J-90200D01*
G01*
X94146400Y-116904000D01*
G75*
G02*
X94056200Y-116994200I-90200J0D01*
G01*
X93845800Y-116994200D01*
G75*
G02*
X93755600Y-116904000I0J90200D01*
G01*
X93755600Y-116723600D01*
G75*
G02*
X93845800Y-116633400I90200J0D01*
G01*
G37*
G36*
G01*
X93845800Y-116083400D02*
X94056200Y-116083400D01*
G75*
G02*
X94146400Y-116173600I0J-90200D01*
G01*
X94146400Y-116354000D01*
G75*
G02*
X94056200Y-116444200I-90200J0D01*
G01*
X93845800Y-116444200D01*
G75*
G02*
X93755600Y-116354000I0J90200D01*
G01*
X93755600Y-116173600D01*
G75*
G02*
X93845800Y-116083400I90200J0D01*
G01*
G37*
G36*
G01*
X94071400Y-106852400D02*
X93861000Y-106852400D01*
G75*
G02*
X93770800Y-106762200I0J90200D01*
G01*
X93770800Y-106581800D01*
G75*
G02*
X93861000Y-106491600I90200J0D01*
G01*
X94071400Y-106491600D01*
G75*
G02*
X94161600Y-106581800I0J-90200D01*
G01*
X94161600Y-106762200D01*
G75*
G02*
X94071400Y-106852400I-90200J0D01*
G01*
G37*
G36*
G01*
X94071400Y-107402400D02*
X93861000Y-107402400D01*
G75*
G02*
X93770800Y-107312200I0J90200D01*
G01*
X93770800Y-107131800D01*
G75*
G02*
X93861000Y-107041600I90200J0D01*
G01*
X94071400Y-107041600D01*
G75*
G02*
X94161600Y-107131800I0J-90200D01*
G01*
X94161600Y-107312200D01*
G75*
G02*
X94071400Y-107402400I-90200J0D01*
G01*
G37*
G36*
G01*
X99191600Y-110786000D02*
X99191600Y-110575600D01*
G75*
G02*
X99281800Y-110485400I90200J0D01*
G01*
X99462200Y-110485400D01*
G75*
G02*
X99552400Y-110575600I0J-90200D01*
G01*
X99552400Y-110786000D01*
G75*
G02*
X99462200Y-110876200I-90200J0D01*
G01*
X99281800Y-110876200D01*
G75*
G02*
X99191600Y-110786000I0J90200D01*
G01*
G37*
G36*
G01*
X98641600Y-110786000D02*
X98641600Y-110575600D01*
G75*
G02*
X98731800Y-110485400I90200J0D01*
G01*
X98912200Y-110485400D01*
G75*
G02*
X99002400Y-110575600I0J-90200D01*
G01*
X99002400Y-110786000D01*
G75*
G02*
X98912200Y-110876200I-90200J0D01*
G01*
X98731800Y-110876200D01*
G75*
G02*
X98641600Y-110786000I0J90200D01*
G01*
G37*
G36*
G01*
X99191600Y-111497200D02*
X99191600Y-111286800D01*
G75*
G02*
X99281800Y-111196600I90200J0D01*
G01*
X99462200Y-111196600D01*
G75*
G02*
X99552400Y-111286800I0J-90200D01*
G01*
X99552400Y-111497200D01*
G75*
G02*
X99462200Y-111587400I-90200J0D01*
G01*
X99281800Y-111587400D01*
G75*
G02*
X99191600Y-111497200I0J90200D01*
G01*
G37*
G36*
G01*
X98641600Y-111497200D02*
X98641600Y-111286800D01*
G75*
G02*
X98731800Y-111196600I90200J0D01*
G01*
X98912200Y-111196600D01*
G75*
G02*
X99002400Y-111286800I0J-90200D01*
G01*
X99002400Y-111497200D01*
G75*
G02*
X98912200Y-111587400I-90200J0D01*
G01*
X98731800Y-111587400D01*
G75*
G02*
X98641600Y-111497200I0J90200D01*
G01*
G37*
G36*
G01*
X93360200Y-106852400D02*
X93149800Y-106852400D01*
G75*
G02*
X93059600Y-106762200I0J90200D01*
G01*
X93059600Y-106581800D01*
G75*
G02*
X93149800Y-106491600I90200J0D01*
G01*
X93360200Y-106491600D01*
G75*
G02*
X93450400Y-106581800I0J-90200D01*
G01*
X93450400Y-106762200D01*
G75*
G02*
X93360200Y-106852400I-90200J0D01*
G01*
G37*
G36*
G01*
X93360200Y-107402400D02*
X93149800Y-107402400D01*
G75*
G02*
X93059600Y-107312200I0J90200D01*
G01*
X93059600Y-107131800D01*
G75*
G02*
X93149800Y-107041600I90200J0D01*
G01*
X93360200Y-107041600D01*
G75*
G02*
X93450400Y-107131800I0J-90200D01*
G01*
X93450400Y-107312200D01*
G75*
G02*
X93360200Y-107402400I-90200J0D01*
G01*
G37*
G36*
G01*
X105848000Y-112310200D02*
X105848000Y-112835200D01*
G75*
G02*
X105822600Y-112860600I-25400J0D01*
G01*
X105522600Y-112860600D01*
G75*
G02*
X105497200Y-112835200I0J25400D01*
G01*
X105497200Y-112310200D01*
G75*
G02*
X105522600Y-112284800I25400J0D01*
G01*
X105822600Y-112284800D01*
G75*
G02*
X105848000Y-112310200I0J-25400D01*
G01*
G37*
G36*
G01*
X106348000Y-112310200D02*
X106348000Y-112835200D01*
G75*
G02*
X106322600Y-112860600I-25400J0D01*
G01*
X106022600Y-112860600D01*
G75*
G02*
X105997200Y-112835200I0J25400D01*
G01*
X105997200Y-112310200D01*
G75*
G02*
X106022600Y-112284800I25400J0D01*
G01*
X106322600Y-112284800D01*
G75*
G02*
X106348000Y-112310200I0J-25400D01*
G01*
G37*
G36*
G01*
X106848000Y-112310200D02*
X106848000Y-112835200D01*
G75*
G02*
X106822600Y-112860600I-25400J0D01*
G01*
X106522600Y-112860600D01*
G75*
G02*
X106497200Y-112835200I0J25400D01*
G01*
X106497200Y-112310200D01*
G75*
G02*
X106522600Y-112284800I25400J0D01*
G01*
X106822600Y-112284800D01*
G75*
G02*
X106848000Y-112310200I0J-25400D01*
G01*
G37*
G36*
G01*
X107348000Y-112310200D02*
X107348000Y-112835200D01*
G75*
G02*
X107322600Y-112860600I-25400J0D01*
G01*
X107022600Y-112860600D01*
G75*
G02*
X106997200Y-112835200I0J25400D01*
G01*
X106997200Y-112310200D01*
G75*
G02*
X107022600Y-112284800I25400J0D01*
G01*
X107322600Y-112284800D01*
G75*
G02*
X107348000Y-112310200I0J-25400D01*
G01*
G37*
G36*
G01*
X107848000Y-112310200D02*
X107848000Y-112835200D01*
G75*
G02*
X107822600Y-112860600I-25400J0D01*
G01*
X107522600Y-112860600D01*
G75*
G02*
X107497200Y-112835200I0J25400D01*
G01*
X107497200Y-112310200D01*
G75*
G02*
X107522600Y-112284800I25400J0D01*
G01*
X107822600Y-112284800D01*
G75*
G02*
X107848000Y-112310200I0J-25400D01*
G01*
G37*
G36*
G01*
X108348000Y-112310200D02*
X108348000Y-112835200D01*
G75*
G02*
X108322600Y-112860600I-25400J0D01*
G01*
X108022600Y-112860600D01*
G75*
G02*
X107997200Y-112835200I0J25400D01*
G01*
X107997200Y-112310200D01*
G75*
G02*
X108022600Y-112284800I25400J0D01*
G01*
X108322600Y-112284800D01*
G75*
G02*
X108348000Y-112310200I0J-25400D01*
G01*
G37*
G36*
G01*
X108848000Y-112310200D02*
X108848000Y-112835200D01*
G75*
G02*
X108822600Y-112860600I-25400J0D01*
G01*
X108522600Y-112860600D01*
G75*
G02*
X108497200Y-112835200I0J25400D01*
G01*
X108497200Y-112310200D01*
G75*
G02*
X108522600Y-112284800I25400J0D01*
G01*
X108822600Y-112284800D01*
G75*
G02*
X108848000Y-112310200I0J-25400D01*
G01*
G37*
G36*
G01*
X109348000Y-112310200D02*
X109348000Y-112835200D01*
G75*
G02*
X109322600Y-112860600I-25400J0D01*
G01*
X109022600Y-112860600D01*
G75*
G02*
X108997200Y-112835200I0J25400D01*
G01*
X108997200Y-112310200D01*
G75*
G02*
X109022600Y-112284800I25400J0D01*
G01*
X109322600Y-112284800D01*
G75*
G02*
X109348000Y-112310200I0J-25400D01*
G01*
G37*
G36*
G01*
X109848000Y-112310200D02*
X109848000Y-112835200D01*
G75*
G02*
X109822600Y-112860600I-25400J0D01*
G01*
X109522600Y-112860600D01*
G75*
G02*
X109497200Y-112835200I0J25400D01*
G01*
X109497200Y-112310200D01*
G75*
G02*
X109522600Y-112284800I25400J0D01*
G01*
X109822600Y-112284800D01*
G75*
G02*
X109848000Y-112310200I0J-25400D01*
G01*
G37*
G36*
G01*
X109522600Y-113209800D02*
X109947600Y-113209800D01*
G75*
G02*
X109973000Y-113235200I0J-25400D01*
G01*
X109973000Y-113535200D01*
G75*
G02*
X109947600Y-113560600I-25400J0D01*
G01*
X109522600Y-113560600D01*
G75*
G02*
X109497200Y-113535200I0J25400D01*
G01*
X109497200Y-113235200D01*
G75*
G02*
X109522600Y-113209800I25400J0D01*
G01*
G37*
G36*
G01*
X109522600Y-113709800D02*
X109947600Y-113709800D01*
G75*
G02*
X109973000Y-113735200I0J-25400D01*
G01*
X109973000Y-114035200D01*
G75*
G02*
X109947600Y-114060600I-25400J0D01*
G01*
X109522600Y-114060600D01*
G75*
G02*
X109497200Y-114035200I0J25400D01*
G01*
X109497200Y-113735200D01*
G75*
G02*
X109522600Y-113709800I25400J0D01*
G01*
G37*
G36*
G01*
X109522600Y-114209800D02*
X109947600Y-114209800D01*
G75*
G02*
X109973000Y-114235200I0J-25400D01*
G01*
X109973000Y-114535200D01*
G75*
G02*
X109947600Y-114560600I-25400J0D01*
G01*
X109522600Y-114560600D01*
G75*
G02*
X109497200Y-114535200I0J25400D01*
G01*
X109497200Y-114235200D01*
G75*
G02*
X109522600Y-114209800I25400J0D01*
G01*
G37*
G36*
G01*
X109522600Y-114709800D02*
X109947600Y-114709800D01*
G75*
G02*
X109973000Y-114735200I0J-25400D01*
G01*
X109973000Y-115035200D01*
G75*
G02*
X109947600Y-115060600I-25400J0D01*
G01*
X109522600Y-115060600D01*
G75*
G02*
X109497200Y-115035200I0J25400D01*
G01*
X109497200Y-114735200D01*
G75*
G02*
X109522600Y-114709800I25400J0D01*
G01*
G37*
G36*
G01*
X109848000Y-115435200D02*
X109848000Y-115960200D01*
G75*
G02*
X109822600Y-115985600I-25400J0D01*
G01*
X109522600Y-115985600D01*
G75*
G02*
X109497200Y-115960200I0J25400D01*
G01*
X109497200Y-115435200D01*
G75*
G02*
X109522600Y-115409800I25400J0D01*
G01*
X109822600Y-115409800D01*
G75*
G02*
X109848000Y-115435200I0J-25400D01*
G01*
G37*
G36*
G01*
X109348000Y-115435200D02*
X109348000Y-115960200D01*
G75*
G02*
X109322600Y-115985600I-25400J0D01*
G01*
X109022600Y-115985600D01*
G75*
G02*
X108997200Y-115960200I0J25400D01*
G01*
X108997200Y-115435200D01*
G75*
G02*
X109022600Y-115409800I25400J0D01*
G01*
X109322600Y-115409800D01*
G75*
G02*
X109348000Y-115435200I0J-25400D01*
G01*
G37*
G36*
G01*
X108848000Y-115435200D02*
X108848000Y-115960200D01*
G75*
G02*
X108822600Y-115985600I-25400J0D01*
G01*
X108522600Y-115985600D01*
G75*
G02*
X108497200Y-115960200I0J25400D01*
G01*
X108497200Y-115435200D01*
G75*
G02*
X108522600Y-115409800I25400J0D01*
G01*
X108822600Y-115409800D01*
G75*
G02*
X108848000Y-115435200I0J-25400D01*
G01*
G37*
G36*
G01*
X108348000Y-115435200D02*
X108348000Y-115960200D01*
G75*
G02*
X108322600Y-115985600I-25400J0D01*
G01*
X108022600Y-115985600D01*
G75*
G02*
X107997200Y-115960200I0J25400D01*
G01*
X107997200Y-115435200D01*
G75*
G02*
X108022600Y-115409800I25400J0D01*
G01*
X108322600Y-115409800D01*
G75*
G02*
X108348000Y-115435200I0J-25400D01*
G01*
G37*
G36*
G01*
X107848000Y-115435200D02*
X107848000Y-115960200D01*
G75*
G02*
X107822600Y-115985600I-25400J0D01*
G01*
X107522600Y-115985600D01*
G75*
G02*
X107497200Y-115960200I0J25400D01*
G01*
X107497200Y-115435200D01*
G75*
G02*
X107522600Y-115409800I25400J0D01*
G01*
X107822600Y-115409800D01*
G75*
G02*
X107848000Y-115435200I0J-25400D01*
G01*
G37*
G36*
G01*
X107348000Y-115435200D02*
X107348000Y-115960200D01*
G75*
G02*
X107322600Y-115985600I-25400J0D01*
G01*
X107022600Y-115985600D01*
G75*
G02*
X106997200Y-115960200I0J25400D01*
G01*
X106997200Y-115435200D01*
G75*
G02*
X107022600Y-115409800I25400J0D01*
G01*
X107322600Y-115409800D01*
G75*
G02*
X107348000Y-115435200I0J-25400D01*
G01*
G37*
G36*
G01*
X106848000Y-115435200D02*
X106848000Y-115960200D01*
G75*
G02*
X106822600Y-115985600I-25400J0D01*
G01*
X106522600Y-115985600D01*
G75*
G02*
X106497200Y-115960200I0J25400D01*
G01*
X106497200Y-115435200D01*
G75*
G02*
X106522600Y-115409800I25400J0D01*
G01*
X106822600Y-115409800D01*
G75*
G02*
X106848000Y-115435200I0J-25400D01*
G01*
G37*
G36*
G01*
X106348000Y-115435200D02*
X106348000Y-115960200D01*
G75*
G02*
X106322600Y-115985600I-25400J0D01*
G01*
X106022600Y-115985600D01*
G75*
G02*
X105997200Y-115960200I0J25400D01*
G01*
X105997200Y-115435200D01*
G75*
G02*
X106022600Y-115409800I25400J0D01*
G01*
X106322600Y-115409800D01*
G75*
G02*
X106348000Y-115435200I0J-25400D01*
G01*
G37*
G36*
G01*
X105848000Y-115435200D02*
X105848000Y-115960200D01*
G75*
G02*
X105822600Y-115985600I-25400J0D01*
G01*
X105522600Y-115985600D01*
G75*
G02*
X105497200Y-115960200I0J25400D01*
G01*
X105497200Y-115435200D01*
G75*
G02*
X105522600Y-115409800I25400J0D01*
G01*
X105822600Y-115409800D01*
G75*
G02*
X105848000Y-115435200I0J-25400D01*
G01*
G37*
G36*
G01*
X105348000Y-115435200D02*
X105348000Y-115960200D01*
G75*
G02*
X105322600Y-115985600I-25400J0D01*
G01*
X105022600Y-115985600D01*
G75*
G02*
X104997200Y-115960200I0J25400D01*
G01*
X104997200Y-115435200D01*
G75*
G02*
X105022600Y-115409800I25400J0D01*
G01*
X105322600Y-115409800D01*
G75*
G02*
X105348000Y-115435200I0J-25400D01*
G01*
G37*
G36*
G01*
X104897600Y-114709800D02*
X105322600Y-114709800D01*
G75*
G02*
X105348000Y-114735200I0J-25400D01*
G01*
X105348000Y-115035200D01*
G75*
G02*
X105322600Y-115060600I-25400J0D01*
G01*
X104897600Y-115060600D01*
G75*
G02*
X104872200Y-115035200I0J25400D01*
G01*
X104872200Y-114735200D01*
G75*
G02*
X104897600Y-114709800I25400J0D01*
G01*
G37*
G36*
G01*
X104897600Y-114209800D02*
X105322600Y-114209800D01*
G75*
G02*
X105348000Y-114235200I0J-25400D01*
G01*
X105348000Y-114535200D01*
G75*
G02*
X105322600Y-114560600I-25400J0D01*
G01*
X104897600Y-114560600D01*
G75*
G02*
X104872200Y-114535200I0J25400D01*
G01*
X104872200Y-114235200D01*
G75*
G02*
X104897600Y-114209800I25400J0D01*
G01*
G37*
G36*
G01*
X104897600Y-113709800D02*
X105322600Y-113709800D01*
G75*
G02*
X105348000Y-113735200I0J-25400D01*
G01*
X105348000Y-114035200D01*
G75*
G02*
X105322600Y-114060600I-25400J0D01*
G01*
X104897600Y-114060600D01*
G75*
G02*
X104872200Y-114035200I0J25400D01*
G01*
X104872200Y-113735200D01*
G75*
G02*
X104897600Y-113709800I25400J0D01*
G01*
G37*
G36*
G01*
X104897600Y-113209800D02*
X105322600Y-113209800D01*
G75*
G02*
X105348000Y-113235200I0J-25400D01*
G01*
X105348000Y-113535200D01*
G75*
G02*
X105322600Y-113560600I-25400J0D01*
G01*
X104897600Y-113560600D01*
G75*
G02*
X104872200Y-113535200I0J25400D01*
G01*
X104872200Y-113235200D01*
G75*
G02*
X104897600Y-113209800I25400J0D01*
G01*
G37*
G36*
G01*
X105348000Y-112310200D02*
X105348000Y-112835200D01*
G75*
G02*
X105322600Y-112860600I-25400J0D01*
G01*
X105022600Y-112860600D01*
G75*
G02*
X104997200Y-112835200I0J25400D01*
G01*
X104997200Y-112310200D01*
G75*
G02*
X105022600Y-112284800I25400J0D01*
G01*
X105322600Y-112284800D01*
G75*
G02*
X105348000Y-112310200I0J-25400D01*
G01*
G37*
G36*
G01*
X97974400Y-108824000D02*
X97344400Y-108824000D01*
G75*
G02*
X97319000Y-108798600I0J25400D01*
G01*
X97319000Y-108218600D01*
G75*
G02*
X97344400Y-108193200I25400J0D01*
G01*
X97974400Y-108193200D01*
G75*
G02*
X97999800Y-108218600I0J-25400D01*
G01*
X97999800Y-108798600D01*
G75*
G02*
X97974400Y-108824000I-25400J0D01*
G01*
G37*
G36*
G01*
X97974400Y-109714000D02*
X97344400Y-109714000D01*
G75*
G02*
X97319000Y-109688600I0J25400D01*
G01*
X97319000Y-109108600D01*
G75*
G02*
X97344400Y-109083200I25400J0D01*
G01*
X97974400Y-109083200D01*
G75*
G02*
X97999800Y-109108600I0J-25400D01*
G01*
X97999800Y-109688600D01*
G75*
G02*
X97974400Y-109714000I-25400J0D01*
G01*
G37*
G36*
G01*
X97827000Y-111088800D02*
X98457000Y-111088800D01*
G75*
G02*
X98482400Y-111114200I0J-25400D01*
G01*
X98482400Y-111694200D01*
G75*
G02*
X98457000Y-111719600I-25400J0D01*
G01*
X97827000Y-111719600D01*
G75*
G02*
X97801600Y-111694200I0J25400D01*
G01*
X97801600Y-111114200D01*
G75*
G02*
X97827000Y-111088800I25400J0D01*
G01*
G37*
G36*
G01*
X97827000Y-111978800D02*
X98457000Y-111978800D01*
G75*
G02*
X98482400Y-112004200I0J-25400D01*
G01*
X98482400Y-112584200D01*
G75*
G02*
X98457000Y-112609600I-25400J0D01*
G01*
X97827000Y-112609600D01*
G75*
G02*
X97801600Y-112584200I0J25400D01*
G01*
X97801600Y-112004200D01*
G75*
G02*
X97827000Y-111978800I25400J0D01*
G01*
G37*
G36*
G01*
X97286200Y-111655000D02*
X97626200Y-111655000D01*
G75*
G02*
X97651600Y-111680400I0J-25400D01*
G01*
X97651600Y-111990400D01*
G75*
G02*
X97626200Y-112015800I-25400J0D01*
G01*
X97286200Y-112015800D01*
G75*
G02*
X97260800Y-111990400I0J25400D01*
G01*
X97260800Y-111680400D01*
G75*
G02*
X97286200Y-111655000I25400J0D01*
G01*
G37*
G36*
G01*
X97286200Y-111105000D02*
X97626200Y-111105000D01*
G75*
G02*
X97651600Y-111130400I0J-25400D01*
G01*
X97651600Y-111440400D01*
G75*
G02*
X97626200Y-111465800I-25400J0D01*
G01*
X97286200Y-111465800D01*
G75*
G02*
X97260800Y-111440400I0J25400D01*
G01*
X97260800Y-111130400D01*
G75*
G02*
X97286200Y-111105000I25400J0D01*
G01*
G37*
G36*
G01*
X96727400Y-111105000D02*
X97067400Y-111105000D01*
G75*
G02*
X97092800Y-111130400I0J-25400D01*
G01*
X97092800Y-111440400D01*
G75*
G02*
X97067400Y-111465800I-25400J0D01*
G01*
X96727400Y-111465800D01*
G75*
G02*
X96702000Y-111440400I0J25400D01*
G01*
X96702000Y-111130400D01*
G75*
G02*
X96727400Y-111105000I25400J0D01*
G01*
G37*
G36*
G01*
X96727400Y-111655000D02*
X97067400Y-111655000D01*
G75*
G02*
X97092800Y-111680400I0J-25400D01*
G01*
X97092800Y-111990400D01*
G75*
G02*
X97067400Y-112015800I-25400J0D01*
G01*
X96727400Y-112015800D01*
G75*
G02*
X96702000Y-111990400I0J25400D01*
G01*
X96702000Y-111680400D01*
G75*
G02*
X96727400Y-111655000I25400J0D01*
G01*
G37*
G36*
G01*
X89452000Y-109215400D02*
X89452000Y-109555400D01*
G75*
G02*
X89426600Y-109580800I-25400J0D01*
G01*
X89116600Y-109580800D01*
G75*
G02*
X89091200Y-109555400I0J25400D01*
G01*
X89091200Y-109215400D01*
G75*
G02*
X89116600Y-109190000I25400J0D01*
G01*
X89426600Y-109190000D01*
G75*
G02*
X89452000Y-109215400I0J-25400D01*
G01*
G37*
G36*
G01*
X90002000Y-109215400D02*
X90002000Y-109555400D01*
G75*
G02*
X89976600Y-109580800I-25400J0D01*
G01*
X89666600Y-109580800D01*
G75*
G02*
X89641200Y-109555400I0J25400D01*
G01*
X89641200Y-109215400D01*
G75*
G02*
X89666600Y-109190000I25400J0D01*
G01*
X89976600Y-109190000D01*
G75*
G02*
X90002000Y-109215400I0J-25400D01*
G01*
G37*
G36*
G01*
X90006400Y-108656600D02*
X90006400Y-108996600D01*
G75*
G02*
X89981000Y-109022000I-25400J0D01*
G01*
X89671000Y-109022000D01*
G75*
G02*
X89645600Y-108996600I0J25400D01*
G01*
X89645600Y-108656600D01*
G75*
G02*
X89671000Y-108631200I25400J0D01*
G01*
X89981000Y-108631200D01*
G75*
G02*
X90006400Y-108656600I0J-25400D01*
G01*
G37*
G36*
G01*
X89456400Y-108656600D02*
X89456400Y-108996600D01*
G75*
G02*
X89431000Y-109022000I-25400J0D01*
G01*
X89121000Y-109022000D01*
G75*
G02*
X89095600Y-108996600I0J25400D01*
G01*
X89095600Y-108656600D01*
G75*
G02*
X89121000Y-108631200I25400J0D01*
G01*
X89431000Y-108631200D01*
G75*
G02*
X89456400Y-108656600I0J-25400D01*
G01*
G37*
G36*
G01*
X97852400Y-112857400D02*
X98482400Y-112857400D01*
G75*
G02*
X98507800Y-112882800I0J-25400D01*
G01*
X98507800Y-113462800D01*
G75*
G02*
X98482400Y-113488200I-25400J0D01*
G01*
X97852400Y-113488200D01*
G75*
G02*
X97827000Y-113462800I0J25400D01*
G01*
X97827000Y-112882800D01*
G75*
G02*
X97852400Y-112857400I25400J0D01*
G01*
G37*
G36*
G01*
X97852400Y-113747400D02*
X98482400Y-113747400D01*
G75*
G02*
X98507800Y-113772800I0J-25400D01*
G01*
X98507800Y-114352800D01*
G75*
G02*
X98482400Y-114378200I-25400J0D01*
G01*
X97852400Y-114378200D01*
G75*
G02*
X97827000Y-114352800I0J25400D01*
G01*
X97827000Y-113772800D01*
G75*
G02*
X97852400Y-113747400I25400J0D01*
G01*
G37*
G36*
G01*
X97605800Y-112551400D02*
X97265800Y-112551400D01*
G75*
G02*
X97240400Y-112526000I0J25400D01*
G01*
X97240400Y-112216000D01*
G75*
G02*
X97265800Y-112190600I25400J0D01*
G01*
X97605800Y-112190600D01*
G75*
G02*
X97631200Y-112216000I0J-25400D01*
G01*
X97631200Y-112526000D01*
G75*
G02*
X97605800Y-112551400I-25400J0D01*
G01*
G37*
G36*
G01*
X97605800Y-113101400D02*
X97265800Y-113101400D01*
G75*
G02*
X97240400Y-113076000I0J25400D01*
G01*
X97240400Y-112766000D01*
G75*
G02*
X97265800Y-112740600I25400J0D01*
G01*
X97605800Y-112740600D01*
G75*
G02*
X97631200Y-112766000I0J-25400D01*
G01*
X97631200Y-113076000D01*
G75*
G02*
X97605800Y-113101400I-25400J0D01*
G01*
G37*
G36*
G01*
X97031800Y-113092000D02*
X96691800Y-113092000D01*
G75*
G02*
X96666400Y-113066600I0J25400D01*
G01*
X96666400Y-112756600D01*
G75*
G02*
X96691800Y-112731200I25400J0D01*
G01*
X97031800Y-112731200D01*
G75*
G02*
X97057200Y-112756600I0J-25400D01*
G01*
X97057200Y-113066600D01*
G75*
G02*
X97031800Y-113092000I-25400J0D01*
G01*
G37*
G36*
G01*
X97031800Y-112542000D02*
X96691800Y-112542000D01*
G75*
G02*
X96666400Y-112516600I0J25400D01*
G01*
X96666400Y-112206600D01*
G75*
G02*
X96691800Y-112181200I25400J0D01*
G01*
X97031800Y-112181200D01*
G75*
G02*
X97057200Y-112206600I0J-25400D01*
G01*
X97057200Y-112516600D01*
G75*
G02*
X97031800Y-112542000I-25400J0D01*
G01*
G37*
G36*
G01*
X97092800Y-109163800D02*
X96752800Y-109163800D01*
G75*
G02*
X96727400Y-109138400I0J25400D01*
G01*
X96727400Y-108828400D01*
G75*
G02*
X96752800Y-108803000I25400J0D01*
G01*
X97092800Y-108803000D01*
G75*
G02*
X97118200Y-108828400I0J-25400D01*
G01*
X97118200Y-109138400D01*
G75*
G02*
X97092800Y-109163800I-25400J0D01*
G01*
G37*
G36*
G01*
X97092800Y-109713800D02*
X96752800Y-109713800D01*
G75*
G02*
X96727400Y-109688400I0J25400D01*
G01*
X96727400Y-109378400D01*
G75*
G02*
X96752800Y-109353000I25400J0D01*
G01*
X97092800Y-109353000D01*
G75*
G02*
X97118200Y-109378400I0J-25400D01*
G01*
X97118200Y-109688400D01*
G75*
G02*
X97092800Y-109713800I-25400J0D01*
G01*
G37*
G36*
G01*
X96508600Y-109729800D02*
X96168600Y-109729800D01*
G75*
G02*
X96143200Y-109704400I0J25400D01*
G01*
X96143200Y-109394400D01*
G75*
G02*
X96168600Y-109369000I25400J0D01*
G01*
X96508600Y-109369000D01*
G75*
G02*
X96534000Y-109394400I0J-25400D01*
G01*
X96534000Y-109704400D01*
G75*
G02*
X96508600Y-109729800I-25400J0D01*
G01*
G37*
G36*
G01*
X96508600Y-109179800D02*
X96168600Y-109179800D01*
G75*
G02*
X96143200Y-109154400I0J25400D01*
G01*
X96143200Y-108844400D01*
G75*
G02*
X96168600Y-108819000I25400J0D01*
G01*
X96508600Y-108819000D01*
G75*
G02*
X96534000Y-108844400I0J-25400D01*
G01*
X96534000Y-109154400D01*
G75*
G02*
X96508600Y-109179800I-25400J0D01*
G01*
G37*
G36*
G01*
X89426600Y-110917200D02*
X89426600Y-111257200D01*
G75*
G02*
X89401200Y-111282600I-25400J0D01*
G01*
X89091200Y-111282600D01*
G75*
G02*
X89065800Y-111257200I0J25400D01*
G01*
X89065800Y-110917200D01*
G75*
G02*
X89091200Y-110891800I25400J0D01*
G01*
X89401200Y-110891800D01*
G75*
G02*
X89426600Y-110917200I0J-25400D01*
G01*
G37*
G36*
G01*
X89976600Y-110917200D02*
X89976600Y-111257200D01*
G75*
G02*
X89951200Y-111282600I-25400J0D01*
G01*
X89641200Y-111282600D01*
G75*
G02*
X89615800Y-111257200I0J25400D01*
G01*
X89615800Y-110917200D01*
G75*
G02*
X89641200Y-110891800I25400J0D01*
G01*
X89951200Y-110891800D01*
G75*
G02*
X89976600Y-110917200I0J-25400D01*
G01*
G37*
G36*
G01*
X89976600Y-110358400D02*
X89976600Y-110698400D01*
G75*
G02*
X89951200Y-110723800I-25400J0D01*
G01*
X89641200Y-110723800D01*
G75*
G02*
X89615800Y-110698400I0J25400D01*
G01*
X89615800Y-110358400D01*
G75*
G02*
X89641200Y-110333000I25400J0D01*
G01*
X89951200Y-110333000D01*
G75*
G02*
X89976600Y-110358400I0J-25400D01*
G01*
G37*
G36*
G01*
X89426600Y-110358400D02*
X89426600Y-110698400D01*
G75*
G02*
X89401200Y-110723800I-25400J0D01*
G01*
X89091200Y-110723800D01*
G75*
G02*
X89065800Y-110698400I0J25400D01*
G01*
X89065800Y-110358400D01*
G75*
G02*
X89091200Y-110333000I25400J0D01*
G01*
X89401200Y-110333000D01*
G75*
G02*
X89426600Y-110358400I0J-25400D01*
G01*
G37*
G36*
G01*
X98845800Y-113807800D02*
X99216200Y-113807800D01*
G75*
G02*
X99376400Y-113968000I0J-160200D01*
G01*
X99376400Y-114288400D01*
G75*
G02*
X99216200Y-114448600I-160200J0D01*
G01*
X98845800Y-114448600D01*
G75*
G02*
X98685600Y-114288400I0J160200D01*
G01*
X98685600Y-113968000D01*
G75*
G02*
X98845800Y-113807800I160200J0D01*
G01*
G37*
G36*
G01*
X98845800Y-112837800D02*
X99216200Y-112837800D01*
G75*
G02*
X99376400Y-112998000I0J-160200D01*
G01*
X99376400Y-113318400D01*
G75*
G02*
X99216200Y-113478600I-160200J0D01*
G01*
X98845800Y-113478600D01*
G75*
G02*
X98685600Y-113318400I0J160200D01*
G01*
X98685600Y-112998000D01*
G75*
G02*
X98845800Y-112837800I160200J0D01*
G01*
G37*
G36*
G01*
X98698000Y-109708200D02*
X98327600Y-109708200D01*
G75*
G02*
X98167400Y-109548000I0J160200D01*
G01*
X98167400Y-109227600D01*
G75*
G02*
X98327600Y-109067400I160200J0D01*
G01*
X98698000Y-109067400D01*
G75*
G02*
X98858200Y-109227600I0J-160200D01*
G01*
X98858200Y-109548000D01*
G75*
G02*
X98698000Y-109708200I-160200J0D01*
G01*
G37*
G36*
G01*
X98698000Y-108738200D02*
X98327600Y-108738200D01*
G75*
G02*
X98167400Y-108578000I0J160200D01*
G01*
X98167400Y-108257600D01*
G75*
G02*
X98327600Y-108097400I160200J0D01*
G01*
X98698000Y-108097400D01*
G75*
G02*
X98858200Y-108257600I0J-160200D01*
G01*
X98858200Y-108578000D01*
G75*
G02*
X98698000Y-108738200I-160200J0D01*
G01*
G37*
D12*
X114478000Y-115413200D03*
X113978000Y-115413200D03*
X113478000Y-115413200D03*
X112978000Y-115413200D03*
X112478000Y-115413200D03*
X114478000Y-114913200D03*
X113978000Y-114913200D03*
X113478000Y-114913200D03*
X112978000Y-114913200D03*
X112478000Y-114913200D03*
X114478000Y-114413200D03*
X113978000Y-114413200D03*
X113478000Y-114413200D03*
X112978000Y-114413200D03*
X112478000Y-114413200D03*
G36*
G01*
X116256800Y-115063000D02*
X115626800Y-115063000D01*
G75*
G02*
X115601400Y-115037600I0J25400D01*
G01*
X115601400Y-114457600D01*
G75*
G02*
X115626800Y-114432200I25400J0D01*
G01*
X116256800Y-114432200D01*
G75*
G02*
X116282200Y-114457600I0J-25400D01*
G01*
X116282200Y-115037600D01*
G75*
G02*
X116256800Y-115063000I-25400J0D01*
G01*
G37*
G36*
G01*
X116256800Y-115953000D02*
X115626800Y-115953000D01*
G75*
G02*
X115601400Y-115927600I0J25400D01*
G01*
X115601400Y-115347600D01*
G75*
G02*
X115626800Y-115322200I25400J0D01*
G01*
X116256800Y-115322200D01*
G75*
G02*
X116282200Y-115347600I0J-25400D01*
G01*
X116282200Y-115927600D01*
G75*
G02*
X116256800Y-115953000I-25400J0D01*
G01*
G37*
G36*
G01*
X115426000Y-115952800D02*
X115086000Y-115952800D01*
G75*
G02*
X115060600Y-115927400I0J25400D01*
G01*
X115060600Y-115617400D01*
G75*
G02*
X115086000Y-115592000I25400J0D01*
G01*
X115426000Y-115592000D01*
G75*
G02*
X115451400Y-115617400I0J-25400D01*
G01*
X115451400Y-115927400D01*
G75*
G02*
X115426000Y-115952800I-25400J0D01*
G01*
G37*
G36*
G01*
X115426000Y-115402800D02*
X115086000Y-115402800D01*
G75*
G02*
X115060600Y-115377400I0J25400D01*
G01*
X115060600Y-115067400D01*
G75*
G02*
X115086000Y-115042000I25400J0D01*
G01*
X115426000Y-115042000D01*
G75*
G02*
X115451400Y-115067400I0J-25400D01*
G01*
X115451400Y-115377400D01*
G75*
G02*
X115426000Y-115402800I-25400J0D01*
G01*
G37*
G36*
G01*
X111449200Y-113509000D02*
X110579200Y-113509000D01*
G75*
G02*
X110553800Y-113483600I0J25400D01*
G01*
X110553800Y-112673600D01*
G75*
G02*
X110579200Y-112648200I25400J0D01*
G01*
X111449200Y-112648200D01*
G75*
G02*
X111474600Y-112673600I0J-25400D01*
G01*
X111474600Y-113483600D01*
G75*
G02*
X111449200Y-113509000I-25400J0D01*
G01*
G37*
G36*
G01*
X111449200Y-112149000D02*
X110579200Y-112149000D01*
G75*
G02*
X110553800Y-112123600I0J25400D01*
G01*
X110553800Y-111313600D01*
G75*
G02*
X110579200Y-111288200I25400J0D01*
G01*
X111449200Y-111288200D01*
G75*
G02*
X111474600Y-111313600I0J-25400D01*
G01*
X111474600Y-112123600D01*
G75*
G02*
X111449200Y-112149000I-25400J0D01*
G01*
G37*
G36*
G01*
X96513200Y-109952000D02*
X96513200Y-110292000D01*
G75*
G02*
X96487800Y-110317400I-25400J0D01*
G01*
X96177800Y-110317400D01*
G75*
G02*
X96152400Y-110292000I0J25400D01*
G01*
X96152400Y-109952000D01*
G75*
G02*
X96177800Y-109926600I25400J0D01*
G01*
X96487800Y-109926600D01*
G75*
G02*
X96513200Y-109952000I0J-25400D01*
G01*
G37*
G36*
G01*
X97063200Y-109952000D02*
X97063200Y-110292000D01*
G75*
G02*
X97037800Y-110317400I-25400J0D01*
G01*
X96727800Y-110317400D01*
G75*
G02*
X96702400Y-110292000I0J25400D01*
G01*
X96702400Y-109952000D01*
G75*
G02*
X96727800Y-109926600I25400J0D01*
G01*
X97037800Y-109926600D01*
G75*
G02*
X97063200Y-109952000I0J-25400D01*
G01*
G37*
G36*
G01*
X96513200Y-110536200D02*
X96513200Y-110876200D01*
G75*
G02*
X96487800Y-110901600I-25400J0D01*
G01*
X96177800Y-110901600D01*
G75*
G02*
X96152400Y-110876200I0J25400D01*
G01*
X96152400Y-110536200D01*
G75*
G02*
X96177800Y-110510800I25400J0D01*
G01*
X96487800Y-110510800D01*
G75*
G02*
X96513200Y-110536200I0J-25400D01*
G01*
G37*
G36*
G01*
X97063200Y-110536200D02*
X97063200Y-110876200D01*
G75*
G02*
X97037800Y-110901600I-25400J0D01*
G01*
X96727800Y-110901600D01*
G75*
G02*
X96702400Y-110876200I0J25400D01*
G01*
X96702400Y-110536200D01*
G75*
G02*
X96727800Y-110510800I25400J0D01*
G01*
X97037800Y-110510800D01*
G75*
G02*
X97063200Y-110536200I0J-25400D01*
G01*
G37*
G36*
G01*
X97260800Y-113814000D02*
X97600800Y-113814000D01*
G75*
G02*
X97626200Y-113839400I0J-25400D01*
G01*
X97626200Y-114149400D01*
G75*
G02*
X97600800Y-114174800I-25400J0D01*
G01*
X97260800Y-114174800D01*
G75*
G02*
X97235400Y-114149400I0J25400D01*
G01*
X97235400Y-113839400D01*
G75*
G02*
X97260800Y-113814000I25400J0D01*
G01*
G37*
G36*
G01*
X97260800Y-113264000D02*
X97600800Y-113264000D01*
G75*
G02*
X97626200Y-113289400I0J-25400D01*
G01*
X97626200Y-113599400D01*
G75*
G02*
X97600800Y-113624800I-25400J0D01*
G01*
X97260800Y-113624800D01*
G75*
G02*
X97235400Y-113599400I0J25400D01*
G01*
X97235400Y-113289400D01*
G75*
G02*
X97260800Y-113264000I25400J0D01*
G01*
G37*
G36*
G01*
X121156600Y-107625200D02*
X121496600Y-107625200D01*
G75*
G02*
X121522000Y-107650600I0J-25400D01*
G01*
X121522000Y-107960600D01*
G75*
G02*
X121496600Y-107986000I-25400J0D01*
G01*
X121156600Y-107986000D01*
G75*
G02*
X121131200Y-107960600I0J25400D01*
G01*
X121131200Y-107650600D01*
G75*
G02*
X121156600Y-107625200I25400J0D01*
G01*
G37*
G36*
G01*
X121156600Y-108175200D02*
X121496600Y-108175200D01*
G75*
G02*
X121522000Y-108200600I0J-25400D01*
G01*
X121522000Y-108510600D01*
G75*
G02*
X121496600Y-108536000I-25400J0D01*
G01*
X121156600Y-108536000D01*
G75*
G02*
X121131200Y-108510600I0J25400D01*
G01*
X121131200Y-108200600D01*
G75*
G02*
X121156600Y-108175200I25400J0D01*
G01*
G37*
G36*
G01*
X89104600Y-112384200D02*
X89734600Y-112384200D01*
G75*
G02*
X89760000Y-112409600I0J-25400D01*
G01*
X89760000Y-112989600D01*
G75*
G02*
X89734600Y-113015000I-25400J0D01*
G01*
X89104600Y-113015000D01*
G75*
G02*
X89079200Y-112989600I0J25400D01*
G01*
X89079200Y-112409600D01*
G75*
G02*
X89104600Y-112384200I25400J0D01*
G01*
G37*
G36*
G01*
X89104600Y-113274200D02*
X89734600Y-113274200D01*
G75*
G02*
X89760000Y-113299600I0J-25400D01*
G01*
X89760000Y-113879600D01*
G75*
G02*
X89734600Y-113905000I-25400J0D01*
G01*
X89104600Y-113905000D01*
G75*
G02*
X89079200Y-113879600I0J25400D01*
G01*
X89079200Y-113299600D01*
G75*
G02*
X89104600Y-113274200I25400J0D01*
G01*
G37*
G36*
G01*
X97359600Y-106491400D02*
X97989600Y-106491400D01*
G75*
G02*
X98015000Y-106516800I0J-25400D01*
G01*
X98015000Y-107096800D01*
G75*
G02*
X97989600Y-107122200I-25400J0D01*
G01*
X97359600Y-107122200D01*
G75*
G02*
X97334200Y-107096800I0J25400D01*
G01*
X97334200Y-106516800D01*
G75*
G02*
X97359600Y-106491400I25400J0D01*
G01*
G37*
G36*
G01*
X97359600Y-107381400D02*
X97989600Y-107381400D01*
G75*
G02*
X98015000Y-107406800I0J-25400D01*
G01*
X98015000Y-107986800D01*
G75*
G02*
X97989600Y-108012200I-25400J0D01*
G01*
X97359600Y-108012200D01*
G75*
G02*
X97334200Y-107986800I0J25400D01*
G01*
X97334200Y-107406800D01*
G75*
G02*
X97359600Y-107381400I25400J0D01*
G01*
G37*
G36*
G01*
X116490400Y-114432200D02*
X117120400Y-114432200D01*
G75*
G02*
X117145800Y-114457600I0J-25400D01*
G01*
X117145800Y-115037600D01*
G75*
G02*
X117120400Y-115063000I-25400J0D01*
G01*
X116490400Y-115063000D01*
G75*
G02*
X116465000Y-115037600I0J25400D01*
G01*
X116465000Y-114457600D01*
G75*
G02*
X116490400Y-114432200I25400J0D01*
G01*
G37*
G36*
G01*
X116490400Y-115322200D02*
X117120400Y-115322200D01*
G75*
G02*
X117145800Y-115347600I0J-25400D01*
G01*
X117145800Y-115927600D01*
G75*
G02*
X117120400Y-115953000I-25400J0D01*
G01*
X116490400Y-115953000D01*
G75*
G02*
X116465000Y-115927600I0J25400D01*
G01*
X116465000Y-115347600D01*
G75*
G02*
X116490400Y-115322200I25400J0D01*
G01*
G37*
G36*
G01*
X121156600Y-113518000D02*
X121496600Y-113518000D01*
G75*
G02*
X121522000Y-113543400I0J-25400D01*
G01*
X121522000Y-113853400D01*
G75*
G02*
X121496600Y-113878800I-25400J0D01*
G01*
X121156600Y-113878800D01*
G75*
G02*
X121131200Y-113853400I0J25400D01*
G01*
X121131200Y-113543400D01*
G75*
G02*
X121156600Y-113518000I25400J0D01*
G01*
G37*
G36*
G01*
X121156600Y-114068000D02*
X121496600Y-114068000D01*
G75*
G02*
X121522000Y-114093400I0J-25400D01*
G01*
X121522000Y-114403400D01*
G75*
G02*
X121496600Y-114428800I-25400J0D01*
G01*
X121156600Y-114428800D01*
G75*
G02*
X121131200Y-114403400I0J25400D01*
G01*
X121131200Y-114093400D01*
G75*
G02*
X121156600Y-114068000I25400J0D01*
G01*
G37*
G36*
G01*
X117890600Y-107996600D02*
X117890600Y-107656600D01*
G75*
G02*
X117916000Y-107631200I25400J0D01*
G01*
X118226000Y-107631200D01*
G75*
G02*
X118251400Y-107656600I0J-25400D01*
G01*
X118251400Y-107996600D01*
G75*
G02*
X118226000Y-108022000I-25400J0D01*
G01*
X117916000Y-108022000D01*
G75*
G02*
X117890600Y-107996600I0J25400D01*
G01*
G37*
G36*
G01*
X117340600Y-107996600D02*
X117340600Y-107656600D01*
G75*
G02*
X117366000Y-107631200I25400J0D01*
G01*
X117676000Y-107631200D01*
G75*
G02*
X117701400Y-107656600I0J-25400D01*
G01*
X117701400Y-107996600D01*
G75*
G02*
X117676000Y-108022000I-25400J0D01*
G01*
X117366000Y-108022000D01*
G75*
G02*
X117340600Y-107996600I0J25400D01*
G01*
G37*
G36*
G01*
X117018800Y-109044200D02*
X116388800Y-109044200D01*
G75*
G02*
X116363400Y-109018800I0J25400D01*
G01*
X116363400Y-108438800D01*
G75*
G02*
X116388800Y-108413400I25400J0D01*
G01*
X117018800Y-108413400D01*
G75*
G02*
X117044200Y-108438800I0J-25400D01*
G01*
X117044200Y-109018800D01*
G75*
G02*
X117018800Y-109044200I-25400J0D01*
G01*
G37*
G36*
G01*
X117018800Y-108154200D02*
X116388800Y-108154200D01*
G75*
G02*
X116363400Y-108128800I0J25400D01*
G01*
X116363400Y-107548800D01*
G75*
G02*
X116388800Y-107523400I25400J0D01*
G01*
X117018800Y-107523400D01*
G75*
G02*
X117044200Y-107548800I0J-25400D01*
G01*
X117044200Y-108128800D01*
G75*
G02*
X117018800Y-108154200I-25400J0D01*
G01*
G37*
G36*
G01*
X121522000Y-112456400D02*
X121182000Y-112456400D01*
G75*
G02*
X121156600Y-112431000I0J25400D01*
G01*
X121156600Y-112121000D01*
G75*
G02*
X121182000Y-112095600I25400J0D01*
G01*
X121522000Y-112095600D01*
G75*
G02*
X121547400Y-112121000I0J-25400D01*
G01*
X121547400Y-112431000D01*
G75*
G02*
X121522000Y-112456400I-25400J0D01*
G01*
G37*
G36*
G01*
X121522000Y-113006400D02*
X121182000Y-113006400D01*
G75*
G02*
X121156600Y-112981000I0J25400D01*
G01*
X121156600Y-112671000D01*
G75*
G02*
X121182000Y-112645600I25400J0D01*
G01*
X121522000Y-112645600D01*
G75*
G02*
X121547400Y-112671000I0J-25400D01*
G01*
X121547400Y-112981000D01*
G75*
G02*
X121522000Y-113006400I-25400J0D01*
G01*
G37*
G36*
G01*
X109807160Y-108620880D02*
X107607160Y-108620880D01*
G75*
G02*
X107581760Y-108595480I0J25400D01*
G01*
X107581760Y-107545480D01*
G75*
G02*
X107607160Y-107520080I25400J0D01*
G01*
X109807160Y-107520080D01*
G75*
G02*
X109832560Y-107545480I0J-25400D01*
G01*
X109832560Y-108595480D01*
G75*
G02*
X109807160Y-108620880I-25400J0D01*
G01*
G37*
G36*
G01*
X109807160Y-111570880D02*
X107607160Y-111570880D01*
G75*
G02*
X107581760Y-111545480I0J25400D01*
G01*
X107581760Y-110495480D01*
G75*
G02*
X107607160Y-110470080I25400J0D01*
G01*
X109807160Y-110470080D01*
G75*
G02*
X109832560Y-110495480I0J-25400D01*
G01*
X109832560Y-111545480D01*
G75*
G02*
X109807160Y-111570880I-25400J0D01*
G01*
G37*
G36*
G01*
X110732160Y-110070880D02*
X109682160Y-110070880D01*
G75*
G02*
X109656760Y-110045480I0J25400D01*
G01*
X109656760Y-109045480D01*
G75*
G02*
X109682160Y-109020080I25400J0D01*
G01*
X110732160Y-109020080D01*
G75*
G02*
X110757560Y-109045480I0J-25400D01*
G01*
X110757560Y-110045480D01*
G75*
G02*
X110732160Y-110070880I-25400J0D01*
G01*
G37*
G36*
G01*
X104899380Y-110747220D02*
X104899380Y-108247220D01*
G75*
G02*
X104924780Y-108221820I25400J0D01*
G01*
X107424780Y-108221820D01*
G75*
G02*
X107450180Y-108247220I0J-25400D01*
G01*
X107450180Y-110747220D01*
G75*
G02*
X107424780Y-110772620I-25400J0D01*
G01*
X104924780Y-110772620D01*
G75*
G02*
X104899380Y-110747220I0J25400D01*
G01*
G37*
G36*
G01*
X110579600Y-113727000D02*
X111499600Y-113727000D01*
G75*
G02*
X111525000Y-113752400I0J-25400D01*
G01*
X111525000Y-114642400D01*
G75*
G02*
X111499600Y-114667800I-25400J0D01*
G01*
X110579600Y-114667800D01*
G75*
G02*
X110554200Y-114642400I0J25400D01*
G01*
X110554200Y-113752400D01*
G75*
G02*
X110579600Y-113727000I25400J0D01*
G01*
G37*
G36*
G01*
X110579600Y-115057000D02*
X111499600Y-115057000D01*
G75*
G02*
X111525000Y-115082400I0J-25400D01*
G01*
X111525000Y-115972400D01*
G75*
G02*
X111499600Y-115997800I-25400J0D01*
G01*
X110579600Y-115997800D01*
G75*
G02*
X110554200Y-115972400I0J25400D01*
G01*
X110554200Y-115082400D01*
G75*
G02*
X110579600Y-115057000I25400J0D01*
G01*
G37*
G36*
G01*
X114714800Y-107859000D02*
X114374800Y-107859000D01*
G75*
G02*
X114349400Y-107833600I0J25400D01*
G01*
X114349400Y-107523600D01*
G75*
G02*
X114374800Y-107498200I25400J0D01*
G01*
X114714800Y-107498200D01*
G75*
G02*
X114740200Y-107523600I0J-25400D01*
G01*
X114740200Y-107833600D01*
G75*
G02*
X114714800Y-107859000I-25400J0D01*
G01*
G37*
G36*
G01*
X114714800Y-108409000D02*
X114374800Y-108409000D01*
G75*
G02*
X114349400Y-108383600I0J25400D01*
G01*
X114349400Y-108073600D01*
G75*
G02*
X114374800Y-108048200I25400J0D01*
G01*
X114714800Y-108048200D01*
G75*
G02*
X114740200Y-108073600I0J-25400D01*
G01*
X114740200Y-108383600D01*
G75*
G02*
X114714800Y-108409000I-25400J0D01*
G01*
G37*
G36*
G01*
X115299000Y-107859000D02*
X114959000Y-107859000D01*
G75*
G02*
X114933600Y-107833600I0J25400D01*
G01*
X114933600Y-107523600D01*
G75*
G02*
X114959000Y-107498200I25400J0D01*
G01*
X115299000Y-107498200D01*
G75*
G02*
X115324400Y-107523600I0J-25400D01*
G01*
X115324400Y-107833600D01*
G75*
G02*
X115299000Y-107859000I-25400J0D01*
G01*
G37*
G36*
G01*
X115299000Y-108409000D02*
X114959000Y-108409000D01*
G75*
G02*
X114933600Y-108383600I0J25400D01*
G01*
X114933600Y-108073600D01*
G75*
G02*
X114959000Y-108048200I25400J0D01*
G01*
X115299000Y-108048200D01*
G75*
G02*
X115324400Y-108073600I0J-25400D01*
G01*
X115324400Y-108383600D01*
G75*
G02*
X115299000Y-108409000I-25400J0D01*
G01*
G37*
G36*
G01*
X97605400Y-110536200D02*
X97605400Y-110876200D01*
G75*
G02*
X97580000Y-110901600I-25400J0D01*
G01*
X97270000Y-110901600D01*
G75*
G02*
X97244600Y-110876200I0J25400D01*
G01*
X97244600Y-110536200D01*
G75*
G02*
X97270000Y-110510800I25400J0D01*
G01*
X97580000Y-110510800D01*
G75*
G02*
X97605400Y-110536200I0J-25400D01*
G01*
G37*
G36*
G01*
X98155400Y-110536200D02*
X98155400Y-110876200D01*
G75*
G02*
X98130000Y-110901600I-25400J0D01*
G01*
X97820000Y-110901600D01*
G75*
G02*
X97794600Y-110876200I0J25400D01*
G01*
X97794600Y-110536200D01*
G75*
G02*
X97820000Y-110510800I25400J0D01*
G01*
X98130000Y-110510800D01*
G75*
G02*
X98155400Y-110536200I0J-25400D01*
G01*
G37*
G36*
G01*
X96178400Y-113946200D02*
X95838400Y-113946200D01*
G75*
G02*
X95813000Y-113920800I0J25400D01*
G01*
X95813000Y-113610800D01*
G75*
G02*
X95838400Y-113585400I25400J0D01*
G01*
X96178400Y-113585400D01*
G75*
G02*
X96203800Y-113610800I0J-25400D01*
G01*
X96203800Y-113920800D01*
G75*
G02*
X96178400Y-113946200I-25400J0D01*
G01*
G37*
G36*
G01*
X96178400Y-113396200D02*
X95838400Y-113396200D01*
G75*
G02*
X95813000Y-113370800I0J25400D01*
G01*
X95813000Y-113060800D01*
G75*
G02*
X95838400Y-113035400I25400J0D01*
G01*
X96178400Y-113035400D01*
G75*
G02*
X96203800Y-113060800I0J-25400D01*
G01*
X96203800Y-113370800D01*
G75*
G02*
X96178400Y-113396200I-25400J0D01*
G01*
G37*
G36*
G01*
X95279600Y-113585400D02*
X95619600Y-113585400D01*
G75*
G02*
X95645000Y-113610800I0J-25400D01*
G01*
X95645000Y-113920800D01*
G75*
G02*
X95619600Y-113946200I-25400J0D01*
G01*
X95279600Y-113946200D01*
G75*
G02*
X95254200Y-113920800I0J25400D01*
G01*
X95254200Y-113610800D01*
G75*
G02*
X95279600Y-113585400I25400J0D01*
G01*
G37*
G36*
G01*
X95279600Y-113035400D02*
X95619600Y-113035400D01*
G75*
G02*
X95645000Y-113060800I0J-25400D01*
G01*
X95645000Y-113370800D01*
G75*
G02*
X95619600Y-113396200I-25400J0D01*
G01*
X95279600Y-113396200D01*
G75*
G02*
X95254200Y-113370800I0J25400D01*
G01*
X95254200Y-113060800D01*
G75*
G02*
X95279600Y-113035400I25400J0D01*
G01*
G37*
G36*
G01*
X97016600Y-114174800D02*
X96676600Y-114174800D01*
G75*
G02*
X96651200Y-114149400I0J25400D01*
G01*
X96651200Y-113839400D01*
G75*
G02*
X96676600Y-113814000I25400J0D01*
G01*
X97016600Y-113814000D01*
G75*
G02*
X97042000Y-113839400I0J-25400D01*
G01*
X97042000Y-114149400D01*
G75*
G02*
X97016600Y-114174800I-25400J0D01*
G01*
G37*
G36*
G01*
X97016600Y-113624800D02*
X96676600Y-113624800D01*
G75*
G02*
X96651200Y-113599400I0J25400D01*
G01*
X96651200Y-113289400D01*
G75*
G02*
X96676600Y-113264000I25400J0D01*
G01*
X97016600Y-113264000D01*
G75*
G02*
X97042000Y-113289400I0J-25400D01*
G01*
X97042000Y-113599400D01*
G75*
G02*
X97016600Y-113624800I-25400J0D01*
G01*
G37*
G36*
G01*
X117391400Y-110003200D02*
X117391400Y-109663200D01*
G75*
G02*
X117416800Y-109637800I25400J0D01*
G01*
X117726800Y-109637800D01*
G75*
G02*
X117752200Y-109663200I0J-25400D01*
G01*
X117752200Y-110003200D01*
G75*
G02*
X117726800Y-110028600I-25400J0D01*
G01*
X117416800Y-110028600D01*
G75*
G02*
X117391400Y-110003200I0J25400D01*
G01*
G37*
G36*
G01*
X117941400Y-110003200D02*
X117941400Y-109663200D01*
G75*
G02*
X117966800Y-109637800I25400J0D01*
G01*
X118276800Y-109637800D01*
G75*
G02*
X118302200Y-109663200I0J-25400D01*
G01*
X118302200Y-110003200D01*
G75*
G02*
X118276800Y-110028600I-25400J0D01*
G01*
X117966800Y-110028600D01*
G75*
G02*
X117941400Y-110003200I0J25400D01*
G01*
G37*
G36*
G01*
X120064400Y-112645600D02*
X120404400Y-112645600D01*
G75*
G02*
X120429800Y-112671000I0J-25400D01*
G01*
X120429800Y-112981000D01*
G75*
G02*
X120404400Y-113006400I-25400J0D01*
G01*
X120064400Y-113006400D01*
G75*
G02*
X120039000Y-112981000I0J25400D01*
G01*
X120039000Y-112671000D01*
G75*
G02*
X120064400Y-112645600I25400J0D01*
G01*
G37*
G36*
G01*
X120064400Y-112095600D02*
X120404400Y-112095600D01*
G75*
G02*
X120429800Y-112121000I0J-25400D01*
G01*
X120429800Y-112431000D01*
G75*
G02*
X120404400Y-112456400I-25400J0D01*
G01*
X120064400Y-112456400D01*
G75*
G02*
X120039000Y-112431000I0J25400D01*
G01*
X120039000Y-112121000D01*
G75*
G02*
X120064400Y-112095600I25400J0D01*
G01*
G37*
G36*
G01*
X120963200Y-113006400D02*
X120623200Y-113006400D01*
G75*
G02*
X120597800Y-112981000I0J25400D01*
G01*
X120597800Y-112671000D01*
G75*
G02*
X120623200Y-112645600I25400J0D01*
G01*
X120963200Y-112645600D01*
G75*
G02*
X120988600Y-112671000I0J-25400D01*
G01*
X120988600Y-112981000D01*
G75*
G02*
X120963200Y-113006400I-25400J0D01*
G01*
G37*
G36*
G01*
X120963200Y-112456400D02*
X120623200Y-112456400D01*
G75*
G02*
X120597800Y-112431000I0J25400D01*
G01*
X120597800Y-112121000D01*
G75*
G02*
X120623200Y-112095600I25400J0D01*
G01*
X120963200Y-112095600D01*
G75*
G02*
X120988600Y-112121000I0J-25400D01*
G01*
X120988600Y-112431000D01*
G75*
G02*
X120963200Y-112456400I-25400J0D01*
G01*
G37*
G36*
G01*
X120404400Y-111406200D02*
X120064400Y-111406200D01*
G75*
G02*
X120039000Y-111380800I0J25400D01*
G01*
X120039000Y-111070800D01*
G75*
G02*
X120064400Y-111045400I25400J0D01*
G01*
X120404400Y-111045400D01*
G75*
G02*
X120429800Y-111070800I0J-25400D01*
G01*
X120429800Y-111380800D01*
G75*
G02*
X120404400Y-111406200I-25400J0D01*
G01*
G37*
G36*
G01*
X120404400Y-110856200D02*
X120064400Y-110856200D01*
G75*
G02*
X120039000Y-110830800I0J25400D01*
G01*
X120039000Y-110520800D01*
G75*
G02*
X120064400Y-110495400I25400J0D01*
G01*
X120404400Y-110495400D01*
G75*
G02*
X120429800Y-110520800I0J-25400D01*
G01*
X120429800Y-110830800D01*
G75*
G02*
X120404400Y-110856200I-25400J0D01*
G01*
G37*
G36*
G01*
X120623200Y-111045400D02*
X120963200Y-111045400D01*
G75*
G02*
X120988600Y-111070800I0J-25400D01*
G01*
X120988600Y-111380800D01*
G75*
G02*
X120963200Y-111406200I-25400J0D01*
G01*
X120623200Y-111406200D01*
G75*
G02*
X120597800Y-111380800I0J25400D01*
G01*
X120597800Y-111070800D01*
G75*
G02*
X120623200Y-111045400I25400J0D01*
G01*
G37*
G36*
G01*
X120623200Y-110495400D02*
X120963200Y-110495400D01*
G75*
G02*
X120988600Y-110520800I0J-25400D01*
G01*
X120988600Y-110830800D01*
G75*
G02*
X120963200Y-110856200I-25400J0D01*
G01*
X120623200Y-110856200D01*
G75*
G02*
X120597800Y-110830800I0J25400D01*
G01*
X120597800Y-110520800D01*
G75*
G02*
X120623200Y-110495400I25400J0D01*
G01*
G37*
G36*
G01*
X119312220Y-115876220D02*
X119312220Y-113486220D01*
G75*
G02*
X119337620Y-113460820I25400J0D01*
G01*
X119977620Y-113460820D01*
G75*
G02*
X120003020Y-113486220I0J-25400D01*
G01*
X120003020Y-115876220D01*
G75*
G02*
X119977620Y-115901620I-25400J0D01*
G01*
X119337620Y-115901620D01*
G75*
G02*
X119312220Y-115876220I0J25400D01*
G01*
G37*
G36*
G01*
X120152220Y-113816220D02*
X120152220Y-113546220D01*
G75*
G02*
X120177620Y-113520820I25400J0D01*
G01*
X120817620Y-113520820D01*
G75*
G02*
X120843020Y-113546220I0J-25400D01*
G01*
X120843020Y-113816220D01*
G75*
G02*
X120817620Y-113841620I-25400J0D01*
G01*
X120177620Y-113841620D01*
G75*
G02*
X120152220Y-113816220I0J25400D01*
G01*
G37*
G36*
G01*
X120152220Y-114316220D02*
X120152220Y-114046220D01*
G75*
G02*
X120177620Y-114020820I25400J0D01*
G01*
X120817620Y-114020820D01*
G75*
G02*
X120843020Y-114046220I0J-25400D01*
G01*
X120843020Y-114316220D01*
G75*
G02*
X120817620Y-114341620I-25400J0D01*
G01*
X120177620Y-114341620D01*
G75*
G02*
X120152220Y-114316220I0J25400D01*
G01*
G37*
G36*
G01*
X120152220Y-114816220D02*
X120152220Y-114546220D01*
G75*
G02*
X120177620Y-114520820I25400J0D01*
G01*
X120817620Y-114520820D01*
G75*
G02*
X120843020Y-114546220I0J-25400D01*
G01*
X120843020Y-114816220D01*
G75*
G02*
X120817620Y-114841620I-25400J0D01*
G01*
X120177620Y-114841620D01*
G75*
G02*
X120152220Y-114816220I0J25400D01*
G01*
G37*
G36*
G01*
X120152220Y-115316220D02*
X120152220Y-115046220D01*
G75*
G02*
X120177620Y-115020820I25400J0D01*
G01*
X120817620Y-115020820D01*
G75*
G02*
X120843020Y-115046220I0J-25400D01*
G01*
X120843020Y-115316220D01*
G75*
G02*
X120817620Y-115341620I-25400J0D01*
G01*
X120177620Y-115341620D01*
G75*
G02*
X120152220Y-115316220I0J25400D01*
G01*
G37*
G36*
G01*
X120152220Y-115816220D02*
X120152220Y-115546220D01*
G75*
G02*
X120177620Y-115520820I25400J0D01*
G01*
X120817620Y-115520820D01*
G75*
G02*
X120843020Y-115546220I0J-25400D01*
G01*
X120843020Y-115816220D01*
G75*
G02*
X120817620Y-115841620I-25400J0D01*
G01*
X120177620Y-115841620D01*
G75*
G02*
X120152220Y-115816220I0J25400D01*
G01*
G37*
G36*
G01*
X118472220Y-115816220D02*
X118472220Y-115546220D01*
G75*
G02*
X118497620Y-115520820I25400J0D01*
G01*
X119137620Y-115520820D01*
G75*
G02*
X119163020Y-115546220I0J-25400D01*
G01*
X119163020Y-115816220D01*
G75*
G02*
X119137620Y-115841620I-25400J0D01*
G01*
X118497620Y-115841620D01*
G75*
G02*
X118472220Y-115816220I0J25400D01*
G01*
G37*
G36*
G01*
X118472220Y-115316220D02*
X118472220Y-115046220D01*
G75*
G02*
X118497620Y-115020820I25400J0D01*
G01*
X119137620Y-115020820D01*
G75*
G02*
X119163020Y-115046220I0J-25400D01*
G01*
X119163020Y-115316220D01*
G75*
G02*
X119137620Y-115341620I-25400J0D01*
G01*
X118497620Y-115341620D01*
G75*
G02*
X118472220Y-115316220I0J25400D01*
G01*
G37*
G36*
G01*
X118472220Y-114816220D02*
X118472220Y-114546220D01*
G75*
G02*
X118497620Y-114520820I25400J0D01*
G01*
X119137620Y-114520820D01*
G75*
G02*
X119163020Y-114546220I0J-25400D01*
G01*
X119163020Y-114816220D01*
G75*
G02*
X119137620Y-114841620I-25400J0D01*
G01*
X118497620Y-114841620D01*
G75*
G02*
X118472220Y-114816220I0J25400D01*
G01*
G37*
G36*
G01*
X118472220Y-114316220D02*
X118472220Y-114046220D01*
G75*
G02*
X118497620Y-114020820I25400J0D01*
G01*
X119137620Y-114020820D01*
G75*
G02*
X119163020Y-114046220I0J-25400D01*
G01*
X119163020Y-114316220D01*
G75*
G02*
X119137620Y-114341620I-25400J0D01*
G01*
X118497620Y-114341620D01*
G75*
G02*
X118472220Y-114316220I0J25400D01*
G01*
G37*
G36*
G01*
X118472220Y-113816220D02*
X118472220Y-113546220D01*
G75*
G02*
X118497620Y-113520820I25400J0D01*
G01*
X119137620Y-113520820D01*
G75*
G02*
X119163020Y-113546220I0J-25400D01*
G01*
X119163020Y-113816220D01*
G75*
G02*
X119137620Y-113841620I-25400J0D01*
G01*
X118497620Y-113841620D01*
G75*
G02*
X118472220Y-113816220I0J25400D01*
G01*
G37*
G36*
G01*
X118490200Y-107952200D02*
X118490200Y-107682200D01*
G75*
G02*
X118515600Y-107656800I25400J0D01*
G01*
X119155600Y-107656800D01*
G75*
G02*
X119181000Y-107682200I0J-25400D01*
G01*
X119181000Y-107952200D01*
G75*
G02*
X119155600Y-107977600I-25400J0D01*
G01*
X118515600Y-107977600D01*
G75*
G02*
X118490200Y-107952200I0J25400D01*
G01*
G37*
G36*
G01*
X118490200Y-108452200D02*
X118490200Y-108182200D01*
G75*
G02*
X118515600Y-108156800I25400J0D01*
G01*
X119155600Y-108156800D01*
G75*
G02*
X119181000Y-108182200I0J-25400D01*
G01*
X119181000Y-108452200D01*
G75*
G02*
X119155600Y-108477600I-25400J0D01*
G01*
X118515600Y-108477600D01*
G75*
G02*
X118490200Y-108452200I0J25400D01*
G01*
G37*
G36*
G01*
X118490200Y-108952200D02*
X118490200Y-108682200D01*
G75*
G02*
X118515600Y-108656800I25400J0D01*
G01*
X119155600Y-108656800D01*
G75*
G02*
X119181000Y-108682200I0J-25400D01*
G01*
X119181000Y-108952200D01*
G75*
G02*
X119155600Y-108977600I-25400J0D01*
G01*
X118515600Y-108977600D01*
G75*
G02*
X118490200Y-108952200I0J25400D01*
G01*
G37*
G36*
G01*
X118490200Y-109452200D02*
X118490200Y-109182200D01*
G75*
G02*
X118515600Y-109156800I25400J0D01*
G01*
X119155600Y-109156800D01*
G75*
G02*
X119181000Y-109182200I0J-25400D01*
G01*
X119181000Y-109452200D01*
G75*
G02*
X119155600Y-109477600I-25400J0D01*
G01*
X118515600Y-109477600D01*
G75*
G02*
X118490200Y-109452200I0J25400D01*
G01*
G37*
G36*
G01*
X118490200Y-109952200D02*
X118490200Y-109682200D01*
G75*
G02*
X118515600Y-109656800I25400J0D01*
G01*
X119155600Y-109656800D01*
G75*
G02*
X119181000Y-109682200I0J-25400D01*
G01*
X119181000Y-109952200D01*
G75*
G02*
X119155600Y-109977600I-25400J0D01*
G01*
X118515600Y-109977600D01*
G75*
G02*
X118490200Y-109952200I0J25400D01*
G01*
G37*
G36*
G01*
X120170200Y-109952200D02*
X120170200Y-109682200D01*
G75*
G02*
X120195600Y-109656800I25400J0D01*
G01*
X120835600Y-109656800D01*
G75*
G02*
X120861000Y-109682200I0J-25400D01*
G01*
X120861000Y-109952200D01*
G75*
G02*
X120835600Y-109977600I-25400J0D01*
G01*
X120195600Y-109977600D01*
G75*
G02*
X120170200Y-109952200I0J25400D01*
G01*
G37*
G36*
G01*
X120170200Y-109452200D02*
X120170200Y-109182200D01*
G75*
G02*
X120195600Y-109156800I25400J0D01*
G01*
X120835600Y-109156800D01*
G75*
G02*
X120861000Y-109182200I0J-25400D01*
G01*
X120861000Y-109452200D01*
G75*
G02*
X120835600Y-109477600I-25400J0D01*
G01*
X120195600Y-109477600D01*
G75*
G02*
X120170200Y-109452200I0J25400D01*
G01*
G37*
G36*
G01*
X120170200Y-108952200D02*
X120170200Y-108682200D01*
G75*
G02*
X120195600Y-108656800I25400J0D01*
G01*
X120835600Y-108656800D01*
G75*
G02*
X120861000Y-108682200I0J-25400D01*
G01*
X120861000Y-108952200D01*
G75*
G02*
X120835600Y-108977600I-25400J0D01*
G01*
X120195600Y-108977600D01*
G75*
G02*
X120170200Y-108952200I0J25400D01*
G01*
G37*
G36*
G01*
X120170200Y-108452200D02*
X120170200Y-108182200D01*
G75*
G02*
X120195600Y-108156800I25400J0D01*
G01*
X120835600Y-108156800D01*
G75*
G02*
X120861000Y-108182200I0J-25400D01*
G01*
X120861000Y-108452200D01*
G75*
G02*
X120835600Y-108477600I-25400J0D01*
G01*
X120195600Y-108477600D01*
G75*
G02*
X120170200Y-108452200I0J25400D01*
G01*
G37*
G36*
G01*
X120170200Y-107952200D02*
X120170200Y-107682200D01*
G75*
G02*
X120195600Y-107656800I25400J0D01*
G01*
X120835600Y-107656800D01*
G75*
G02*
X120861000Y-107682200I0J-25400D01*
G01*
X120861000Y-107952200D01*
G75*
G02*
X120835600Y-107977600I-25400J0D01*
G01*
X120195600Y-107977600D01*
G75*
G02*
X120170200Y-107952200I0J25400D01*
G01*
G37*
G36*
G01*
X119330200Y-110012200D02*
X119330200Y-107622200D01*
G75*
G02*
X119355600Y-107596800I25400J0D01*
G01*
X119995600Y-107596800D01*
G75*
G02*
X120021000Y-107622200I0J-25400D01*
G01*
X120021000Y-110012200D01*
G75*
G02*
X119995600Y-110037600I-25400J0D01*
G01*
X119355600Y-110037600D01*
G75*
G02*
X119330200Y-110012200I0J25400D01*
G01*
G37*
G36*
G01*
X119403200Y-112428200D02*
X119403200Y-112648200D01*
G75*
G02*
X119377800Y-112673600I-25400J0D01*
G01*
X118767800Y-112673600D01*
G75*
G02*
X118742400Y-112648200I0J25400D01*
G01*
X118742400Y-112428200D01*
G75*
G02*
X118767800Y-112402800I25400J0D01*
G01*
X119377800Y-112402800D01*
G75*
G02*
X119403200Y-112428200I0J-25400D01*
G01*
G37*
G36*
G01*
X119403200Y-112028200D02*
X119403200Y-112248200D01*
G75*
G02*
X119377800Y-112273600I-25400J0D01*
G01*
X118767800Y-112273600D01*
G75*
G02*
X118742400Y-112248200I0J25400D01*
G01*
X118742400Y-112028200D01*
G75*
G02*
X118767800Y-112002800I25400J0D01*
G01*
X119377800Y-112002800D01*
G75*
G02*
X119403200Y-112028200I0J-25400D01*
G01*
G37*
G36*
G01*
X119403200Y-111628200D02*
X119403200Y-111848200D01*
G75*
G02*
X119377800Y-111873600I-25400J0D01*
G01*
X118767800Y-111873600D01*
G75*
G02*
X118742400Y-111848200I0J25400D01*
G01*
X118742400Y-111628200D01*
G75*
G02*
X118767800Y-111602800I25400J0D01*
G01*
X119377800Y-111602800D01*
G75*
G02*
X119403200Y-111628200I0J-25400D01*
G01*
G37*
G36*
G01*
X119403200Y-111228200D02*
X119403200Y-111448200D01*
G75*
G02*
X119377800Y-111473600I-25400J0D01*
G01*
X118767800Y-111473600D01*
G75*
G02*
X118742400Y-111448200I0J25400D01*
G01*
X118742400Y-111228200D01*
G75*
G02*
X118767800Y-111202800I25400J0D01*
G01*
X119377800Y-111202800D01*
G75*
G02*
X119403200Y-111228200I0J-25400D01*
G01*
G37*
G36*
G01*
X119403200Y-110828200D02*
X119403200Y-111048200D01*
G75*
G02*
X119377800Y-111073600I-25400J0D01*
G01*
X118767800Y-111073600D01*
G75*
G02*
X118742400Y-111048200I0J25400D01*
G01*
X118742400Y-110828200D01*
G75*
G02*
X118767800Y-110802800I25400J0D01*
G01*
X119377800Y-110802800D01*
G75*
G02*
X119403200Y-110828200I0J-25400D01*
G01*
G37*
G36*
G01*
X118537800Y-111223600D02*
X118317800Y-111223600D01*
G75*
G02*
X118292400Y-111198200I0J25400D01*
G01*
X118292400Y-110588200D01*
G75*
G02*
X118317800Y-110562800I25400J0D01*
G01*
X118537800Y-110562800D01*
G75*
G02*
X118563200Y-110588200I0J-25400D01*
G01*
X118563200Y-111198200D01*
G75*
G02*
X118537800Y-111223600I-25400J0D01*
G01*
G37*
G36*
G01*
X118137800Y-111223600D02*
X117917800Y-111223600D01*
G75*
G02*
X117892400Y-111198200I0J25400D01*
G01*
X117892400Y-110588200D01*
G75*
G02*
X117917800Y-110562800I25400J0D01*
G01*
X118137800Y-110562800D01*
G75*
G02*
X118163200Y-110588200I0J-25400D01*
G01*
X118163200Y-111198200D01*
G75*
G02*
X118137800Y-111223600I-25400J0D01*
G01*
G37*
G36*
G01*
X117713200Y-110828200D02*
X117713200Y-111048200D01*
G75*
G02*
X117687800Y-111073600I-25400J0D01*
G01*
X117077800Y-111073600D01*
G75*
G02*
X117052400Y-111048200I0J25400D01*
G01*
X117052400Y-110828200D01*
G75*
G02*
X117077800Y-110802800I25400J0D01*
G01*
X117687800Y-110802800D01*
G75*
G02*
X117713200Y-110828200I0J-25400D01*
G01*
G37*
G36*
G01*
X117713200Y-111228200D02*
X117713200Y-111448200D01*
G75*
G02*
X117687800Y-111473600I-25400J0D01*
G01*
X117077800Y-111473600D01*
G75*
G02*
X117052400Y-111448200I0J25400D01*
G01*
X117052400Y-111228200D01*
G75*
G02*
X117077800Y-111202800I25400J0D01*
G01*
X117687800Y-111202800D01*
G75*
G02*
X117713200Y-111228200I0J-25400D01*
G01*
G37*
G36*
G01*
X117713200Y-111628200D02*
X117713200Y-111848200D01*
G75*
G02*
X117687800Y-111873600I-25400J0D01*
G01*
X117077800Y-111873600D01*
G75*
G02*
X117052400Y-111848200I0J25400D01*
G01*
X117052400Y-111628200D01*
G75*
G02*
X117077800Y-111602800I25400J0D01*
G01*
X117687800Y-111602800D01*
G75*
G02*
X117713200Y-111628200I0J-25400D01*
G01*
G37*
G36*
G01*
X117713200Y-112028200D02*
X117713200Y-112248200D01*
G75*
G02*
X117687800Y-112273600I-25400J0D01*
G01*
X117077800Y-112273600D01*
G75*
G02*
X117052400Y-112248200I0J25400D01*
G01*
X117052400Y-112028200D01*
G75*
G02*
X117077800Y-112002800I25400J0D01*
G01*
X117687800Y-112002800D01*
G75*
G02*
X117713200Y-112028200I0J-25400D01*
G01*
G37*
G36*
G01*
X117713200Y-112428200D02*
X117713200Y-112648200D01*
G75*
G02*
X117687800Y-112673600I-25400J0D01*
G01*
X117077800Y-112673600D01*
G75*
G02*
X117052400Y-112648200I0J25400D01*
G01*
X117052400Y-112428200D01*
G75*
G02*
X117077800Y-112402800I25400J0D01*
G01*
X117687800Y-112402800D01*
G75*
G02*
X117713200Y-112428200I0J-25400D01*
G01*
G37*
G36*
G01*
X118137800Y-112913600D02*
X117917800Y-112913600D01*
G75*
G02*
X117892400Y-112888200I0J25400D01*
G01*
X117892400Y-112278200D01*
G75*
G02*
X117917800Y-112252800I25400J0D01*
G01*
X118137800Y-112252800D01*
G75*
G02*
X118163200Y-112278200I0J-25400D01*
G01*
X118163200Y-112888200D01*
G75*
G02*
X118137800Y-112913600I-25400J0D01*
G01*
G37*
G36*
G01*
X118537800Y-112913600D02*
X118317800Y-112913600D01*
G75*
G02*
X118292400Y-112888200I0J25400D01*
G01*
X118292400Y-112278200D01*
G75*
G02*
X118317800Y-112252800I25400J0D01*
G01*
X118537800Y-112252800D01*
G75*
G02*
X118563200Y-112278200I0J-25400D01*
G01*
X118563200Y-112888200D01*
G75*
G02*
X118537800Y-112913600I-25400J0D01*
G01*
G37*
G36*
G01*
X89072000Y-115052600D02*
X89072000Y-114172600D01*
G75*
G02*
X89097400Y-114147200I25400J0D01*
G01*
X89927400Y-114147200D01*
G75*
G02*
X89952800Y-114172600I0J-25400D01*
G01*
X89952800Y-115052600D01*
G75*
G02*
X89927400Y-115078000I-25400J0D01*
G01*
X89097400Y-115078000D01*
G75*
G02*
X89072000Y-115052600I0J25400D01*
G01*
G37*
G36*
G01*
X89072000Y-116942600D02*
X89072000Y-116062600D01*
G75*
G02*
X89097400Y-116037200I25400J0D01*
G01*
X89927400Y-116037200D01*
G75*
G02*
X89952800Y-116062600I0J-25400D01*
G01*
X89952800Y-116942600D01*
G75*
G02*
X89927400Y-116968000I-25400J0D01*
G01*
X89097400Y-116968000D01*
G75*
G02*
X89072000Y-116942600I0J25400D01*
G01*
G37*
G36*
G01*
X90512000Y-116942600D02*
X90512000Y-116062600D01*
G75*
G02*
X90537400Y-116037200I25400J0D01*
G01*
X91367400Y-116037200D01*
G75*
G02*
X91392800Y-116062600I0J-25400D01*
G01*
X91392800Y-116942600D01*
G75*
G02*
X91367400Y-116968000I-25400J0D01*
G01*
X90537400Y-116968000D01*
G75*
G02*
X90512000Y-116942600I0J25400D01*
G01*
G37*
G36*
G01*
X90512000Y-115052600D02*
X90512000Y-114172600D01*
G75*
G02*
X90537400Y-114147200I25400J0D01*
G01*
X91367400Y-114147200D01*
G75*
G02*
X91392800Y-114172600I0J-25400D01*
G01*
X91392800Y-115052600D01*
G75*
G02*
X91367400Y-115078000I-25400J0D01*
G01*
X90537400Y-115078000D01*
G75*
G02*
X90512000Y-115052600I0J25400D01*
G01*
G37*
G36*
G01*
X121182000Y-111045400D02*
X121522000Y-111045400D01*
G75*
G02*
X121547400Y-111070800I0J-25400D01*
G01*
X121547400Y-111380800D01*
G75*
G02*
X121522000Y-111406200I-25400J0D01*
G01*
X121182000Y-111406200D01*
G75*
G02*
X121156600Y-111380800I0J25400D01*
G01*
X121156600Y-111070800D01*
G75*
G02*
X121182000Y-111045400I25400J0D01*
G01*
G37*
G36*
G01*
X121182000Y-110495400D02*
X121522000Y-110495400D01*
G75*
G02*
X121547400Y-110520800I0J-25400D01*
G01*
X121547400Y-110830800D01*
G75*
G02*
X121522000Y-110856200I-25400J0D01*
G01*
X121182000Y-110856200D01*
G75*
G02*
X121156600Y-110830800I0J25400D01*
G01*
X121156600Y-110520800D01*
G75*
G02*
X121182000Y-110495400I25400J0D01*
G01*
G37*
G36*
G01*
X117340600Y-115870600D02*
X117340600Y-115530600D01*
G75*
G02*
X117366000Y-115505200I25400J0D01*
G01*
X117676000Y-115505200D01*
G75*
G02*
X117701400Y-115530600I0J-25400D01*
G01*
X117701400Y-115870600D01*
G75*
G02*
X117676000Y-115896000I-25400J0D01*
G01*
X117366000Y-115896000D01*
G75*
G02*
X117340600Y-115870600I0J25400D01*
G01*
G37*
G36*
G01*
X117890600Y-115870600D02*
X117890600Y-115530600D01*
G75*
G02*
X117916000Y-115505200I25400J0D01*
G01*
X118226000Y-115505200D01*
G75*
G02*
X118251400Y-115530600I0J-25400D01*
G01*
X118251400Y-115870600D01*
G75*
G02*
X118226000Y-115896000I-25400J0D01*
G01*
X117916000Y-115896000D01*
G75*
G02*
X117890600Y-115870600I0J25400D01*
G01*
G37*
D11*
X94313080Y-118231460D03*
X94315620Y-105226660D03*
M02*
