G04 #@! TF.GenerationSoftware,KiCad,Pcbnew,(5.1.12)-1*
G04 #@! TF.CreationDate,2024-10-20T15:32:40+08:00*
G04 #@! TF.ProjectId,Kicad_LFOV_RigidFlex_Assembly_Screwhole2,4b696361-645f-44c4-964f-565f52696769,rev?*
G04 #@! TF.SameCoordinates,Original*
G04 #@! TF.FileFunction,Legend,Top*
G04 #@! TF.FilePolarity,Positive*
%FSLAX46Y46*%
G04 Gerber Fmt 4.6, Leading zero omitted, Abs format (unit mm)*
G04 Created by KiCad (PCBNEW (5.1.12)-1) date 2024-10-20 15:32:40*
%MOMM*%
%LPD*%
G01*
G04 APERTURE LIST*
%ADD10C,0.050000*%
%ADD11C,0.100000*%
%ADD12C,0.120000*%
G04 APERTURE END LIST*
D10*
X119043520Y-117235020D02*
G75*
G03*
X119043520Y-117235020I-938000J0D01*
G01*
X119046060Y-106228640D02*
G75*
G03*
X119046060Y-106228640I-938000J0D01*
G01*
D11*
X96060760Y-116251640D02*
X96227426Y-116718306D01*
X96394093Y-116251640D01*
X96794093Y-116018306D02*
X96860760Y-116018306D01*
X96927426Y-116051640D01*
X96960760Y-116084973D01*
X96994093Y-116151640D01*
X97027426Y-116284973D01*
X97027426Y-116451640D01*
X96994093Y-116584973D01*
X96960760Y-116651640D01*
X96927426Y-116684973D01*
X96860760Y-116718306D01*
X96794093Y-116718306D01*
X96727426Y-116684973D01*
X96694093Y-116651640D01*
X96660760Y-116584973D01*
X96627426Y-116451640D01*
X96627426Y-116284973D01*
X96660760Y-116151640D01*
X96694093Y-116084973D01*
X96727426Y-116051640D01*
X96794093Y-116018306D01*
X97327426Y-116651640D02*
X97360760Y-116684973D01*
X97327426Y-116718306D01*
X97294093Y-116684973D01*
X97327426Y-116651640D01*
X97327426Y-116718306D01*
X97627426Y-116084973D02*
X97660760Y-116051640D01*
X97727426Y-116018306D01*
X97894093Y-116018306D01*
X97960760Y-116051640D01*
X97994093Y-116084973D01*
X98027426Y-116151640D01*
X98027426Y-116218306D01*
X97994093Y-116318306D01*
X97594093Y-116718306D01*
X98027426Y-116718306D01*
X93897200Y-115323533D02*
X93830533Y-115356866D01*
X93697200Y-115356866D01*
X93630533Y-115323533D01*
X93597200Y-115290200D01*
X93563866Y-115223533D01*
X93563866Y-115023533D01*
X93597200Y-114956866D01*
X93630533Y-114923533D01*
X93697200Y-114890200D01*
X93830533Y-114890200D01*
X93897200Y-114923533D01*
X94163866Y-115323533D02*
X94263866Y-115356866D01*
X94430533Y-115356866D01*
X94497200Y-115323533D01*
X94530533Y-115290200D01*
X94563866Y-115223533D01*
X94563866Y-115156866D01*
X94530533Y-115090200D01*
X94497200Y-115056866D01*
X94430533Y-115023533D01*
X94297200Y-114990200D01*
X94230533Y-114956866D01*
X94197200Y-114923533D01*
X94163866Y-114856866D01*
X94163866Y-114790200D01*
X94197200Y-114723533D01*
X94230533Y-114690200D01*
X94297200Y-114656866D01*
X94463866Y-114656866D01*
X94563866Y-114690200D01*
X95163866Y-115323533D02*
X95097200Y-115356866D01*
X94963866Y-115356866D01*
X94897200Y-115323533D01*
X94863866Y-115290200D01*
X94830533Y-115223533D01*
X94830533Y-115023533D01*
X94863866Y-114956866D01*
X94897200Y-114923533D01*
X94963866Y-114890200D01*
X95097200Y-114890200D01*
X95163866Y-114923533D01*
X95563866Y-115356866D02*
X95497200Y-115323533D01*
X95463866Y-115290200D01*
X95430533Y-115223533D01*
X95430533Y-115023533D01*
X95463866Y-114956866D01*
X95497200Y-114923533D01*
X95563866Y-114890200D01*
X95663866Y-114890200D01*
X95730533Y-114923533D01*
X95763866Y-114956866D01*
X95797200Y-115023533D01*
X95797200Y-115223533D01*
X95763866Y-115290200D01*
X95730533Y-115323533D01*
X95663866Y-115356866D01*
X95563866Y-115356866D01*
X96097200Y-114890200D02*
X96097200Y-115590200D01*
X96097200Y-114923533D02*
X96163866Y-114890200D01*
X96297200Y-114890200D01*
X96363866Y-114923533D01*
X96397200Y-114956866D01*
X96430533Y-115023533D01*
X96430533Y-115223533D01*
X96397200Y-115290200D01*
X96363866Y-115323533D01*
X96297200Y-115356866D01*
X96163866Y-115356866D01*
X96097200Y-115323533D01*
X96997200Y-115323533D02*
X96930533Y-115356866D01*
X96797200Y-115356866D01*
X96730533Y-115323533D01*
X96697200Y-115256866D01*
X96697200Y-114990200D01*
X96730533Y-114923533D01*
X96797200Y-114890200D01*
X96930533Y-114890200D01*
X96997200Y-114923533D01*
X97030533Y-114990200D01*
X97030533Y-115056866D01*
X96697200Y-115123533D01*
D10*
X95251140Y-118229940D02*
G75*
G03*
X95251140Y-118229940I-938000J0D01*
G01*
X95256220Y-105227400D02*
G75*
G03*
X95256220Y-105227400I-938000J0D01*
G01*
D11*
X111336600Y-108612200D02*
X111336600Y-109022200D01*
X112736600Y-108612200D02*
X112736600Y-109022200D01*
D12*
X112911200Y-113738200D02*
X112911200Y-109738200D01*
X112911200Y-109738200D02*
X114411200Y-109738200D01*
X112911200Y-113738200D02*
X114411200Y-113738200D01*
X115161200Y-112988200D02*
X115161200Y-110488200D01*
D11*
X94379800Y-113567000D02*
G75*
G03*
X94379800Y-113567000I-50000J0D01*
G01*
D10*
X90548000Y-107770600D02*
X90548000Y-108320600D01*
X91098000Y-107770600D02*
X90548000Y-107770600D01*
X95708000Y-107770600D02*
X95708000Y-108320600D01*
X95158000Y-107770600D02*
X95708000Y-107770600D01*
X95708000Y-112930600D02*
X95708000Y-112380600D01*
X95158000Y-112930600D02*
X95708000Y-112930600D01*
X90548000Y-112930600D02*
X90548000Y-112380600D01*
X91098000Y-112930600D02*
X90548000Y-112930600D01*
X104822600Y-112235200D02*
X104822600Y-116035200D01*
X104822600Y-116035200D02*
X110022600Y-116035200D01*
X110022600Y-116035200D02*
X110022600Y-112235200D01*
X110022600Y-112235200D02*
X104822600Y-112235200D01*
X112138000Y-115753200D02*
X112558000Y-115753200D01*
X112138000Y-115333200D02*
X112138000Y-115753200D01*
X112138000Y-114073200D02*
X112558000Y-114073200D01*
X112138000Y-114493200D02*
X112138000Y-114073200D01*
X114818000Y-114073200D02*
X114398000Y-114073200D01*
X114818000Y-114493200D02*
X114818000Y-114073200D01*
X114818000Y-115753200D02*
X114398000Y-115753200D01*
X114818000Y-115333200D02*
X114818000Y-115753200D01*
X111494200Y-112523600D02*
X111494200Y-112273600D01*
X110534200Y-112523600D02*
X110534200Y-112273600D01*
X107057160Y-107945480D02*
X107057160Y-108445480D01*
X107057160Y-107945480D02*
X107557160Y-107945480D01*
X107057160Y-111145480D02*
X107057160Y-110645480D01*
X107057160Y-111145480D02*
X107557160Y-111145480D01*
X110357160Y-111145480D02*
X109857160Y-111145480D01*
X110357160Y-111145480D02*
X110357160Y-110645480D01*
X110357160Y-107945480D02*
X110357160Y-108445480D01*
X110357160Y-107945480D02*
X109857160Y-107945480D01*
X118607620Y-115966220D02*
X118607620Y-116231220D01*
X118607620Y-116231220D02*
X120707620Y-116231220D01*
X120707620Y-116231220D02*
X120707620Y-115966220D01*
X118607620Y-113396220D02*
X118607620Y-113131220D01*
X118607620Y-113131220D02*
X120707620Y-113131220D01*
X120707620Y-113131220D02*
X120707620Y-113396220D01*
X120725600Y-107267200D02*
X120725600Y-107532200D01*
X118625600Y-107267200D02*
X120725600Y-107267200D01*
X118625600Y-107532200D02*
X118625600Y-107267200D01*
X120725600Y-110367200D02*
X120725600Y-110102200D01*
X118625600Y-110367200D02*
X120725600Y-110367200D01*
X118625600Y-110102200D02*
X118625600Y-110367200D01*
X117197800Y-112798200D02*
X117767800Y-112798200D01*
X117197800Y-110678200D02*
X117767800Y-110678200D01*
X119257800Y-110678200D02*
X118687800Y-110678200D01*
X119257800Y-112798200D02*
X118687800Y-112798200D01*
X90232400Y-115557600D02*
X89182400Y-115557600D01*
X90232400Y-114282600D02*
X90232400Y-115557600D01*
X91312400Y-115912600D02*
X91312400Y-115202600D01*
X89152400Y-115202600D02*
X89152400Y-115912600D01*
X90077400Y-116887600D02*
X90387400Y-116887600D01*
X90077400Y-114227600D02*
X90387400Y-114227600D01*
X111908028Y-108888628D02*
X111898504Y-108898152D01*
X111869933Y-108907676D01*
X111850885Y-108907676D01*
X111822314Y-108898152D01*
X111803266Y-108879104D01*
X111793742Y-108860057D01*
X111784219Y-108821961D01*
X111784219Y-108793390D01*
X111793742Y-108755295D01*
X111803266Y-108736247D01*
X111822314Y-108717200D01*
X111850885Y-108707676D01*
X111869933Y-108707676D01*
X111898504Y-108717200D01*
X111908028Y-108726723D01*
X112098504Y-108907676D02*
X111984219Y-108907676D01*
X112041361Y-108907676D02*
X112041361Y-108707676D01*
X112022314Y-108736247D01*
X112003266Y-108755295D01*
X111984219Y-108764819D01*
X112174695Y-108726723D02*
X112184219Y-108717200D01*
X112203266Y-108707676D01*
X112250885Y-108707676D01*
X112269933Y-108717200D01*
X112279457Y-108726723D01*
X112288980Y-108745771D01*
X112288980Y-108764819D01*
X112279457Y-108793390D01*
X112165171Y-108907676D01*
X112288980Y-108907676D01*
X113918113Y-111613436D02*
X113918113Y-111756293D01*
X113908589Y-111784864D01*
X113889541Y-111803912D01*
X113860970Y-111813436D01*
X113841922Y-111813436D01*
X114118113Y-111813436D02*
X114003827Y-111813436D01*
X114060970Y-111813436D02*
X114060970Y-111613436D01*
X114041922Y-111642007D01*
X114022875Y-111661055D01*
X114003827Y-111670579D01*
X117694148Y-114113408D02*
X117684624Y-114122932D01*
X117656053Y-114132456D01*
X117637005Y-114132456D01*
X117608434Y-114122932D01*
X117589386Y-114103884D01*
X117579862Y-114084837D01*
X117570339Y-114046741D01*
X117570339Y-114018170D01*
X117579862Y-113980075D01*
X117589386Y-113961027D01*
X117608434Y-113941980D01*
X117637005Y-113932456D01*
X117656053Y-113932456D01*
X117684624Y-113941980D01*
X117694148Y-113951503D01*
X117760815Y-113932456D02*
X117884624Y-113932456D01*
X117817958Y-114008646D01*
X117846529Y-114008646D01*
X117865577Y-114018170D01*
X117875100Y-114027694D01*
X117884624Y-114046741D01*
X117884624Y-114094360D01*
X117875100Y-114113408D01*
X117865577Y-114122932D01*
X117846529Y-114132456D01*
X117789386Y-114132456D01*
X117770339Y-114122932D01*
X117760815Y-114113408D01*
X117979862Y-114132456D02*
X118017958Y-114132456D01*
X118037005Y-114122932D01*
X118046529Y-114113408D01*
X118065577Y-114084837D01*
X118075100Y-114046741D01*
X118075100Y-113970551D01*
X118065577Y-113951503D01*
X118056053Y-113941980D01*
X118037005Y-113932456D01*
X117998910Y-113932456D01*
X117979862Y-113941980D01*
X117970339Y-113951503D01*
X117960815Y-113970551D01*
X117960815Y-114018170D01*
X117970339Y-114037218D01*
X117979862Y-114046741D01*
X117998910Y-114056265D01*
X118037005Y-114056265D01*
X118056053Y-114046741D01*
X118065577Y-114037218D01*
X118075100Y-114018170D01*
X91664228Y-114739516D02*
X91597561Y-114644278D01*
X91549942Y-114739516D02*
X91549942Y-114539516D01*
X91626133Y-114539516D01*
X91645180Y-114549040D01*
X91654704Y-114558563D01*
X91664228Y-114577611D01*
X91664228Y-114606182D01*
X91654704Y-114625230D01*
X91645180Y-114634754D01*
X91626133Y-114644278D01*
X91549942Y-114644278D01*
X91854704Y-114739516D02*
X91740419Y-114739516D01*
X91797561Y-114739516D02*
X91797561Y-114539516D01*
X91778514Y-114568087D01*
X91759466Y-114587135D01*
X91740419Y-114596659D01*
X91921371Y-114539516D02*
X92045180Y-114539516D01*
X91978514Y-114615706D01*
X92007085Y-114615706D01*
X92026133Y-114625230D01*
X92035657Y-114634754D01*
X92045180Y-114653801D01*
X92045180Y-114701420D01*
X92035657Y-114720468D01*
X92026133Y-114729992D01*
X92007085Y-114739516D01*
X91949942Y-114739516D01*
X91930895Y-114729992D01*
X91921371Y-114720468D01*
X93090440Y-113660016D02*
X93090440Y-113460016D01*
X93138060Y-113460016D01*
X93166631Y-113469540D01*
X93185679Y-113488587D01*
X93195202Y-113507635D01*
X93204726Y-113545730D01*
X93204726Y-113574301D01*
X93195202Y-113612397D01*
X93185679Y-113631444D01*
X93166631Y-113650492D01*
X93138060Y-113660016D01*
X93090440Y-113660016D01*
X93280917Y-113479063D02*
X93290440Y-113469540D01*
X93309488Y-113460016D01*
X93357107Y-113460016D01*
X93376155Y-113469540D01*
X93385679Y-113479063D01*
X93395202Y-113498111D01*
X93395202Y-113517159D01*
X93385679Y-113545730D01*
X93271393Y-113660016D01*
X93395202Y-113660016D01*
X98326648Y-116923916D02*
X98259981Y-116828678D01*
X98212362Y-116923916D02*
X98212362Y-116723916D01*
X98288553Y-116723916D01*
X98307600Y-116733440D01*
X98317124Y-116742963D01*
X98326648Y-116762011D01*
X98326648Y-116790582D01*
X98317124Y-116809630D01*
X98307600Y-116819154D01*
X98288553Y-116828678D01*
X98212362Y-116828678D01*
X98517124Y-116923916D02*
X98402839Y-116923916D01*
X98459981Y-116923916D02*
X98459981Y-116723916D01*
X98440934Y-116752487D01*
X98421886Y-116771535D01*
X98402839Y-116781059D01*
X98593315Y-116742963D02*
X98602839Y-116733440D01*
X98621886Y-116723916D01*
X98669505Y-116723916D01*
X98688553Y-116733440D01*
X98698077Y-116742963D01*
X98707600Y-116762011D01*
X98707600Y-116781059D01*
X98698077Y-116809630D01*
X98583791Y-116923916D01*
X98707600Y-116923916D01*
X99050548Y-116904868D02*
X99041024Y-116914392D01*
X99012453Y-116923916D01*
X98993405Y-116923916D01*
X98964834Y-116914392D01*
X98945786Y-116895344D01*
X98936262Y-116876297D01*
X98926739Y-116838201D01*
X98926739Y-116809630D01*
X98936262Y-116771535D01*
X98945786Y-116752487D01*
X98964834Y-116733440D01*
X98993405Y-116723916D01*
X99012453Y-116723916D01*
X99041024Y-116733440D01*
X99050548Y-116742963D01*
X99117215Y-116723916D02*
X99241024Y-116723916D01*
X99174358Y-116800106D01*
X99202929Y-116800106D01*
X99221977Y-116809630D01*
X99231500Y-116819154D01*
X99241024Y-116838201D01*
X99241024Y-116885820D01*
X99231500Y-116904868D01*
X99221977Y-116914392D01*
X99202929Y-116923916D01*
X99145786Y-116923916D01*
X99126739Y-116914392D01*
X99117215Y-116904868D01*
X99431500Y-116923916D02*
X99317215Y-116923916D01*
X99374358Y-116923916D02*
X99374358Y-116723916D01*
X99355310Y-116752487D01*
X99336262Y-116771535D01*
X99317215Y-116781059D01*
X89368068Y-111522608D02*
X89358544Y-111532132D01*
X89329973Y-111541656D01*
X89310925Y-111541656D01*
X89282354Y-111532132D01*
X89263306Y-111513084D01*
X89253782Y-111494037D01*
X89244259Y-111455941D01*
X89244259Y-111427370D01*
X89253782Y-111389275D01*
X89263306Y-111370227D01*
X89282354Y-111351180D01*
X89310925Y-111341656D01*
X89329973Y-111341656D01*
X89358544Y-111351180D01*
X89368068Y-111360703D01*
X89434735Y-111341656D02*
X89558544Y-111341656D01*
X89491878Y-111417846D01*
X89520449Y-111417846D01*
X89539497Y-111427370D01*
X89549020Y-111436894D01*
X89558544Y-111455941D01*
X89558544Y-111503560D01*
X89549020Y-111522608D01*
X89539497Y-111532132D01*
X89520449Y-111541656D01*
X89463306Y-111541656D01*
X89444259Y-111532132D01*
X89434735Y-111522608D01*
X89625211Y-111341656D02*
X89749020Y-111341656D01*
X89682354Y-111417846D01*
X89710925Y-111417846D01*
X89729973Y-111427370D01*
X89739497Y-111436894D01*
X89749020Y-111455941D01*
X89749020Y-111503560D01*
X89739497Y-111522608D01*
X89729973Y-111532132D01*
X89710925Y-111541656D01*
X89653782Y-111541656D01*
X89634735Y-111532132D01*
X89625211Y-111522608D01*
X91310219Y-108522256D02*
X91310219Y-108684160D01*
X91319742Y-108703208D01*
X91329266Y-108712732D01*
X91348314Y-108722256D01*
X91386409Y-108722256D01*
X91405457Y-108712732D01*
X91414980Y-108703208D01*
X91424504Y-108684160D01*
X91424504Y-108522256D01*
X91510219Y-108541303D02*
X91519742Y-108531780D01*
X91538790Y-108522256D01*
X91586409Y-108522256D01*
X91605457Y-108531780D01*
X91614980Y-108541303D01*
X91624504Y-108560351D01*
X91624504Y-108579399D01*
X91614980Y-108607970D01*
X91500695Y-108722256D01*
X91624504Y-108722256D01*
X90823488Y-113512696D02*
X90756821Y-113417458D01*
X90709202Y-113512696D02*
X90709202Y-113312696D01*
X90785393Y-113312696D01*
X90804440Y-113322220D01*
X90813964Y-113331743D01*
X90823488Y-113350791D01*
X90823488Y-113379362D01*
X90813964Y-113398410D01*
X90804440Y-113407934D01*
X90785393Y-113417458D01*
X90709202Y-113417458D01*
X91013964Y-113512696D02*
X90899679Y-113512696D01*
X90956821Y-113512696D02*
X90956821Y-113312696D01*
X90937774Y-113341267D01*
X90918726Y-113360315D01*
X90899679Y-113369839D01*
X91080631Y-113312696D02*
X91213964Y-113312696D01*
X91128250Y-113512696D01*
X91664228Y-116013328D02*
X91654704Y-116022852D01*
X91626133Y-116032376D01*
X91607085Y-116032376D01*
X91578514Y-116022852D01*
X91559466Y-116003804D01*
X91549942Y-115984757D01*
X91540419Y-115946661D01*
X91540419Y-115918090D01*
X91549942Y-115879995D01*
X91559466Y-115860947D01*
X91578514Y-115841900D01*
X91607085Y-115832376D01*
X91626133Y-115832376D01*
X91654704Y-115841900D01*
X91664228Y-115851423D01*
X91835657Y-115899042D02*
X91835657Y-116032376D01*
X91788038Y-115822852D02*
X91740419Y-115965709D01*
X91864228Y-115965709D01*
X91949942Y-116032376D02*
X91988038Y-116032376D01*
X92007085Y-116022852D01*
X92016609Y-116013328D01*
X92035657Y-115984757D01*
X92045180Y-115946661D01*
X92045180Y-115870471D01*
X92035657Y-115851423D01*
X92026133Y-115841900D01*
X92007085Y-115832376D01*
X91968990Y-115832376D01*
X91949942Y-115841900D01*
X91940419Y-115851423D01*
X91930895Y-115870471D01*
X91930895Y-115918090D01*
X91940419Y-115937138D01*
X91949942Y-115946661D01*
X91968990Y-115956185D01*
X92007085Y-115956185D01*
X92026133Y-115946661D01*
X92035657Y-115937138D01*
X92045180Y-115918090D01*
X94511568Y-116630548D02*
X94502044Y-116640072D01*
X94473473Y-116649596D01*
X94454425Y-116649596D01*
X94425854Y-116640072D01*
X94406806Y-116621024D01*
X94397282Y-116601977D01*
X94387759Y-116563881D01*
X94387759Y-116535310D01*
X94397282Y-116497215D01*
X94406806Y-116478167D01*
X94425854Y-116459120D01*
X94454425Y-116449596D01*
X94473473Y-116449596D01*
X94502044Y-116459120D01*
X94511568Y-116468643D01*
X94692520Y-116449596D02*
X94597282Y-116449596D01*
X94587759Y-116544834D01*
X94597282Y-116535310D01*
X94616330Y-116525786D01*
X94663949Y-116525786D01*
X94682997Y-116535310D01*
X94692520Y-116544834D01*
X94702044Y-116563881D01*
X94702044Y-116611500D01*
X94692520Y-116630548D01*
X94682997Y-116640072D01*
X94663949Y-116649596D01*
X94616330Y-116649596D01*
X94597282Y-116640072D01*
X94587759Y-116630548D01*
X94882997Y-116449596D02*
X94787759Y-116449596D01*
X94778235Y-116544834D01*
X94787759Y-116535310D01*
X94806806Y-116525786D01*
X94854425Y-116525786D01*
X94873473Y-116535310D01*
X94882997Y-116544834D01*
X94892520Y-116563881D01*
X94892520Y-116611500D01*
X94882997Y-116630548D01*
X94873473Y-116640072D01*
X94854425Y-116649596D01*
X94806806Y-116649596D01*
X94787759Y-116640072D01*
X94778235Y-116630548D01*
X95304048Y-116630548D02*
X95294524Y-116640072D01*
X95265953Y-116649596D01*
X95246905Y-116649596D01*
X95218334Y-116640072D01*
X95199286Y-116621024D01*
X95189762Y-116601977D01*
X95180239Y-116563881D01*
X95180239Y-116535310D01*
X95189762Y-116497215D01*
X95199286Y-116478167D01*
X95218334Y-116459120D01*
X95246905Y-116449596D01*
X95265953Y-116449596D01*
X95294524Y-116459120D01*
X95304048Y-116468643D01*
X95475477Y-116516262D02*
X95475477Y-116649596D01*
X95427858Y-116440072D02*
X95380239Y-116582929D01*
X95504048Y-116582929D01*
X95570715Y-116468643D02*
X95580239Y-116459120D01*
X95599286Y-116449596D01*
X95646905Y-116449596D01*
X95665953Y-116459120D01*
X95675477Y-116468643D01*
X95685000Y-116487691D01*
X95685000Y-116506739D01*
X95675477Y-116535310D01*
X95561191Y-116649596D01*
X95685000Y-116649596D01*
X94559828Y-107029348D02*
X94550304Y-107038872D01*
X94521733Y-107048396D01*
X94502685Y-107048396D01*
X94474114Y-107038872D01*
X94455066Y-107019824D01*
X94445542Y-107000777D01*
X94436019Y-106962681D01*
X94436019Y-106934110D01*
X94445542Y-106896015D01*
X94455066Y-106876967D01*
X94474114Y-106857920D01*
X94502685Y-106848396D01*
X94521733Y-106848396D01*
X94550304Y-106857920D01*
X94559828Y-106867443D01*
X94626495Y-106848396D02*
X94750304Y-106848396D01*
X94683638Y-106924586D01*
X94712209Y-106924586D01*
X94731257Y-106934110D01*
X94740780Y-106943634D01*
X94750304Y-106962681D01*
X94750304Y-107010300D01*
X94740780Y-107029348D01*
X94731257Y-107038872D01*
X94712209Y-107048396D01*
X94655066Y-107048396D01*
X94636019Y-107038872D01*
X94626495Y-107029348D01*
X94816971Y-106848396D02*
X94950304Y-106848396D01*
X94864590Y-107048396D01*
X96820428Y-107026808D02*
X96810904Y-107036332D01*
X96782333Y-107045856D01*
X96763285Y-107045856D01*
X96734714Y-107036332D01*
X96715666Y-107017284D01*
X96706142Y-106998237D01*
X96696619Y-106960141D01*
X96696619Y-106931570D01*
X96706142Y-106893475D01*
X96715666Y-106874427D01*
X96734714Y-106855380D01*
X96763285Y-106845856D01*
X96782333Y-106845856D01*
X96810904Y-106855380D01*
X96820428Y-106864903D01*
X96887095Y-106845856D02*
X97010904Y-106845856D01*
X96944238Y-106922046D01*
X96972809Y-106922046D01*
X96991857Y-106931570D01*
X97001380Y-106941094D01*
X97010904Y-106960141D01*
X97010904Y-107007760D01*
X97001380Y-107026808D01*
X96991857Y-107036332D01*
X96972809Y-107045856D01*
X96915666Y-107045856D01*
X96896619Y-107036332D01*
X96887095Y-107026808D01*
X97087095Y-106864903D02*
X97096619Y-106855380D01*
X97115666Y-106845856D01*
X97163285Y-106845856D01*
X97182333Y-106855380D01*
X97191857Y-106864903D01*
X97201380Y-106883951D01*
X97201380Y-106902999D01*
X97191857Y-106931570D01*
X97077571Y-107045856D01*
X97201380Y-107045856D01*
X89368068Y-109762388D02*
X89358544Y-109771912D01*
X89329973Y-109781436D01*
X89310925Y-109781436D01*
X89282354Y-109771912D01*
X89263306Y-109752864D01*
X89253782Y-109733817D01*
X89244259Y-109695721D01*
X89244259Y-109667150D01*
X89253782Y-109629055D01*
X89263306Y-109610007D01*
X89282354Y-109590960D01*
X89310925Y-109581436D01*
X89329973Y-109581436D01*
X89358544Y-109590960D01*
X89368068Y-109600483D01*
X89539497Y-109648102D02*
X89539497Y-109781436D01*
X89491878Y-109571912D02*
X89444259Y-109714769D01*
X89568068Y-109714769D01*
X89729973Y-109581436D02*
X89691878Y-109581436D01*
X89672830Y-109590960D01*
X89663306Y-109600483D01*
X89644259Y-109629055D01*
X89634735Y-109667150D01*
X89634735Y-109743340D01*
X89644259Y-109762388D01*
X89653782Y-109771912D01*
X89672830Y-109781436D01*
X89710925Y-109781436D01*
X89729973Y-109771912D01*
X89739497Y-109762388D01*
X89749020Y-109743340D01*
X89749020Y-109695721D01*
X89739497Y-109676674D01*
X89729973Y-109667150D01*
X89710925Y-109657626D01*
X89672830Y-109657626D01*
X89653782Y-109667150D01*
X89644259Y-109676674D01*
X89634735Y-109695721D01*
X93764808Y-116630548D02*
X93755284Y-116640072D01*
X93726713Y-116649596D01*
X93707665Y-116649596D01*
X93679094Y-116640072D01*
X93660046Y-116621024D01*
X93650522Y-116601977D01*
X93640999Y-116563881D01*
X93640999Y-116535310D01*
X93650522Y-116497215D01*
X93660046Y-116478167D01*
X93679094Y-116459120D01*
X93707665Y-116449596D01*
X93726713Y-116449596D01*
X93755284Y-116459120D01*
X93764808Y-116468643D01*
X93936237Y-116516262D02*
X93936237Y-116649596D01*
X93888618Y-116440072D02*
X93840999Y-116582929D01*
X93964808Y-116582929D01*
X94021951Y-116449596D02*
X94145760Y-116449596D01*
X94079094Y-116525786D01*
X94107665Y-116525786D01*
X94126713Y-116535310D01*
X94136237Y-116544834D01*
X94145760Y-116563881D01*
X94145760Y-116611500D01*
X94136237Y-116630548D01*
X94126713Y-116640072D01*
X94107665Y-116649596D01*
X94050522Y-116649596D01*
X94031475Y-116640072D01*
X94021951Y-116630548D01*
X93780048Y-107029348D02*
X93770524Y-107038872D01*
X93741953Y-107048396D01*
X93722905Y-107048396D01*
X93694334Y-107038872D01*
X93675286Y-107019824D01*
X93665762Y-107000777D01*
X93656239Y-106962681D01*
X93656239Y-106934110D01*
X93665762Y-106896015D01*
X93675286Y-106876967D01*
X93694334Y-106857920D01*
X93722905Y-106848396D01*
X93741953Y-106848396D01*
X93770524Y-106857920D01*
X93780048Y-106867443D01*
X93951477Y-106915062D02*
X93951477Y-107048396D01*
X93903858Y-106838872D02*
X93856239Y-106981729D01*
X93980048Y-106981729D01*
X94094334Y-106848396D02*
X94113381Y-106848396D01*
X94132429Y-106857920D01*
X94141953Y-106867443D01*
X94151477Y-106886491D01*
X94161000Y-106924586D01*
X94161000Y-106972205D01*
X94151477Y-107010300D01*
X94141953Y-107029348D01*
X94132429Y-107038872D01*
X94113381Y-107048396D01*
X94094334Y-107048396D01*
X94075286Y-107038872D01*
X94065762Y-107029348D01*
X94056239Y-107010300D01*
X94046715Y-106972205D01*
X94046715Y-106924586D01*
X94056239Y-106886491D01*
X94065762Y-106867443D01*
X94075286Y-106857920D01*
X94094334Y-106848396D01*
X98700028Y-110379608D02*
X98690504Y-110389132D01*
X98661933Y-110398656D01*
X98642885Y-110398656D01*
X98614314Y-110389132D01*
X98595266Y-110370084D01*
X98585742Y-110351037D01*
X98576219Y-110312941D01*
X98576219Y-110284370D01*
X98585742Y-110246275D01*
X98595266Y-110227227D01*
X98614314Y-110208180D01*
X98642885Y-110198656D01*
X98661933Y-110198656D01*
X98690504Y-110208180D01*
X98700028Y-110217703D01*
X98766695Y-110198656D02*
X98890504Y-110198656D01*
X98823838Y-110274846D01*
X98852409Y-110274846D01*
X98871457Y-110284370D01*
X98880980Y-110293894D01*
X98890504Y-110312941D01*
X98890504Y-110360560D01*
X98880980Y-110379608D01*
X98871457Y-110389132D01*
X98852409Y-110398656D01*
X98795266Y-110398656D01*
X98776219Y-110389132D01*
X98766695Y-110379608D01*
X99071457Y-110198656D02*
X98976219Y-110198656D01*
X98966695Y-110293894D01*
X98976219Y-110284370D01*
X98995266Y-110274846D01*
X99042885Y-110274846D01*
X99061933Y-110284370D01*
X99071457Y-110293894D01*
X99080980Y-110312941D01*
X99080980Y-110360560D01*
X99071457Y-110379608D01*
X99061933Y-110389132D01*
X99042885Y-110398656D01*
X98995266Y-110398656D01*
X98976219Y-110389132D01*
X98966695Y-110379608D01*
X98700028Y-111136528D02*
X98690504Y-111146052D01*
X98661933Y-111155576D01*
X98642885Y-111155576D01*
X98614314Y-111146052D01*
X98595266Y-111127004D01*
X98585742Y-111107957D01*
X98576219Y-111069861D01*
X98576219Y-111041290D01*
X98585742Y-111003195D01*
X98595266Y-110984147D01*
X98614314Y-110965100D01*
X98642885Y-110955576D01*
X98661933Y-110955576D01*
X98690504Y-110965100D01*
X98700028Y-110974623D01*
X98871457Y-111022242D02*
X98871457Y-111155576D01*
X98823838Y-110946052D02*
X98776219Y-111088909D01*
X98900028Y-111088909D01*
X99080980Y-111155576D02*
X98966695Y-111155576D01*
X99023838Y-111155576D02*
X99023838Y-110955576D01*
X99004790Y-110984147D01*
X98985742Y-111003195D01*
X98966695Y-111012719D01*
X93043448Y-107029348D02*
X93033924Y-107038872D01*
X93005353Y-107048396D01*
X92986305Y-107048396D01*
X92957734Y-107038872D01*
X92938686Y-107019824D01*
X92929162Y-107000777D01*
X92919639Y-106962681D01*
X92919639Y-106934110D01*
X92929162Y-106896015D01*
X92938686Y-106876967D01*
X92957734Y-106857920D01*
X92986305Y-106848396D01*
X93005353Y-106848396D01*
X93033924Y-106857920D01*
X93043448Y-106867443D01*
X93110115Y-106848396D02*
X93233924Y-106848396D01*
X93167258Y-106924586D01*
X93195829Y-106924586D01*
X93214877Y-106934110D01*
X93224400Y-106943634D01*
X93233924Y-106962681D01*
X93233924Y-107010300D01*
X93224400Y-107029348D01*
X93214877Y-107038872D01*
X93195829Y-107048396D01*
X93138686Y-107048396D01*
X93119639Y-107038872D01*
X93110115Y-107029348D01*
X93405353Y-106848396D02*
X93367258Y-106848396D01*
X93348210Y-106857920D01*
X93338686Y-106867443D01*
X93319639Y-106896015D01*
X93310115Y-106934110D01*
X93310115Y-107010300D01*
X93319639Y-107029348D01*
X93329162Y-107038872D01*
X93348210Y-107048396D01*
X93386305Y-107048396D01*
X93405353Y-107038872D01*
X93414877Y-107029348D01*
X93424400Y-107010300D01*
X93424400Y-106962681D01*
X93414877Y-106943634D01*
X93405353Y-106934110D01*
X93386305Y-106924586D01*
X93348210Y-106924586D01*
X93329162Y-106934110D01*
X93319639Y-106943634D01*
X93310115Y-106962681D01*
X108476719Y-114633496D02*
X108476719Y-114795400D01*
X108486242Y-114814448D01*
X108495766Y-114823972D01*
X108514814Y-114833496D01*
X108552909Y-114833496D01*
X108571957Y-114823972D01*
X108581480Y-114814448D01*
X108591004Y-114795400D01*
X108591004Y-114633496D01*
X108667195Y-114633496D02*
X108791004Y-114633496D01*
X108724338Y-114709686D01*
X108752909Y-114709686D01*
X108771957Y-114719210D01*
X108781480Y-114728734D01*
X108791004Y-114747781D01*
X108791004Y-114795400D01*
X108781480Y-114814448D01*
X108771957Y-114823972D01*
X108752909Y-114833496D01*
X108695766Y-114833496D01*
X108676719Y-114823972D01*
X108667195Y-114814448D01*
X108027909Y-115072382D02*
X108063623Y-115084287D01*
X108075528Y-115096192D01*
X108087433Y-115120001D01*
X108087433Y-115155716D01*
X108075528Y-115179525D01*
X108063623Y-115191430D01*
X108039814Y-115203335D01*
X107944576Y-115203335D01*
X107944576Y-114953335D01*
X108027909Y-114953335D01*
X108051719Y-114965240D01*
X108063623Y-114977144D01*
X108075528Y-115000954D01*
X108075528Y-115024763D01*
X108063623Y-115048573D01*
X108051719Y-115060478D01*
X108027909Y-115072382D01*
X107944576Y-115072382D01*
X108194576Y-115203335D02*
X108194576Y-114953335D01*
X108337433Y-115203335D01*
X108337433Y-114953335D01*
X108504100Y-114953335D02*
X108551719Y-114953335D01*
X108575528Y-114965240D01*
X108599338Y-114989049D01*
X108611242Y-115036668D01*
X108611242Y-115120001D01*
X108599338Y-115167620D01*
X108575528Y-115191430D01*
X108551719Y-115203335D01*
X108504100Y-115203335D01*
X108480290Y-115191430D01*
X108456480Y-115167620D01*
X108444576Y-115120001D01*
X108444576Y-115036668D01*
X108456480Y-114989049D01*
X108480290Y-114965240D01*
X108504100Y-114953335D01*
X108766004Y-114953335D02*
X108789814Y-114953335D01*
X108813623Y-114965240D01*
X108825528Y-114977144D01*
X108837433Y-115000954D01*
X108849338Y-115048573D01*
X108849338Y-115108097D01*
X108837433Y-115155716D01*
X108825528Y-115179525D01*
X108813623Y-115191430D01*
X108789814Y-115203335D01*
X108766004Y-115203335D01*
X108742195Y-115191430D01*
X108730290Y-115179525D01*
X108718385Y-115155716D01*
X108706480Y-115108097D01*
X108706480Y-115048573D01*
X108718385Y-115000954D01*
X108730290Y-114977144D01*
X108742195Y-114965240D01*
X108766004Y-114953335D01*
X109075528Y-114953335D02*
X108956480Y-114953335D01*
X108944576Y-115072382D01*
X108956480Y-115060478D01*
X108980290Y-115048573D01*
X109039814Y-115048573D01*
X109063623Y-115060478D01*
X109075528Y-115072382D01*
X109087433Y-115096192D01*
X109087433Y-115155716D01*
X109075528Y-115179525D01*
X109063623Y-115191430D01*
X109039814Y-115203335D01*
X108980290Y-115203335D01*
X108956480Y-115191430D01*
X108944576Y-115179525D01*
X109313623Y-114953335D02*
X109194576Y-114953335D01*
X109182671Y-115072382D01*
X109194576Y-115060478D01*
X109218385Y-115048573D01*
X109277909Y-115048573D01*
X109301719Y-115060478D01*
X109313623Y-115072382D01*
X109325528Y-115096192D01*
X109325528Y-115155716D01*
X109313623Y-115179525D01*
X109301719Y-115191430D01*
X109277909Y-115203335D01*
X109218385Y-115203335D01*
X109194576Y-115191430D01*
X109182671Y-115179525D01*
X97535908Y-109038488D02*
X97526384Y-109048012D01*
X97497813Y-109057536D01*
X97478765Y-109057536D01*
X97450194Y-109048012D01*
X97431146Y-109028964D01*
X97421622Y-109009917D01*
X97412099Y-108971821D01*
X97412099Y-108943250D01*
X97421622Y-108905155D01*
X97431146Y-108886107D01*
X97450194Y-108867060D01*
X97478765Y-108857536D01*
X97497813Y-108857536D01*
X97526384Y-108867060D01*
X97535908Y-108876583D01*
X97726384Y-109057536D02*
X97612099Y-109057536D01*
X97669241Y-109057536D02*
X97669241Y-108857536D01*
X97650194Y-108886107D01*
X97631146Y-108905155D01*
X97612099Y-108914679D01*
X97897813Y-108857536D02*
X97859718Y-108857536D01*
X97840670Y-108867060D01*
X97831146Y-108876583D01*
X97812099Y-108905155D01*
X97802575Y-108943250D01*
X97802575Y-109019440D01*
X97812099Y-109038488D01*
X97821622Y-109048012D01*
X97840670Y-109057536D01*
X97878765Y-109057536D01*
X97897813Y-109048012D01*
X97907337Y-109038488D01*
X97916860Y-109019440D01*
X97916860Y-108971821D01*
X97907337Y-108952774D01*
X97897813Y-108943250D01*
X97878765Y-108933726D01*
X97840670Y-108933726D01*
X97821622Y-108943250D01*
X97812099Y-108952774D01*
X97802575Y-108971821D01*
X98011688Y-111931548D02*
X98002164Y-111941072D01*
X97973593Y-111950596D01*
X97954545Y-111950596D01*
X97925974Y-111941072D01*
X97906926Y-111922024D01*
X97897402Y-111902977D01*
X97887879Y-111864881D01*
X97887879Y-111836310D01*
X97897402Y-111798215D01*
X97906926Y-111779167D01*
X97925974Y-111760120D01*
X97954545Y-111750596D01*
X97973593Y-111750596D01*
X98002164Y-111760120D01*
X98011688Y-111769643D01*
X98202164Y-111950596D02*
X98087879Y-111950596D01*
X98145021Y-111950596D02*
X98145021Y-111750596D01*
X98125974Y-111779167D01*
X98106926Y-111798215D01*
X98087879Y-111807739D01*
X98373593Y-111817262D02*
X98373593Y-111950596D01*
X98325974Y-111741072D02*
X98278355Y-111883929D01*
X98402164Y-111883929D01*
X97386848Y-111649608D02*
X97377324Y-111659132D01*
X97348753Y-111668656D01*
X97329705Y-111668656D01*
X97301134Y-111659132D01*
X97282086Y-111640084D01*
X97272562Y-111621037D01*
X97263039Y-111582941D01*
X97263039Y-111554370D01*
X97272562Y-111516275D01*
X97282086Y-111497227D01*
X97301134Y-111478180D01*
X97329705Y-111468656D01*
X97348753Y-111468656D01*
X97377324Y-111478180D01*
X97386848Y-111487703D01*
X97577324Y-111668656D02*
X97463039Y-111668656D01*
X97520181Y-111668656D02*
X97520181Y-111468656D01*
X97501134Y-111497227D01*
X97482086Y-111516275D01*
X97463039Y-111525799D01*
X97691610Y-111554370D02*
X97672562Y-111544846D01*
X97663039Y-111535322D01*
X97653515Y-111516275D01*
X97653515Y-111506751D01*
X97663039Y-111487703D01*
X97672562Y-111478180D01*
X97691610Y-111468656D01*
X97729705Y-111468656D01*
X97748753Y-111478180D01*
X97758277Y-111487703D01*
X97767800Y-111506751D01*
X97767800Y-111516275D01*
X97758277Y-111535322D01*
X97748753Y-111544846D01*
X97729705Y-111554370D01*
X97691610Y-111554370D01*
X97672562Y-111563894D01*
X97663039Y-111573418D01*
X97653515Y-111592465D01*
X97653515Y-111630560D01*
X97663039Y-111649608D01*
X97672562Y-111659132D01*
X97691610Y-111668656D01*
X97729705Y-111668656D01*
X97748753Y-111659132D01*
X97758277Y-111649608D01*
X97767800Y-111630560D01*
X97767800Y-111592465D01*
X97758277Y-111573418D01*
X97748753Y-111563894D01*
X97729705Y-111554370D01*
X96674516Y-111652148D02*
X96664992Y-111661672D01*
X96636421Y-111671196D01*
X96617373Y-111671196D01*
X96588802Y-111661672D01*
X96569754Y-111642624D01*
X96560230Y-111623577D01*
X96550707Y-111585481D01*
X96550707Y-111556910D01*
X96560230Y-111518815D01*
X96569754Y-111499767D01*
X96588802Y-111480720D01*
X96617373Y-111471196D01*
X96636421Y-111471196D01*
X96664992Y-111480720D01*
X96674516Y-111490243D01*
X96750707Y-111490243D02*
X96760230Y-111480720D01*
X96779278Y-111471196D01*
X96826897Y-111471196D01*
X96845945Y-111480720D01*
X96855468Y-111490243D01*
X96864992Y-111509291D01*
X96864992Y-111528339D01*
X96855468Y-111556910D01*
X96741183Y-111671196D01*
X96864992Y-111671196D01*
X97036421Y-111471196D02*
X96998326Y-111471196D01*
X96979278Y-111480720D01*
X96969754Y-111490243D01*
X96950707Y-111518815D01*
X96941183Y-111556910D01*
X96941183Y-111633100D01*
X96950707Y-111652148D01*
X96960230Y-111661672D01*
X96979278Y-111671196D01*
X97017373Y-111671196D01*
X97036421Y-111661672D01*
X97045945Y-111652148D01*
X97055468Y-111633100D01*
X97055468Y-111585481D01*
X97045945Y-111566434D01*
X97036421Y-111556910D01*
X97017373Y-111547386D01*
X96979278Y-111547386D01*
X96960230Y-111556910D01*
X96950707Y-111566434D01*
X96941183Y-111585481D01*
X89368068Y-109211208D02*
X89358544Y-109220732D01*
X89329973Y-109230256D01*
X89310925Y-109230256D01*
X89282354Y-109220732D01*
X89263306Y-109201684D01*
X89253782Y-109182637D01*
X89244259Y-109144541D01*
X89244259Y-109115970D01*
X89253782Y-109077875D01*
X89263306Y-109058827D01*
X89282354Y-109039780D01*
X89310925Y-109030256D01*
X89329973Y-109030256D01*
X89358544Y-109039780D01*
X89368068Y-109049303D01*
X89444259Y-109049303D02*
X89453782Y-109039780D01*
X89472830Y-109030256D01*
X89520449Y-109030256D01*
X89539497Y-109039780D01*
X89549020Y-109049303D01*
X89558544Y-109068351D01*
X89558544Y-109087399D01*
X89549020Y-109115970D01*
X89434735Y-109230256D01*
X89558544Y-109230256D01*
X89749020Y-109230256D02*
X89634735Y-109230256D01*
X89691878Y-109230256D02*
X89691878Y-109030256D01*
X89672830Y-109058827D01*
X89653782Y-109077875D01*
X89634735Y-109087399D01*
X89368068Y-108583828D02*
X89358544Y-108593352D01*
X89329973Y-108602876D01*
X89310925Y-108602876D01*
X89282354Y-108593352D01*
X89263306Y-108574304D01*
X89253782Y-108555257D01*
X89244259Y-108517161D01*
X89244259Y-108488590D01*
X89253782Y-108450495D01*
X89263306Y-108431447D01*
X89282354Y-108412400D01*
X89310925Y-108402876D01*
X89329973Y-108402876D01*
X89358544Y-108412400D01*
X89368068Y-108421923D01*
X89444259Y-108421923D02*
X89453782Y-108412400D01*
X89472830Y-108402876D01*
X89520449Y-108402876D01*
X89539497Y-108412400D01*
X89549020Y-108421923D01*
X89558544Y-108440971D01*
X89558544Y-108460019D01*
X89549020Y-108488590D01*
X89434735Y-108602876D01*
X89558544Y-108602876D01*
X89653782Y-108602876D02*
X89691878Y-108602876D01*
X89710925Y-108593352D01*
X89720449Y-108583828D01*
X89739497Y-108555257D01*
X89749020Y-108517161D01*
X89749020Y-108440971D01*
X89739497Y-108421923D01*
X89729973Y-108412400D01*
X89710925Y-108402876D01*
X89672830Y-108402876D01*
X89653782Y-108412400D01*
X89644259Y-108421923D01*
X89634735Y-108440971D01*
X89634735Y-108488590D01*
X89644259Y-108507638D01*
X89653782Y-108517161D01*
X89672830Y-108526685D01*
X89710925Y-108526685D01*
X89729973Y-108517161D01*
X89739497Y-108507638D01*
X89749020Y-108488590D01*
X98039628Y-113701928D02*
X98030104Y-113711452D01*
X98001533Y-113720976D01*
X97982485Y-113720976D01*
X97953914Y-113711452D01*
X97934866Y-113692404D01*
X97925342Y-113673357D01*
X97915819Y-113635261D01*
X97915819Y-113606690D01*
X97925342Y-113568595D01*
X97934866Y-113549547D01*
X97953914Y-113530500D01*
X97982485Y-113520976D01*
X98001533Y-113520976D01*
X98030104Y-113530500D01*
X98039628Y-113540023D01*
X98230104Y-113720976D02*
X98115819Y-113720976D01*
X98172961Y-113720976D02*
X98172961Y-113520976D01*
X98153914Y-113549547D01*
X98134866Y-113568595D01*
X98115819Y-113578119D01*
X98411057Y-113520976D02*
X98315819Y-113520976D01*
X98306295Y-113616214D01*
X98315819Y-113606690D01*
X98334866Y-113597166D01*
X98382485Y-113597166D01*
X98401533Y-113606690D01*
X98411057Y-113616214D01*
X98420580Y-113635261D01*
X98420580Y-113682880D01*
X98411057Y-113701928D01*
X98401533Y-113711452D01*
X98382485Y-113720976D01*
X98334866Y-113720976D01*
X98315819Y-113711452D01*
X98306295Y-113701928D01*
X97386848Y-112724028D02*
X97377324Y-112733552D01*
X97348753Y-112743076D01*
X97329705Y-112743076D01*
X97301134Y-112733552D01*
X97282086Y-112714504D01*
X97272562Y-112695457D01*
X97263039Y-112657361D01*
X97263039Y-112628790D01*
X97272562Y-112590695D01*
X97282086Y-112571647D01*
X97301134Y-112552600D01*
X97329705Y-112543076D01*
X97348753Y-112543076D01*
X97377324Y-112552600D01*
X97386848Y-112562123D01*
X97577324Y-112743076D02*
X97463039Y-112743076D01*
X97520181Y-112743076D02*
X97520181Y-112543076D01*
X97501134Y-112571647D01*
X97482086Y-112590695D01*
X97463039Y-112600219D01*
X97672562Y-112743076D02*
X97710658Y-112743076D01*
X97729705Y-112733552D01*
X97739229Y-112724028D01*
X97758277Y-112695457D01*
X97767800Y-112657361D01*
X97767800Y-112581171D01*
X97758277Y-112562123D01*
X97748753Y-112552600D01*
X97729705Y-112543076D01*
X97691610Y-112543076D01*
X97672562Y-112552600D01*
X97663039Y-112562123D01*
X97653515Y-112581171D01*
X97653515Y-112628790D01*
X97663039Y-112647838D01*
X97672562Y-112657361D01*
X97691610Y-112666885D01*
X97729705Y-112666885D01*
X97748753Y-112657361D01*
X97758277Y-112647838D01*
X97767800Y-112628790D01*
X96674516Y-112741808D02*
X96664992Y-112751332D01*
X96636421Y-112760856D01*
X96617373Y-112760856D01*
X96588802Y-112751332D01*
X96569754Y-112732284D01*
X96560230Y-112713237D01*
X96550707Y-112675141D01*
X96550707Y-112646570D01*
X96560230Y-112608475D01*
X96569754Y-112589427D01*
X96588802Y-112570380D01*
X96617373Y-112560856D01*
X96636421Y-112560856D01*
X96664992Y-112570380D01*
X96674516Y-112579903D01*
X96750707Y-112579903D02*
X96760230Y-112570380D01*
X96779278Y-112560856D01*
X96826897Y-112560856D01*
X96845945Y-112570380D01*
X96855468Y-112579903D01*
X96864992Y-112598951D01*
X96864992Y-112617999D01*
X96855468Y-112646570D01*
X96741183Y-112760856D01*
X96864992Y-112760856D01*
X96931659Y-112560856D02*
X97064992Y-112560856D01*
X96979278Y-112760856D01*
X96876308Y-109353448D02*
X96866784Y-109362972D01*
X96838213Y-109372496D01*
X96819165Y-109372496D01*
X96790594Y-109362972D01*
X96771546Y-109343924D01*
X96762022Y-109324877D01*
X96752499Y-109286781D01*
X96752499Y-109258210D01*
X96762022Y-109220115D01*
X96771546Y-109201067D01*
X96790594Y-109182020D01*
X96819165Y-109172496D01*
X96838213Y-109172496D01*
X96866784Y-109182020D01*
X96876308Y-109191543D01*
X96952499Y-109191543D02*
X96962022Y-109182020D01*
X96981070Y-109172496D01*
X97028689Y-109172496D01*
X97047737Y-109182020D01*
X97057260Y-109191543D01*
X97066784Y-109210591D01*
X97066784Y-109229639D01*
X97057260Y-109258210D01*
X96942975Y-109372496D01*
X97066784Y-109372496D01*
X97190594Y-109172496D02*
X97209641Y-109172496D01*
X97228689Y-109182020D01*
X97238213Y-109191543D01*
X97247737Y-109210591D01*
X97257260Y-109248686D01*
X97257260Y-109296305D01*
X97247737Y-109334400D01*
X97238213Y-109353448D01*
X97228689Y-109362972D01*
X97209641Y-109372496D01*
X97190594Y-109372496D01*
X97171546Y-109362972D01*
X97162022Y-109353448D01*
X97152499Y-109334400D01*
X97142975Y-109296305D01*
X97142975Y-109248686D01*
X97152499Y-109210591D01*
X97162022Y-109191543D01*
X97171546Y-109182020D01*
X97190594Y-109172496D01*
X96121928Y-109353448D02*
X96112404Y-109362972D01*
X96083833Y-109372496D01*
X96064785Y-109372496D01*
X96036214Y-109362972D01*
X96017166Y-109343924D01*
X96007642Y-109324877D01*
X95998119Y-109286781D01*
X95998119Y-109258210D01*
X96007642Y-109220115D01*
X96017166Y-109201067D01*
X96036214Y-109182020D01*
X96064785Y-109172496D01*
X96083833Y-109172496D01*
X96112404Y-109182020D01*
X96121928Y-109191543D01*
X96198119Y-109191543D02*
X96207642Y-109182020D01*
X96226690Y-109172496D01*
X96274309Y-109172496D01*
X96293357Y-109182020D01*
X96302880Y-109191543D01*
X96312404Y-109210591D01*
X96312404Y-109229639D01*
X96302880Y-109258210D01*
X96188595Y-109372496D01*
X96312404Y-109372496D01*
X96426690Y-109258210D02*
X96407642Y-109248686D01*
X96398119Y-109239162D01*
X96388595Y-109220115D01*
X96388595Y-109210591D01*
X96398119Y-109191543D01*
X96407642Y-109182020D01*
X96426690Y-109172496D01*
X96464785Y-109172496D01*
X96483833Y-109182020D01*
X96493357Y-109191543D01*
X96502880Y-109210591D01*
X96502880Y-109220115D01*
X96493357Y-109239162D01*
X96483833Y-109248686D01*
X96464785Y-109258210D01*
X96426690Y-109258210D01*
X96407642Y-109267734D01*
X96398119Y-109277258D01*
X96388595Y-109296305D01*
X96388595Y-109334400D01*
X96398119Y-109353448D01*
X96407642Y-109362972D01*
X96426690Y-109372496D01*
X96464785Y-109372496D01*
X96483833Y-109362972D01*
X96493357Y-109353448D01*
X96502880Y-109334400D01*
X96502880Y-109296305D01*
X96493357Y-109277258D01*
X96483833Y-109267734D01*
X96464785Y-109258210D01*
X89368068Y-110815728D02*
X89358544Y-110825252D01*
X89329973Y-110834776D01*
X89310925Y-110834776D01*
X89282354Y-110825252D01*
X89263306Y-110806204D01*
X89253782Y-110787157D01*
X89244259Y-110749061D01*
X89244259Y-110720490D01*
X89253782Y-110682395D01*
X89263306Y-110663347D01*
X89282354Y-110644300D01*
X89310925Y-110634776D01*
X89329973Y-110634776D01*
X89358544Y-110644300D01*
X89368068Y-110653823D01*
X89444259Y-110653823D02*
X89453782Y-110644300D01*
X89472830Y-110634776D01*
X89520449Y-110634776D01*
X89539497Y-110644300D01*
X89549020Y-110653823D01*
X89558544Y-110672871D01*
X89558544Y-110691919D01*
X89549020Y-110720490D01*
X89434735Y-110834776D01*
X89558544Y-110834776D01*
X89634735Y-110653823D02*
X89644259Y-110644300D01*
X89663306Y-110634776D01*
X89710925Y-110634776D01*
X89729973Y-110644300D01*
X89739497Y-110653823D01*
X89749020Y-110672871D01*
X89749020Y-110691919D01*
X89739497Y-110720490D01*
X89625211Y-110834776D01*
X89749020Y-110834776D01*
X89368068Y-110303408D02*
X89358544Y-110312932D01*
X89329973Y-110322456D01*
X89310925Y-110322456D01*
X89282354Y-110312932D01*
X89263306Y-110293884D01*
X89253782Y-110274837D01*
X89244259Y-110236741D01*
X89244259Y-110208170D01*
X89253782Y-110170075D01*
X89263306Y-110151027D01*
X89282354Y-110131980D01*
X89310925Y-110122456D01*
X89329973Y-110122456D01*
X89358544Y-110131980D01*
X89368068Y-110141503D01*
X89434735Y-110122456D02*
X89558544Y-110122456D01*
X89491878Y-110198646D01*
X89520449Y-110198646D01*
X89539497Y-110208170D01*
X89549020Y-110217694D01*
X89558544Y-110236741D01*
X89558544Y-110284360D01*
X89549020Y-110303408D01*
X89539497Y-110312932D01*
X89520449Y-110322456D01*
X89463306Y-110322456D01*
X89444259Y-110312932D01*
X89434735Y-110303408D01*
X89682354Y-110122456D02*
X89701401Y-110122456D01*
X89720449Y-110131980D01*
X89729973Y-110141503D01*
X89739497Y-110160551D01*
X89749020Y-110198646D01*
X89749020Y-110246265D01*
X89739497Y-110284360D01*
X89729973Y-110303408D01*
X89720449Y-110312932D01*
X89701401Y-110322456D01*
X89682354Y-110322456D01*
X89663306Y-110312932D01*
X89653782Y-110303408D01*
X89644259Y-110284360D01*
X89634735Y-110246265D01*
X89634735Y-110198646D01*
X89644259Y-110160551D01*
X89653782Y-110141503D01*
X89663306Y-110131980D01*
X89682354Y-110122456D01*
X98856226Y-113720976D02*
X98760988Y-113720976D01*
X98760988Y-113520976D01*
X99008607Y-113587642D02*
X99008607Y-113720976D01*
X98960988Y-113511452D02*
X98913369Y-113654309D01*
X99037179Y-113654309D01*
X98485386Y-109014356D02*
X98390148Y-109014356D01*
X98390148Y-108814356D01*
X98647291Y-108814356D02*
X98552053Y-108814356D01*
X98542529Y-108909594D01*
X98552053Y-108900070D01*
X98571100Y-108890546D01*
X98618720Y-108890546D01*
X98637767Y-108900070D01*
X98647291Y-108909594D01*
X98656815Y-108928641D01*
X98656815Y-108976260D01*
X98647291Y-108995308D01*
X98637767Y-109004832D01*
X98618720Y-109014356D01*
X98571100Y-109014356D01*
X98552053Y-109004832D01*
X98542529Y-108995308D01*
X113322119Y-115917236D02*
X113322119Y-116079140D01*
X113331642Y-116098188D01*
X113341166Y-116107712D01*
X113360214Y-116117236D01*
X113398309Y-116117236D01*
X113417357Y-116107712D01*
X113426880Y-116098188D01*
X113436404Y-116079140D01*
X113436404Y-115917236D01*
X113636404Y-116117236D02*
X113522119Y-116117236D01*
X113579261Y-116117236D02*
X113579261Y-115917236D01*
X113560214Y-115945807D01*
X113541166Y-115964855D01*
X113522119Y-115974379D01*
X115902166Y-115274188D02*
X115892642Y-115283712D01*
X115864071Y-115293236D01*
X115845023Y-115293236D01*
X115816452Y-115283712D01*
X115797404Y-115264664D01*
X115787880Y-115245617D01*
X115778357Y-115207521D01*
X115778357Y-115178950D01*
X115787880Y-115140855D01*
X115797404Y-115121807D01*
X115816452Y-115102760D01*
X115845023Y-115093236D01*
X115864071Y-115093236D01*
X115892642Y-115102760D01*
X115902166Y-115112283D01*
X116092642Y-115293236D02*
X115978357Y-115293236D01*
X116035500Y-115293236D02*
X116035500Y-115093236D01*
X116016452Y-115121807D01*
X115997404Y-115140855D01*
X115978357Y-115150379D01*
X115206206Y-114921128D02*
X115196682Y-114930652D01*
X115168111Y-114940176D01*
X115149063Y-114940176D01*
X115120492Y-114930652D01*
X115101444Y-114911604D01*
X115091920Y-114892557D01*
X115082397Y-114854461D01*
X115082397Y-114825890D01*
X115091920Y-114787795D01*
X115101444Y-114768747D01*
X115120492Y-114749700D01*
X115149063Y-114740176D01*
X115168111Y-114740176D01*
X115196682Y-114749700D01*
X115206206Y-114759223D01*
X115282397Y-114759223D02*
X115291920Y-114749700D01*
X115310968Y-114740176D01*
X115358587Y-114740176D01*
X115377635Y-114749700D01*
X115387159Y-114759223D01*
X115396682Y-114778271D01*
X115396682Y-114797319D01*
X115387159Y-114825890D01*
X115272873Y-114940176D01*
X115396682Y-114940176D01*
X110997426Y-112457328D02*
X110987902Y-112466852D01*
X110959331Y-112476376D01*
X110940283Y-112476376D01*
X110911712Y-112466852D01*
X110892664Y-112447804D01*
X110883140Y-112428757D01*
X110873617Y-112390661D01*
X110873617Y-112362090D01*
X110883140Y-112323995D01*
X110892664Y-112304947D01*
X110911712Y-112285900D01*
X110940283Y-112276376D01*
X110959331Y-112276376D01*
X110987902Y-112285900D01*
X110997426Y-112295423D01*
X111168855Y-112276376D02*
X111130760Y-112276376D01*
X111111712Y-112285900D01*
X111102188Y-112295423D01*
X111083140Y-112323995D01*
X111073617Y-112362090D01*
X111073617Y-112438280D01*
X111083140Y-112457328D01*
X111092664Y-112466852D01*
X111111712Y-112476376D01*
X111149807Y-112476376D01*
X111168855Y-112466852D01*
X111178379Y-112457328D01*
X111187902Y-112438280D01*
X111187902Y-112390661D01*
X111178379Y-112371614D01*
X111168855Y-112362090D01*
X111149807Y-112352566D01*
X111111712Y-112352566D01*
X111092664Y-112362090D01*
X111083140Y-112371614D01*
X111073617Y-112390661D01*
X96575306Y-109970668D02*
X96565782Y-109980192D01*
X96537211Y-109989716D01*
X96518163Y-109989716D01*
X96489592Y-109980192D01*
X96470544Y-109961144D01*
X96461020Y-109942097D01*
X96451497Y-109904001D01*
X96451497Y-109875430D01*
X96461020Y-109837335D01*
X96470544Y-109818287D01*
X96489592Y-109799240D01*
X96518163Y-109789716D01*
X96537211Y-109789716D01*
X96565782Y-109799240D01*
X96575306Y-109808763D01*
X96641973Y-109789716D02*
X96775306Y-109789716D01*
X96689592Y-109989716D01*
X96560066Y-110514228D02*
X96550542Y-110523752D01*
X96521971Y-110533276D01*
X96502923Y-110533276D01*
X96474352Y-110523752D01*
X96455304Y-110504704D01*
X96445780Y-110485657D01*
X96436257Y-110447561D01*
X96436257Y-110418990D01*
X96445780Y-110380895D01*
X96455304Y-110361847D01*
X96474352Y-110342800D01*
X96502923Y-110333276D01*
X96521971Y-110333276D01*
X96550542Y-110342800D01*
X96560066Y-110352323D01*
X96674352Y-110418990D02*
X96655304Y-110409466D01*
X96645780Y-110399942D01*
X96636257Y-110380895D01*
X96636257Y-110371371D01*
X96645780Y-110352323D01*
X96655304Y-110342800D01*
X96674352Y-110333276D01*
X96712447Y-110333276D01*
X96731495Y-110342800D01*
X96741019Y-110352323D01*
X96750542Y-110371371D01*
X96750542Y-110380895D01*
X96741019Y-110399942D01*
X96731495Y-110409466D01*
X96712447Y-110418990D01*
X96674352Y-110418990D01*
X96655304Y-110428514D01*
X96645780Y-110438038D01*
X96636257Y-110457085D01*
X96636257Y-110495180D01*
X96645780Y-110514228D01*
X96655304Y-110523752D01*
X96674352Y-110533276D01*
X96712447Y-110533276D01*
X96731495Y-110523752D01*
X96741019Y-110514228D01*
X96750542Y-110495180D01*
X96750542Y-110457085D01*
X96741019Y-110438038D01*
X96731495Y-110428514D01*
X96712447Y-110418990D01*
X97386848Y-113790827D02*
X97377324Y-113800351D01*
X97348753Y-113809875D01*
X97329705Y-113809875D01*
X97301134Y-113800351D01*
X97282086Y-113781303D01*
X97272562Y-113762256D01*
X97263039Y-113724160D01*
X97263039Y-113695589D01*
X97272562Y-113657494D01*
X97282086Y-113638446D01*
X97301134Y-113619399D01*
X97329705Y-113609875D01*
X97348753Y-113609875D01*
X97377324Y-113619399D01*
X97386848Y-113628922D01*
X97577324Y-113809875D02*
X97463039Y-113809875D01*
X97520181Y-113809875D02*
X97520181Y-113609875D01*
X97501134Y-113638446D01*
X97482086Y-113657494D01*
X97463039Y-113667018D01*
X97701134Y-113609875D02*
X97720181Y-113609875D01*
X97739229Y-113619399D01*
X97748753Y-113628922D01*
X97758277Y-113647970D01*
X97767800Y-113686065D01*
X97767800Y-113733684D01*
X97758277Y-113771779D01*
X97748753Y-113790827D01*
X97739229Y-113800351D01*
X97720181Y-113809875D01*
X97701134Y-113809875D01*
X97682086Y-113800351D01*
X97672562Y-113790827D01*
X97663039Y-113771779D01*
X97653515Y-113733684D01*
X97653515Y-113686065D01*
X97663039Y-113647970D01*
X97672562Y-113628922D01*
X97682086Y-113619399D01*
X97701134Y-113609875D01*
X121199348Y-108167268D02*
X121189824Y-108176792D01*
X121161253Y-108186316D01*
X121142205Y-108186316D01*
X121113634Y-108176792D01*
X121094586Y-108157744D01*
X121085062Y-108138697D01*
X121075539Y-108100601D01*
X121075539Y-108072030D01*
X121085062Y-108033935D01*
X121094586Y-108014887D01*
X121113634Y-107995840D01*
X121142205Y-107986316D01*
X121161253Y-107986316D01*
X121189824Y-107995840D01*
X121199348Y-108005363D01*
X121266015Y-107986316D02*
X121389824Y-107986316D01*
X121323158Y-108062506D01*
X121351729Y-108062506D01*
X121370777Y-108072030D01*
X121380300Y-108081554D01*
X121389824Y-108100601D01*
X121389824Y-108148220D01*
X121380300Y-108167268D01*
X121370777Y-108176792D01*
X121351729Y-108186316D01*
X121294586Y-108186316D01*
X121275539Y-108176792D01*
X121266015Y-108167268D01*
X121561253Y-108052982D02*
X121561253Y-108186316D01*
X121513634Y-107976792D02*
X121466015Y-108119649D01*
X121589824Y-108119649D01*
X89276628Y-113214248D02*
X89267104Y-113223772D01*
X89238533Y-113233296D01*
X89219485Y-113233296D01*
X89190914Y-113223772D01*
X89171866Y-113204724D01*
X89162342Y-113185677D01*
X89152819Y-113147581D01*
X89152819Y-113119010D01*
X89162342Y-113080915D01*
X89171866Y-113061867D01*
X89190914Y-113042820D01*
X89219485Y-113033296D01*
X89238533Y-113033296D01*
X89267104Y-113042820D01*
X89276628Y-113052343D01*
X89343295Y-113033296D02*
X89467104Y-113033296D01*
X89400438Y-113109486D01*
X89429009Y-113109486D01*
X89448057Y-113119010D01*
X89457580Y-113128534D01*
X89467104Y-113147581D01*
X89467104Y-113195200D01*
X89457580Y-113214248D01*
X89448057Y-113223772D01*
X89429009Y-113233296D01*
X89371866Y-113233296D01*
X89352819Y-113223772D01*
X89343295Y-113214248D01*
X89581390Y-113119010D02*
X89562342Y-113109486D01*
X89552819Y-113099962D01*
X89543295Y-113080915D01*
X89543295Y-113071391D01*
X89552819Y-113052343D01*
X89562342Y-113042820D01*
X89581390Y-113033296D01*
X89619485Y-113033296D01*
X89638533Y-113042820D01*
X89648057Y-113052343D01*
X89657580Y-113071391D01*
X89657580Y-113080915D01*
X89648057Y-113099962D01*
X89638533Y-113109486D01*
X89619485Y-113119010D01*
X89581390Y-113119010D01*
X89562342Y-113128534D01*
X89552819Y-113138058D01*
X89543295Y-113157105D01*
X89543295Y-113195200D01*
X89552819Y-113214248D01*
X89562342Y-113223772D01*
X89581390Y-113233296D01*
X89619485Y-113233296D01*
X89638533Y-113223772D01*
X89648057Y-113214248D01*
X89657580Y-113195200D01*
X89657580Y-113157105D01*
X89648057Y-113138058D01*
X89638533Y-113128534D01*
X89619485Y-113119010D01*
X97546868Y-107341768D02*
X97537344Y-107351292D01*
X97508773Y-107360816D01*
X97489725Y-107360816D01*
X97461154Y-107351292D01*
X97442106Y-107332244D01*
X97432582Y-107313197D01*
X97423059Y-107275101D01*
X97423059Y-107246530D01*
X97432582Y-107208435D01*
X97442106Y-107189387D01*
X97461154Y-107170340D01*
X97489725Y-107160816D01*
X97508773Y-107160816D01*
X97537344Y-107170340D01*
X97546868Y-107179863D01*
X97718297Y-107227482D02*
X97718297Y-107360816D01*
X97670678Y-107151292D02*
X97623059Y-107294149D01*
X97746868Y-107294149D01*
X97908773Y-107227482D02*
X97908773Y-107360816D01*
X97861154Y-107151292D02*
X97813535Y-107294149D01*
X97937344Y-107294149D01*
X116693388Y-115274188D02*
X116683864Y-115283712D01*
X116655293Y-115293236D01*
X116636245Y-115293236D01*
X116607674Y-115283712D01*
X116588626Y-115264664D01*
X116579102Y-115245617D01*
X116569579Y-115207521D01*
X116569579Y-115178950D01*
X116579102Y-115140855D01*
X116588626Y-115121807D01*
X116607674Y-115102760D01*
X116636245Y-115093236D01*
X116655293Y-115093236D01*
X116683864Y-115102760D01*
X116693388Y-115112283D01*
X116864817Y-115159902D02*
X116864817Y-115293236D01*
X116817198Y-115083712D02*
X116769579Y-115226569D01*
X116893388Y-115226569D01*
X117064817Y-115093236D02*
X116969579Y-115093236D01*
X116960055Y-115188474D01*
X116969579Y-115178950D01*
X116988626Y-115169426D01*
X117036245Y-115169426D01*
X117055293Y-115178950D01*
X117064817Y-115188474D01*
X117074340Y-115207521D01*
X117074340Y-115255140D01*
X117064817Y-115274188D01*
X117055293Y-115283712D01*
X117036245Y-115293236D01*
X116988626Y-115293236D01*
X116969579Y-115283712D01*
X116960055Y-115274188D01*
X121199348Y-114057528D02*
X121189824Y-114067052D01*
X121161253Y-114076576D01*
X121142205Y-114076576D01*
X121113634Y-114067052D01*
X121094586Y-114048004D01*
X121085062Y-114028957D01*
X121075539Y-113990861D01*
X121075539Y-113962290D01*
X121085062Y-113924195D01*
X121094586Y-113905147D01*
X121113634Y-113886100D01*
X121142205Y-113876576D01*
X121161253Y-113876576D01*
X121189824Y-113886100D01*
X121199348Y-113895623D01*
X121370777Y-113943242D02*
X121370777Y-114076576D01*
X121323158Y-113867052D02*
X121275539Y-114009909D01*
X121399348Y-114009909D01*
X121456491Y-113876576D02*
X121589824Y-113876576D01*
X121504110Y-114076576D01*
X117663668Y-107524648D02*
X117654144Y-107534172D01*
X117625573Y-107543696D01*
X117606525Y-107543696D01*
X117577954Y-107534172D01*
X117558906Y-107515124D01*
X117549382Y-107496077D01*
X117539859Y-107457981D01*
X117539859Y-107429410D01*
X117549382Y-107391315D01*
X117558906Y-107372267D01*
X117577954Y-107353220D01*
X117606525Y-107343696D01*
X117625573Y-107343696D01*
X117654144Y-107353220D01*
X117663668Y-107362743D01*
X117835097Y-107410362D02*
X117835097Y-107543696D01*
X117787478Y-107334172D02*
X117739859Y-107477029D01*
X117863668Y-107477029D01*
X117968430Y-107429410D02*
X117949382Y-107419886D01*
X117939859Y-107410362D01*
X117930335Y-107391315D01*
X117930335Y-107381791D01*
X117939859Y-107362743D01*
X117949382Y-107353220D01*
X117968430Y-107343696D01*
X118006525Y-107343696D01*
X118025573Y-107353220D01*
X118035097Y-107362743D01*
X118044620Y-107381791D01*
X118044620Y-107391315D01*
X118035097Y-107410362D01*
X118025573Y-107419886D01*
X118006525Y-107429410D01*
X117968430Y-107429410D01*
X117949382Y-107438934D01*
X117939859Y-107448458D01*
X117930335Y-107467505D01*
X117930335Y-107505600D01*
X117939859Y-107524648D01*
X117949382Y-107534172D01*
X117968430Y-107543696D01*
X118006525Y-107543696D01*
X118025573Y-107534172D01*
X118035097Y-107524648D01*
X118044620Y-107505600D01*
X118044620Y-107467505D01*
X118035097Y-107448458D01*
X118025573Y-107438934D01*
X118006525Y-107429410D01*
X116617188Y-108365388D02*
X116607664Y-108374912D01*
X116579093Y-108384436D01*
X116560045Y-108384436D01*
X116531474Y-108374912D01*
X116512426Y-108355864D01*
X116502902Y-108336817D01*
X116493379Y-108298721D01*
X116493379Y-108270150D01*
X116502902Y-108232055D01*
X116512426Y-108213007D01*
X116531474Y-108193960D01*
X116560045Y-108184436D01*
X116579093Y-108184436D01*
X116607664Y-108193960D01*
X116617188Y-108203483D01*
X116798140Y-108184436D02*
X116702902Y-108184436D01*
X116693379Y-108279674D01*
X116702902Y-108270150D01*
X116721950Y-108260626D01*
X116769569Y-108260626D01*
X116788617Y-108270150D01*
X116798140Y-108279674D01*
X116807664Y-108298721D01*
X116807664Y-108346340D01*
X116798140Y-108365388D01*
X116788617Y-108374912D01*
X116769569Y-108384436D01*
X116721950Y-108384436D01*
X116702902Y-108374912D01*
X116693379Y-108365388D01*
X116998140Y-108384436D02*
X116883855Y-108384436D01*
X116940998Y-108384436D02*
X116940998Y-108184436D01*
X116921950Y-108213007D01*
X116902902Y-108232055D01*
X116883855Y-108241579D01*
X121283168Y-112630048D02*
X121273644Y-112639572D01*
X121245073Y-112649096D01*
X121226025Y-112649096D01*
X121197454Y-112639572D01*
X121178406Y-112620524D01*
X121168882Y-112601477D01*
X121159359Y-112563381D01*
X121159359Y-112534810D01*
X121168882Y-112496715D01*
X121178406Y-112477667D01*
X121197454Y-112458620D01*
X121226025Y-112449096D01*
X121245073Y-112449096D01*
X121273644Y-112458620D01*
X121283168Y-112468143D01*
X121464120Y-112449096D02*
X121368882Y-112449096D01*
X121359359Y-112544334D01*
X121368882Y-112534810D01*
X121387930Y-112525286D01*
X121435549Y-112525286D01*
X121454597Y-112534810D01*
X121464120Y-112544334D01*
X121473644Y-112563381D01*
X121473644Y-112611000D01*
X121464120Y-112630048D01*
X121454597Y-112639572D01*
X121435549Y-112649096D01*
X121387930Y-112649096D01*
X121368882Y-112639572D01*
X121359359Y-112630048D01*
X121549835Y-112468143D02*
X121559359Y-112458620D01*
X121578406Y-112449096D01*
X121626025Y-112449096D01*
X121645073Y-112458620D01*
X121654597Y-112468143D01*
X121664120Y-112487191D01*
X121664120Y-112506239D01*
X121654597Y-112534810D01*
X121540311Y-112649096D01*
X121664120Y-112649096D01*
X108183163Y-108842296D02*
X108183163Y-108985153D01*
X108173640Y-109013724D01*
X108154592Y-109032772D01*
X108126020Y-109042296D01*
X108106973Y-109042296D01*
X108230782Y-109061343D02*
X108383163Y-109061343D01*
X108516497Y-109032772D02*
X108497449Y-109042296D01*
X108459354Y-109042296D01*
X108440306Y-109032772D01*
X108430782Y-109023248D01*
X108421259Y-109004200D01*
X108421259Y-108947058D01*
X108430782Y-108928010D01*
X108440306Y-108918486D01*
X108459354Y-108908962D01*
X108497449Y-108908962D01*
X108516497Y-108918486D01*
X108630782Y-109042296D02*
X108611735Y-109032772D01*
X108602211Y-109023248D01*
X108592687Y-109004200D01*
X108592687Y-108947058D01*
X108602211Y-108928010D01*
X108611735Y-108918486D01*
X108630782Y-108908962D01*
X108659354Y-108908962D01*
X108678401Y-108918486D01*
X108687925Y-108928010D01*
X108697449Y-108947058D01*
X108697449Y-109004200D01*
X108687925Y-109023248D01*
X108678401Y-109032772D01*
X108659354Y-109042296D01*
X108630782Y-109042296D01*
X108868878Y-109042296D02*
X108868878Y-108937534D01*
X108859354Y-108918486D01*
X108840306Y-108908962D01*
X108802211Y-108908962D01*
X108783163Y-108918486D01*
X108868878Y-109032772D02*
X108849830Y-109042296D01*
X108802211Y-109042296D01*
X108783163Y-109032772D01*
X108773640Y-109013724D01*
X108773640Y-108994677D01*
X108783163Y-108975629D01*
X108802211Y-108966105D01*
X108849830Y-108966105D01*
X108868878Y-108956581D01*
X108945068Y-109042296D02*
X109049830Y-108908962D01*
X108945068Y-108908962D02*
X109049830Y-109042296D01*
X109230782Y-109042296D02*
X109116497Y-109042296D01*
X109173640Y-109042296D02*
X109173640Y-108842296D01*
X109154592Y-108870867D01*
X109135544Y-108889915D01*
X109116497Y-108899439D01*
X104952644Y-110846356D02*
X104952644Y-110989213D01*
X104943120Y-111017784D01*
X104924073Y-111036832D01*
X104895501Y-111046356D01*
X104876454Y-111046356D01*
X105000263Y-111065403D02*
X105152644Y-111065403D01*
X105285978Y-111036832D02*
X105266930Y-111046356D01*
X105228835Y-111046356D01*
X105209787Y-111036832D01*
X105200263Y-111027308D01*
X105190740Y-111008260D01*
X105190740Y-110951118D01*
X105200263Y-110932070D01*
X105209787Y-110922546D01*
X105228835Y-110913022D01*
X105266930Y-110913022D01*
X105285978Y-110922546D01*
X105400263Y-111046356D02*
X105381216Y-111036832D01*
X105371692Y-111027308D01*
X105362168Y-111008260D01*
X105362168Y-110951118D01*
X105371692Y-110932070D01*
X105381216Y-110922546D01*
X105400263Y-110913022D01*
X105428835Y-110913022D01*
X105447882Y-110922546D01*
X105457406Y-110932070D01*
X105466930Y-110951118D01*
X105466930Y-111008260D01*
X105457406Y-111027308D01*
X105447882Y-111036832D01*
X105428835Y-111046356D01*
X105400263Y-111046356D01*
X105638359Y-111046356D02*
X105638359Y-110941594D01*
X105628835Y-110922546D01*
X105609787Y-110913022D01*
X105571692Y-110913022D01*
X105552644Y-110922546D01*
X105638359Y-111036832D02*
X105619311Y-111046356D01*
X105571692Y-111046356D01*
X105552644Y-111036832D01*
X105543120Y-111017784D01*
X105543120Y-110998737D01*
X105552644Y-110979689D01*
X105571692Y-110970165D01*
X105619311Y-110970165D01*
X105638359Y-110960641D01*
X105714549Y-111046356D02*
X105819311Y-110913022D01*
X105714549Y-110913022D02*
X105819311Y-111046356D01*
X105847882Y-111065403D02*
X106000263Y-111065403D01*
X106133597Y-110913022D02*
X106133597Y-111074927D01*
X106124073Y-111093975D01*
X106114549Y-111103499D01*
X106095501Y-111113022D01*
X106066930Y-111113022D01*
X106047882Y-111103499D01*
X106133597Y-111036832D02*
X106114549Y-111046356D01*
X106076454Y-111046356D01*
X106057406Y-111036832D01*
X106047882Y-111027308D01*
X106038359Y-111008260D01*
X106038359Y-110951118D01*
X106047882Y-110932070D01*
X106057406Y-110922546D01*
X106076454Y-110913022D01*
X106114549Y-110913022D01*
X106133597Y-110922546D01*
X106228835Y-110913022D02*
X106228835Y-111046356D01*
X106228835Y-110932070D02*
X106238359Y-110922546D01*
X106257406Y-110913022D01*
X106285978Y-110913022D01*
X106305025Y-110922546D01*
X106314549Y-110941594D01*
X106314549Y-111046356D01*
X106495501Y-111046356D02*
X106495501Y-110846356D01*
X106495501Y-111036832D02*
X106476454Y-111046356D01*
X106438359Y-111046356D01*
X106419311Y-111036832D01*
X106409787Y-111027308D01*
X106400263Y-111008260D01*
X106400263Y-110951118D01*
X106409787Y-110932070D01*
X106419311Y-110922546D01*
X106438359Y-110913022D01*
X106476454Y-110913022D01*
X106495501Y-110922546D01*
X106695501Y-111046356D02*
X106581216Y-111046356D01*
X106638359Y-111046356D02*
X106638359Y-110846356D01*
X106619311Y-110874927D01*
X106600263Y-110893975D01*
X106581216Y-110903499D01*
X111030446Y-114947796D02*
X110935208Y-114947796D01*
X110935208Y-114747796D01*
X111201875Y-114947796D02*
X111087589Y-114947796D01*
X111144732Y-114947796D02*
X111144732Y-114747796D01*
X111125684Y-114776367D01*
X111106637Y-114795415D01*
X111087589Y-114804939D01*
X114533106Y-108054236D02*
X114466440Y-107958998D01*
X114418820Y-108054236D02*
X114418820Y-107854236D01*
X114495011Y-107854236D01*
X114514059Y-107863760D01*
X114523582Y-107873283D01*
X114533106Y-107892331D01*
X114533106Y-107920902D01*
X114523582Y-107939950D01*
X114514059Y-107949474D01*
X114495011Y-107958998D01*
X114418820Y-107958998D01*
X114723582Y-108054236D02*
X114609297Y-108054236D01*
X114666440Y-108054236D02*
X114666440Y-107854236D01*
X114647392Y-107882807D01*
X114628344Y-107901855D01*
X114609297Y-107911379D01*
X115096986Y-108054236D02*
X115030320Y-107958998D01*
X114982700Y-108054236D02*
X114982700Y-107854236D01*
X115058891Y-107854236D01*
X115077939Y-107863760D01*
X115087462Y-107873283D01*
X115096986Y-107892331D01*
X115096986Y-107920902D01*
X115087462Y-107939950D01*
X115077939Y-107949474D01*
X115058891Y-107958998D01*
X114982700Y-107958998D01*
X115173177Y-107873283D02*
X115182700Y-107863760D01*
X115201748Y-107854236D01*
X115249367Y-107854236D01*
X115268415Y-107863760D01*
X115277939Y-107873283D01*
X115287462Y-107892331D01*
X115287462Y-107911379D01*
X115277939Y-107939950D01*
X115163653Y-108054236D01*
X115287462Y-108054236D01*
X97631946Y-110497716D02*
X97565280Y-110402478D01*
X97517660Y-110497716D02*
X97517660Y-110297716D01*
X97593851Y-110297716D01*
X97612899Y-110307240D01*
X97622422Y-110316763D01*
X97631946Y-110335811D01*
X97631946Y-110364382D01*
X97622422Y-110383430D01*
X97612899Y-110392954D01*
X97593851Y-110402478D01*
X97517660Y-110402478D01*
X97698613Y-110297716D02*
X97822422Y-110297716D01*
X97755756Y-110373906D01*
X97784327Y-110373906D01*
X97803375Y-110383430D01*
X97812899Y-110392954D01*
X97822422Y-110412001D01*
X97822422Y-110459620D01*
X97812899Y-110478668D01*
X97803375Y-110488192D01*
X97784327Y-110497716D01*
X97727184Y-110497716D01*
X97708137Y-110488192D01*
X97698613Y-110478668D01*
X95975066Y-113581276D02*
X95908400Y-113486038D01*
X95860780Y-113581276D02*
X95860780Y-113381276D01*
X95936971Y-113381276D01*
X95956019Y-113390800D01*
X95965542Y-113400323D01*
X95975066Y-113419371D01*
X95975066Y-113447942D01*
X95965542Y-113466990D01*
X95956019Y-113476514D01*
X95936971Y-113486038D01*
X95860780Y-113486038D01*
X96156019Y-113381276D02*
X96060780Y-113381276D01*
X96051257Y-113476514D01*
X96060780Y-113466990D01*
X96079828Y-113457466D01*
X96127447Y-113457466D01*
X96146495Y-113466990D01*
X96156019Y-113476514D01*
X96165542Y-113495561D01*
X96165542Y-113543180D01*
X96156019Y-113562228D01*
X96146495Y-113571752D01*
X96127447Y-113581276D01*
X96079828Y-113581276D01*
X96060780Y-113571752D01*
X96051257Y-113562228D01*
X95416266Y-113581276D02*
X95349600Y-113486038D01*
X95301980Y-113581276D02*
X95301980Y-113381276D01*
X95378171Y-113381276D01*
X95397219Y-113390800D01*
X95406742Y-113400323D01*
X95416266Y-113419371D01*
X95416266Y-113447942D01*
X95406742Y-113466990D01*
X95397219Y-113476514D01*
X95378171Y-113486038D01*
X95301980Y-113486038D01*
X95587695Y-113381276D02*
X95549600Y-113381276D01*
X95530552Y-113390800D01*
X95521028Y-113400323D01*
X95501980Y-113428895D01*
X95492457Y-113466990D01*
X95492457Y-113543180D01*
X95501980Y-113562228D01*
X95511504Y-113571752D01*
X95530552Y-113581276D01*
X95568647Y-113581276D01*
X95587695Y-113571752D01*
X95597219Y-113562228D01*
X95606742Y-113543180D01*
X95606742Y-113495561D01*
X95597219Y-113476514D01*
X95587695Y-113466990D01*
X95568647Y-113457466D01*
X95530552Y-113457466D01*
X95511504Y-113466990D01*
X95501980Y-113476514D01*
X95492457Y-113495561D01*
X96650706Y-113822576D02*
X96584040Y-113727338D01*
X96536420Y-113822576D02*
X96536420Y-113622576D01*
X96612611Y-113622576D01*
X96631659Y-113632100D01*
X96641182Y-113641623D01*
X96650706Y-113660671D01*
X96650706Y-113689242D01*
X96641182Y-113708290D01*
X96631659Y-113717814D01*
X96612611Y-113727338D01*
X96536420Y-113727338D01*
X96717373Y-113622576D02*
X96850706Y-113622576D01*
X96764992Y-113822576D01*
X117719548Y-109603636D02*
X117652881Y-109508398D01*
X117605262Y-109603636D02*
X117605262Y-109403636D01*
X117681453Y-109403636D01*
X117700500Y-109413160D01*
X117710024Y-109422683D01*
X117719548Y-109441731D01*
X117719548Y-109470302D01*
X117710024Y-109489350D01*
X117700500Y-109498874D01*
X117681453Y-109508398D01*
X117605262Y-109508398D01*
X117910024Y-109603636D02*
X117795739Y-109603636D01*
X117852881Y-109603636D02*
X117852881Y-109403636D01*
X117833834Y-109432207D01*
X117814786Y-109451255D01*
X117795739Y-109460779D01*
X118024310Y-109489350D02*
X118005262Y-109479826D01*
X117995739Y-109470302D01*
X117986215Y-109451255D01*
X117986215Y-109441731D01*
X117995739Y-109422683D01*
X118005262Y-109413160D01*
X118024310Y-109403636D01*
X118062405Y-109403636D01*
X118081453Y-109413160D01*
X118090977Y-109422683D01*
X118100500Y-109441731D01*
X118100500Y-109451255D01*
X118090977Y-109470302D01*
X118081453Y-109479826D01*
X118062405Y-109489350D01*
X118024310Y-109489350D01*
X118005262Y-109498874D01*
X117995739Y-109508398D01*
X117986215Y-109527445D01*
X117986215Y-109565540D01*
X117995739Y-109584588D01*
X118005262Y-109594112D01*
X118024310Y-109603636D01*
X118062405Y-109603636D01*
X118081453Y-109594112D01*
X118090977Y-109584588D01*
X118100500Y-109565540D01*
X118100500Y-109527445D01*
X118090977Y-109508398D01*
X118081453Y-109498874D01*
X118062405Y-109489350D01*
X120063968Y-112649096D02*
X119997301Y-112553858D01*
X119949682Y-112649096D02*
X119949682Y-112449096D01*
X120025873Y-112449096D01*
X120044920Y-112458620D01*
X120054444Y-112468143D01*
X120063968Y-112487191D01*
X120063968Y-112515762D01*
X120054444Y-112534810D01*
X120044920Y-112544334D01*
X120025873Y-112553858D01*
X119949682Y-112553858D01*
X120254444Y-112649096D02*
X120140159Y-112649096D01*
X120197301Y-112649096D02*
X120197301Y-112449096D01*
X120178254Y-112477667D01*
X120159206Y-112496715D01*
X120140159Y-112506239D01*
X120349682Y-112649096D02*
X120387778Y-112649096D01*
X120406825Y-112639572D01*
X120416349Y-112630048D01*
X120435397Y-112601477D01*
X120444920Y-112563381D01*
X120444920Y-112487191D01*
X120435397Y-112468143D01*
X120425873Y-112458620D01*
X120406825Y-112449096D01*
X120368730Y-112449096D01*
X120349682Y-112458620D01*
X120340159Y-112468143D01*
X120330635Y-112487191D01*
X120330635Y-112534810D01*
X120340159Y-112553858D01*
X120349682Y-112563381D01*
X120368730Y-112572905D01*
X120406825Y-112572905D01*
X120425873Y-112563381D01*
X120435397Y-112553858D01*
X120444920Y-112534810D01*
X120683728Y-112649096D02*
X120617061Y-112553858D01*
X120569442Y-112649096D02*
X120569442Y-112449096D01*
X120645633Y-112449096D01*
X120664680Y-112458620D01*
X120674204Y-112468143D01*
X120683728Y-112487191D01*
X120683728Y-112515762D01*
X120674204Y-112534810D01*
X120664680Y-112544334D01*
X120645633Y-112553858D01*
X120569442Y-112553858D01*
X120759919Y-112468143D02*
X120769442Y-112458620D01*
X120788490Y-112449096D01*
X120836109Y-112449096D01*
X120855157Y-112458620D01*
X120864680Y-112468143D01*
X120874204Y-112487191D01*
X120874204Y-112506239D01*
X120864680Y-112534810D01*
X120750395Y-112649096D01*
X120874204Y-112649096D01*
X120998014Y-112449096D02*
X121017061Y-112449096D01*
X121036109Y-112458620D01*
X121045633Y-112468143D01*
X121055157Y-112487191D01*
X121064680Y-112525286D01*
X121064680Y-112572905D01*
X121055157Y-112611000D01*
X121045633Y-112630048D01*
X121036109Y-112639572D01*
X121017061Y-112649096D01*
X120998014Y-112649096D01*
X120978966Y-112639572D01*
X120969442Y-112630048D01*
X120959919Y-112611000D01*
X120950395Y-112572905D01*
X120950395Y-112525286D01*
X120959919Y-112487191D01*
X120969442Y-112468143D01*
X120978966Y-112458620D01*
X120998014Y-112449096D01*
X120063968Y-111043816D02*
X119997301Y-110948578D01*
X119949682Y-111043816D02*
X119949682Y-110843816D01*
X120025873Y-110843816D01*
X120044920Y-110853340D01*
X120054444Y-110862863D01*
X120063968Y-110881911D01*
X120063968Y-110910482D01*
X120054444Y-110929530D01*
X120044920Y-110939054D01*
X120025873Y-110948578D01*
X119949682Y-110948578D01*
X120140159Y-110862863D02*
X120149682Y-110853340D01*
X120168730Y-110843816D01*
X120216349Y-110843816D01*
X120235397Y-110853340D01*
X120244920Y-110862863D01*
X120254444Y-110881911D01*
X120254444Y-110900959D01*
X120244920Y-110929530D01*
X120130635Y-111043816D01*
X120254444Y-111043816D01*
X120444920Y-111043816D02*
X120330635Y-111043816D01*
X120387778Y-111043816D02*
X120387778Y-110843816D01*
X120368730Y-110872387D01*
X120349682Y-110891435D01*
X120330635Y-110900959D01*
X120673568Y-111043816D02*
X120606901Y-110948578D01*
X120559282Y-111043816D02*
X120559282Y-110843816D01*
X120635473Y-110843816D01*
X120654520Y-110853340D01*
X120664044Y-110862863D01*
X120673568Y-110881911D01*
X120673568Y-110910482D01*
X120664044Y-110929530D01*
X120654520Y-110939054D01*
X120635473Y-110948578D01*
X120559282Y-110948578D01*
X120749759Y-110862863D02*
X120759282Y-110853340D01*
X120778330Y-110843816D01*
X120825949Y-110843816D01*
X120844997Y-110853340D01*
X120854520Y-110862863D01*
X120864044Y-110881911D01*
X120864044Y-110900959D01*
X120854520Y-110929530D01*
X120740235Y-111043816D01*
X120864044Y-111043816D01*
X120940235Y-110862863D02*
X120949759Y-110853340D01*
X120968806Y-110843816D01*
X121016425Y-110843816D01*
X121035473Y-110853340D01*
X121044997Y-110862863D01*
X121054520Y-110881911D01*
X121054520Y-110900959D01*
X121044997Y-110929530D01*
X120930711Y-111043816D01*
X121054520Y-111043816D01*
X119516919Y-115917236D02*
X119516919Y-116079140D01*
X119526442Y-116098188D01*
X119535966Y-116107712D01*
X119555014Y-116117236D01*
X119593109Y-116117236D01*
X119612157Y-116107712D01*
X119621680Y-116098188D01*
X119631204Y-116079140D01*
X119631204Y-115917236D01*
X119821680Y-115917236D02*
X119726442Y-115917236D01*
X119716919Y-116012474D01*
X119726442Y-116002950D01*
X119745490Y-115993426D01*
X119793109Y-115993426D01*
X119812157Y-116002950D01*
X119821680Y-116012474D01*
X119831204Y-116031521D01*
X119831204Y-116079140D01*
X119821680Y-116098188D01*
X119812157Y-116107712D01*
X119793109Y-116117236D01*
X119745490Y-116117236D01*
X119726442Y-116107712D01*
X119716919Y-116098188D01*
X119519459Y-107343696D02*
X119519459Y-107505600D01*
X119528982Y-107524648D01*
X119538506Y-107534172D01*
X119557554Y-107543696D01*
X119595649Y-107543696D01*
X119614697Y-107534172D01*
X119624220Y-107524648D01*
X119633744Y-107505600D01*
X119633744Y-107343696D01*
X119709935Y-107343696D02*
X119843268Y-107343696D01*
X119757554Y-107543696D01*
X118269779Y-111923316D02*
X118269779Y-112085220D01*
X118279302Y-112104268D01*
X118288826Y-112113792D01*
X118307874Y-112123316D01*
X118345969Y-112123316D01*
X118365017Y-112113792D01*
X118374540Y-112104268D01*
X118384064Y-112085220D01*
X118384064Y-111923316D01*
X118507874Y-112009030D02*
X118488826Y-111999506D01*
X118479302Y-111989982D01*
X118469779Y-111970935D01*
X118469779Y-111961411D01*
X118479302Y-111942363D01*
X118488826Y-111932840D01*
X118507874Y-111923316D01*
X118545969Y-111923316D01*
X118565017Y-111932840D01*
X118574540Y-111942363D01*
X118584064Y-111961411D01*
X118584064Y-111970935D01*
X118574540Y-111989982D01*
X118565017Y-111999506D01*
X118545969Y-112009030D01*
X118507874Y-112009030D01*
X118488826Y-112018554D01*
X118479302Y-112028078D01*
X118469779Y-112047125D01*
X118469779Y-112085220D01*
X118479302Y-112104268D01*
X118488826Y-112113792D01*
X118507874Y-112123316D01*
X118545969Y-112123316D01*
X118565017Y-112113792D01*
X118574540Y-112104268D01*
X118584064Y-112085220D01*
X118584064Y-112047125D01*
X118574540Y-112028078D01*
X118565017Y-112018554D01*
X118545969Y-112009030D01*
X90618080Y-115629176D02*
X90618080Y-115791080D01*
X90627604Y-115810128D01*
X90637128Y-115819652D01*
X90656176Y-115829176D01*
X90694271Y-115829176D01*
X90713319Y-115819652D01*
X90722842Y-115810128D01*
X90732366Y-115791080D01*
X90732366Y-115629176D01*
X90932366Y-115829176D02*
X90818080Y-115829176D01*
X90875223Y-115829176D02*
X90875223Y-115629176D01*
X90856176Y-115657747D01*
X90837128Y-115676795D01*
X90818080Y-115686319D01*
X91056176Y-115629176D02*
X91075223Y-115629176D01*
X91094271Y-115638700D01*
X91103795Y-115648223D01*
X91113319Y-115667271D01*
X91122842Y-115705366D01*
X91122842Y-115752985D01*
X91113319Y-115791080D01*
X91103795Y-115810128D01*
X91094271Y-115819652D01*
X91075223Y-115829176D01*
X91056176Y-115829176D01*
X91037128Y-115819652D01*
X91027604Y-115810128D01*
X91018080Y-115791080D01*
X91008557Y-115752985D01*
X91008557Y-115705366D01*
X91018080Y-115667271D01*
X91027604Y-115648223D01*
X91037128Y-115638700D01*
X91056176Y-115629176D01*
X121283168Y-111024768D02*
X121273644Y-111034292D01*
X121245073Y-111043816D01*
X121226025Y-111043816D01*
X121197454Y-111034292D01*
X121178406Y-111015244D01*
X121168882Y-110996197D01*
X121159359Y-110958101D01*
X121159359Y-110929530D01*
X121168882Y-110891435D01*
X121178406Y-110872387D01*
X121197454Y-110853340D01*
X121226025Y-110843816D01*
X121245073Y-110843816D01*
X121273644Y-110853340D01*
X121283168Y-110862863D01*
X121464120Y-110843816D02*
X121368882Y-110843816D01*
X121359359Y-110939054D01*
X121368882Y-110929530D01*
X121387930Y-110920006D01*
X121435549Y-110920006D01*
X121454597Y-110929530D01*
X121464120Y-110939054D01*
X121473644Y-110958101D01*
X121473644Y-111005720D01*
X121464120Y-111024768D01*
X121454597Y-111034292D01*
X121435549Y-111043816D01*
X121387930Y-111043816D01*
X121368882Y-111034292D01*
X121359359Y-111024768D01*
X121540311Y-110843816D02*
X121664120Y-110843816D01*
X121597454Y-110920006D01*
X121626025Y-110920006D01*
X121645073Y-110929530D01*
X121654597Y-110939054D01*
X121664120Y-110958101D01*
X121664120Y-111005720D01*
X121654597Y-111024768D01*
X121645073Y-111034292D01*
X121626025Y-111043816D01*
X121568882Y-111043816D01*
X121549835Y-111034292D01*
X121540311Y-111024768D01*
X117658588Y-116117236D02*
X117591921Y-116021998D01*
X117544302Y-116117236D02*
X117544302Y-115917236D01*
X117620493Y-115917236D01*
X117639540Y-115926760D01*
X117649064Y-115936283D01*
X117658588Y-115955331D01*
X117658588Y-115983902D01*
X117649064Y-116002950D01*
X117639540Y-116012474D01*
X117620493Y-116021998D01*
X117544302Y-116021998D01*
X117849064Y-116117236D02*
X117734779Y-116117236D01*
X117791921Y-116117236D02*
X117791921Y-115917236D01*
X117772874Y-115945807D01*
X117753826Y-115964855D01*
X117734779Y-115974379D01*
X118020493Y-115917236D02*
X117982398Y-115917236D01*
X117963350Y-115926760D01*
X117953826Y-115936283D01*
X117934779Y-115964855D01*
X117925255Y-116002950D01*
X117925255Y-116079140D01*
X117934779Y-116098188D01*
X117944302Y-116107712D01*
X117963350Y-116117236D01*
X118001445Y-116117236D01*
X118020493Y-116107712D01*
X118030017Y-116098188D01*
X118039540Y-116079140D01*
X118039540Y-116031521D01*
X118030017Y-116012474D01*
X118020493Y-116002950D01*
X118001445Y-115993426D01*
X117963350Y-115993426D01*
X117944302Y-116002950D01*
X117934779Y-116012474D01*
X117925255Y-116031521D01*
M02*
