G04 #@! TF.GenerationSoftware,KiCad,Pcbnew,(5.1.12)-1*
G04 #@! TF.CreationDate,2024-10-20T15:32:40+08:00*
G04 #@! TF.ProjectId,Kicad_LFOV_RigidFlex_Assembly_Screwhole2,4b696361-645f-44c4-964f-565f52696769,rev?*
G04 #@! TF.SameCoordinates,Original*
G04 #@! TF.FileFunction,Paste,Bot*
G04 #@! TF.FilePolarity,Positive*
%FSLAX46Y46*%
G04 Gerber Fmt 4.6, Leading zero omitted, Abs format (unit mm)*
G04 Created by KiCad (PCBNEW (5.1.12)-1) date 2024-10-20 15:32:40*
%MOMM*%
%LPD*%
G01*
G04 APERTURE LIST*
%ADD10R,0.740000X0.500000*%
%ADD11R,0.500000X0.740000*%
%ADD12R,0.500000X1.248000*%
%ADD13R,0.600000X0.950000*%
%ADD14R,0.660000X0.260000*%
%ADD15R,0.800000X1.700000*%
%ADD16R,0.560000X0.260000*%
%ADD17R,2.120000X1.090000*%
%ADD18R,0.340000X0.310000*%
%ADD19R,2.620000X0.870000*%
%ADD20R,0.630000X0.580000*%
%ADD21R,0.310000X0.340000*%
%ADD22R,0.540000X1.060000*%
%ADD23R,1.500000X0.450000*%
G04 APERTURE END LIST*
D10*
X98895000Y-115584000D03*
X98895000Y-114884000D03*
X98895000Y-114184000D03*
X98895000Y-113484000D03*
X98895000Y-112784000D03*
X98895000Y-112084000D03*
X98895000Y-111384000D03*
X98895000Y-110684000D03*
X98895000Y-109984000D03*
X98895000Y-109284000D03*
X98895000Y-108584000D03*
X98895000Y-107884000D03*
D11*
X98160000Y-107149000D03*
X97460000Y-107149000D03*
X96760000Y-107149000D03*
X96060000Y-107149000D03*
X95360000Y-107149000D03*
D12*
X94660000Y-107403000D03*
D11*
X93960000Y-107149000D03*
X93260000Y-107149000D03*
X92560000Y-107149000D03*
X91860000Y-107149000D03*
X91160000Y-107149000D03*
X90460000Y-107149000D03*
D10*
X89725000Y-107884000D03*
X89725000Y-108584000D03*
X89725000Y-109284000D03*
X89725000Y-109984000D03*
X89725000Y-110684000D03*
X89725000Y-111384000D03*
X89725000Y-112084000D03*
X89725000Y-112784000D03*
X89725000Y-113484000D03*
X89725000Y-114184000D03*
X89725000Y-114884000D03*
X89725000Y-115584000D03*
D11*
X90460000Y-116319000D03*
X91160000Y-116319000D03*
X91860000Y-116319000D03*
X92560000Y-116319000D03*
X93260000Y-116319000D03*
X93960000Y-116319000D03*
X94660000Y-116319000D03*
X95360000Y-116319000D03*
X96060000Y-116319000D03*
X96760000Y-116319000D03*
X97460000Y-116319000D03*
X98160000Y-116319000D03*
D13*
X107756600Y-111611400D03*
X106956600Y-111611400D03*
X107756600Y-110461400D03*
X106956600Y-110461400D03*
D14*
X108786600Y-112036400D03*
X108786600Y-111536400D03*
X108786600Y-111036400D03*
X108786600Y-110536400D03*
X108786600Y-110036400D03*
X105926600Y-110036400D03*
X105926600Y-110536400D03*
X105926600Y-111036400D03*
X105926600Y-111536400D03*
X105926600Y-112036400D03*
D15*
X107864600Y-113922600D03*
D16*
X108744600Y-114422600D03*
X108744600Y-113922600D03*
X108744600Y-113422600D03*
X106984600Y-113422600D03*
X106984600Y-113922600D03*
X106984600Y-114422600D03*
D17*
X110404600Y-115378800D03*
X110404600Y-113348800D03*
G36*
G01*
X108027600Y-115327400D02*
X108027600Y-115667400D01*
G75*
G02*
X107882600Y-115812400I-145000J0D01*
G01*
X107592600Y-115812400D01*
G75*
G02*
X107447600Y-115667400I0J145000D01*
G01*
X107447600Y-115327400D01*
G75*
G02*
X107592600Y-115182400I145000J0D01*
G01*
X107882600Y-115182400D01*
G75*
G02*
X108027600Y-115327400I0J-145000D01*
G01*
G37*
G36*
G01*
X108917600Y-115327400D02*
X108917600Y-115667400D01*
G75*
G02*
X108772600Y-115812400I-145000J0D01*
G01*
X108482600Y-115812400D01*
G75*
G02*
X108337600Y-115667400I0J145000D01*
G01*
X108337600Y-115327400D01*
G75*
G02*
X108482600Y-115182400I145000J0D01*
G01*
X108772600Y-115182400D01*
G75*
G02*
X108917600Y-115327400I0J-145000D01*
G01*
G37*
G36*
G01*
X104967900Y-111918400D02*
X105152900Y-111918400D01*
G75*
G02*
X105230400Y-111995900I0J-77500D01*
G01*
X105230400Y-112150900D01*
G75*
G02*
X105152900Y-112228400I-77500J0D01*
G01*
X104967900Y-112228400D01*
G75*
G02*
X104890400Y-112150900I0J77500D01*
G01*
X104890400Y-111995900D01*
G75*
G02*
X104967900Y-111918400I77500J0D01*
G01*
G37*
G36*
G01*
X104967900Y-111368400D02*
X105152900Y-111368400D01*
G75*
G02*
X105230400Y-111445900I0J-77500D01*
G01*
X105230400Y-111600900D01*
G75*
G02*
X105152900Y-111678400I-77500J0D01*
G01*
X104967900Y-111678400D01*
G75*
G02*
X104890400Y-111600900I0J77500D01*
G01*
X104890400Y-111445900D01*
G75*
G02*
X104967900Y-111368400I77500J0D01*
G01*
G37*
G36*
G01*
X105178300Y-110586200D02*
X104993300Y-110586200D01*
G75*
G02*
X104915800Y-110508700I0J77500D01*
G01*
X104915800Y-110353700D01*
G75*
G02*
X104993300Y-110276200I77500J0D01*
G01*
X105178300Y-110276200D01*
G75*
G02*
X105255800Y-110353700I0J-77500D01*
G01*
X105255800Y-110508700D01*
G75*
G02*
X105178300Y-110586200I-77500J0D01*
G01*
G37*
G36*
G01*
X105178300Y-111136200D02*
X104993300Y-111136200D01*
G75*
G02*
X104915800Y-111058700I0J77500D01*
G01*
X104915800Y-110903700D01*
G75*
G02*
X104993300Y-110826200I77500J0D01*
G01*
X105178300Y-110826200D01*
G75*
G02*
X105255800Y-110903700I0J-77500D01*
G01*
X105255800Y-111058700D01*
G75*
G02*
X105178300Y-111136200I-77500J0D01*
G01*
G37*
G36*
G01*
X109709700Y-111440400D02*
X109524700Y-111440400D01*
G75*
G02*
X109447200Y-111362900I0J77500D01*
G01*
X109447200Y-111207900D01*
G75*
G02*
X109524700Y-111130400I77500J0D01*
G01*
X109709700Y-111130400D01*
G75*
G02*
X109787200Y-111207900I0J-77500D01*
G01*
X109787200Y-111362900D01*
G75*
G02*
X109709700Y-111440400I-77500J0D01*
G01*
G37*
G36*
G01*
X109709700Y-111990400D02*
X109524700Y-111990400D01*
G75*
G02*
X109447200Y-111912900I0J77500D01*
G01*
X109447200Y-111757900D01*
G75*
G02*
X109524700Y-111680400I77500J0D01*
G01*
X109709700Y-111680400D01*
G75*
G02*
X109787200Y-111757900I0J-77500D01*
G01*
X109787200Y-111912900D01*
G75*
G02*
X109709700Y-111990400I-77500J0D01*
G01*
G37*
G36*
G01*
X106820800Y-108448200D02*
X107160800Y-108448200D01*
G75*
G02*
X107305800Y-108593200I0J-145000D01*
G01*
X107305800Y-108883200D01*
G75*
G02*
X107160800Y-109028200I-145000J0D01*
G01*
X106820800Y-109028200D01*
G75*
G02*
X106675800Y-108883200I0J145000D01*
G01*
X106675800Y-108593200D01*
G75*
G02*
X106820800Y-108448200I145000J0D01*
G01*
G37*
G36*
G01*
X106820800Y-107558200D02*
X107160800Y-107558200D01*
G75*
G02*
X107305800Y-107703200I0J-145000D01*
G01*
X107305800Y-107993200D01*
G75*
G02*
X107160800Y-108138200I-145000J0D01*
G01*
X106820800Y-108138200D01*
G75*
G02*
X106675800Y-107993200I0J145000D01*
G01*
X106675800Y-107703200D01*
G75*
G02*
X106820800Y-107558200I145000J0D01*
G01*
G37*
G36*
G01*
X109571700Y-109332600D02*
X109916700Y-109332600D01*
G75*
G02*
X110064200Y-109480100I0J-147500D01*
G01*
X110064200Y-109775100D01*
G75*
G02*
X109916700Y-109922600I-147500J0D01*
G01*
X109571700Y-109922600D01*
G75*
G02*
X109424200Y-109775100I0J147500D01*
G01*
X109424200Y-109480100D01*
G75*
G02*
X109571700Y-109332600I147500J0D01*
G01*
G37*
G36*
G01*
X109571700Y-110302600D02*
X109916700Y-110302600D01*
G75*
G02*
X110064200Y-110450100I0J-147500D01*
G01*
X110064200Y-110745100D01*
G75*
G02*
X109916700Y-110892600I-147500J0D01*
G01*
X109571700Y-110892600D01*
G75*
G02*
X109424200Y-110745100I0J147500D01*
G01*
X109424200Y-110450100D01*
G75*
G02*
X109571700Y-110302600I147500J0D01*
G01*
G37*
D18*
X109922000Y-107678600D03*
X109922000Y-108228600D03*
D19*
X111649200Y-107952600D03*
X111649200Y-111002600D03*
D20*
X105220480Y-108721100D03*
X105220480Y-107831100D03*
X106109480Y-107831100D03*
X106109480Y-108721100D03*
D21*
X105750600Y-113246200D03*
X106300600Y-113246200D03*
X105750600Y-113830400D03*
X106300600Y-113830400D03*
D18*
X105060400Y-113301400D03*
X105060400Y-113851400D03*
D21*
X105750600Y-114414600D03*
X106300600Y-114414600D03*
D22*
X112258800Y-113375200D03*
X112258800Y-115435200D03*
D23*
X119329780Y-112134900D03*
X119329780Y-112834900D03*
X119329780Y-110657660D03*
X119329780Y-111357660D03*
D21*
X105735400Y-115014800D03*
X106285400Y-115014800D03*
D18*
X105060400Y-114393600D03*
X105060400Y-114943600D03*
M02*
